<?xml version="1.0" encoding="utf-8" ?>
<!-- Generator: Adobe Illustrator 27.4.1, SVG Export Plug-In . SVG Version: 6.00 Build 0) -->
<svg version="1.1"
     id="Layer_1"
     xmlns="http://www.w3.org/2000/svg"
     xmlns:xlink="http://www.w3.org/1999/xlink"
     x="0px"
     y="0px"
     viewBox="0 0 104.2 34.3"
     style="enable-background:new 0 0 104.2 34.3;"
     xml:space="preserve">
    <style type="text/css">
    .st0 {
      enable-background: new;
    }

    .st1 {
      fill: #000;
    }

    .st2 {
      opacity: 0.71;
      fill: #EE2A7B;
      enable-background: new;
    }

    .st3 {
      opacity: 0.71;
      fill: #00A79D;
      enable-background: new;
    }
  </style>
    <g>
        <g id="Layer_2_00000030485552534491719030000013764342298421827511_">
            <g id="Layer_1-2">
                <g class="st0">
                    <path class="st1"
                          d="M64.9,7.7l-0.4,2h-0.1c-1.7-2-4.6-2.8-8.1-2.8c-6.5,0-11.2,4.7-11.2,11.1c0,4.9,3.4,8.1,8.8,8.1&#xA;&#x9;&#x9;&#x9;&#x9;&#x9;c2.5,0,4.2-0.5,6-1.6l1.2-6h-7.5l0.3-1.6h9.2l-1.6,8.6c-2.4,1.6-4.3,2.4-7.7,2.4c-6.4,0-10.5-3.8-10.5-9.6&#xA;&#x9;&#x9;&#x9;&#x9;&#x9;c0-7.5,5.4-12.9,13-12.9C59.9,5.2,63.1,6,64.9,7.7z" />
                    <path class="st1"
                          d="M68.6,12h1.7l-3,15.3h-1.7L68.6,12z M71.6,7c0,0.7-0.6,1.4-1.3,1.4c-0.7,0-1.1-0.5-1.1-1.1&#xA;&#x9;&#x9;&#x9;&#x9;&#x9;c0-0.8,0.6-1.4,1.3-1.4C71.2,5.9,71.6,6.4,71.6,7z" />
                </g>
                <g class="st0">
                    <path class="st1"
                          d="M84.9,4.7l-0.3,1.6h-0.1c-0.5-0.4-1.3-0.7-2.3-0.7c-2.1,0-3.5,1.2-4,3.6L77.6,12H83l-0.3,1.5h-5.4&#xA;&#x9;&#x9;&#x9;&#x9;&#x9;l-2.7,13.8H73l2.7-13.8h-3.1l0.3-1.5H76l0.6-3.1C77.1,5.8,79.1,4,82,4C83.3,4,84.3,4.3,84.9,4.7z" />
                </g>
                <g class="st0">
                    <path class="st1"
                          d="M84.2,22.8c-0.1,0.4-0.1,0.7-0.1,1c0,1.5,0.9,2.4,2.4,2.4c0.9,0,1.9-0.3,2.5-0.9h0.1l-0.4,1.9&#xA;&#x9;&#x9;&#x9;&#x9;&#x9;c-0.6,0.3-1.3,0.5-2.4,0.5c-2.6,0-3.9-1.3-3.9-3.6c0-0.4,0-0.9,0.1-1.3l1.8-9.2h-3.1l0.3-1.5h3.1L85.8,8h1.3L86.3,12h5.4&#xA;&#x9;&#x9;&#x9;&#x9;&#x9;l-0.3,1.5H86L84.2,22.8z" />
                    <path class="st1"
                          d="M104.2,12.3l-0.4,1.7h-0.1c-0.6-0.6-1.2-0.8-2.1-0.8c-3.2,0-5.3,2.3-6.2,6.8L94,27.4h-1.7l3-15.3h1.5&#xA;&#x9;&#x9;&#x9;&#x9;&#x9;l-0.5,2.9h0.1c1.3-2.1,3.1-3.2,5.5-3.2C102.9,11.7,103.8,12,104.2,12.3z" />
                </g>
                <path class="st2"
                      d="M24.1,29.5c6.3-1.8,10.9-8,10.4-14.8C34,7.9,25.8,5.5,20.3,7.2c-4.9,1.9-9,6.4-8.6,12&#xA;&#x9;&#x9;&#x9;&#x9;c0.4,3.8,2.7,7.6,6.5,9.6C20.2,29.7,22.2,29.9,24.1,29.5L24.1,29.5z" />
                <path class="st3"
                      d="M7.6,5C3,5.6-2,11,0.8,15.1c3.7,5,8.3,7.2,11,13.1c2.1,4.4,6.7-1.8,8.4-4.8c2.9-6.2,0.2-13.9-5.8-17.1&#xA;&#x9;&#x9;&#x9;&#x9;C12.4,5.1,10,4.7,7.6,5z" />
            </g>
        </g>
    </g>
</svg>