<svg xmlns="http://www.w3.org/2000/svg"
     viewBox="0 0 525.12 79">
    <defs>
        <style>.cls-1{fill:#fff;}</style>
    </defs>
    <g id="Layer_2"
       data-name="Layer 2">
        <g id="Layer_1-2"
           data-name="Layer 1">
            <path class="cls-1"
                  d="M6,46.22a6.11,6.11,0,0,1-3.2-.81A5.66,5.66,0,0,1,.74,43.12,7.55,7.55,0,0,1,0,39.7a7.41,7.41,0,0,1,.74-3.38A5.53,5.53,0,0,1,2.81,34,6,6,0,0,1,6,33.18a5.55,5.55,0,0,1,3.51,1,4.59,4.59,0,0,1,1.75,2.88H9.59a3.25,3.25,0,0,0-1.18-1.87A3.69,3.69,0,0,0,6,34.52a4.38,4.38,0,0,0-2.36.63,4,4,0,0,0-1.56,1.78,6.49,6.49,0,0,0-.54,2.77,6.61,6.61,0,0,0,.54,2.79,4.18,4.18,0,0,0,1.56,1.78A4.46,4.46,0,0,0,6,44.88a3.8,3.8,0,0,0,2.4-.68,3.29,3.29,0,0,0,1.18-1.85h1.68a4.57,4.57,0,0,1-1.75,2.84A5.67,5.67,0,0,1,6,46.22ZM12.35,46,17,33.4H18.6L23.22,46h-1.6l-1.15-3.24H15.1L13.93,46Zm3.2-4.46H20l-2.23-6.23ZM25.1,46V33.4h1.51l6.71,10.1V33.4h1.51V46H33.32L26.61,35.9V46Zm11.61,0,4.65-12.6H43L47.59,46H46l-1.15-3.24H39.47L38.3,46Zm3.21-4.46h4.46l-2.23-6.23ZM49.46,46V33.4h3.87q3.33,0,4.89,1.69a6.53,6.53,0,0,1,1.59,4.65,6.44,6.44,0,0,1-1.59,4.59Q56.66,46,53.33,46ZM51,44.74h2.32a6.14,6.14,0,0,0,2.92-.59,3.49,3.49,0,0,0,1.56-1.73,6.87,6.87,0,0,0,.47-2.68A6.94,6.94,0,0,0,57.77,37a3.46,3.46,0,0,0-1.56-1.75,5.9,5.9,0,0,0-2.92-.61H51ZM62,46V33.4H63.5V46Zm3.39,0L70,33.4h1.6L76.26,46H74.65L73.5,42.76H68.14L67,46Zm3.21-4.46h4.46l-2.23-6.23ZM78.13,46V33.4h1.51l6.71,10.1V33.4h1.52V46H86.35L79.64,35.9V46Zm18.41,0V33.4h1.51V46Zm4.18,0V33.4h1.51L109,43.5V33.4h1.51V46H109l-6.72-10.1V46Zm15.36,0V34.64h-3.76V33.4h9v1.24H117.6V46Zm7.12,0V33.4H131v1.24h-6.28V39h5.74v1.23h-5.74v4.5H131V46Zm10.16,0V33.4h4.07a5.11,5.11,0,0,1,2.41.49,3.09,3.09,0,0,1,1.39,1.33,3.92,3.92,0,0,1,.45,1.87,3.73,3.73,0,0,1-.65,2.14,3.38,3.38,0,0,1-2,1.35L141.81,46H140l-2.55-5.2h-2.59V46Zm1.52-6.39h2.44a2.82,2.82,0,0,0,2.13-.7,2.53,2.53,0,0,0,.66-1.8,2.38,2.38,0,0,0-.66-1.77,2.92,2.92,0,0,0-2.14-.66h-2.43ZM144,46V33.4h1.52l6.71,10.1V33.4h1.51V46h-1.51l-6.71-10.1V46Zm11.62,0,4.65-12.6h1.6L166.52,46h-1.6l-1.15-3.24h-5.36L157.24,46Zm3.21-4.46h4.46l-2.23-6.23ZM169.93,46V34.64h-3.77V33.4h9v1.24h-3.76V46Zm7.12,0V33.4h1.51V46Zm9.9.22a6.37,6.37,0,0,1-3.25-.81,5.85,5.85,0,0,1-2.18-2.31,7.17,7.17,0,0,1-.78-3.4,7.06,7.06,0,0,1,.78-3.38A5.78,5.78,0,0,1,183.7,34a6.8,6.8,0,0,1,6.51,0,5.65,5.65,0,0,1,2.18,2.31,7.05,7.05,0,0,1,.77,3.38,7.16,7.16,0,0,1-.77,3.4,5.71,5.71,0,0,1-2.18,2.31A6.33,6.33,0,0,1,187,46.22Zm0-1.34a4.67,4.67,0,0,0,2.43-.61A4.16,4.16,0,0,0,191,42.49a6,6,0,0,0,.6-2.79,5.93,5.93,0,0,0-.6-2.77,4.08,4.08,0,0,0-1.64-1.77,4.58,4.58,0,0,0-2.43-.63,4.67,4.67,0,0,0-2.44.63,4.2,4.2,0,0,0-1.64,1.77,6.06,6.06,0,0,0-.58,2.77,6.18,6.18,0,0,0,.58,2.79,4.28,4.28,0,0,0,1.64,1.78A4.75,4.75,0,0,0,187,44.88Zm8.4,1.12V33.4h1.51l6.71,10.1V33.4h1.51V46h-1.51l-6.71-10.1V46ZM207,46l4.65-12.6h1.6L217.84,46h-1.61l-1.15-3.24h-5.36L208.55,46Zm3.21-4.46h4.46l-2.23-6.23ZM219.71,46V33.4h1.51V44.79h5.87V46ZM90.58,69V57.64H86.82V56.4h9v1.24H92.09V69Zm7.12,0V56.4h4.07a5.17,5.17,0,0,1,2.41.49,3.12,3.12,0,0,1,1.38,1.33,3.92,3.92,0,0,1,.45,1.87,3.72,3.72,0,0,1-.64,2.14,3.38,3.38,0,0,1-2,1.35L106.14,69h-1.78l-2.56-5.2H99.21V69Zm1.51-6.39h2.45a2.79,2.79,0,0,0,2.12-.7,2.49,2.49,0,0,0,.67-1.8,2.34,2.34,0,0,0-.67-1.77,2.9,2.9,0,0,0-2.14-.66H99.21ZM107.58,69l4.64-12.6h1.6L118.45,69h-1.6l-1.16-3.24h-5.36L109.16,69Zm3.2-4.46h4.46L113,58.31ZM120.32,69V56.4h3.87q3.33,0,4.9,1.69a6.57,6.57,0,0,1,1.58,4.65A5.7,5.7,0,0,1,124.19,69Zm1.51-1.26h2.33a6.13,6.13,0,0,0,2.91-.59,3.51,3.51,0,0,0,1.57-1.73,8,8,0,0,0,0-5.4,3.47,3.47,0,0,0-1.57-1.75,5.88,5.88,0,0,0-2.91-.61h-2.33Zm11,1.26V56.4h7.8v1.24h-6.28V62h5.74v1.23h-5.74v4.5h6.28V69Zm17.88,0V57.64H147V56.4h9v1.24h-3.76V69Zm7.12,0V56.4h4.07a5.14,5.14,0,0,1,2.41.49,3.09,3.09,0,0,1,1.39,1.33,3.92,3.92,0,0,1,.45,1.87,3.73,3.73,0,0,1-.65,2.14,3.38,3.38,0,0,1-2,1.35L166.29,69h-1.78L162,63.8h-2.6V69Zm1.51-6.39h2.45a2.83,2.83,0,0,0,2.13-.7,2.53,2.53,0,0,0,.66-1.8,2.38,2.38,0,0,0-.66-1.77,2.94,2.94,0,0,0-2.15-.66h-2.43ZM168.52,69V56.4H170V69Zm4.18,0V56.4h4.43a4.9,4.9,0,0,1,2.2.43A2.91,2.91,0,0,1,180.64,58a3.07,3.07,0,0,1,.43,1.62,2.71,2.71,0,0,1-.66,1.93,3.39,3.39,0,0,1-1.57,1,3,3,0,0,1,1.28.56,3.14,3.14,0,0,1,.9,1.08,3,3,0,0,1,.34,1.42,3.31,3.31,0,0,1-.47,1.75,3.35,3.35,0,0,1-1.38,1.24,5,5,0,0,1-2.23.45Zm1.52-7.09H177a2.77,2.77,0,0,0,1.86-.56,2,2,0,0,0,.65-1.58,1.94,1.94,0,0,0-.65-1.53,2.73,2.73,0,0,0-1.91-.58h-2.75Zm0,5.83h2.89a3,3,0,0,0,2-.59,2.37,2.37,0,0,0,0-3.39,3,3,0,0,0-2-.65h-2.86Zm13.87,1.48a5.37,5.37,0,0,1-2.36-.51,4,4,0,0,1-1.68-1.6,5.41,5.41,0,0,1-.63-2.75v-8h1.52v8a3.5,3.5,0,0,0,.88,2.67,3.23,3.23,0,0,0,2.3.83,3.19,3.19,0,0,0,2.29-.83,3.58,3.58,0,0,0,.86-2.67v-8h1.51v8a5.41,5.41,0,0,1-.63,2.75,3.94,3.94,0,0,1-1.69,1.6A5.42,5.42,0,0,1,188.09,69.22Zm7.26-.22V56.4h1.51l6.71,10.1V56.4h1.51V69h-1.51l-6.71-10.1V69ZM207,69l4.65-12.6h1.6L217.84,69h-1.61l-1.15-3.24h-5.36L208.55,69Zm3.21-4.46h4.46l-2.23-6.23ZM219.71,69V56.4h1.51V67.79h5.87V69Z" />
            <path class="cls-1"
                  d="M253.4,62.91l-.11.06,0,0a1,1,0,0,0-.31.75,1.88,1.88,0,0,0,1.88,1.91,4.18,4.18,0,0,1,0-.51,7,7,0,0,0-.53-.73,1.43,1.43,0,0,0,0-.35.6.6,0,0,1-.55,0l-.2-.47h0l.16.09A.93.93,0,0,1,253.4,62.91Z" />
            <path class="cls-1"
                  d="M259,65.17a1.37,1.37,0,0,0-.32-.28,2,2,0,0,1,.1.47Z" />
            <path class="cls-1"
                  d="M279.8,67.25v0a4,4,0,0,1-.2-.35l-.2.6a0,0,0,0,0,0,0A.29.29,0,0,0,279.8,67.25Z" />
            <path class="cls-1"
                  d="M275.93,68c.07.08.13.18.21.29.17.28.33.42.49.42s.35-.22.45-.36a.8.8,0,0,1-.47-.81s.23-1.19.3-1.55a.34.34,0,0,0,0-.1l-.56,0a2.13,2.13,0,0,1,.1.67A1.76,1.76,0,0,1,275.93,68Z" />
            <path class="cls-1"
                  d="M268.83,60.78c-.46.66-.24,1.18-.12,1.28s.15.09.2,0l.95-1.54a.13.13,0,0,0,0-.17C269.69,60.27,269.28,60.13,268.83,60.78Z" />
            <path class="cls-1"
                  d="M271.78,39.08l.92,1.26.13-1.25C272.46,39.07,272.1,39.07,271.78,39.08Z" />
            <path class="cls-1"
                  d="M267.67,60l-.12-.13h0l-.07,0-.19.18a1.53,1.53,0,0,1,.16.25l.23-.26S267.69,60,267.67,60Z" />
            <path class="cls-1"
                  d="M270.46,4.5a.33.33,0,0,0,.33.35.35.35,0,0,0-.19.32.36.36,0,0,0,.33.37.3.3,0,0,0,.18-.06l.1.4a.43.43,0,0,0-.3.42.4.4,0,0,0,.39.42l.11,0,.12.51a.41.41,0,0,0-.08.27.39.39,0,0,0,.25.38l-.09.41.37.39c-.38.15-.47,1.75.6,1.63l.49,0h4.24l.5,0c1.07.12,1-1.48.6-1.64l.37-.38-.1-.4a.4.4,0,0,0,.27-.39.46.46,0,0,0-.1-.27l.12-.5h.1a.4.4,0,0,0,.39-.42.43.43,0,0,0-.29-.41l.09-.41a.35.35,0,0,0,.17.06.37.37,0,0,0,.15-.69.33.33,0,0,0,.32-.35.35.35,0,0,0-.23-.35.37.37,0,0,0,.22-.33.34.34,0,0,0-.33-.37l-.11,0a.36.36,0,0,0,.15-.29.36.36,0,0,0-.33-.37A.29.29,0,0,0,279,3a.65.65,0,0,0,.05-.2.35.35,0,0,0-.33-.36.32.32,0,0,0-.3.22.37.37,0,0,0-.34-.42.33.33,0,0,0-.32.32.33.33,0,0,0-.32-.29.34.34,0,0,0-.33.35v.06a.31.31,0,0,0-.29-.2.36.36,0,0,0-.33.36s0,.06,0,.08a.28.28,0,0,0-.25-.13l-.7-1.1.62.24V.52l-.62.24.32-.76H274.5l.32.76-.61-.24V1.88l.62-.24-.71,1.09a.34.34,0,0,0-.27.13s0,0,0-.07a.35.35,0,0,0-.33-.36.29.29,0,0,0-.28.19V2.57a.36.36,0,0,0-.32-.37.32.32,0,0,0-.32.29.35.35,0,0,0-.33-.33.37.37,0,0,0-.33.42.32.32,0,0,0-.3-.21.35.35,0,0,0-.34.35.59.59,0,0,0,.05.2.25.25,0,0,0-.24-.14.35.35,0,0,0-.34.36.4.4,0,0,0,.15.3.35.35,0,0,0-.11,0,.35.35,0,0,0-.33.37.39.39,0,0,0,.22.34A.41.41,0,0,0,270.46,4.5Zm1.91,3.9-.25-.29.08-.35.52-.08.07.67Zm1.31-.18c-.27,0-.55-.08-.56-.26s.19-.34.52-.35.56.08.57.26S274,8.2,273.68,8.22Zm3.13,0c-.3,0-.54-.18-.52-.35s.26-.28.56-.26.53.19.53.36S277.08,8.23,276.81,8.21Zm1.28.2-.42-.05.07-.67.52.08.08.35Zm.79-3.15-.4-.06-.26,1.71c-.24.22-1,.32-.94-.47s.72-.22.34.07c.87,0,.5-1.56-.27-.92a1.07,1.07,0,0,0-.13-1.24,1,1,0,0,0-.38,1.19c-.65-.8-1.29.59-.45.83-.3-.41.42-.74.36,0s-.87.44-1,.25l0-2.64C277.25,2.81,279.62,2.23,278.88,5.26Zm-3,2.27v.64h-1.33V7.53ZM274.59,4V6.66c-.11.2-.92.49-1-.22s.67-.42.36,0c.84-.24.2-1.63-.45-.84a1,1,0,0,0-.37-1.18A1.05,1.05,0,0,0,273,5.65c-.77-.64-1.14.89-.28.93-.37-.3.24-.85.34-.08.06.53-.69.65-.94.44l-.26-1.71-.4.07C270.7,2.3,273.08,2.85,274.59,4Z" />
            <path class="cls-1"
                  d="M282.93,39.55a14.33,14.33,0,0,1,1.31,1.14V37.36a2.7,2.7,0,0,0-.36.76v1.29C283.57,39.46,283.24,39.52,282.93,39.55Z" />
            <path class="cls-1"
                  d="M267.64,31a1.4,1.4,0,0,1-.66-.15,3.34,3.34,0,0,0,0,.47,1.06,1.06,0,0,0,.63.14A4.17,4.17,0,0,0,267.64,31Z" />
            <path class="cls-1"
                  d="M258.76,28.4A25.38,25.38,0,0,1,261.31,30a12,12,0,0,0-1.89.64c-.19.13-.17.28.05.22s2-.77,2.71-.56c.27.08.1-.31.1-.31a3.57,3.57,0,0,1-1.36-2.32c-.07-.31-.32-.26-.24.06a7.27,7.27,0,0,0,.74,1.91c-.33-.17-2.22-1.27-2.58-1.42C258.67,28.15,258.54,28.26,258.76,28.4Z" />
            <path class="cls-1"
                  d="M261.69,33.43a1.55,1.55,0,0,1,1.59.25c.3.24,1.06.62,1.25.42a1.74,1.74,0,0,0,.57.66,2.83,2.83,0,0,1,2-2.41,1.93,1.93,0,0,1-.26-2.08,1.19,1.19,0,0,1-1.33-.07,8,8,0,0,0-1,1.65,8.14,8.14,0,0,1,.57-2.74A2.42,2.42,0,0,1,263.39,28a2.5,2.5,0,0,1-1.25,1.45,2.34,2.34,0,0,1,.95,2,2.16,2.16,0,0,0-.57-.67,2.48,2.48,0,0,1-1.41,1C261.69,32,261.76,33.14,261.69,33.43Zm.21-1.49a3,3,0,0,1,1.65.67c.12.11.21.11.21,0s-.07-1.11-.05-1.39a5.37,5.37,0,0,0-.27-1.72,2.34,2.34,0,0,1,.55,1.77c0,1.17,0,1.29.25,1.79.07.13.18,0,.18,0,.24-.41,1.05-1.41,1.43-1.48.17,0,.08.11,0,.14a4.74,4.74,0,0,0-1.46,1.88c-.08.25-.29,0-.29,0a5,5,0,0,0-2.24-1.5C261.76,32,261.71,31.92,261.9,31.94Z" />
            <path class="cls-1"
                  d="M254.07,30.27c.56-.12,1.25-.37,1.62-.21a4.93,4.93,0,0,1-1.43.72,4.62,4.62,0,0,1,.68,1.45,1.38,1.38,0,0,1,1.67,0A5.68,5.68,0,0,1,258,30.61a2.09,2.09,0,0,1-.22,1.17c.45,0,.94-.17,1.33.58.44-.67,1.78-.5,1.78-.5s-.13-.26-.21-.42c.08,0,.08-.06.21-.18a3.29,3.29,0,0,0-1.77.31.66.66,0,0,0-.63-.26c.13-.16.1-.57,0-1.16a3.34,3.34,0,0,0,1.75-.3,1.83,1.83,0,0,0-2.11-.49c.2-.32-.27-1.31-.43-1.54a2.68,2.68,0,0,0,1.48-.39c.47.85,1,1.25,1.41,1.27a9,9,0,0,1-.79-1.47,2.28,2.28,0,0,0,.81-.79c.22.44,1.14.57,1.31.56a3.29,3.29,0,0,0,.46,1.87,2.35,2.35,0,0,0,.41-.33,3.25,3.25,0,0,1-.23-2.08,1.76,1.76,0,0,1-2-1A3.21,3.21,0,0,1,257,27.29c.11.38.22.71.22.71a2.71,2.71,0,0,1-.87-1.21,2.43,2.43,0,0,1-1.67-.21,2.23,2.23,0,0,1,.08,1.12,2.18,2.18,0,0,1,.79.83,2.5,2.5,0,0,1-1.21-.54,3.77,3.77,0,0,1-1.4.83A5.07,5.07,0,0,1,254.07,30.27Zm.29-1.23c.25.05,2.05.25,2.25.25a9.61,9.61,0,0,1-.79-1.27c0-.2.14-.24.21-.12a5.65,5.65,0,0,0,1.64,1.61c.27.17.08.13-.05.2a4.83,4.83,0,0,0-1.8,1.41c-.1.17-.35.14-.23-.08s1-1.16,1.09-1.3a17.22,17.22,0,0,1-2.35-.56C254.1,29.07,254.1,29,254.36,29Z" />
            <path class="cls-1"
                  d="M265.48,35.26a2,2,0,0,0,.35-.24v-1.3a3.45,3.45,0,0,0-.36.65Z" />
            <path class="cls-1"
                  d="M265.83,41.26V36.54a3.34,3.34,0,0,0-.35-.55v3.28a1.58,1.58,0,0,0-.94.45.69.69,0,0,1,.28-.66c-.23,0-.73.35-1.06,1.42s-.43.9-.59.93a2.15,2.15,0,0,1,1.19,1.84A12.48,12.48,0,0,1,265.83,41.26Z" />
            <path class="cls-1"
                  d="M266.69,34.34V33a1.05,1.05,0,0,0-.36.25v1.46A3.1,3.1,0,0,0,266.69,34.34Z" />
            <path class="cls-1"
                  d="M266.32,37.37v3.36l.09-.08a12,12,0,0,1,1.46-1.26,11,11,0,0,0-1.19-.15V37.9A1.14,1.14,0,0,0,266.32,37.37Z" />
            <path class="cls-1"
                  d="M265.18,24.78h.16v4.75a.65.65,0,0,0,.36.16V24.64h.49v5.08a.87.87,0,0,0,.36,0V24.64h.11v-1.7h-.11v-.68h.11V20.58h-.11v-.76h.11V18.14h-.05A.58.58,0,0,0,267,18a.66.66,0,0,0,.17-.45.68.68,0,0,0-.17-.45.6.6,0,0,0-.42-.19h0v-.22h.83l-.15-.42-1-2.68-.26-.76-.26.76-.95,2.68-.15.42h.69v.22h0a.55.55,0,0,0-.41.19.68.68,0,0,0,0,.93h-8.27v6.81h8.51Zm1.13-.54h-.75v-.9h.75Zm-.61-2h.49v.68h-.49Zm.62-.39h-.77V21h.77Zm-.62-2.45h-.13v-.9h.74v.9h-.61Zm.49,1.16h-.49v-.76h.49Zm-1-4.35.79-2.38.87,2.38Zm1,.62h-.49v-.22h.49Zm-.88.4h1.28a.24.24,0,0,1,0,.48h-1.28a.23.23,0,0,1-.22-.24A.23.23,0,0,1,265.31,17.25Zm-3.68,1.05h.31v1.37l1.69-1.37h.92l-2.62,2.11h1l2.27-1.84v.49l-1.64,1.35h1.64v.33h-3.55Zm0,3.61h3.55v.41h-1.64l1.64,1.35v.76l-2.6-2.11h-.64v.24l2.32,1.88h-.6L262,23.06v1.38h-.31ZM257,20.4h1.68L257,19V18.3h0l2.59,2.1h.65v-.24L258,18.3h.6l1.69,1.37V18.3h.3v2.43H257Zm0,3.3,1.69-1.38H257v-.41h3.58v2.53h-.3V23.06l-1.71,1.38h-1l2.62-2.12h-.94L257,24.19Z" />
            <path class="cls-1"
                  d="M284.74,34.86a2,2,0,0,0,.36.19V33.94a1.64,1.64,0,0,0-.36-.68Z" />
            <path class="cls-1"
                  d="M284.24,34.55V32.74a.93.93,0,0,0-.36-.23v1.65A5,5,0,0,0,284.24,34.55Z" />
            <path class="cls-1"
                  d="M287.29,27.53a2.38,2.38,0,0,1-1.63,1.16,8.14,8.14,0,0,1,.57,2.74,8.49,8.49,0,0,0-1-1.66,1.19,1.19,0,0,1-1.33.08,1.91,1.91,0,0,1-.26,2.07,2.83,2.83,0,0,1,2,2.42,1.86,1.86,0,0,0,.57-.67c.19.21,1-.17,1.25-.42A1.57,1.57,0,0,1,289,33c-.08-.29,0-1.46.57-1.7a2.54,2.54,0,0,1-1.4-1,1.81,1.81,0,0,0-.57.66,2.34,2.34,0,0,1,1-2A2.44,2.44,0,0,1,287.29,27.53Zm1.49,4c.19,0,.13.09,0,.12a4.94,4.94,0,0,0-2.25,1.49s-.2.24-.29,0a4.82,4.82,0,0,0-1.45-1.89c-.05,0-.14-.17,0-.14.39.08,1.21,1.08,1.44,1.48,0,0,.1.15.18,0,.27-.5.23-.62.25-1.78a2.39,2.39,0,0,1,.55-1.78,5.42,5.42,0,0,0-.27,1.72c0,.28-.05,1.25-.05,1.39s.09.15.2,0A3.11,3.11,0,0,1,288.78,31.52Z" />
            <path class="cls-1"
                  d="M288.51,29.87a1.5,1.5,0,0,1,.64,0A2,2,0,0,0,289,29a3,3,0,0,1-.61.57S288.24,30,288.51,29.87Z" />
            <path class="cls-1"
                  d="M289.78,27.24a4.48,4.48,0,0,1-.61,1.54,1.12,1.12,0,0,1,.36,0A9.21,9.21,0,0,0,290,27.3C290.1,27,289.84,26.93,289.78,27.24Z" />
            <path class="cls-1"
                  d="M290.39,28.86c.67-.4,1.44-.81,1.53-.87s.08-.25-.08-.19-1.19.63-1.87,1A1.27,1.27,0,0,1,290.39,28.86Z" />
            <path class="cls-1"
                  d="M283.67,31a2.27,2.27,0,0,0,0-.47,1.31,1.31,0,0,1-.66.16c0,.24,0,.34,0,.46A1.17,1.17,0,0,0,283.67,31Z" />
            <path class="cls-1"
                  d="M276.89,36.59l.21-.61-.59.05V35.7l-.73.66.14-1.35-.26.22-.34-.58-.34.58-.26-.22.14,1.35-.74-.66V36l-.59-.05.21.61-.29.09,1.09.8-.13.31.91-.16.91.16-.14-.31,1.1-.8Z" />
            <path class="cls-1"
                  d="M279.79,27.88c-.07-.1-.29-.66-.55-1.2a1.33,1.33,0,0,1-.5-.11A2.47,2.47,0,0,0,279.79,27.88Z" />
            <path class="cls-1"
                  d="M273.58,25.06c-.1,0-.18,0-.21-.14a2.48,2.48,0,0,0-.32-.7,1.62,1.62,0,0,1-.09.67A.15.15,0,0,1,273,25a2.38,2.38,0,0,0,.47,1,.45.45,0,0,0,.33.14,11.42,11.42,0,0,1,1.61-.11h.38c.12,0,.24-.13.19-.21a3.25,3.25,0,0,1-.26-.91.17.17,0,0,1,.1-.19c.06,0,.12.06.14.13a2.78,2.78,0,0,0,.37,1.05c.09.15.18.2.25.21a13.05,13.05,0,0,1,2,.37l.12,0a.12.12,0,0,0,.12-.13,1.57,1.57,0,0,1-.1-.54,2.12,2.12,0,0,1-.48-.29l-.09.35c0,.2-.2.39-.46,0a1.71,1.71,0,0,1-.23-.83.13.13,0,0,0-.12-.13.13.13,0,0,0-.11.14,1.78,1.78,0,0,0,.18.78c.05.08-.05.18-.25.15s-.16-.23-.15-.37l.07-.77c-.4-.18-.36-.54-.39-.74a.44.44,0,0,1-.22.14,3.07,3.07,0,0,1,.15.63c0,.08,0,.18-.1.18a.13.13,0,0,1-.14-.12,4.37,4.37,0,0,0-.18-.68,4.28,4.28,0,0,1-.89.28l0,1a.18.18,0,0,1-.2.21c-.08,0-.24-.17-.28-.22a2.63,2.63,0,0,1-.4-.76.13.13,0,0,0-.15-.09.15.15,0,0,0-.08.16,1.83,1.83,0,0,0,.34.71c.06.06,0,.23-.17.24s-.24,0-.26-.1L274,24.33c0-.07-.06-.46.2-.46a.61.61,0,0,1,0-.27c-.24,0-.51.06-.77.1a.19.19,0,0,0-.17.29,4,4,0,0,1,.43.85C273.67,25,273.64,25,273.58,25.06Z" />
            <path class="cls-1"
                  d="M281.3,28.42a6.12,6.12,0,0,1-1.36-2.09,1.4,1.4,0,0,0-.05-1.81c-.15-.1-.22,0-.18.1a1.89,1.89,0,0,1,.15,1,.15.15,0,0,1-.15.14.16.16,0,0,1-.14-.17,3.5,3.5,0,0,0-.05-.69c0,.18-.17.4-.45.36,0,.05,0,.26,0,.26a2.14,2.14,0,0,0,.12,1c0,.08.11.28.34.17a5.88,5.88,0,0,0,1.05,1.7,2.89,2.89,0,0,1-2-1.41.32.32,0,0,0-.23,0,1.52,1.52,0,0,0-1.27-.58s.07.27.11.38a.61.61,0,0,0-.26,0,2,2,0,0,0-.77-.4,1.09,1.09,0,0,0-.1.44.67.67,0,0,0-.19,0,.79.79,0,0,0-.48-.59.74.74,0,0,0-.42.57,1.83,1.83,0,0,0-.21,0,2.27,2.27,0,0,0,0-.43,1.11,1.11,0,0,0-.84.4,1.89,1.89,0,0,0-.44,0,1.8,1.8,0,0,0,.05-.3,1.82,1.82,0,0,0-.77.23,1.15,1.15,0,0,0,.07-.27,2,2,0,0,0,.28-.1.18.18,0,0,0,.11-.29,2.13,2.13,0,0,1-.25-.5,1.16,1.16,0,0,1-.46.06h0l.07.31c0,.2-.13.46-.38.31a1.45,1.45,0,0,1-.51-.68.11.11,0,0,0-.15-.06.14.14,0,0,0-.05.17,1.75,1.75,0,0,0,.44.64s.05.15-.15.13-.48-.34-.61-.59a1.22,1.22,0,0,1-.11-.54,1.29,1.29,0,0,1-.13-.52,1.36,1.36,0,0,0,.08,1.31,7.58,7.58,0,0,1-1.55,2.38,5.23,5.23,0,0,1-1.41-.21,2.74,2.74,0,0,1-1.06,1c.37.14.65.85.67,1.06a4.42,4.42,0,0,0,1.67-.38,4.13,4.13,0,0,1-1.33.73,2.85,2.85,0,0,1,0,1.32,2.28,2.28,0,0,1,1.25-.08,3.79,3.79,0,0,1,.78-1.39,5.44,5.44,0,0,1-.36,1.46c.65.1.65.51.67.59a1.37,1.37,0,0,1,.89-.88,3.22,3.22,0,0,0,.34.46c-.07.22-.24,2.14-.24,2.21s.09.19.13,0,.38-1.4.5-1.73a.59.59,0,0,0,.15.15c-.05.3-.17,1.5-.17,1.65a1.41,1.41,0,0,0-.75.61,1.85,1.85,0,0,0-.48-.56,8.23,8.23,0,0,0,.64-1.64c.07-.29-.21-.35-.34-.08-1.23,2.71-1.8.79-1.76.48a.94.94,0,0,1-1.23-.21.9.9,0,0,1-.9.94,1.58,1.58,0,0,0,1.58,1.14c-.63.52-1.61-.1-1.8-.35a2.55,2.55,0,0,1-1.06.79,2.54,2.54,0,0,1,.56,1,8.12,8.12,0,0,0,1.5-.4,3.24,3.24,0,0,1-.94,1,2,2,0,0,1,.63,1.4,2,2,0,0,1,1.69-1,3.74,3.74,0,0,0-.07,1,9.58,9.58,0,0,1,2.43-1.08,6.53,6.53,0,0,1,.3,1c.1,0,2-.17,2.59.39s.77.24.92.15c.16.09.36.36.92-.15s2.49-.4,2.59-.39a6.53,6.53,0,0,1,.3-1,12,12,0,0,1,2.43,1.08,3.28,3.28,0,0,0-.07-1,2,2,0,0,1,1.69,1,2,2,0,0,1,.63-1.4,3.38,3.38,0,0,1-.95-1,10.41,10.41,0,0,0,1.5.4,2.71,2.71,0,0,1,.57-1,2.49,2.49,0,0,1-1.06-.79c-.19.25-1.17.87-1.8.35A1.58,1.58,0,0,0,283.64,34a.92.92,0,0,1-.9-.94.94.94,0,0,1-1.23.21c.05.31-.52,2.22-1.76-.48-.13-.27-.4-.21-.33.08a8.47,8.47,0,0,0,.64,1.64,1.62,1.62,0,0,0-.48.56,1.49,1.49,0,0,0-.76-.62c0-.14-.12-1.34-.17-1.65a.61.61,0,0,0,.16-.14c.11.34.45,1.56.49,1.73s.13,0,.13,0-.17-2-.24-2.2a3,3,0,0,0,.34-.46,1.37,1.37,0,0,1,.89.88c0-.09,0-.5.67-.6a5.75,5.75,0,0,1-.36-1.45,3.58,3.58,0,0,1,.77,1.39,2.28,2.28,0,0,1,1.25.08,3,3,0,0,1,0-1.32,4,4,0,0,1-1.32-.74,4.39,4.39,0,0,0,1.66.39c0-.21.3-.92.68-1.06a2.91,2.91,0,0,1-1.07-1A5.09,5.09,0,0,1,281.3,28.42ZM268,34.23c-.14-.24.12-.1.12-.1a1.67,1.67,0,0,0,1.29.45s-.2.21-.28.31A1.44,1.44,0,0,1,268,34.23Zm-.12,3.11c0,.11-.12.06-.11,0a6,6,0,0,1,.52-1.46c-.21,0-1.25,0-1.56-.29-.14-.14,0-.17.18-.1a4.51,4.51,0,0,0,1.87,0A8.05,8.05,0,0,0,267.91,37.34Zm1.28.16c-1-1.34.49-2.68.67-2.76a3.41,3.41,0,0,1,.91.77A3.19,3.19,0,0,0,269.19,37.5Zm14.55-2c.17-.07.32,0,.18.1a2.78,2.78,0,0,1-1.56.28,6.1,6.1,0,0,1,.51,1.46c0,.08-.08.12-.11,0a8.66,8.66,0,0,0-.89-1.85A4.53,4.53,0,0,0,283.74,35.48Zm-1.21-1.35s.26-.13.12.1a1.43,1.43,0,0,1-1.12.66l-.28-.31A1.66,1.66,0,0,0,282.53,34.13Zm-1.72.61c.19.08,1.72,1.42.68,2.76a3.29,3.29,0,0,0-1.58-2A3.52,3.52,0,0,1,280.81,34.74Zm-4.35-7.53c-.09-.06-.18-.09-.18-.48.12,0,.49.22.47.49.06-.13.21-.17.45-.1a.37.37,0,0,0,0,.5,12.62,12.62,0,0,1,1.19,1.62.7.7,0,0,1-.07.67c0,.08-1,2.43-1.22,2.73a1,1,0,0,1-1.29.13c0-.09.11-.34.11-.34s.37.18.48-.07.73-2.12.82-2.43a1.12,1.12,0,0,0-.09-.74c-.1-.27-.65-1.81-1.11-2.05A.76.76,0,0,1,276.46,27.21Zm-1.76,1.45c.39-.95.12-1.37,0-1.53a.51.51,0,0,1,.48,0c-.14-.13,0-.49.17-.58.17.09.32.44.17.58a.51.51,0,0,1,.48,0c-.13.16-.4.58,0,1.53.5,1.21-.15,3.39-.37,4.11-.05.17-.27.14-.27.14s-.22,0-.27-.14C274.85,32.05,274.2,29.87,274.7,28.66Zm-1.22-1.54c.24-.07.38,0,.45.1,0-.27.35-.46.47-.49,0,.39,0,.38-.12.44a1.13,1.13,0,0,1,.38,0c-.46.24-1,1.79-1.1,2.05a1.06,1.06,0,0,0-.09.74c.09.31.69,2.16.81,2.43s.38.12.48.07a2.41,2.41,0,0,0,.12.34,1,1,0,0,1-1.29-.13c-.19-.31-1.2-2.66-1.23-2.73a.76.76,0,0,1-.07-.67,13.65,13.65,0,0,1,1.19-1.62C273.61,27.42,273.59,27.19,273.48,27.12Zm-4.73,4.1c-.09.11-.17,0-.1-.06s.77-1.08,1.17-1.67a7.62,7.62,0,0,1-1.95-.22c-.13-.05-.12-.13,0-.13a6,6,0,0,0,2.24.08.36.36,0,0,0,.07.34A9.09,9.09,0,0,0,268.75,31.22Zm1.37-2.86a7.53,7.53,0,0,0,1.15-1.9.44.44,0,0,0,.2.13c-.27.54-.49,1.14-.57,1.24a2.38,2.38,0,0,0,1-1.21c.12-.05.29-.1.51-.17A3,3,0,0,1,270.12,28.36Zm.28,3.21c0,.25-.15.14-.14,0s.17-1.12.16-1.28a2.12,2.12,0,0,0,.23.38A5.91,5.91,0,0,0,270.4,31.57Zm1.58.31a12.57,12.57,0,0,1-1.21-2.21.62.62,0,0,1,.12-.79,9.93,9.93,0,0,1,1.86-1.73c0-.08-.09-.25.47-.41a.45.45,0,0,1-.24.43c.16,0,.14-.11.43,0-.14.07-.15-.16-1.8,1.93a.65.65,0,0,0,0,.67s1,2,1.33,2.44a.42.42,0,0,0,.24.07l.14.27C273,32.64,272.58,32.75,272,31.88ZM279.74,36a2.37,2.37,0,0,0-1.28,2,4.1,4.1,0,0,0-2.43.5c-.28.27-.47.26-.69,0-.22.3-.41.31-.68,0a4.14,4.14,0,0,0-2.43-.5,2.37,2.37,0,0,0-1.29-2,1.69,1.69,0,0,1,1.52-.75c-.38-1.32.22-2.2.68-2a11.63,11.63,0,0,0,4.4,0c.46-.25,1.07.62.68,2A1.69,1.69,0,0,1,279.74,36Zm.17-6.35a12.25,12.25,0,0,1-1.21,2.21c-.6.86-1.06.76-1.36.69l.13-.26s.18,0,.24-.08c.32-.42,1.33-2.43,1.33-2.43a.64.64,0,0,0,0-.67c-1.64-2.09-1.66-1.87-1.8-1.94.29-.12.28-.05.43,0a.47.47,0,0,1-.25-.44c.56.17.47.33.47.42.24,0,1.58,1.37,1.87,1.73A.61.61,0,0,1,279.91,29.68Zm.37,1.89a8.83,8.83,0,0,0-.25-.91,2.62,2.62,0,0,0,.23-.38c0,.17.16,1.14.16,1.28S280.32,31.82,280.28,31.57Zm2.44-2.43c.1,0,.11.08,0,.13a7.53,7.53,0,0,1-1.95.22c.4.6,1.1,1.58,1.17,1.67s0,.17-.1.06a10,10,0,0,0-1.41-1.66.42.42,0,0,0,.06-.34A6.22,6.22,0,0,0,282.72,29.14Z" />
            <path class="cls-1"
                  d="M274.86,22.44c-.1,0-.09.12-.12.19a.64.64,0,0,0-.43.8c0-.05.09-.28.3-.32a.15.15,0,0,0,.16.18.26.26,0,0,0,0,.35.68.68,0,0,0,.18.81s0-.34.18-.44c.13.1.39.28.64-.13a.93.93,0,0,1,.52-.43,1.06,1.06,0,0,1,0,.52c.16,0,.57-.42.53-.74a.46.46,0,0,1,.14.47,1.2,1.2,0,0,0,.36-.83.64.64,0,0,1,.44-.69s0-.15-.08-.18.27-.15.3-.31,0-.16-.09-.17-.06-.15,0-.2,0-.17-.2-.2-.36-.11-.67-.59a1.76,1.76,0,0,0,.68-.57,1.54,1.54,0,0,0-.07-.43,1.17,1.17,0,0,0-1.26.13.85.85,0,0,1,0-.38,1.71,1.71,0,0,0-.62.71,3.22,3.22,0,0,0-.11.49.66.66,0,0,0,.13.52,2.88,2.88,0,0,0,.85.81c-.16,0-.16.3-.09.35a2.18,2.18,0,0,0-.85.58s0-.06,0-.09.18-.52-.29-.52a.35.35,0,0,0-.57.06C274.72,22.18,275.2,22.29,274.86,22.44Z" />
            <path class="cls-1"
                  d="M278.11,13.25c-2.94.55-2.05,2.93.06,3.21.14,0,1.12.19,1.64.3-.4.2-.32.65.07.89-.11-.53.4-.89.64-.49.31,1.16-.78,1.35-1.64.53A2,2,0,0,0,277,17a3.57,3.57,0,0,1-1.75.23.84.84,0,0,1-.26.54,2.74,2.74,0,0,1-.65,1.53.43.43,0,0,0-.07-.24,3.12,3.12,0,0,1-1.21,1.43s0-.1,0-.17l-.29.22,0,.19a2,2,0,0,1-.32,1,4.46,4.46,0,0,0-.53,1.18c0-.06,0-.27-.11-.33.05-.37-.81-.42-.91.06.34-.15.56.17.36.21a.26.26,0,0,0-.17.38c-.67,0-.64.86-.36.93.18-.63.49-.38.58-.3-.2,0-.18.37-.15.42a.73.73,0,0,0,.24.85c-.1-.17.06-.51.15-.64a.39.39,0,0,0,.41.07c0,.6.37.68.5.66a.68.68,0,0,1-.05-.64c.4.12.4-.33.37-.45a1.1,1.1,0,0,1,0-.51c.11-.37.41-.95.65-.56a.6.6,0,0,1,.06.22,1.28,1.28,0,0,0,.3-1.12c.15.2.24.09.32.21s.05.07.05.11c.41-1.22-.2-1.43-.13-1.58a4.25,4.25,0,0,1,2.75-2.3.75.75,0,0,0-.21.52,1,1,0,0,1,.92,0,3.2,3.2,0,0,0-.16-.6,1.91,1.91,0,0,1,.57,1.37,1.94,1.94,0,0,0,.78,1.43.68.68,0,0,0,.19.62,2.07,2.07,0,0,0-.33.92c0,.1-.15.14-.14,0a.19.19,0,0,0-.25-.22c-.3-.38-.48-.24-.66,0,.21-.11.35.15.35.2s-.1.24,0,.28c-.16,0-.33.36-.34.46a.62.62,0,0,0-.35.87.58.58,0,0,1,.47-.42.29.29,0,0,0,.1.22,1,1,0,0,0,.3,1,1.35,1.35,0,0,1,.15-.76.72.72,0,0,0,.2.14c-.05.71.28.84.44.83a.7.7,0,0,1,0-.62c.49.24.61-.4.53-.73a.87.87,0,0,1,.07-.71.7.7,0,0,0,.14.49c0,.05.15.17.13.24a1.36,1.36,0,0,0,.23-1.28c.38.12.47.34.47.45.38-.42.14-1.32.06-1.48a.45.45,0,0,1,.44.23.94.94,0,0,0-.58-1.13.31.31,0,0,0,0-.48c-.05,0-.1,0-.12-.17s-.22-.15-.39-.13-.33,0-.3-.5a2.48,2.48,0,0,0-.16-1.08,1.36,1.36,0,0,0,1.19,0c.4-.22.67.27.69.44a.63.63,0,0,0-.19-.9.9.9,0,0,0,.14-.86c-.18-.59.9-.3,1-.08-.11-1.05-1.1-1.17-1.17-.47a.78.78,0,0,0-.73-.44s-.08,0-.09-.15a1.14,1.14,0,0,0-1-1c.07,0,.22.17.2.33s-.07.62.11.69c-.24,0-.43-.33-.48-.49-.18-.62-.56-.79-.9-.75.26.05.2.44.18.57a.5.5,0,0,0,0,.44c-1.46-.32-2.32-1.78,0-2.14a1.81,1.81,0,0,0,2.45.35.52.52,0,0,1-.67-.28c2-.18,1.75-1.48,1.6-1.86,0,.94-1.38,1-1.77,1a1,1,0,0,0,.14-1.35C280.08,12.74,278.74,13.13,278.11,13.25Z" />
            <path class="cls-1"
                  d="M268.47,14.71l-.14.33.63-.13v.71c-.29.07-.53.19-.44.66-.2.21-.48,1,.2,1.08a.52.52,0,0,0,.41.56,3.26,3.26,0,0,1-.54.53.64.64,0,0,1,.52.64c.19-.19.36-.78.27-2.13-.36,0-.47.08-.55.24A1,1,0,0,1,269,16c0-.06.21-.28.64-.14-.32-.12-.65.88.24.81,0,.13-.32.22-.32.22a4.19,4.19,0,0,0,.4,1.89.44.44,0,0,0-.47.12c.07,0,.25.14.25.34a.89.89,0,0,0,1.22.78.54.54,0,0,1-.17.5c.11.05.57.14.73-.79a.7.7,0,0,1-.41-.35.67.67,0,0,0,.27-.65c-.32-.24-.28-.57-.29-.86a1,1,0,0,1-.72-1c0-.9-.57-1.22-.81-1.25v-.77l.68.12-.14-.33,1.18-.86-.31-.1.22-.65-.63.05v-.36l-.79.72L270,12l-.28.24-.37-.63-.36.63-.28-.24.15,1.47-.79-.72v.36l-.64-.05.22.65-.31.1Z" />
            <path class="cls-1"
                  d="M271.74,20.46A1.73,1.73,0,0,0,273.4,19a.88.88,0,0,1,0,.69,1.73,1.73,0,0,0,.67-1.58.65.65,0,0,1,.32.54,1.8,1.8,0,0,0,.27-.94c.15-.08.56-.63,0-1.34.13,0,.26,0,.28-.47s.15-.62.28-.66a1.29,1.29,0,0,0-.49-.1c.11-.14.12-.39.05-.45l.16-.11v-.13a.14.14,0,0,0,.11-.11.11.11,0,0,0,0-.1l.07-.15h0a.11.11,0,0,0,.15-.1.13.13,0,0,0-.07-.15l.07-.13s0,0,.05,0a.12.12,0,0,0,.13-.09.13.13,0,0,0,0-.12.13.13,0,0,0,.13-.1.11.11,0,0,0-.05-.13.12.12,0,0,0,.1-.09.15.15,0,0,0-.09-.15h0a.29.29,0,0,0,.07-.08.13.13,0,0,0-.09-.15s-.06,0-.09,0l0-.05a.12.12,0,0,0-.08-.15.1.1,0,0,0-.11,0,.16.16,0,0,0-.08-.17.14.14,0,0,0-.14.08.12.12,0,0,0-.08-.12.12.12,0,0,0-.14.09v0a.14.14,0,0,0-.07-.1.12.12,0,0,0-.14.1v0a.18.18,0,0,0-.08-.07l-.14-.32.2.11.1-.46-.26.05.16-.31-.42-.1v.35l-.21-.19-.1.46H274l-.26.23a.07.07,0,0,0-.09,0v0a.12.12,0,0,0-.08-.15.12.12,0,0,0-.11,0h0a.13.13,0,0,0-.09-.15.09.09,0,0,0-.12.06.13.13,0,0,0-.09-.13c-.06,0-.12,0-.13.1a.12.12,0,0,0-.09-.1.1.1,0,0,0-.13.08.16.16,0,0,0,0,.07.11.11,0,0,0-.07-.06.12.12,0,0,0-.13.09.14.14,0,0,0,0,.11l0,0a.11.11,0,0,0-.13.09.11.11,0,0,0,0,.13.11.11,0,0,0-.1.09.15.15,0,0,0,.07.15.13.13,0,0,0-.08.08.12.12,0,0,0,.08.15h.06v.14a.14.14,0,0,0-.14.1.17.17,0,0,0,.09.18h0v.18s0,0-.05.08a.11.11,0,0,0,.05.14l-.07.13.09.16a.39.39,0,0,0-.11.53.81.81,0,0,0-.6-.17c.09.07.09.36,0,.59s-.23.79.18.87c-.05.13-.26.27-.4.37a.84.84,0,0,0-.28,1,.71.71,0,0,1,.48-.4.7.7,0,0,1-.23.55.72.72,0,0,0-.11.88.76.76,0,0,1,.35-.38,1.65,1.65,0,0,0-.14.87.69.69,0,0,1-.18.6,1,1,0,0,0,.57-.42A1.23,1.23,0,0,1,271.74,20.46Zm.8-2.84a.62.62,0,0,0,.39-.65,1.43,1.43,0,0,1,.08-.66c0-.1.23-.08.29-.13a.41.41,0,0,0,.2.24C273.51,16.55,273.38,17.65,272.54,17.62Zm1-.58.07-.22c.06,0,.32.15.37-.09s.2,0,.2.08A.38.38,0,0,1,273.53,17Zm.66-4c.58-.27,1.25-.22.91.58l-.08,0-.21.53c-.1.06-.34-.05-.27-.22s.24,0,.1.05c.29.06.28-.46,0-.32a.36.36,0,0,0,.05-.42.33.33,0,0,0-.21.35c-.15-.31-.47.1-.2.24-.07-.16.19-.21.12,0s-.32.06-.34,0Zm0,2.55a.28.28,0,1,1-.55,0,.28.28,0,1,1,.55,0ZM273.8,13l-.18.78c-.05.05-.34.08-.31-.16s.26-.08.12,0c.29,0,.19-.52-.08-.32a.37.37,0,0,0,0-.42.33.33,0,0,0-.13.4c-.21-.28-.45.18-.17.27-.09-.13.14-.26.12,0s-.27.15-.34.06l.05-.58h-.1C272.78,12.14,273.39,12.44,273.8,13ZM273,15a.29.29,0,0,1,.27.3A.28.28,0,1,1,273,15Zm-.73,1.26c.07-.12.27-.08.21.06s-.07.28.26.27l0,.22C272.57,16.83,272,16.8,272.29,16.28Z" />
            <path class="cls-1"
                  d="M283.89,16.52v.22h0a.52.52,0,0,0-.41.19.67.67,0,0,0-.18.45.61.61,0,0,0,.55.63h-.08V19.7h.14v.76h-.14v1.69h.14v.69h-.14v1.68h.14v4.91a.56.56,0,0,0,.36.07v-5h.49v5a1.14,1.14,0,0,0,.36-.1V24.51h.12v-.07h9V17.78h-8.61a.68.68,0,0,0,.14-.42.74.74,0,0,0-.17-.45.57.57,0,0,0-.41-.18h0V16.5h.83l-.15-.42-.94-2.68-.27-.75-.26.75-.95,2.68-.15.42h.68Zm8,4.59h.23a2,2,0,0,0-.11-.73c-.53-1.17.12-1.58.27-1.71.16.14.81.54.28,1.71a2.2,2.2,0,0,0-.11.73h.24c0-1.45,1.67-1.35.85,0,.07-.34-.51-.58-.56,0h.12v.42h-.55c0,.15.11.34.42.31-.07.21-.35.32-.48.17a.28.28,0,1,1-.4,0c-.13.15-.4,0-.48-.17.32,0,.43-.16.43-.31h-.56v-.42h.12c-.05-.62-.65-.38-.57,0C290.17,19.76,291.84,19.66,291.86,21.11Zm-2.46.78c-.54-1.18.12-1.57.27-1.71.16.14.81.54.27,1.71a2.16,2.16,0,0,0-.1.74h.23c0-1.46,1.68-1.37.86-.06.08-.33-.52-.58-.57.05h.13V23h-.56c0,.15.12.35.43.31-.08.22-.36.33-.49.17a.5.5,0,0,1-.2.49.49.49,0,0,1-.2-.49c-.13.16-.4,0-.49-.17.32,0,.44-.16.44-.31h-.56v-.41H289c-.05-.63-.65-.38-.57-.05-.82-1.31.85-1.4.86.06h.22A2,2,0,0,0,289.4,21.89Zm-2.69-.78H287a2,2,0,0,0-.11-.73c-.53-1.17.11-1.58.27-1.71.16.14.81.54.28,1.71a1.76,1.76,0,0,0-.1.73h.22c0-1.45,1.68-1.35.86,0,.07-.34-.52-.58-.57,0h.12v.42h-.55c0,.15.11.34.43.31-.08.21-.36.32-.49.17a.46.46,0,0,1-.2.48.48.48,0,0,1-.2-.48c-.13.15-.4,0-.49-.17.32,0,.43-.16.43-.31h-.55v-.42h.12c-.05-.62-.65-.38-.57,0C285,19.76,286.71,19.66,286.71,21.11Zm-1.85,3h-.75v-.89h.75Zm-.61-2h.49v.68h-.49Zm.62-.4h-.76v-.88h.76Zm-.62-2.44h-.13v-.89h.74v.89h-.61Zm.49,1.15h-.49V19.7h.49Zm.4-3.32a.24.24,0,0,1,0,.48h-1.28a.23.23,0,0,1-.22-.24.24.24,0,0,1,.22-.24Zm-.89-.62h.49v.21h-.49Zm.3-2.78.87,2.37h-1.66Z" />
            <path class="cls-1"
                  d="M284.64,74.26a1.55,1.55,0,0,0,.26-.62.28.28,0,0,1-.17-.25.31.31,0,0,1,.62,0,.28.28,0,0,1-.28.27,3.49,3.49,0,0,1-.22.67.27.27,0,0,0,.07.06,2.08,2.08,0,0,1,.66-.49c0-.14,0-.31.12-.34s.23.08.28.27,0,.36-.09.4-.17,0-.24-.14a1.46,1.46,0,0,0-.61.42.37.37,0,0,1,.27.19,1.11,1.11,0,0,0,1.17-1.28,1.29,1.29,0,0,1,.55-1.25,2.72,2.72,0,0,0-2.42.75,2.46,2.46,0,0,1-.1,1.06C284.55,74.08,284.61,74.19,284.64,74.26Z" />
            <path class="cls-1"
                  d="M285.54,74.93A1.82,1.82,0,0,1,284.06,77c.22,1.08,1.85.67,2,.56-.69-.17-.3-.85.27-1.67C286.73,75.38,286.35,74.51,285.54,74.93Z" />
            <path class="cls-1"
                  d="M284.51,74.67c.21-.61-1.16-1.44-1.48.41-.26,1.55-.77,1.49-.77,1.49C284.2,77.56,286.47,75,284.51,74.67Z" />
            <path class="cls-1"
                  d="M288.63,68.24a.27.27,0,0,0-.42.1c-.22-.14-.35,0-.41.15a.27.27,0,0,0-.38.26c-.27-.13-.49.26-.35.35a2.6,2.6,0,0,1,.84,1.08c.2.37,1.17,0,1.1-.49a4.48,4.48,0,0,1,0-1.46A.24.24,0,0,0,288.63,68.24Z" />
            <path class="cls-1"
                  d="M297.08,73.28a1,1,0,0,0-.44-1c-.47-.38-.81-.27-1-.12a1.2,1.2,0,0,0-.41-1,1.35,1.35,0,0,0-.4,1c-.18-.16-.54-.25-1,.13a.94.94,0,0,0-.42,1,.94.94,0,0,0-1,.11,1.19,1.19,0,0,0,.78.73.88.88,0,0,0-.28.84,3.53,3.53,0,0,1-.83.28c.1-.26.32-.94-.1-1.19-.1,2.25-3.19,1-3.7.75a1.68,1.68,0,0,1,1.39.28c.28-1,1.05-.55,1.32-.3-.29-1,.56-1.12.95-1.1a.84.84,0,0,1,.62-1.28c-.62-1-.16-1.64.63-2.08-1.06,0-1.32.54-1.74.85s-.72.28-.81.21c.06.18-.16,1.24-.77,1.29,0,.25-.16.93-.66.58-.2.26-.92,1.12-1.4,1.25-.28.13-.67-.19-.59-.21a2.59,2.59,0,0,0,1.68-2,1.16,1.16,0,0,0,.47.57,2,2,0,0,1-.06-.71c.15.06.69.22.86-.22a.47.47,0,0,1-.61-.15,1.34,1.34,0,0,0,.29-1.48l.85.2-.77-.62.6-.42-.82,0,.27-.19-.72.15a.92.92,0,0,1-1.53.91h-1l.55.35-.27.72.57-.41c.06.35.24.89.7,1a.91.91,0,0,1-.46.62c-.11.05.4,0,.57,0A1.89,1.89,0,0,1,286.81,74a1,1,0,0,1-.39.56c.17,0,.6.41.7,1.21a1.58,1.58,0,0,0,.05,2,1.1,1.1,0,0,1,.16-.45,1.43,1.43,0,0,0,.51.94c0-.15.06-.3.08-.42a2,2,0,0,0,.82,1.11,1.73,1.73,0,0,0,.11-1.61c.11.07.26.27.33.31a2.56,2.56,0,0,0-1.55-2c-.05-.12,0-.27-.15-.42a4.45,4.45,0,0,1,2.36,1.23,2.93,2.93,0,0,0,.18,1.76,1.38,1.38,0,0,1,.35-.4,1.08,1.08,0,0,0,1.2.5c-.26-.15-.24-.33-.34-.55,1,.66,1.33-.06,1.44-.31-.26.17-1-.07-1.29-.49a.94.94,0,0,1,.42,0,1.35,1.35,0,0,0-1.5-.69l-.56-.42a1.28,1.28,0,0,0,.48,0c1.6-.17,2.34.27,2.78,1.23a1.27,1.27,0,0,0-.57-1.39,1.93,1.93,0,0,0,.67-.26.72.72,0,0,0,.65.46,1.28,1.28,0,0,0-.21,1.08,1.07,1.07,0,0,0,.88-.58.78.78,0,0,0,.86.54.86.86,0,0,0,.92-.54,1,1,0,0,0,.86.56,1.32,1.32,0,0,0-.23-1.1c.23,0,.57-.16.75-.77s0-.93-.2-1.08a1.08,1.08,0,0,0,.75-.73A1,1,0,0,0,297.08,73.28Zm-.19,1.46c-.06.13-.2.31-.38.24.13,0,.15.21.14.37a1.15,1.15,0,0,1-.45.67,1,1,0,0,1-.69.26c-.13,0-.33-.11-.32-.33,0,.15-.13.23-.27.27a1,1,0,0,1-.74-.27,1.26,1.26,0,0,1-.43-.64c0-.15,0-.37.19-.43-.14.05-.24-.07-.32-.21a1.43,1.43,0,0,1,.42-1.49c.13-.05.32-.12.44.06-.09-.13,0-.27.08-.4a1.15,1.15,0,0,1,1.42,0c.1.11.22.3.09.46.08-.12.23-.1.36,0a1.27,1.27,0,0,1,.45.68A1.28,1.28,0,0,1,296.89,74.74Z" />
            <path class="cls-1"
                  d="M295.83,73.83a.15.15,0,0,1-.08.08.16.16,0,0,1-.1,0,.12.12,0,0,1,0-.1.21.21,0,0,1,0-.11c.14-.13.37-.71-.38-.71s-.52.58-.38.71a.16.16,0,0,1,.05.11.12.12,0,0,1-.06.1.1.1,0,0,1-.11,0,.18.18,0,0,1-.07-.08c-.07-.19-.51-.6-.74.19s.35.72.51.61.07,0,.1,0a.12.12,0,0,1,.08.09.23.23,0,0,1,0,.12.12.12,0,0,1-.1.06c-.19,0-.68.34-.07.83s.74-.14.7-.33a.17.17,0,0,1,0-.12.11.11,0,0,1,.09-.06.14.14,0,0,1,.11.06.11.11,0,0,1,0,.11c0,.2.09.81.7.32s.11-.8-.08-.81a.13.13,0,0,1-.09-.06.16.16,0,0,1,0-.12s0-.08.07-.08.07,0,.11,0,.73.16.49-.62S295.89,73.63,295.83,73.83Zm-.1.6v0a.49.49,0,0,1-.09.31l.12.39-.3-.24a.37.37,0,0,1-.18,0,1,1,0,0,1-.17,0l-.28.23.1-.37a.52.52,0,0,1-.11-.33v0l-.29-.23h.36a.54.54,0,0,1,.28-.21l.11-.4.12.4a.5.5,0,0,1,.25.2h.4Z" />
            <path class="cls-1"
                  d="M263.67,72.18a1.27,1.27,0,0,1,.55,1.25,1.11,1.11,0,0,0,1.17,1.27.41.41,0,0,1,.27-.18,1.29,1.29,0,0,0-.61-.42.21.21,0,0,1-.24.12c-.1,0-.14-.21-.08-.39s.18-.31.28-.27.14.2.11.34a1.76,1.76,0,0,1,.67.49l.07-.07a3.89,3.89,0,0,1-.22-.66.29.29,0,0,1-.28-.28.29.29,0,0,1,.31-.27.3.3,0,0,1,.31.28.26.26,0,0,1-.18.24,1.38,1.38,0,0,0,.27.62c0-.06.09-.18.12-.27a2.46,2.46,0,0,1-.1-1.06A2.73,2.73,0,0,0,263.67,72.18Z" />
            <path class="cls-1"
                  d="M265.18,74.93c-.81-.42-1.19.45-.83,1,.56.83,1,1.5.27,1.67.18.11,1.82.52,2-.56A1.81,1.81,0,0,1,265.18,74.93Z" />
            <path class="cls-1"
                  d="M267.68,75.08c-.32-1.86-1.68-1-1.48-.41-1.95.34.31,2.88,2.26,1.9C268.45,76.57,267.94,76.63,267.68,75.08Z" />
            <path class="cls-1"
                  d="M280.49,77.12a10.84,10.84,0,0,0-1.8-1.07c2.84.07,3.32,1.17,3.61,1.37a3.31,3.31,0,0,0-1.42-1.59,5.93,5.93,0,0,0,1.64-.06c.08-.2.2-.79.36-1.26.36-1.1,1.22-1,1.37-.79.22-.28,0-1.89-1.07-.79a1.09,1.09,0,0,1-1.6.21c-.11.61.22,2,.5,2.1a44.58,44.58,0,0,1-4.59,0,19.25,19.25,0,0,0,1.61-1.48c-.05,1.56,1,1.14,1.15.54,1-.31.27-1.09-.17-1,1.26-.93.4-1.32.05-1.35-.63-1.15-1.17.07-1,.58-.94-1.45-1.21-.13-1.18.21-1,.62.2,1.26.63.94a8.62,8.62,0,0,1-3.13,2.07,4.69,4.69,0,0,0,1.12-1.94,5,5,0,0,1,1.87-2.9,3.32,3.32,0,0,0-2.06,1.64,13,13,0,0,1-.88,1.54c0-1.53-.76-2.14-1-2.24a1.46,1.46,0,0,1,.19,1.19,2.6,2.6,0,0,0-.13.59,5.67,5.67,0,0,0-.51-1.06c-.22-.31-1.06-1.51-2.09-1.6a4.85,4.85,0,0,1,1.91,2.86A4.49,4.49,0,0,0,275,75.74a8.59,8.59,0,0,1-3.17-2c.44.3,1.67-.35.61-.95,0-.34-.25-1.66-1.17-.2.12-.51-.45-1.72-1.05-.56-.34,0-1.2.45.07,1.36-.43,0-1.17.75-.15,1,.13.61,1.21,1,1.15-.55a18.28,18.28,0,0,0,1.62,1.43,37.23,37.23,0,0,1-4.22-.06c.27-.09.6-1.49.49-2.1a1.07,1.07,0,0,1-1.58-.21c-1-1.11-1.3.51-1.09.79.16-.17,1-.31,1.38.79.15.48.27,1.07.35,1.25a5.59,5.59,0,0,0,1.65.07,3.22,3.22,0,0,0-1.42,1.59c.29-.21.51-1.28,3.35-1.35a12,12,0,0,0-1.88,1.13,5.28,5.28,0,0,1-2.06.76,5.79,5.79,0,0,0,3.12-.6,5.74,5.74,0,0,1,3.15-.94,9.87,9.87,0,0,1-2.86,1.45c-.53,0,2.72,0,2.72,0a9,9,0,0,0,1.23-.93,6.47,6.47,0,0,0,1.27.91s3.25,0,2.72,0a10,10,0,0,1-2.88-1.4,5.93,5.93,0,0,1,3.16.88,5.52,5.52,0,0,0,3.13.55A5.36,5.36,0,0,1,280.49,77.12Z" />
            <path class="cls-1"
                  d="M262.81,70.18a2.58,2.58,0,0,1,.83-1.08c.14-.08-.07-.47-.35-.35a.27.27,0,0,0-.38-.26c-.06-.15-.19-.29-.41-.15a.27.27,0,0,0-.42-.1.24.24,0,0,0-.4,0,4.48,4.48,0,0,1,0,1.46C261.64,70.21,262.61,70.54,262.81,70.18Z" />
            <path class="cls-1"
                  d="M264.31,74.59a1.06,1.06,0,0,1-.39-.55,1.9,1.9,0,0,1-1.52-1.44c.18.05.67.07.57,0a1.06,1.06,0,0,1-.47-.63c.47-.1.65-.65.71-1l.57.41-.28-.72.56-.34H263a.92.92,0,0,1-1.52-.91l-.72-.17.26.2-.81,0,.59.42-.77.63.85-.21a1.32,1.32,0,0,0,.3,1.48.5.5,0,0,1-.61.15c.16.44.7.29.85.22a2,2,0,0,1-.05.71,1.15,1.15,0,0,0,.46-.57,2.63,2.63,0,0,0,1.68,2c.07,0-.3.32-.59.21a4.23,4.23,0,0,1-1.4-1.26c-.51.35-.63-.33-.66-.59-.61-.05-.82-1.1-.77-1.28-.08.07-.38.09-.8-.21s-.69-.87-1.75-.84c.79.44,1.25,1.1.64,2.07a.85.85,0,0,1,.61,1.29c.39,0,1.25,0,.94,1.1.28-.26,1-.66,1.32.3a1.64,1.64,0,0,1,1.38-.28c-.5.3-3.58,1.5-3.69-.75-.42.25-.19.93-.1,1.19a3.87,3.87,0,0,1-.83-.28.91.91,0,0,0-.27-.84,1.13,1.13,0,0,0,.77-.73,1,1,0,0,0-1-.1.93.93,0,0,0-.42-1c-.47-.38-.84-.29-1-.14a1.29,1.29,0,0,0-.4-1,1.2,1.2,0,0,0-.41,1c-.17-.15-.52-.27-1,.11a1,1,0,0,0-.43,1,1,1,0,0,0-1,.1,1.09,1.09,0,0,0,.76.73c-.19.14-.39.46-.21,1.07s.53.78.76.77a1.32,1.32,0,0,0-.24,1.1,1,1,0,0,0,.87-.56.83.83,0,0,0,.91.55.76.76,0,0,0,.86-.55,1.09,1.09,0,0,0,.87.59A1.19,1.19,0,0,0,257,76a.73.73,0,0,0,.65-.47,2.09,2.09,0,0,0,.68.26,1.24,1.24,0,0,0-.57,1.39c.44-1,1.17-1.41,2.77-1.22a1.28,1.28,0,0,0,.48,0l-.56.41a1.35,1.35,0,0,0-1.5.69,1,1,0,0,1,.4,0c-.31.42-1,.66-1.27.49.11.26.42,1,1.43.31-.09.23-.07.4-.33.55a1.07,1.07,0,0,0,1.2-.49,1.34,1.34,0,0,1,.35.39,2.92,2.92,0,0,0,.18-1.74,4.4,4.4,0,0,1,2.36-1.24,1.43,1.43,0,0,0-.15.42,2.6,2.6,0,0,0-1.55,2,3.43,3.43,0,0,1,.33-.32A1.73,1.73,0,0,0,262,79a2,2,0,0,0,.82-1.11c0,.12.13.28.07.42a1.35,1.35,0,0,0,.51-.93,1,1,0,0,1,.17.45,1.59,1.59,0,0,0,.05-2A1.43,1.43,0,0,1,264.31,74.59Zm-7.21.13c-.07.12-.2.31-.38.23.14,0,.16.21.14.37a1.21,1.21,0,0,1-.44.68,1.11,1.11,0,0,1-.7.25c-.13,0-.33-.11-.32-.33,0,.16-.13.23-.27.26a1,1,0,0,1-.72-.25,1.19,1.19,0,0,1-.43-.65c0-.14,0-.37.17-.43-.13.05-.24-.07-.31-.2a1.36,1.36,0,0,1,0-.85,1.17,1.17,0,0,1,.43-.64.32.32,0,0,1,.43,0c-.09-.12,0-.27.08-.38a1,1,0,0,1,.73-.27,1.15,1.15,0,0,1,.69.25.38.38,0,0,1,.08.47c.08-.13.24-.1.36,0a1.34,1.34,0,0,1,.46.68A1.25,1.25,0,0,1,257.1,74.72Z" />
            <path class="cls-1"
                  d="M256,73.82a.2.2,0,0,1-.07.09c-.05,0-.09,0-.12,0a.16.16,0,0,1-.05-.1.14.14,0,0,1,.05-.1c.14-.12.38-.7-.39-.71s-.52.57-.38.7.05.07.05.11a.16.16,0,0,1-.05.1.1.1,0,0,1-.18-.05c-.07-.19-.5-.61-.74.17s.34.73.5.62.06,0,.1,0a.09.09,0,0,1,.07.08.24.24,0,0,1,0,.12.13.13,0,0,1-.09.06c-.2,0-.69.32-.08.82s.73-.12.69-.32a.11.11,0,0,1,0-.11.15.15,0,0,1,.1-.06.1.1,0,0,1,.1.06.2.2,0,0,1,0,.11c0,.2.07.81.69.34s.12-.81-.07-.83a.12.12,0,0,1-.09-.05.12.12,0,1,1,.16-.19c.16.1.73.17.51-.62S256.11,73.63,256,73.82Zm-.14.6v0a.52.52,0,0,1-.11.33l.11.37-.29-.23-.16,0a.41.41,0,0,1-.19,0l-.3.24.12-.39a.69.69,0,0,1-.09-.31v0l-.32-.26h.4a.42.42,0,0,1,.24-.2l.12-.41.12.4a.44.44,0,0,1,.27.21h.36Z" />
            <path class="cls-1"
                  d="M286.35,49.84c.49-.13.31-.68.28-.79l-.86.21C285.82,49.45,285.89,50,286.35,49.84Z" />
            <path class="cls-1"
                  d="M285.6,51.29l.8-.34-.72-.22C285.65,50.92,285.63,51.12,285.6,51.29Z" />
            <path class="cls-1"
                  d="M284.22,58.91s-.26-.42-.51-.79l-.34.51Z" />
            <path class="cls-1"
                  d="M286.3,55.29l-.85-.24c0,.19-.19.69.27.81S286.28,55.41,286.3,55.29Z" />
            <path class="cls-1"
                  d="M283.52,57.46c.06.07,1,1.52,1.16,1.74a2.05,2.05,0,0,1,.27,0,4.09,4.09,0,0,1,1,0,14.86,14.86,0,0,0,2.14-7.75,16.41,16.41,0,0,0-.41-3.54,9.37,9.37,0,0,1-1.82,0c-.26-.06-.55.15-.38.62,0,0,0,.14.08.29l.89-.23s.08,0,.05-.14-.05-.21,0-.23l.21,0v0s.16.75.16.77.24,1.15-.4,1.35a.51.51,0,0,1-.17,0c-.38,0-.54-.43-.55-.46,0,.17,0,.42,0,.57l1.3.39h0l0,.25-1.71.75a2.19,2.19,0,0,1,0,.31,2.44,2.44,0,0,1-.08.61l1.31.18s0,0,0,0a1.49,1.49,0,0,0,0-.22.11.11,0,0,0-.11-.11h-.26v-.28l.82,0v.06s-.11,1.49-.21,1.84v.05L286,54.2l0-.25.26,0s.11,0,.12-.06,0-.24,0-.29a.67.67,0,0,0,0-.07l-1.4-.21a4.86,4.86,0,0,1-.37.76l0,.13a.19.19,0,0,0,0,.1s0,0,.08.06l1.54.42c.05,0,.09,0,.1-.1s.05-.21.09-.21l.22.06v.06l-.18.76c0,.1-.24,1-.8,1h-.12c-.46-.1-.47-.6-.47-.71a1.88,1.88,0,0,1-1,.34c-.43.06-.81.13-.93.38a.88.88,0,0,0,.13.71l.07-.12.18.13-.1.16A.25.25,0,0,0,283.52,57.46Zm-.06-.65.33-.72h0a.5.5,0,0,1,.16,0h.09l0,.09a.12.12,0,0,0,0,.05l.05.07,1.48.81h0c.06,0,.08,0,.08-.05a.77.77,0,0,1,.09-.17l0,0,.18.1-.53,1.13-.17-.12.09-.2s0,0-.07-.09-1.43-.85-1.48-.88h0s0,0-.05,0-.07.1-.07.1l0,0Z" />
            <path class="cls-1"
                  d="M264.38,55.58h0L266,55a.07.07,0,0,0,0,0,0,0,0,0,0,0-.05.31.31,0,0,0-.07-.15.72.72,0,0,1-.25.07,1.87,1.87,0,0,1-.91-.08.82.82,0,0,0-.48.76C264.34,55.53,264.36,55.58,264.38,55.58Z" />
            <path class="cls-1"
                  d="M270.19,55.71l-.54.24.44.45-.22.23,1.3.17v.34l.57-.44a8.66,8.66,0,0,0,1.16,2.36c1.16,1.28,2.13,2.41,2.14,3l.26.27.26-.27c0-.63,1-1.76,2.14-3a8.51,8.51,0,0,0,1.15-2.36l.57.44,0-.34,1.3-.17-.22-.23L281,56l-.54-.24.13-.3-.93.23.68-1.14-.32.07-.07-.7-.55.37-.15-.33-.39,1.3-.41-.94-.14.3-.51-.31-.05.65-.3,0,.69,1.22-.23.22.63.2a9,9,0,0,1-1.21,2.23c-.55.73-1.58,1.42-1.79,1.92l0-2.62.73.13-.14-.31,1.1-.79-.29-.11.2-.6-.59,0v-.33l-.73.67.13-1.36-.26.23-.34-.59-.34.59-.26-.23.14,1.36-.74-.67v.33l-.58,0,.2.6-.29.11,1.09.79-.13.31.72-.13,0,2.62c-.2-.5-1.23-1.19-1.79-1.92a9.42,9.42,0,0,1-1.21-2.23l.63-.2-.23-.22.69-1.22-.29,0-.05-.65-.52.31-.13-.3-.42.94-.38-1.3-.15.33-.55-.37-.08.7-.32-.07.69,1.14-.93-.23Z" />
            <path class="cls-1"
                  d="M269.59,42.87a.29.29,0,0,0,0,.36s0-.14.12-.16a.31.31,0,0,0,.11.33.5.5,0,0,1,.12-.23.28.28,0,0,1,.12.25.39.39,0,0,0,.21-.34c0,.05.14.16.14.2a.44.44,0,0,0,.07-.42c.25,0,.32-.15.31-.2s-.14.06-.14,0-.1-.15-.13-.16,0-.1,0-.16,0,0,.05,0a.22.22,0,0,0-.22,0s0-.19,0-.25a.31.31,0,0,0-.18.13.29.29,0,0,0-.12-.18c-.08,0-.11.14-.13.18a.26.26,0,0,0-.15-.14.3.3,0,0,0-.09.26c-.06-.12-.21,0-.21,0s.07,0,.07.06,0,.17.06.23c-.13.25-.2.12-.22.08S269.34,42.94,269.59,42.87Zm.67-.41a.12.12,0,0,1,.1.12.1.1,0,1,1-.2,0C270.16,42.51,270.2,42.46,270.26,42.46Zm-.18.27a.19.19,0,0,0,.11.07c0,.13-.05.31-.32.31a.25.25,0,0,0,.1-.32A.67.67,0,0,0,270.08,42.73Zm-.18-.28a.11.11,0,0,1,0,.22.11.11,0,0,1,0-.22Z" />
            <path class="cls-1"
                  d="M270.8,45.94c-.05.07-.13.06-.14,0s-.09-.15-.12-.15,0-.11,0-.17a.08.08,0,0,1,.05-.05.33.33,0,0,0-.22,0s0-.19,0-.24a.34.34,0,0,0-.19.14.22.22,0,0,0-.12-.18c-.08,0-.1.13-.12.17a.27.27,0,0,0-.15-.13.24.24,0,0,0-.09.24c-.07-.12-.22-.05-.22-.05s.07,0,.08.06,0,.17.05.23c-.12.25-.2.11-.22.08s-.05.31.2.24a.29.29,0,0,0,0,.37s0-.15.12-.17a.34.34,0,0,0,.11.33.42.42,0,0,1,.13-.23.27.27,0,0,1,.11.25.37.37,0,0,0,.22-.34c0,.06.13.16.13.2a.43.43,0,0,0,.08-.42C270.74,46.2,270.82,46,270.8,45.94Zm-1-.12c0-.06.05-.13.1-.13a.12.12,0,0,1,.11.13.11.11,0,1,1-.21,0Zm.08.54a.23.23,0,0,0,.09-.32.16.16,0,0,0,.12,0,.44.44,0,0,0,.11.08C270.21,46.17,270.12,46.35,269.85,46.36Zm.39-.42a.11.11,0,0,1-.11-.12.11.11,0,0,1,.11-.11.1.1,0,0,1,.1.11C270.34,45.89,270.3,45.94,270.24,45.94Z" />
            <path class="cls-1"
                  d="M270.81,44.28c-.05.07-.13.06-.14,0s-.1-.14-.12-.15,0-.1,0-.17,0,0,.05,0a.24.24,0,0,0-.22,0s0-.2,0-.24a.31.31,0,0,0-.2.13.23.23,0,0,0-.12-.19c-.07,0-.09.14-.12.18a.23.23,0,0,0-.14-.13.27.27,0,0,0-.1.25.17.17,0,0,0-.22-.06s.08,0,.08.06,0,.17.05.24c-.11.24-.2.1-.22.07s-.05.31.2.24a.29.29,0,0,0,0,.36s0-.14.11-.15a.33.33,0,0,0,.12.32.37.37,0,0,1,.12-.23.28.28,0,0,1,.12.25.39.39,0,0,0,.22-.34s.13.16.12.2a.43.43,0,0,0,.08-.42A.22.22,0,0,0,270.81,44.28Zm-1.05-.13a.11.11,0,1,1,.21,0,.11.11,0,0,1-.1.11A.11.11,0,0,1,269.76,44.15Zm.08.54c.05,0,.16-.12.08-.32l.12,0a.47.47,0,0,0,.12.07C270.18,44.5,270.1,44.69,269.84,44.69Zm.39-.42a.13.13,0,0,1-.11-.12.12.12,0,0,1,.11-.11.11.11,0,0,1,.1.11C270.33,44.22,270.29,44.27,270.23,44.27Z" />
            <path class="cls-1"
                  d="M268.32,43.48c0-.14.07-.19.12-.17s.12.06.21,0a.4.4,0,0,1,.24-.06c0,.07-.11.1-.14.12a.81.81,0,0,0,.47-.12c0,.07,0,.09-.08.12h.38c-.11,0-.16-.2-.16-.32a3.15,3.15,0,0,1-.41,0c-.36,0-.25-.05-.26-.09s0-.13-.07-.12c-.11-.22-.35,0-.35,0s.12,0,.16,0a.15.15,0,0,0,.05.19.12.12,0,0,0-.12.15C268.28,43.21,268.15,43.35,268.32,43.48Z" />
            <path class="cls-1"
                  d="M271.29,43.21c0-.06-.11-.05-.11,0a.19.19,0,0,0-.2.12.16.16,0,0,1,.16,0s0,.06.06.06h.48c.12,0,.12-.12.47-.12-.07,0,0,.09-.18.12h.57c.08,0,.32,0,.07-.24,0,.12-.18.17-.19-.09a.12.12,0,0,1,.11-.11s0,0-.08,0-.41,0-.48.13a.22.22,0,0,1,.19.12.6.6,0,0,0-.45,0s.05-.15-.07-.1c0-.16-.22,0-.22,0s.13,0,.12,0,0,.11,0,.16S271.34,43.28,271.29,43.21Z" />
            <path class="cls-1"
                  d="M268.63,42.48a.25.25,0,0,0,.11,0c.13,0,.2.24.16.37a2.69,2.69,0,0,0,.39,0c-.34-.18-.19-.38-.12-.41s.11-.07.06-.13a.15.15,0,0,0,0-.22s-.05.14-.12.12-.16,0-.17.09a.14.14,0,0,0-.26,0,.11.11,0,0,0-.11,0,.14.14,0,0,0,0,.18A.12.12,0,0,1,268.63,42.48Z" />
            <path class="cls-1"
                  d="M274.77,43.17a.14.14,0,0,0,0-.1s-.1,0-.14,0,0-.09,0-.1a.14.14,0,0,0,.05-.22c0,.05-.05.08-.07.1s-.17,0-.32,0c-.36,0-.61.13-.82.13s-.44-.33-.43-.33l1.33,0c.2,0,.28-.1.28-.22s.18,0,.22,0c0-.27-.24-.33-.32-.27s-.16-.07-.24-.07h-3.4c-.11,0-.2-.16-.2-.16a.25.25,0,0,0,.26.3c-.07,0-.12.13-.2.12s.25.07.36-.08c0,.15.28.21.32.13s-.05-.12,0-.13h2.9c.06,0,.09,0,.09.07s-.05.08-.11.08h-1.94a5,5,0,0,0-1.4.21.35.35,0,0,1-.25.29.42.42,0,0,1-.05.22,2.42,2.42,0,0,0,.36-.18,4,4,0,0,1,1.17-.28s-.09.07-.1.1a.83.83,0,0,1,.42,0,.18.18,0,0,1,.16.1s.19.46.55.48a.79.79,0,0,0,.39-.13,2.18,2.18,0,0,1,.58-.17c.22,0,.12.05,0,.08s-.09.06,0,.1-.11.12,0,.2,0-.08.08-.11.17.07.16-.07a0,0,0,0,1,0-.06.15.15,0,0,0,.19.13l.05,0a.12.12,0,0,1,.1.13C274.93,43.24,274.79,43.21,274.77,43.17Z" />
            <path class="cls-1"
                  d="M268.32,45.11c0-.14.07-.19.12-.17s.12.06.21,0a.34.34,0,0,1,.24-.06c0,.07-.11.1-.14.12a.69.69,0,0,0,.47-.13c0,.08,0,.1-.08.13h.38c-.11,0-.16-.2-.16-.33a2.65,2.65,0,0,1-.41,0c-.36,0-.25,0-.26-.09s0-.13-.07-.12c-.11-.22-.35,0-.35,0s.12,0,.16,0-.05.09.05.19a.12.12,0,0,0-.12.15C268.28,44.83,268.15,45,268.32,45.11Z" />
            <path class="cls-1"
                  d="M271.29,44.83c0-.06-.11,0-.11,0a.19.19,0,0,0-.2.12.23.23,0,0,1,.16,0s0,.07.06.07h.48c.12,0,.12-.12.47-.12-.07,0,0,.08-.18.12h.57c.08,0,.32,0,.07-.24,0,.12-.18.17-.19-.09,0-.08.06-.12.11-.11s0,0-.08,0-.41,0-.48.13a.22.22,0,0,1,.19.12.6.6,0,0,0-.45,0s.05-.15-.07-.11c0-.15-.22,0-.22,0s.13,0,.12,0,0,.1,0,.15S271.34,44.91,271.29,44.83Z" />
            <path class="cls-1"
                  d="M269.29,44.52c-.34-.17-.19-.38-.11-.41s.11-.07.06-.12a.16.16,0,0,0,0-.22.12.12,0,0,1-.13.12c-.12-.11-.15,0-.16.08a.15.15,0,0,0-.27,0,.08.08,0,0,0-.1,0,.14.14,0,0,0,0,.17.12.12,0,0,1,.14-.07.16.16,0,0,0,.11,0c.13,0,.2.24.15.37A2.69,2.69,0,0,0,269.29,44.52Z" />
            <path class="cls-1"
                  d="M274.77,44.8a.1.1,0,0,0,0-.09s-.1,0-.14-.05,0-.07,0-.1a.13.13,0,0,0,.05-.21s-.05.07-.07.09-.17,0-.32,0c-.36,0-.61.13-.82.13s-.44-.33-.43-.33c.45,0,.89,0,1.33,0,.2,0,.28-.11.28-.23s.18,0,.22,0c0-.27-.24-.32-.32-.27s-.16-.06-.24-.06h-3.4c-.11,0-.2-.15-.2-.15a.26.26,0,0,0,.26.3c-.07,0-.12.13-.2.12s.25.07.36-.08c0,.15.28.21.32.13s-.05-.12,0-.13h2.9c.06,0,.09,0,.09.07s-.05.08-.11.08h-1.94a4.84,4.84,0,0,0-1.4.2.35.35,0,0,1-.25.3.36.36,0,0,1-.05.21l.36-.18a4.61,4.61,0,0,1,1.17-.29s-.09.08-.1.12a.77.77,0,0,1,.42,0,.29.29,0,0,1,.16.11s.19.46.55.48a.79.79,0,0,0,.39-.13,1.86,1.86,0,0,1,.58-.17c.22,0,.12,0,0,.08s-.09.06,0,.1-.11.11,0,.19,0-.07.08-.1.17.07.16-.07a0,0,0,0,1,0-.06.15.15,0,0,0,.19.13.09.09,0,0,0,.05,0s.1.07.1.14C274.93,44.87,274.79,44.83,274.77,44.8Z" />
            <path class="cls-1"
                  d="M269.36,46.32H269c-.35,0-.24-.06-.26-.1s0-.13-.07-.13c-.11-.22-.35,0-.35,0s.12,0,.17.05-.05.09.05.18a.12.12,0,0,0-.13.15c-.07,0-.2.13,0,.27,0-.14.07-.2.12-.17s.12,0,.21,0a.35.35,0,0,1,.24-.05c0,.06-.11.1-.13.11a.65.65,0,0,0,.46-.13c0,.07,0,.1-.08.13h.38C269.41,46.61,269.36,46.44,269.36,46.32Z" />
            <path class="cls-1"
                  d="M272.43,46.32c0-.07.06-.11.11-.1l-.08,0a.78.78,0,0,0-.48.12s.12,0,.19.13a.56.56,0,0,0-.46,0s.05-.15-.06-.1c0-.16-.23,0-.21,0s.12,0,.1,0,0,.11,0,.15-.22,0-.27,0-.11,0-.11,0a.17.17,0,0,0-.19.11.16.16,0,0,1,.15,0s0,.07.06.07h.49c.11,0,.11-.13.46-.13-.06,0,0,.1-.16.13h.56c.08,0,.31,0,.07-.24C272.63,46.54,272.44,46.59,272.43,46.32Z" />
            <path class="cls-1"
                  d="M269.29,46.18c-.34-.17-.19-.38-.11-.4s.11-.08.06-.12a.16.16,0,0,0,0-.22.11.11,0,0,1-.13.12c-.12-.11-.15,0-.16.09a.15.15,0,0,0-.27,0,.07.07,0,0,0-.1,0,.14.14,0,0,0,0,.17c0-.06.1-.07.14-.06s.05,0,.11,0,.2.25.15.37Z" />
            <path class="cls-1"
                  d="M274.77,46.46a.13.13,0,0,0,0-.1l-.14,0a.07.07,0,0,1,0-.1.13.13,0,0,0,.05-.21s-.05.07-.07.08-.17,0-.32,0c-.36,0-.61.13-.82.13s-.44-.33-.43-.33l1.33,0c.2,0,.28-.09.28-.22s.18,0,.22,0c0-.27-.24-.33-.32-.27s-.16-.07-.24-.07h-3.4c-.11,0-.2-.15-.2-.15a.26.26,0,0,0,.26.3c-.07,0-.12.12-.2.12s.25.07.36-.08c0,.15.28.21.32.13s-.05-.12,0-.13h2.9c.06,0,.09,0,.09.08s-.05.08-.11.08h-1.94a5.37,5.37,0,0,0-1.4.21.35.35,0,0,1-.25.3.36.36,0,0,1-.05.21,2.42,2.42,0,0,0,.36-.18,4.35,4.35,0,0,1,1.17-.28s-.09.07-.1.11a.8.8,0,0,1,.42,0,.28.28,0,0,1,.16.1c0,.05.19.47.55.47a.69.69,0,0,0,.39-.12,1.91,1.91,0,0,1,.58-.18c.22,0,.12.05,0,.08s-.09.07,0,.1-.11.11,0,.19c0-.07,0-.08.08-.11s.17.07.16-.06,0-.06,0-.07a.14.14,0,0,0,.19.12l.05,0a.12.12,0,0,1,.1.13C274.93,46.53,274.79,46.49,274.77,46.46Z" />
            <path class="cls-1"
                  d="M271.33,52l-.15.29,1.45,0a.87.87,0,0,1,.88-.4,4.09,4.09,0,0,1,0-2.25c1.09-2.11-.41-2.31-1.48-1.57s-1.55.54-1.7.52l0-.36-.65-.44-.59.28C269.12,49,269.29,51.43,271.33,52Zm1.38-3.64c.19-.15.77-.14.42.53-.08.15-.15.28-.21.42l-.63-.67A4.29,4.29,0,0,0,272.71,48.36Zm-.75.49.74.76-.14.22-.84-.89A.66.66,0,0,0,272,48.85Zm-.61.26,1,1a1.33,1.33,0,0,0-.09.21l-1.16-1.22Zm-.7.12L272,50.69l-.11.2-1.59-1.69Zm1.08,2-.17.34a1.88,1.88,0,0,1-1.26-1.84Z" />
            <path class="cls-1"
                  d="M276.25,42.44c-.79,0-.33.87,0,.35-.16,0-.18-.18,0-.26v1.71c-.32-.17-.08-.33,0-.21,0-.27-.32-.22-.31,0a.25.25,0,0,0,.14.22.31.31,0,0,0-.32.09.28.28,0,0,0,.32.1.22.22,0,0,0-.14.21c0,.21.3.25.31,0-.05.11-.29,0,0-.21v1.77c-.26,0-.28-.21-.11-.24-.38-.45-.66.54.11.33h0c-.29.08-.43.06-.55.57.44-.08.46-.22.56-.49-.22.76.68.54.3.1,0,.17-.2.14-.21-.1h2.72c-.15.37-.3.11-.2,0a.17.17,0,0,0,0,.34.24.24,0,0,0,.2-.16.33.33,0,0,0,.08.34.36.36,0,0,0,.09-.34.24.24,0,0,0,.2.16c.19,0,.22-.34,0-.34.1.06-.05.32-.21,0h2.68c0,.23-.12.3-.19.14-.29.51.6.54.27-.15v0c.14.26.18.38.63.37-.22-.47-.34-.42-.63-.45.8,0,.35-.87.06-.35.16,0,.18.19-.06.26V44.41c.32.17.08.32,0,.21a.16.16,0,1,0,.31,0,.23.23,0,0,0-.15-.21.29.29,0,0,0,.33-.1.33.33,0,0,0-.33-.09.23.23,0,0,0,.15-.22.16.16,0,1,0-.31,0c.05-.12.29,0,0,.21V42.48c.24.05.25.25.09.26.33.5.7-.46-.09-.33.3-.06.43,0,.61-.51-.46,0-.49.17-.61.42.29-.73-.61-.62-.29-.14.06-.16.22-.11.19.14h-2.68c.15-.35.29-.09.19,0a.17.17,0,0,0,0-.33.25.25,0,0,0-.2.15.32.32,0,0,0-.09-.34.33.33,0,0,0-.07.34.23.23,0,0,0-.2-.15c-.19,0-.22.33,0,.33-.11,0,0-.32.19,0h-2.71c0-.22.13-.27.2-.12.27-.51-.6-.53-.28.15h0c-.14-.25-.18-.37-.63-.35C275.83,42.46,276,42.42,276.25,42.44Zm.25.14h5.24v3.5H276.5Z" />
            <path class="cls-1"
                  d="M278,45.16s.05,0,.08,0,.05,0,0,.07-.13.13-.05.2a.14.14,0,0,1,.1-.11c.1,0,.13,0,.15,0a.12.12,0,0,1,0,.15c.12,0,.18-.15.18-.18a.13.13,0,0,1,.05.14.22.22,0,0,0,.13-.24s.1,0,.11,0,.05-.22,0-.25a.44.44,0,0,1,.19-.1.22.22,0,0,1,0-.18.58.58,0,0,0-.34.11s-.1.07-.11.12-.06.1,0,.15c-.17,0-.09-.16-.23-.16s-.21,0-.2,0,.09.11.05.15-.16-.11-.16,0-.05,0-.09,0a.13.13,0,0,0,0,.15C277.91,45.13,278,45.14,278,45.16Z" />
            <path class="cls-1"
                  d="M278.08,44.39s-.07,0-.09.06a.13.13,0,0,0,0,.06c-.05.05-.05.17,0,.19s0-.1,0-.11.22,0,.26-.05.07,0,.07.11a.29.29,0,0,0,.2-.16s.11,0,.08.12a.39.39,0,0,0,.29-.21.59.59,0,0,0,.24.19.09.09,0,0,1,.05.08s-.05,0-.06,0l0,0a.2.2,0,0,1,.14.06c.06.07,0,.21.13.26a.47.47,0,0,0,.4,0s0,.08.08.09-.09.1,0,.16,0,.12.12.15a.12.12,0,0,1-.05-.12c.1,0,.13-.09.14-.1a.08.08,0,0,0,.13,0,.16.16,0,0,0,.24,0s-.12,0-.16,0,0,0,0-.06,0-.07-.07-.06a.18.18,0,0,0,0-.21c0,.06-.05.11-.1.11s0-.19-.08-.19-.33.12-.41,0,.05,0,0-.12l.16,0a.31.31,0,0,0,.29-.35c.05,0,.12,0,.1.1.16-.17,0-.29-.09-.29s0-.35,0-.47v-.07a.12.12,0,1,1,.23,0c0,.21,0,.64.34.42-.15,0-.17,0-.18-.1a1.08,1.08,0,0,0,0-.18c.07.11.46-.16.12-.31.1.12,0,.23-.1.18l0,0a.3.3,0,0,0-.29-.3.2.2,0,0,0-.13,0,.3.3,0,0,1,0-.17c-.07,0-.14.16-.14.44s0,.56,0,.56a.41.41,0,0,1,0,.11s0,0,0,.06-.26.17-.34.17-.1-.1-.16-.19a.14.14,0,0,1,0-.11c.12.06.21.05.26,0a.22.22,0,0,1-.1-.09.25.25,0,0,0,.19-.15h-.07a.1.1,0,0,1-.05-.1s0,0,0,0a.16.16,0,0,0,.09-.2s-.05.06-.11,0a.16.16,0,0,0,0-.15.15.15,0,0,1-.15,0c-.05,0-.05-.08-.12-.09a.29.29,0,0,0-.07.08s0,0,0,0-.05,0-.06.07.13.07.12.2c0,0-.09,0-.13-.06s-.12-.08-.12-.13,0,0,0-.05a0,0,0,0,0-.05,0,.2.2,0,0,0,.07.16l.07,0s.09.07.1.12a.12.12,0,0,1-.1,0s-.11,0-.13-.09l-.06,0s.07.09.06.09,0,0-.11.05a.72.72,0,0,1-.24-.22.4.4,0,0,1-.07-.37.06.06,0,0,0,0-.06c0-.2-.16-.2-.17-.2s.07,0,.07.14-.05,0-.07,0,0,0,0,.05,0-.05-.07-.05,0,0-.06,0a.07.07,0,0,0-.05,0,.12.12,0,0,0-.14.08s.07,0,.11,0,0,.08,0,.11,0,0,0,0-.13,0-.13.1a.18.18,0,0,0,0,.13s0-.06.08-.08,0,0,.05,0,.08,0,.1,0,.07.14,0,.13a.21.21,0,0,0,.24.09c0,.06-.09.1-.15.08a.21.21,0,0,0,.27.08s0,.07,0,.07a.38.38,0,0,1-.18.08s-.06,0-.09,0h-.05s-.05,0-.07,0-.05,0-.07,0,0,0,0,0a.15.15,0,0,0-.21.09S278.06,44.31,278.08,44.39Zm1.28-.74s.06.06.1.08a0,0,0,0,1,0,0l-.08,0S279.36,43.68,279.36,43.65Z" />
            <path class="cls-1"
                  d="M276.77,45.81h4.7v-3h-4.7Zm.24-1.42c.31.1.16.27.12.18a.14.14,0,1,0,.27,0,.19.19,0,0,0-.12-.18.31.31,0,0,0,.28-.08.29.29,0,0,0-.28-.08.19.19,0,0,0,.12-.17.14.14,0,1,0-.27,0c0-.1.19.07-.12.18V43.16c.07.08.15.2.11.23s0,0,0,0-.08.18,0,.2.09-.1.09-.1.13.1.2.1-.06-.2-.1-.2a.09.09,0,0,0,.1-.1c0-.12-.19-.1-.19,0s0,0,0,0-.17-.06-.25-.12h2c-.1.17-.2.06-.17,0s-.09.17,0,.18.13-.09.15-.15a.31.31,0,0,0,.06.26.28.28,0,0,0,.05-.26s0,.15.15.15.14-.17.05-.18-.07.12-.17,0h2c-.08.06-.22.17-.25.12s0,0,0,0-.17-.08-.19,0,.1.09.1.09-.1.14-.11.21.2-.07.2-.11,0,.11.1.11.09-.19,0-.2,0,.06,0,0,.07-.19.13-.26v1.13c-.31-.14-.16-.28-.12-.18a.14.14,0,1,0-.27,0,.18.18,0,0,0,.12.17.31.31,0,0,0-.29.08.34.34,0,0,0,.29.08.19.19,0,0,0-.12.18.14.14,0,1,0,.27,0c0,.09-.19,0,.12-.18v1.14c-.06-.07-.18-.23-.14-.26s0,0,0,0,.09-.18,0-.2-.1.1-.1.1-.12-.1-.2-.1a.32.32,0,0,0,.1.21s-.11,0-.09.09.19.1.19,0-.05,0,0,0,.19.08.26.14h-2c.09-.16.2-.09.18-.08s.08-.17,0-.17-.13.08-.16.15a.14.14,0,1,0-.1,0c0-.06,0-.15-.16-.15s-.13.16-.05.17.08-.08.18.08h-2c.07-.06.22-.17.25-.13s0,0,0,0,.17.07.19,0-.1-.09-.1-.09.1-.13.11-.21-.2.06-.21.1,0-.11-.08-.1-.1.19-.05.2,0-.06,0,0-.06.18-.12.26Z" />
            <path class="cls-1"
                  d="M278,49.63c.65-1-.66-1.1-.67,0h-.18a1.62,1.62,0,0,1,.07-.57c.43-.93-.09-1.24-.21-1.35-.12.11-.63.42-.22,1.35a1.73,1.73,0,0,1,.09.57h-.19c0-1.14-1.32-1.07-.67,0-.06-.26.42-.45.45,0h-.09V50h.44c0,.12-.09.27-.34.25.06.17.28.26.38.13a.23.23,0,1,0,.31,0c.11.12.32,0,.39-.13-.25,0-.34-.13-.34-.25h.44v-.33h-.09C277.62,49.18,278.1,49.37,278,49.63Z" />
            <path class="cls-1"
                  d="M266.56,49.1c.06-.15.05-.36-.25-.72l-.08.29a.59.59,0,0,1,.15.19A1.06,1.06,0,0,1,266.56,49.1Z" />
            <path class="cls-1"
                  d="M266.05,48.49a.17.17,0,0,0,0-.1h-.11Z" />
            <path class="cls-1"
                  d="M281.67,49.69h-.19a1.52,1.52,0,0,1,.09-.58c.42-.92-.09-1.24-.22-1.35-.12.11-.63.42-.21,1.35a1.73,1.73,0,0,1,.08.58H281c0-1.14-1.32-1.07-.67,0-.06-.27.41-.47.44,0h-.1V50h.45c0,.13-.09.28-.34.25.06.17.28.27.38.14a.22.22,0,1,0,.31,0c.1.13.31,0,.38-.14-.25,0-.33-.12-.33-.25H282v-.32h-.09c0-.5.5-.3.44,0C283,48.62,281.67,48.54,281.67,49.69Z" />
            <path class="cls-1"
                  d="M279.5,51.06h-.2a1.6,1.6,0,0,1,.1-.63c.46-1-.1-1.36-.24-1.48-.13.13-.7.47-.24,1.48a1.81,1.81,0,0,1,.09.63h-.19c0-1.25-1.46-1.18-.75,0-.06-.29.45-.5.5,0h-.11v.36H279c0,.14-.1.3-.37.27.06.19.3.29.41.15a.25.25,0,1,0,.35,0c.11.14.35,0,.42-.15-.28,0-.37-.13-.37-.27h.48v-.36h-.11c.05-.54.56-.33.5,0C281,49.88,279.51,49.8,279.5,51.06Z" />
            <path class="cls-1"
                  d="M275.07,66a2.63,2.63,0,0,0-.08.65,2.34,2.34,0,0,0,.19,1,.65.65,0,0,1,.51.16,2.05,2.05,0,0,0,.28-1.14,3.41,3.41,0,0,0-.07-.65C275.62,66,275.35,66,275.07,66Z" />
            <path class="cls-1"
                  d="M259.4,55.54a1,1,0,0,0-.3.21c-.05.1,0,.17-.05.23s-.35.16-.12.52c.07.11.15.23.19.92A1.58,1.58,0,0,0,260,58.6a1.68,1.68,0,0,1,.06-.69c.07-.2.17-.29.17-.44.36.32.27,1.37.46,1.62a1.22,1.22,0,0,0,.53.45,1.31,1.31,0,0,1,0-.56,2.64,2.64,0,0,0,.09-.66,2.06,2.06,0,0,1,.64,1,1.2,1.2,0,0,0,.78.74,4.63,4.63,0,0,1,1.46-.7,17.19,17.19,0,0,1-1.08-2.14,9,9,0,0,1-1.21-.69c-.46-.35-.32-.76-.08-.9a1.89,1.89,0,0,0,.68-.42,15,15,0,0,1-.43-4.66c-.41-.07-.49-.22-.56-.33l-.16,0c-1.15.29-1.29-.32-1.5-.56a6.92,6.92,0,0,0-.83.67,2.53,2.53,0,0,1,1.1.06,5.77,5.77,0,0,0-1.85,1.89C258.67,52.66,261.31,54.5,259.4,55.54Z" />
            <path class="cls-1"
                  d="M260.26,65.24l.22.48.24-.21Z" />
            <path class="cls-1"
                  d="M258.39,66.56a1.16,1.16,0,0,0-.49-.28c-.21,0-.27-.1-.3-.15a2.28,2.28,0,0,1-.05.34l1.19,1-.2-1.07A1,1,0,0,1,258.39,66.56Z" />
            <path class="cls-1"
                  d="M255.1,68.27l.36,0-.18-.56Z" />
            <path class="cls-1"
                  d="M261.45,63.06a.08.08,0,0,0,0,.13l.6.6c.08.1.14,0,.14,0a.68.68,0,0,0,0-.82A.47.47,0,0,0,261.45,63.06Z" />
            <path class="cls-1"
                  d="M262.64,37.13a1.57,1.57,0,0,1-1.38.35c-.1.31-.16.35-.24.42a.63.63,0,0,1,.08.4A1.67,1.67,0,0,0,262.64,37.13Z" />
            <path class="cls-1"
                  d="M254.17,35.5a2,2,0,0,0,.74,2.09c2-1.66,3.53-.59,3.66-.42-.53-.34-.77.17-.86.34s-.29.29-.38.24c.22.26.42.25.53.21s.21-.17.36-.16c-.23.16-.23.47-.28.73a.86.86,0,0,1-.51.54c.43.14,1.08,0,1.13-.18-.11.62.64.94.81,1-.17-.09-.2-.85.24-.77a.81.81,0,0,0,.95.06.73.73,0,0,1,.62.17c.12-.64-.31-.93-.43-.93.13-.72-.28-.74-.39-.76.05.07.14.19,0,.5s-.63.26-.81.2a2,2,0,0,0,.51-.23s.22-.85,0-.82a2.52,2.52,0,0,0-.73.27c0-.68.51-.67.56-.61a1.4,1.4,0,0,0,.73.06,1.55,1.55,0,0,1,0,.38c0,.11-.06.32.11.27s.36-.77.34-1c.49-.75.05-1.11-.1-1.23.42,0,.26-.55.12-.55s-1.37-.16-1.52-.16a2.43,2.43,0,0,0-1.62-.73c-.78,0-1.16-.31-1.23-.5a1.4,1.4,0,0,0,.22,1,1.33,1.33,0,0,1-1.21-.92,1,1,0,0,0,.44,1.41,1.26,1.26,0,0,1-1.51-.71c-.27.83.7,1.41,1.08,1.39A.94.94,0,0,1,254.17,35.5Zm4.3.29a.73.73,0,0,1,.69-.76.67.67,0,0,1,.59.35c.19-.05.42,0,.71.29-.07-.05-.51-.39-.95.26s-.94.55-1.11.41a.59.59,0,0,0,.22-.05A1,1,0,0,1,258.47,35.79Z" />
            <path class="cls-1"
                  d="M259.07,36h0a.26.26,0,0,1-.11-.2.23.23,0,0,1,.21-.24.17.17,0,0,1,.18.11l.17-.16a.39.39,0,0,0-.36-.2.46.46,0,0,0-.44.49.64.64,0,0,0,.15.37A.87.87,0,0,0,259.07,36Z" />
            <path class="cls-1"
                  d="M263.68,44.9a2.71,2.71,0,0,0-.84-3.19,10.23,10.23,0,0,1-1.44-.87A2.25,2.25,0,0,1,263,41c-.84-1.41-1.56-1.27-3.31-1a1.76,1.76,0,0,0,.14.52c-1.13-.17-1.42-.67-1.5-.93a1.35,1.35,0,0,1-1.62-.66,1.61,1.61,0,0,0,.73-.46,1.49,1.49,0,0,1-.71-.87c.18,0,.41-.15.6-.35-2.63-.55-4.06,3.57-2.59,5.38l.07.07a2.06,2.06,0,0,0,1,2.41,1.69,1.69,0,0,0,1.52,1.82c-.94-1.23,0-2.75.17-3.07-.17,3.07,1.42,3.22,1.92,3.19a2.09,2.09,0,0,1-.6-2,9.7,9.7,0,0,0,.41-2.21c.55,3.09,2.64,2.21,2.92,2.07A1.6,1.6,0,0,1,261,43.56a9.21,9.21,0,0,0-.59-2.22,11.39,11.39,0,0,0,2,1.32A3,3,0,0,1,263.68,44.9Zm-8.3-3.37a3.8,3.8,0,0,0-.47.94,2,2,0,0,1,1.7-2.46A10.58,10.58,0,0,1,255.38,41.53Zm.9,2a4,4,0,0,0-.4,1.27c-.7-.64-.12-1.79.42-2.42a3.9,3.9,0,0,0,.94-1.35A11.58,11.58,0,0,1,256.28,43.56Z" />
            <path class="cls-1"
                  d="M294,33.75a.9.9,0,0,1-.22-1.06,8.21,8.21,0,0,1-.59-.59,2,2,0,0,0,.32,1.87c.6.61.33.67.33.67-.3.15-.43,1.1.34,1,.5,0,.16-.81.16-.81A1,1,0,0,0,294,33.75Z" />
            <path class="cls-1"
                  d="M294.13,67.34c.24-.65-.3-.65-.34-.67a.05.05,0,0,0-.08,0s-.3.83-.3.83,0,.09,0,.1A.55.55,0,0,0,294.13,67.34Z" />
            <path class="cls-1"
                  d="M292,66.29l-.65.54.41.28Z" />
            <path class="cls-1"
                  d="M284.83,62.13l.47.14,0-.89Z" />
            <path class="cls-1"
                  d="M287.73,62.06l-.92,1.76s-.08.13,0,.2.49.32,1-.51S288.11,62.23,287.73,62.06Z" />
            <path class="cls-1"
                  d="M293.32,64.65l-.11,1.07c.23,0,1,.18,1.43-.93a1,1,0,0,1-.55-.46A1.25,1.25,0,0,1,293.32,64.65Z" />
            <path class="cls-1"
                  d="M292.9,65.25l.19-.57-.27-.09s-.49.8-.52.82Z" />
            <path class="cls-1"
                  d="M297.72,63.75a1.05,1.05,0,0,0-1.1-1v1a1,1,0,0,0,.71-.39c0,.78-1.25,1.27-1.31.05a1.16,1.16,0,0,1,.23-.85c0-.25-.26-.33-.34-.5a1.32,1.32,0,0,0-.44.79,11.91,11.91,0,0,1,.36,2.86A1.9,1.9,0,0,0,297.72,63.75Z" />
            <path class="cls-1"
                  d="M284.53,52.19s-.27.75-.59.88l0,1a2.86,2.86,0,0,0,.79-1.87A1.7,1.7,0,0,1,284.53,52.19Z" />
            <path class="cls-1"
                  d="M283.77,53.12a1,1,0,0,1-.34.08l-.19.82C283.43,54.05,283.67,53.88,283.77,53.12Z" />
            <path class="cls-1"
                  d="M295.28,46.92l-.73-.19-.1.47.73.18Z" />
            <path class="cls-1"
                  d="M295.13,48.16l0,.82h.44l0-.82Z" />
            <path class="cls-1"
                  d="M294.93,50.93l.42.08.12-.82-.43-.07Z" />
            <path class="cls-1"
                  d="M294.39,52.85l.42.15.23-.78-.42-.14Z" />
            <path class="cls-1"
                  d="M293.59,54.65l.38.24.36-.71-.38-.25Z" />
            <path class="cls-1"
                  d="M292.7,56.28l.35.27.42-.68-.35-.27Z" />
            <path class="cls-1"
                  d="M291.64,57.9l.37.28.41-.68-.36-.27Z" />
            <path class="cls-1"
                  d="M290.51,59.56l.35.28.43-.68-.35-.27Z" />
            <path class="cls-1"
                  d="M290.46,60.65l-.43-.07-.09.81.43.07Z" />
            <path class="cls-1"
                  d="M290.42,62.65l.74-.15-.08-.47-.74.15Z" />
            <path class="cls-1"
                  d="M292.47,61.75l.58-.51c0-.05-.21-.31-.36-.51-.16.12-.48.37-.61.49S292.15,62,292.47,61.75Z" />
            <path class="cls-1"
                  d="M292.93,44.34c.1-.2-.05-.49-.32-.66s-.59-.15-.69,0,.05.48.33.65S292.83,44.53,292.93,44.34Z" />
            <path class="cls-1"
                  d="M290.32,42.93c.07-.21-.12-.48-.43-.6s-.6,0-.67.17.12.47.42.59S290.25,43.14,290.32,42.93Z" />
            <path class="cls-1"
                  d="M290.77,42.69l-.27.66,1,.5.27-.65Z" />
            <path class="cls-1"
                  d="M292,35.92c-.11-.36.26-.41.32-.17C292.78,34.78,291.19,35.67,292,35.92Z" />
            <path class="cls-1"
                  d="M301.55,43.31c0,.29-.58.76-1.48.19-3.29-2.1-4.31,1.81-4.32,2.58l-1.52-.38s.63-.85.79-1a.68.68,0,0,0,.63-.72c.67-.74.35-2.64.16-3.16.39.2.71.47.7.72.68-1,0-2.75-.37-3.16a.79.79,0,0,1,1.06.64A2.39,2.39,0,0,0,296,36.13c.09-.59.93-.58,1.23-.24a1.63,1.63,0,0,0-1.95-1.69c0-.33.12-1,.57-1.07a1.59,1.59,0,0,0-1.7.24,2.11,2.11,0,0,0,.26.42,1.41,1.41,0,0,1,.32,1.24c.12.15,0,.47,0,.7A5.8,5.8,0,0,1,294.8,41c-.09.17-.38.34-.22-.11a6,6,0,0,0-.13-5c-1.29.52-1.2-1.35-1-1.53a2.34,2.34,0,0,1-.71-1.55.77.77,0,0,0-.68-.63,1.5,1.5,0,0,0-.2-.71,1,1,0,0,0-.31-.38s-.1-.06-.15-.08c-.09-.71-.51-.88-.68-.9a1.32,1.32,0,0,0-.15-.7,3.08,3.08,0,0,0,1.63.27,1.87,1.87,0,0,0,0,1.16.71.71,0,0,0-.34,0,1.18,1.18,0,0,1,.37.44,2.58,2.58,0,0,1,.68,0,2,2,0,0,1-.23-1.16A5.68,5.68,0,0,1,294,31.79a1.39,1.39,0,0,1,1.67,0,4.76,4.76,0,0,1,.68-1.46,4.76,4.76,0,0,1-1.43-.71c.38-.16,1.06.09,1.63.21a4.38,4.38,0,0,1,1.1-1.45,3.7,3.7,0,0,1-1.4-.83,2.54,2.54,0,0,1-1.22.53,2.28,2.28,0,0,1,.8-.83,2.29,2.29,0,0,1,.07-1.11,2.46,2.46,0,0,1-1.66.21,2.76,2.76,0,0,1-.88,1.21l.23-.72a3.17,3.17,0,0,1-3.41-1.78,1.78,1.78,0,0,1-2.06.95,3.18,3.18,0,0,1-.22,2.08,1.75,1.75,0,0,0,.4.34,3.33,3.33,0,0,0,.45-1.87c.18,0,1.11-.11,1.31-.56a2.39,2.39,0,0,0,.82.79,8.38,8.38,0,0,1-.8,1.47c.43,0,.95-.42,1.42-1.28a2.64,2.64,0,0,0,1.48.4c-.16.24-.63,1.22-.43,1.53a1.8,1.8,0,0,0-2,.44.86.86,0,0,0-.51-.31,1.57,1.57,0,0,0-.69,0,1.84,1.84,0,0,1,.1.83c0,.19,0,.37,0,.48a1,1,0,0,0,.63,1.28,1.19,1.19,0,0,0,.58,1.31,1.22,1.22,0,0,0,.65,1.38c.24.14-.19.47-.19.47-.17.11-.9.15-.84-.72a1.09,1.09,0,0,0-.52,1.39,1,1,0,0,0-1,.64.27.27,0,0,1-.2.12s-.36-.05-.18.55c0,.18-.14.38-.14.38s-.26.82.44.38c1.09-.69,1.52,0,.9.07a2.28,2.28,0,0,0-1.31.52.83.83,0,0,1-1,0c.14.24.22.76,1.44.28,0,.2.43.58,1,.19s.63.1.22.38a1.17,1.17,0,0,1-1.58-.29,1.68,1.68,0,0,0,.2.56l-.59-.14-.09.68c-.28,0-.39.42-.38.71a.78.78,0,0,0,.07.31h-.32a10.72,10.72,0,0,1-.35-1.19c-.06-.41-.21-.31-.33-.34a1.32,1.32,0,0,1-.41-.34s-.24-.11-.7.05l-.31.08V36.05a2.93,2.93,0,0,0-.35.79v4.4a16.6,16.6,0,0,1,1.78,2.41l.16-.07a.17.17,0,0,1,0-.2l.35-.14.05-.3a.81.81,0,0,1-.46-.74.82.82,0,0,1,.75-.87.77.77,0,0,1,.6.29l.1-.72a.32.32,0,0,1-.27-.35.31.31,0,0,1,.32-.31l.08-.59.69.16-.38.54.5-.11-.1,1-.41-.32c.22.79.69.78,1,.71a.33.33,0,0,0,.21-.31c0-.39-.46-.38-.37-.08-.63-.56.25-1.21.52-.49a1.11,1.11,0,0,1,.49-1,1.23,1.23,0,0,1-.14,1.16c.59-.42,1,.62.2.67.15-.08-.09-.46-.38-.1a.48.48,0,0,0,0,.28.78.78,0,0,0,1.39-.16l-.52,0,.37-1,.28.55v-.8l1.28.63-.54.54.55-.12-.44,1-.32-.45c-.43,1,.4,1.13.71,1.18a.49.49,0,0,0,.34-.22c.14-.37-.37-.51-.35-.2-.48-.72.52-1.11.62-.33a1.08,1.08,0,0,1,.71-.87,1.14,1.14,0,0,1-.41,1.08c.68-.24.83.88,0,.71.12-.14-.11-.51-.35-.17a.63.63,0,0,0,0,.45c.17.38.39.69,1.08.34l-.48-.14.63-.75.26.48.11-.66.57.45-.36.47a.34.34,0,0,1,0,.46.28.28,0,0,1-.42,0l-.65.83-.75-.71-.41.55.75.7-.22.29a10.1,10.1,0,0,0-5.66-2.81l.05-.36,1,.15.12-.69L287.77,42a.41.41,0,0,0-.38-.21.44.44,0,0,0-.4.46.44.44,0,0,0,.2.38c0-.3.43-.28.37,0l-.12.89-.33.14.13.29a6.43,6.43,0,0,1,1.16,0,14.36,14.36,0,0,0-2.66,1.46,8.35,8.35,0,0,1-1.61,1c-.32.1-.4.46-.3,1a6.34,6.34,0,0,1-.19,3.25c-.49.85-.16,1.25-.16,1.25a2,2,0,0,1-.45.94,14.18,14.18,0,0,0,.25-2.61l0-3.39a.68.68,0,0,1,.33-.69l-.34,0,0-.15.95-1.44-1,.72v-.3l0,0,.82-.61.39-.29c.08,0,0-.17,0-.18l-.08-.12,0,0a1.84,1.84,0,0,0,.14-.14l0,0,0,0a7.43,7.43,0,0,1,.44.76v0L283.94,46l.16-.1a5.14,5.14,0,0,0,1-.67,5.35,5.35,0,0,1,1.21-.87,12.84,12.84,0,0,0-6.79-6l-.29.84.54.21-.05.17,0,.1,0,0h-.05v0a.11.11,0,0,0-.06,0c-.08,0-.13.05-.14.05l-.59,1.68-.51,0v-.07s.45-1.42.52-1.7c0-.11,0-.17,0-.19h0l-.17-.06,0,0a3.46,3.46,0,0,0-1.42,0c-.08.52-.25,1.55-.25,1.55a.58.58,0,0,0,.28.09h.11c.11,0,.2,0,.36-.51v0l.29.11-.24.86L276.19,41l.05-.23h.2a.17.17,0,0,0,0-.09l.15-1.17a4.55,4.55,0,0,0-.57.36.48.48,0,0,1-.54.07v.35l-.27,0V40s0-.07-.05-.07h0a.57.57,0,0,1-.18,0v0c0,.08,0,.67,0,.69s0,0,0,0h0l.49,0a.21.21,0,0,0,.16-.22,3.1,3.1,0,0,0,0-.36V40l.24,0-.05.91h-.26c-.35,0-1.19,0-1.29.05l-.05,0V41s0-.16,0-.16v-.07l.17,0a.12.12,0,0,0,.07-.11q0-.09-.06-.93l0,0a3,3,0,0,0-.8-.39c.06.47.17,1.28.19,1.39s0,.07,0,.07H274V41h0c-.19,0-.77.15-.77.15l0,0-.05-.29h.05l.11,0s0-.08,0-.08l-.18-1.13-.21,1.64h-.23l-.95-1.35.39,1.29h-.25v0s-.45-1.47-.5-1.62a.11.11,0,0,0-.12-.08h0l-.13.05v-.05l-.05-.16v0l0,0a3,3,0,0,1,.42-.15s-.09-.45-.22-.87A13.19,13.19,0,0,0,264,45c.12.37.36.9.47,1.14l.08.18.25-.52,1.51-.15c-.23-.16-.7-.46-.79-.51a.21.21,0,0,0-.16,0l-.05.1-.22-.13.36-.62.14.09h0l0,0,0,0,0,0,0,0h0s0,0,0,0,0,.13,0,.14L267.31,46l-.17.27-1.71.17c.3.15.93.48,1,.52s.17,0,.17,0l.08-.13h0c.11,0,.11.07.12.08v0l0,0s-.18.41-.27.65l0,0-.15-.07h0s0-.06,0-.2v-.07s-.06,0-.07,0h0s-1.16-.6-1.38-.7h-.07a.17.17,0,0,0-.14.11l0,.06.53,1.1.11.13.71,0h0a.19.19,0,0,0,.15-.08c.06-.12.08-.15.11-.15l.19,0-.14.41c.57.56.51,1,.38,1.3l.22.33a10.58,10.58,0,0,1,.48-1.8l0,2.36s0,.28,0,.76a.85.85,0,0,0-.52.06,4.93,4.93,0,0,0-1-1.89c-.27-.31-1.14-1-1.32-1.45s-.55-1.2-.73-1.55a3.53,3.53,0,0,1-.5-1.2,3.5,3.5,0,0,0-2.19-2.5c.32,2.25,1.37,2.14,1.59,2.2a2.1,2.1,0,0,1-3.31.1c-.46,1.19.36,2.19.49,2.59a2.12,2.12,0,0,1-2.23-.61c-1,.51-2.81,2.1-3,3.4-1,6-5.09,5.1-.81-1,3-4.29-2-7.38-3.6-4.85-.56.89-1.09,0-1.23-.39-.73,1.35.27,1.84.68,1.8a6.21,6.21,0,0,0,.09,1.64c.14,1.09-.22,1.69-.77,1.54,2.25,1.33,2.25-1.62,2.14-2.34,1.31,1,1.7-.07,1.75-.57-1.3.72-1.53-1.78-.16-1.35s1.34,2.53.34,4.11a.75.75,0,0,0-.13-.55,1.17,1.17,0,0,1-.07-.76,1.68,1.68,0,0,0-.69,1.57,2.07,2.07,0,0,1-.33,1.71,1.06,1.06,0,0,0-.25-.79,1,1,0,0,1-.09-.9,3,3,0,0,0-.41,3,.69.69,0,0,1,0,.47c-.86,4.26,3,3,3.55.3,1,4.49-.69,4.49-.87,4.51s-.29.31-.29.4a.29.29,0,0,1-.14.25.52.52,0,0,0-.11.56.75.75,0,0,1-.05.73,2.19,2.19,0,0,0-.3,2.07.61.61,0,0,1,.24-.55,1,1,0,0,0,.43-.47,2.84,2.84,0,0,1,.12,1,3.89,3.89,0,0,1-.05.8,1.84,1.84,0,0,0,.32,1.24,1,1,0,0,1,0-.62c.11-.21.3-.25.32-.37a7.59,7.59,0,0,1,.38,2,1.62,1.62,0,0,1,.48.75,2.3,2.3,0,0,0,1.09,1.24c-.09-.4.09-.75.32-.77-.14.15-.21.6,0,.62s.3.35.32.51c.4-1,0-1.4-.14-1.35,0-.15,0-.6-.11-.67a3.2,3.2,0,0,1-.71-.44l.48.12a.87.87,0,0,1,.66.9.79.79,0,0,0,.39.52c-.16-.4-.05-1,.38-1a.75.75,0,0,0-.14.87c.12.12.43.12.51.25a1.19,1.19,0,0,0-.16-1.15.35.35,0,0,0-.26-.39c-.22-.11-.63-.33-.72-.68.11.15,0,.14.63.35.24.08.26.24.41.37s.22.1.26.06.14-.15.14-.15.54.22.64.44c0,0,.2-.1.1-.67-.13-.73-.52-.59-.71-.57.05-.28-.18-.5-.52-.3a1.22,1.22,0,0,1-1,.1.81.81,0,0,0,.66-.25.58.58,0,0,1,.75,0c-.09-.65-.61-.65-.68-.58-.23-.3-.36-.05-.59.25a.33.33,0,0,1-.61-.1c-.05-.33-1.43-2.77-.84-3.27s2.41-2.52,2.32-2.92a1.59,1.59,0,0,0,.45-1.72,1.09,1.09,0,0,1-.3-.6,3.41,3.41,0,0,0-.36-1.62,5,5,0,0,1-.26-2.83,7.4,7.4,0,0,0,.42,2.08,4.28,4.28,0,0,1,1.27-1.19,2.89,2.89,0,0,0-1.1.17c.5-1.26,2.8-2.39,3.3-2.68a3.55,3.55,0,0,1,.08.87c0,.71.84,1.29,1,1.43a1.54,1.54,0,0,1-.05-.86,3.43,3.43,0,0,0,.09-.69,3.34,3.34,0,0,1,.46,1.34,1.94,1.94,0,0,0,.72,1.46,1.09,1.09,0,0,1-.05-.83c.12-.25.76-.05.61,1.59-.12,1.14.27,1.74.81,1.79-.36-.7,0-.86,0-.86s.32-.19.32-.44c.23,1,.73.9,1,.75a5.46,5.46,0,0,1,.09.79.94.94,0,0,0,.65-1.06c.28-.21.15-.63,0-.83a.41.41,0,0,1,.27,0,18.21,18.21,0,0,0,2,5.78h0a9.28,9.28,0,0,1-2.26-3.69.64.64,0,0,1-.63.28.62.62,0,0,1-.22,0l-.2-.09c.23.67.3.85.3.85l0,.06-.21.07,0-.06c0-.1-.08-.21-.12-.21l-1.63.62s0,0,0,.08.07.21.07.21v.06l-.2.1v-.07a.93.93,0,0,1-.05-.14c-.16-.38-.51-1.24-.14-1.79a.76.76,0,0,1,.11-.14,2.19,2.19,0,0,1-.38-.6.13.13,0,0,0,0,.12c0,.15,0,.17,0,.17h-.11a17.38,17.38,0,0,1-.2-1.83h.06a3.15,3.15,0,0,1-.36-.17c-.26,0-.57-.56-.79-.76a14.89,14.89,0,0,0,2.14,7.85,4.28,4.28,0,0,1,.79,0h.16a.47.47,0,0,1-.12-.09.63.63,0,0,1-.15-.6h0l-.11-.2.53-.33.14.2-.05,0a.55.55,0,0,0-.21.36.38.38,0,0,0,.12.33.25.25,0,0,0,.27,0,.26.26,0,0,0,.14-.22s0-.8,0-.85a.8.8,0,0,1,.69-.74.63.63,0,0,1,.55.2,1.19,1.19,0,0,1,.23.69l.07,0,.12.21-.68.56-.16-.25,0,0s0,0,0,0a.66.66,0,0,0,.26-.41.54.54,0,0,0-.06-.46.28.28,0,0,0-.28-.07c-.28.05-.27.57-.26.85v.15a.87.87,0,0,1-.46.81l-.2.06.24.06a1.78,1.78,0,0,1,.78.52l.74-.71.2.2-.21.2s-.05.07,0,.11a.94.94,0,0,0,.12.14H268l.44-.49s0,0,0,0l-.35-.4a.2.2,0,0,0-.11,0,.27.27,0,0,0-.14.05c-.17.14-.26.23-.26.23l-.05,0-.15-.22.66-.56,0,0,.16.19c.24.28.8.94.88,1l.05,0,0,0-.1.13-.05,0-.09-.15a.12.12,0,0,0-.13,0c-.08.09-1.09,1.25-1.11,1.26s-.07.1,0,.15.12.14.12.15v0l-.14.14a9.33,9.33,0,0,0,.21,1.38,11.47,11.47,0,0,0,7.48,2.64,11.92,11.92,0,0,0,7.49-2.67,13.83,13.83,0,0,0,.23-1.52h0l-1.28-.66.39,1.52,0,0s-.58.47-.66.51l0,0-.14-.21,0,0,.12-.1s0-.07,0-.09-.83-1.36-.92-1.48,0-.06-.05-.06h0l-.14.08-.1-.23,0,0c.16-.1.63-.51.63-.51l0,0,.17.24,0,0-.09.08s0,.08,0,.08l.69,1.06-.47-1.73.12-.1,1.37.74-.79-.88h-.06a.42.42,0,0,1-.07.1l0,0-.17-.17L282,59l.12.14h0v0s0,.05-.07.12,0,.1,0,.1l1.08,1.19c0-.1.05-.19.08-.32a1.86,1.86,0,0,1,1-.86l-1.55-.47a.59.59,0,0,0-.2,0h0l-.08.1,0,0-.19-.16,0,0a5.92,5.92,0,0,0,.53-.7l0,0,.18.11-.09.14a.3.3,0,0,0,0,.14l.4.13.36-.58-.24-.35,0,0-.07.1,0,0-.17-.15,0,0,.11-.16a1.24,1.24,0,0,1-.24-1.09c.13-.38.54-.64,1.24-.79h0l.13,0a2.4,2.4,0,0,0,.77-.25c.09-.06.1-.11.09-.11s0,0,0-.06l-.58-.15s0,0,0,0,0,.17,0,.17v.06l-.24-.08.13-.58a.81.81,0,0,1-.62.25l0-.18a.45.45,0,0,1-.38,0,9.5,9.5,0,0,1-2.11,3.62A18.16,18.16,0,0,0,283,53a1.17,1.17,0,0,0,1.33-1.14c.39.43,1-.27.39-1.3s-.25-1-.25-1a1.71,1.71,0,0,0,.32.49,2.41,2.41,0,0,1,.39.64,2.37,2.37,0,0,0-.12-1.58c-.14-.34-.42-1.6.41-1.64s4.39.11,4.49-1.55c0-.32.17.06.17.06a1.14,1.14,0,0,1-.26.76,1.68,1.68,0,0,0,1.69-.45c.15-.13.12.12.12.12a1.69,1.69,0,0,1-.34.4,1,1,0,0,0,.85,0c.3-.17.34.05.12.18s-.43.4-1.48.05a2.29,2.29,0,0,1-1.27.09,2.53,2.53,0,0,1-1.24.59c.05.22.29,1.14.31,1.44a1.6,1.6,0,0,0,.53-.68,3.58,3.58,0,0,0,1.65.62c.38,0,.92.55,1.27,1.31a1.79,1.79,0,0,0-1.19.07,4.31,4.31,0,0,1,1.52,1.11,12.28,12.28,0,0,0,.87-2.39c.34.4-.52,2.82-1,4a2.22,2.22,0,0,0,.13,2,5.62,5.62,0,0,1-.36.58,2.06,2.06,0,0,0-.79-.64c-1.73-1,.49-2.36.49-2.36s.69-.52.44-.92a5.79,5.79,0,0,0-1.94-1.32,1.61,1.61,0,0,1,1.19-.56,2,2,0,0,0-.62-.52c-.16.28-1,.85-1.44.71a1.53,1.53,0,0,0-.85-.08,15.29,15.29,0,0,1-.35,5,1.22,1.22,0,0,0,1.06.42,3,3,0,0,0,1,.58c-.44.06-1.8.41-2.5.59a21,21,0,0,1-.86,2c.32-.33.78-.31,1.17-.44-.21.1-.21.45-.23.54a.58.58,0,0,1-.21.26,1,1,0,0,0,.92-.59,1.3,1.3,0,0,1,.71-.45,1.2,1.2,0,0,0-.1.35,1.78,1.78,0,0,1-.34.49s.53.15,1.1-.87c.69-1.24,1-1,1.48-1.05-1.06,1.57-2.28,3.12-2.28,4.61-2.94-2.61-5.46-1.88-5.48-.45a10.17,10.17,0,0,1-.69,3.15,1.34,1.34,0,0,0,1.4,1.92,1.57,1.57,0,0,1,1.8,1.82c0-.24-.27-1.1-.85-1.27a1.22,1.22,0,0,0,.32.76h-2.1a1.52,1.52,0,0,0,.38-1,1.68,1.68,0,0,1-1.51-2.26c.07-.2.14-.39.2-.58a13.53,13.53,0,0,1-2.05,1.22c-1.25.76-.39,2.48.85,3.37,1.05.76,1.15,1.69.54,2.31.06-.31.56-1-.77-2A5.74,5.74,0,0,1,280,67.53l-.29.85-.21-.07v0a0,0,0,0,1,0,0c0-.17.05-.34-.18-.42l0,0c0,.15-.22.63-.27.78a1.16,1.16,0,0,0,.53.15.7.7,0,0,0,.58-.33l0,0,0,0,.11.06.05,0-.51.78h0c-.14-.06-1.37-.55-1.56-.59l-.05,0v0s.06-.16.07-.2v0h0l.07,0s0,0,0,0a.12.12,0,0,0,.1-.07c0-.09.4-1.2.55-1.62,0-.12.06-.19.06-.21a.13.13,0,0,0,0-.08.25.25,0,0,0-.12-.1c-.16,0-.18-.06-.17-.11v0h0l.05-.13.43.18a1.39,1.39,0,0,1,.13-.89,12,12,0,0,1-1.7.46l0,.17h-.12c-.1,0-.13.06-.15.17s0,0,0,0-.17.85-.26,1.31l0,.23a.29.29,0,0,0,.07.24.41.41,0,0,0,.32.17.38.38,0,0,0,.35-.3l.34-1.5c0-.06,0-.15,0-.16l-.16-.06.08-.29.68.24-.06.27-.12,0h0a.15.15,0,0,0-.15.12c0,.18-.34,1.5-.34,1.51a.84.84,0,0,1-.76.59h-.09c-.21.41-.46.62-.75.62a1,1,0,0,1-.7-.39.67.67,0,0,1-.12-.16c-.12-.15-.26-.32-.35-.32-.52-.07-.91-.74-.91-1.55a2.5,2.5,0,0,1,.1-.69l-.8-.07.2.48-.29.16,0-.06s-.1-.21-.13-.3a.5.5,0,0,0-.24-.06.34.34,0,0,0-.3.13.2.2,0,0,0,0,.2s.12.16.65.31h.05a1.05,1.05,0,0,1,.77,1.16.67.67,0,0,1-.71.67,1.64,1.64,0,0,1-.36,0l0,.11-.26.11-.36-.89.26-.11,0,0s.25.44.55.44h.08a.32.32,0,0,0,.27-.3c0-.17-.15-.4-.49-.5,0,0-.72-.17-.88-.57a.87.87,0,0,1,0-.83.79.79,0,0,1,.29-.25,9.26,9.26,0,0,1-1.75-.47,1.75,1.75,0,0,1-.21,1.79c.07.18.2.45.32.72s.31.69.4.87a.27.27,0,0,0,.27.16.42.42,0,0,0,.27-.09.45.45,0,0,0,.12-.47l-.56-1.41s-.08-.18-.14-.16l-.1,0-.05,0-.13-.31.73-.35.14.31-.12.06a.18.18,0,0,0-.09.09.25.25,0,0,0,0,.17c.07.17.53,1.39.55,1.44a.92.92,0,0,1-.28,1,.8.8,0,0,1-.51.17.64.64,0,0,1-.61-.36l-.58-1.38a5.69,5.69,0,0,1-1,1c-1.33,1-.82,1.67-.76,2a1.54,1.54,0,0,1,.46-2.41c.76-.55,1.73-1.73,1.53-2.48a1,1,0,0,0-.62-.8,13.06,13.06,0,0,1-2.07-1.26c.06.19.13.38.2.57a1.7,1.7,0,0,1-1.48,2.3c0,.23.17.83.39,1h-2.09a1.31,1.31,0,0,0,.32-.76c-.59.17-.82,1-.85,1.27a1.58,1.58,0,0,1,1.8-1.83,1.34,1.34,0,0,0,1.4-1.91A10.19,10.19,0,0,1,267,61c0-1.5-3.1-2.44-6.65,1.67a10.75,10.75,0,0,1-.8.84,3,3,0,0,1,.21.83h0l1.88,1.1a.39.39,0,0,0,.17,0,.17.17,0,0,0,.16-.08l0,0,0,0,.1.11,0,0,0,0s-.62.62-.76.71l0,0,0,0a.9.9,0,0,1-.1-.11l0,0,0,0a.26.26,0,0,0,.11-.17.15.15,0,0,0-.06-.11l-.33-.2-.4.34.2.46s0,0,0,0,.1,0,.15-.1l.05,0,0,0,.16.2,0,0c-.07.08-.32.29-.53.49l-.11.09-.16-.22.07,0c.07-.06.13-.1.07-.27l-.83-1.83a1,1,0,0,1-.46.54l0,0s0,0,0,0a.34.34,0,0,0-.05.48l.84,1.33a.15.15,0,0,0,.08,0s.06,0,.07,0l.08-.07.06,0,0,0,0,0,.11.14,0,0,0,0a10.47,10.47,0,0,1-.82.7l0,0-.16-.24.05,0a.56.56,0,0,0,.13-.1c.05,0,.05-.06,0-.1l-.73-1.15.36,1.87-.13.1,0,0-1.37-1.08.61,1.15a.08.08,0,0,0,.07,0l.06,0a.72.72,0,0,1,.18-.1l.05,0,.12.26-.9.53-.13-.27,0,0,.21-.12a.1.1,0,0,0,0-.11l-.82-1.52a2.17,2.17,0,0,1-.26.27,2.37,2.37,0,0,0-.44-.54.19.19,0,0,0,0,.17,3.27,3.27,0,0,1-1.33-.94,2.27,2.27,0,0,1-2.69-2.31,1.39,1.39,0,0,1,.51-1.12.94.94,0,0,1-.15-.64,2.23,2.23,0,0,0-.81,1.84,3.09,3.09,0,0,0,.35,1.53,6.49,6.49,0,0,1,.54,3.25c-.22,1.4,4,4,9.91-2.28,3-3.23,4.21-1.76,4.21-1.76-.48,0-1.72-.33-3.41,1.6a4.51,4.51,0,0,1,.34,1.62,1.61,1.61,0,0,0,.56,1.07h-.29c-.14,0-.2.26,0,.42s.92.84.9,2.7a.87.87,0,0,1,.51.25c0-2.06-.32-2.27-.61-2.8h2c-.28.53-.62.82-.61,2.89a.39.39,0,0,1,.57,0c-.09-2.16.54-2.76.79-3-.2,1.09,1.08,2.24,1.87,1.75,1.72-1,3.61-2.13,5.6-2.09s3.87,1.05,5.61,2.09c.79.49,2.06-.66,1.86-1.75.27.24.9.84.8,3,.14-.07.34-.24.57-.11,0-2.07-.33-2.26-.61-2.78h1.95c-.29.53-.63.8-.63,2.86a.84.84,0,0,1,.53-.3c0-1.87.68-2.55.9-2.71s.15-.41,0-.41H286a1.63,1.63,0,0,0,.55-1.08,4.38,4.38,0,0,1,.35-1.62c-1.69-1.93-2.95-1.62-3.41-1.59,0,0,1.2-1.48,4.2,1.76,5.91,6.33,10.12,3.68,9.9,2.28a6.55,6.55,0,0,1,.55-3.25,3.22,3.22,0,0,0,.36-1.53c0-1.35-.76-2-1.49-2.11a1.22,1.22,0,0,1-.07.6,1.45,1.45,0,0,1,1.11,1.43c-.07,1.86-1.57,2.82-3.7,2a3.64,3.64,0,0,1-1.09.38,3.84,3.84,0,0,0,1,.42c.22,0,.42.42.4.78,0,.19-.11.66-.84.62.1.1.24.3.25,1.14,0,.21.24.69.63.69.21,0,.44-.16.67-.48a3.29,3.29,0,0,1-.55,0h-.05V69h.15s.14,0,.14-.32,0-.86,0-1.14v-.19a.35.35,0,0,0-.26-.37h-.05l0-.26h.05a6.29,6.29,0,0,0,.81,0,1.87,1.87,0,0,0,.84-.12l.06,0v.08c0,.28,0,.86,0,.86v.06h-.25v0c0-.17-.14-.49-.26-.49h-.46v.7h.18a.11.11,0,0,0,.07-.09c0-.09,0-.28,0-.28v0l.27,0v1.25h-.28v-.29a.11.11,0,0,0,0-.07.06.06,0,0,0-.06,0h-.2V69a1.87,1.87,0,0,0,.49-.09.77.77,0,0,0,.27-.61v0l.26,0v.87l0,0a5.38,5.38,0,0,1-1,.21,1.39,1.39,0,0,1-1.06.9h0c-.5,0-1-.59-1.06-1.46,0-.67-.09-.72-.16-.75s-.12.3-.17.45,0,.23,0,.25,0,0,.05,0a.29.29,0,0,0,.11.07l.05,0-.11.26-1.09-.51.09-.24,0,0,.1,0a.14.14,0,0,0,.13-.13s.45-1.17.58-1.52a.35.35,0,0,0,0-.26c0-.08-.11-.12-.15-.15h0l0-.12-.29,0s.07-.39.08-.5l-.22.1h0l-.62,2.34s0,.06.17.15l.05,0,0,.06s-.07.14-.07.14l0,0-.05,0s-.73-.42-.86-.53l0,0,0,0,.1-.14,0,0,.05,0a.25.25,0,0,0,.15.08s0,0,0,0l.12-.41-.45-.32-.32.26a.14.14,0,0,0,0,.06c0,.05.09.12.13.15l0,0-.16.22,0,0c-.11-.08-.53-.42-.65-.54l0,0h0c-.07,0-.64-.55-.81-.7l0,0,.17-.23,0,0a.59.59,0,0,0,.12.12.06.06,0,0,0,.05,0l.09,0,.92-1.16-1.62,1-.14-.11v0s.42-1.21.62-1.78l-.86,1.11a.24.24,0,0,0,.05.19.57.57,0,0,0,.09.08l0,0-.18.22-.65-.62.17-.22,0,0,.14.1s.07,0,.09,0l1.09-1.4a.35.35,0,0,0,0-.38l0,0,0,0a.84.84,0,0,1,.13-.12l0,0,0,0c.07.08.4.42.45.46l0,0,0,0c0,.1-.4,1.24-.54,1.63l1.44-.84,0,0c.07.08.54.5.6.56l.05,0-.19.23,0,0h0a.3.3,0,0,0-.16-.06.34.34,0,0,0-.25.16l-1,1.26a.09.09,0,0,0,0,.09.16.16,0,0,0,0,.08l0,0,.08.05,0,0,0,0a.94.94,0,0,0-.1.14l.13-.19.05,0a.33.33,0,0,0,.21.12.27.27,0,0,0,.14,0L292,65.9a2.28,2.28,0,0,1-.53.07l.84-1.37a13.45,13.45,0,0,1-1.24-1.11,1.88,1.88,0,0,0,.95-.64c.35.42,1.33-.54,1.42-.64a.44.44,0,0,0,.43.1,1.75,1.75,0,0,0-.5,1c-.06.4-.58.6-.81.59.15.55,1.13.53,1.46-.14a1.17,1.17,0,0,0,.86.63,1.33,1.33,0,0,1-.24-1.24c0,.64.55.35.55-.14s.12-.76.25-.83a1.27,1.27,0,0,0,.55-.72,1.35,1.35,0,0,0,.36.59.6.6,0,0,1,.19.47,1.43,1.43,0,0,0,0-1.47,1.33,1.33,0,0,1-.25-1.19c0,.12.21.44.32.57a1.18,1.18,0,0,1,.29.73,2.78,2.78,0,0,0,.09-1.32,1.82,1.82,0,0,1,.14-1.87s.27-.24.12-.48a.73.73,0,0,1,0-.58s.09-.22-.26-.35c-1.41-.47-.86-2.64-.82-3.11,2.74,3.47,4-.6,3.17-1.66a2.4,2.4,0,0,1-.14-1.72,2,2,0,0,0-.36-1.61,1.15,1.15,0,0,1-.05.53,3.3,3.3,0,0,0-.26.79c0,.12-.43-.44-.45-1.47a2.06,2.06,0,0,0-.56-1.53c.07.15-.08.55-.08.55a1.86,1.86,0,0,0-.21.78s-1-1.62-.52-2.83c1.36-3.32,3.25.89.8.15.34,1.21,1.22.87,1.65.6-.16,3.08,1.69,2.71,2.21,2.42-.22,0-.79-.36-.57-1.09a5.34,5.34,0,0,0,0-2.4C302.2,45.06,301.83,43.59,301.55,43.31ZM293,29.1a5.43,5.43,0,0,0,1.65-1.61c.07-.12.26-.08.2.11a11.59,11.59,0,0,1-.78,1.28c.2,0,2-.2,2.25-.25s.25,0,0,.14a19.27,19.27,0,0,1-2.35.56,14.65,14.65,0,0,1,1.09,1.3c.12.22-.13.25-.23.08a4.9,4.9,0,0,0-1.79-1.41C292.93,29.24,292.73,29.26,293,29.1Zm-3.64,7.34c-.13.06-.27,0-.3-.06s0-.22.17-.28.26,0,.31.06A.26.26,0,0,1,289.36,36.44Zm2.43-2.8c.2-.67.24-.91.17-1.08.44.4.2,1,.17,1.19a1.76,1.76,0,0,0-.11,1C291.72,34.62,291.59,34.31,291.79,33.64Zm-1.87-3.27c.08-.56.09-.76,0-.87.48.24.36.76.36.92s-.11.57.07.8C290,31.17,289.83,30.94,289.92,30.37Zm1,1.29c0,.19-.19.61-.05.89-.31-.11-.45-.39-.29-1s.22-.82.14-1C291.16,30.93,291,31.47,290.92,31.66Zm.27,1.08c.2-.67.26-.9.17-1.07.43.39.21,1,.17,1.19a1.84,1.84,0,0,0-.1,1C291.12,33.72,291,33.41,291.19,32.74ZM290,36.51c-.11,0-.27-.15-.08-.24s1.44-.58,1.58-.65a1,1,0,0,1,1.64-.39c.06,0,0,.14-.05.11a1.49,1.49,0,0,0-.44-.15c.09.09.06.31-.05.51a.9.9,0,0,1,.28,0c.11,0,.15.24,0,.24a1.19,1.19,0,0,0-1,.81c0,.11-.16.18-.18,0a1.16,1.16,0,0,1,.2-.68,1,1,0,0,1-.36-.16ZM294.26,38c-.07.88-1.06,1.54-2.39,1.32a.9.9,0,0,0-1.1.53c0-.12,0-.1-.21-.37.24-.29.27-.63.87-.5s2.24.1,2.49-1a2.17,2.17,0,0,0-.22-1.49A1.82,1.82,0,0,1,294.26,38Zm-11.08,5.65v-.38l0,0,.14-.14,0,0,.2.22Zm0-1.68.09.09a11.33,11.33,0,0,1,1,1.15l0,0,0,0s-.16.15-.3.29l-.09.07-.06.07,0-.08-.07-.09,0-.05.05,0a.56.56,0,0,0,.13-.24.18.18,0,0,0-.05-.17c-.14-.2-.29-.4-.33-.44s-.08,0-.11,0l-.09.09-.08.1Zm-15.82,3c-.36-.3-1-.86-1-.86s0,0-.05,0l-.13.17a.15.15,0,0,0,0,.16,2.39,2.39,0,0,1,.19.15l.05,0-.15.23-.67-.5,0,0a13.37,13.37,0,0,1,1-1.41l0,0,.57.55-.15.19-.2-.19s-.11,0-.13,0a.56.56,0,0,0-.12.18.23.23,0,0,0,0,.07l.71.6.12.09V45Zm.09-2-.25-.25a.16.16,0,0,0-.09,0h0l-.05.08,0,.1-.2-.26,0,0,.51-.58.09-.08Zm-.52,13.94-.1-.2s0,0-.05,0l-.06,0-1.48.83a.14.14,0,0,0,0,.14l.07.17,0,0-.18.1-.52-1.14.17-.07.1.19s0,0,.11,0,1.48-.77,1.53-.79,0,0,0-.07a.58.58,0,0,1,0-.13v0l.16-.08.44.92ZM281.7,40.74l0,0h0l-.12-.12.15-.2.87.72-.07.12h-1.06l.21-.33A.28.28,0,0,0,281.7,40.74Zm-2.25-.41a1.36,1.36,0,0,1,.66-.62.76.76,0,0,1,.72,0,1.17,1.17,0,0,1,.2,1.46v0h-.49l.05-.08a.56.56,0,0,0,0-.08c.24-.48.27-1,.07-1.11a.36.36,0,0,0-.39.08,1.72,1.72,0,0,0-.45.58,1.88,1.88,0,0,0-.18.57v.05h-.35v0h0A1.52,1.52,0,0,1,279.45,40.33Zm3.39,1.25v5.5h-7.38V41.58Zm-14.46-.41a.69.69,0,0,1,.21-.45.53.53,0,0,1,.47-.13v0l.21-.18.42.68-.27.24-.05-.09a.44.44,0,0,0-.36-.28h0a.24.24,0,0,0-.24.23v.08h-.35Zm-.57.41h7.39v5.49h-7.4Zm.05,9.72a8.44,8.44,0,0,1-.05-1.12V47.35h7.4v5.29h-7.15A1.9,1.9,0,0,0,267.86,51.3Zm2.66,9.62,0,0a.39.39,0,0,0-.19-.1h0l-1,1.54a.09.09,0,0,0,0,.1l.17.12,0,0-.09.23-.05-.06-.14-.07c-.32-.2-1.07-.67-1.07-1.35a1.45,1.45,0,0,1,.41-1,.9.9,0,0,1,1.19-.26l.82.58,0,0Zm4.84,2.94a17,17,0,0,1-7.23-10.93H282.6A16.89,16.89,0,0,1,275.36,63.86Zm7.26-11.21h-7.16V47.35h7.38v2.83A11.13,11.13,0,0,1,282.62,52.65ZM256.54,69.41s-.76.1-1,.1h-.08v0a.71.71,0,0,1,0-.14v-.06h.05a.18.18,0,0,0,.21-.22l-.14-.39-.57-.06-.15.49a.08.08,0,0,0,0,.07c0,.06.12.07.19.08l.05,0h0l0,.24h0a4.18,4.18,0,0,1-.77-.16l0,0,0-.24h.15s.1,0,.15-.14l.7-2.07.24,0v0l.69,2.07a.24.24,0,0,0,.29.14h.05v.26ZM265,64.27a.66.66,0,0,1-.57.24,1.74,1.74,0,0,1-.88-.28,1.36,1.36,0,0,0-.75-.24.84.84,0,0,0-.39.08h0l.44.43a.1.1,0,0,0,.07,0,.1.1,0,0,0,.08-.06l.19-.21.2.22-.91.91-.22-.2.05,0,.13-.14a.12.12,0,0,0,0-.08.07.07,0,0,0,0-.06c-.05-.06-1.21-1.26-1.29-1.36s-.05-.05-.06-.05l0,0-.17.17,0,0-.22-.25,0,0s.07-.06.1-.1c.33-.33.88-.89,1.35-.89a.55.55,0,0,1,.38.16.85.85,0,0,1,.12,1.06h0s0,0,.05,0a.9.9,0,0,1,.48-.11,1.43,1.43,0,0,1,.74.21,2.55,2.55,0,0,0,.59.28.34.34,0,0,0,.14,0,.31.31,0,0,0,.27-.12.92.92,0,0,0,.11-.65l-.71.47-.16-.26.16-.12s0,0,0,0,0-.07-.05-.15-.24-.4-.44-.74-.46-.8-.49-.83a.17.17,0,0,0-.13-.07h0l-.12.06,0,0-.16-.26,1-.63L264,61l-.17.1a.14.14,0,0,0,0,.16c.06.13.93,1.62,1,1.68s.08,0,.15,0a.61.61,0,0,1,.12-.07l0,0,.15.27-.11.08A1.42,1.42,0,0,1,265,64.27Zm1.45,4.57h-.67v-.47c0-.86.66-.79.66-.42v.89Zm1.07,0h-.56a6.55,6.55,0,0,0,1.17-1.77c1.21-2.31,2-1.5,2.25-1.06-.16-.1-.74-.89-1.89,1.19C267.68,68.57,267.48,68.84,267.48,68.84Zm15.7,0a18.67,18.67,0,0,1-1-1.64c-1.16-2.08-1.72-1.3-1.89-1.19.22-.44,1-1.25,2.25,1.06a6.55,6.55,0,0,0,1.17,1.77Zm1.06,0V68c0-.37.66-.44.66.42v.47ZM286,63.66l0,.06,0,0s-.6-.32-.86-.42H285l0-.06a1.47,1.47,0,0,0,.06-.14l0-.06.05,0,.07,0s0,0,0-.07v-.44l-.51-.17-.22.37s0,.07,0,.09,0,0,.17,0l.05,0,0,.27h-.05a6.63,6.63,0,0,1-.67-.11h0l0-.28h.13c.05,0,.09,0,.2-.2l1.14-2,.25.07v0l.16,2.59c0,.05,0,.07.18.14l.05,0,0,.05A1.14,1.14,0,0,0,286,63.66Zm2.37.15a1.29,1.29,0,0,1-1.08.67.54.54,0,0,1-.39-.11,7.27,7.27,0,0,0-.79-.58l0,0,.13-.25.05,0a.17.17,0,0,0,.11,0,.13.13,0,0,0,.11-.08l.75-1.57a.18.18,0,0,0-.05-.26l-.12-.07.13-.28,0,0a7.87,7.87,0,0,1,1,.64A1.44,1.44,0,0,1,288.35,63.81Zm7.48-5.68a12.63,12.63,0,0,1-1.3,3.18,12.44,12.44,0,0,0-1.36-1.76c-.46-.53-1.09.08-1.21.48a1.21,1.21,0,0,1-.49.62s-.27,0-.09-.17,2.35-3.53,2.61-4a12.52,12.52,0,0,1,1.56.8C295.78,57.43,295.88,57.71,295.83,58.13Zm-.09-8.83h-.13l-.08.6.14,0a.15.15,0,0,1,.11.17l-.09.55-.08.58c0,.07-.09.14-.16.12l-.16,0-.13.61.12,0a.16.16,0,0,1,.08.19l-.16.54-.17.54a.15.15,0,0,1-.18.1l-.18-.07-.19.61.11.07a.16.16,0,0,1,.06.21l-.24.49-.25.51a.14.14,0,0,1-.19.07l-.11-.07-.22.48.11.09a.16.16,0,0,1,0,.21l-.3.46-.29.48a.15.15,0,0,1-.2,0l-.14-.11-.29.45.13.09a.2.2,0,0,1,0,.22l-.3.46-.3.48a.13.13,0,0,1-.19,0l-.13-.09-.34.49.09.07a.16.16,0,0,1,0,.21l-.29.47-.3.47a.12.12,0,0,1-.19,0l-.16-.12-.12.26.11,0a.14.14,0,0,1,.11.17l-.07.56-.07.55,0,.17.51-.1a.14.14,0,0,1,.15.13l0,.08.24-.17a.65.65,0,0,1,.2-.76l.54-.42c-.14-.29.34-.9.67-.49.16.2.8,1.08.84,1.11.24.27-.11,1-.53.41-.24.22-.6.51-.72.63a.56.56,0,0,1-.7-.08l-.46.33,0,.16a.15.15,0,0,1-.11.17l-.52.09-.51.09a.14.14,0,0,1-.16-.13l-.11-.81a.14.14,0,0,1,.11-.17h.06l0-.15-.43-.07a.16.16,0,0,1-.12-.17l.08-.58.07-.55a.13.13,0,0,1,.15-.13l.14,0,.22-.49,0,0a.17.17,0,0,1,0-.22l.3-.47.3-.47a.13.13,0,0,1,.19,0l.12.1.36-.49-.11-.07a.17.17,0,0,1,0-.22l.3-.46.3-.47a.12.12,0,0,1,.19,0l.1.07.27-.45-.07,0a.17.17,0,0,1,0-.21l.3-.47.3-.47a.13.13,0,0,1,.18,0l.11.08.2-.42-.13-.07a.17.17,0,0,1-.06-.2l.24-.51.24-.51a.14.14,0,0,1,.19-.06l.13.07.17-.54-.08,0a.18.18,0,0,1-.09-.2l.17-.55.17-.53a.13.13,0,0,1,.17-.1l.14,0,.11-.54-.11,0a.14.14,0,0,1-.11-.17l.09-.57.09-.55a.14.14,0,0,1,.15-.13l.13,0,.06-.49H295a.16.16,0,0,1-.14-.15V48a.14.14,0,0,1,.11-.15v-.24l-.18,0-.51-.13a.15.15,0,0,1-.1-.18l0-.16L293.6,47a4,4,0,0,0-.23-.87l.42.11a.14.14,0,0,1,.11.17l0,.14.42.1,0-.13a.14.14,0,0,1,.17-.11l.51.13.51.12a.15.15,0,0,1,.1.18l-.16.79,0,.06v.19h.29a.14.14,0,0,1,.14.15v1.14A.16.16,0,0,1,295.74,49.3Zm2.52,2.46c.77.93.25,2.28-.71,1.43-1.58-1.38-1.13-3.79-1.09-4.34A24.32,24.32,0,0,0,298.26,51.76Z" />
            <path class="cls-1"
                  d="M327.12,46V34.64h-3.76V33.4h9v1.24h-3.76V46Zm7.12,0V33.4h4.07a5.17,5.17,0,0,1,2.41.49,3.12,3.12,0,0,1,1.38,1.33,3.92,3.92,0,0,1,.45,1.87,3.72,3.72,0,0,1-.64,2.14,3.38,3.38,0,0,1-2,1.35L342.68,46H340.9l-2.56-5.2h-2.59V46Zm1.51-6.39h2.45a2.79,2.79,0,0,0,2.12-.7,2.49,2.49,0,0,0,.67-1.8,2.34,2.34,0,0,0-.67-1.77,2.9,2.9,0,0,0-2.14-.66h-2.43ZM344.91,46V33.4h1.51V46Zm4.18,0V33.4h4.43a4.9,4.9,0,0,1,2.2.43A3,3,0,0,1,357,35a3.07,3.07,0,0,1,.43,1.62,2.71,2.71,0,0,1-.66,1.93,3.44,3.44,0,0,1-1.57,1,3.06,3.06,0,0,1,1.28.56,3.14,3.14,0,0,1,.9,1.08,3,3,0,0,1,.34,1.42,3.4,3.4,0,0,1-.47,1.75,3.35,3.35,0,0,1-1.38,1.24,5.08,5.08,0,0,1-2.24.45Zm1.51-7.09h2.81a2.79,2.79,0,0,0,1.86-.56,2,2,0,0,0,.64-1.58,1.94,1.94,0,0,0-.64-1.53,2.73,2.73,0,0,0-1.91-.58H350.6Zm0,5.83h2.9a3,3,0,0,0,2-.59,2.14,2.14,0,0,0,.7-1.7,2.1,2.1,0,0,0-.74-1.69,2.91,2.91,0,0,0-2-.65H350.6Zm13.87,1.48a5.33,5.33,0,0,1-2.35-.51,4,4,0,0,1-1.68-1.6,5.41,5.41,0,0,1-.63-2.75v-8h1.51v8a3.51,3.51,0,0,0,.89,2.67,3.59,3.59,0,0,0,4.59,0,3.58,3.58,0,0,0,.86-2.67v-8h1.51v8a5.41,5.41,0,0,1-.63,2.75,3.94,3.94,0,0,1-1.69,1.6A5.43,5.43,0,0,1,364.47,46.22Zm7.26-.22V33.4h1.51L380,43.5V33.4h1.51V46H380l-6.72-10.1V46Zm11.62,0L388,33.4h1.61L394.22,46h-1.6l-1.15-3.24H386.1L384.93,46Zm3.2-4.46H391l-2.23-6.23ZM396.1,46V33.4h1.51V44.79h5.87V46Zm19.74.22a6.11,6.11,0,0,1-3.2-.81,5.66,5.66,0,0,1-2.07-2.29,7.55,7.55,0,0,1-.74-3.42,7.41,7.41,0,0,1,.74-3.38A5.53,5.53,0,0,1,412.64,34a6,6,0,0,1,3.2-.83,5.55,5.55,0,0,1,3.51,1,4.59,4.59,0,0,1,1.75,2.88h-1.68a3.25,3.25,0,0,0-1.18-1.87,3.69,3.69,0,0,0-2.4-.72,4.38,4.38,0,0,0-2.36.63,4,4,0,0,0-1.56,1.78,6.49,6.49,0,0,0-.54,2.77,6.61,6.61,0,0,0,.54,2.79,4.18,4.18,0,0,0,1.56,1.78,4.46,4.46,0,0,0,2.36.61,3.8,3.8,0,0,0,2.4-.68,3.29,3.29,0,0,0,1.18-1.85h1.68a4.57,4.57,0,0,1-1.75,2.84A5.67,5.67,0,0,1,415.84,46.22Zm6.34-.22,4.64-12.6h1.61L433.05,46h-1.6l-1.15-3.24h-5.37L423.76,46Zm3.2-4.46h4.47l-2.23-6.23ZM434.93,46V33.4h1.51l6.71,10.1V33.4h1.51V46h-1.51l-6.71-10.1V46Zm11.61,0,4.65-12.6h1.6L457.42,46h-1.61l-1.15-3.24H449.3L448.13,46Zm3.21-4.46h4.46L452,35.31ZM459.29,46V33.4h3.87q3.33,0,4.89,1.69a6.53,6.53,0,0,1,1.59,4.65,6.44,6.44,0,0,1-1.59,4.59Q466.49,46,463.16,46Zm1.51-1.26h2.32a6.14,6.14,0,0,0,2.92-.59,3.49,3.49,0,0,0,1.56-1.73,6.87,6.87,0,0,0,.47-2.68A6.94,6.94,0,0,0,467.6,37,3.46,3.46,0,0,0,466,35.27a5.9,5.9,0,0,0-2.92-.61H460.8Zm11,1.26V33.4h1.51V46ZM476,46V33.4h7.79v1.24h-6.28V39h5.74v1.23h-5.74v4.5h6.28V46Zm10.16,0V33.4h1.51l6.71,10.1V33.4h1.51V46h-1.51l-6.71-10.1V46Zm17.17,0V33.4h3.87q3.33,0,4.9,1.69a6.57,6.57,0,0,1,1.58,4.65,6.48,6.48,0,0,1-1.58,4.59,6.46,6.46,0,0,1-4.9,1.67Zm1.51-1.26h2.32a6.14,6.14,0,0,0,2.92-.59,3.56,3.56,0,0,0,1.57-1.73,7.06,7.06,0,0,0,.46-2.68,7.13,7.13,0,0,0-.46-2.72,3.52,3.52,0,0,0-1.57-1.75,5.9,5.9,0,0,0-2.92-.61h-2.32Zm15.58,1.48a5.37,5.37,0,0,1-2.36-.51,4,4,0,0,1-1.68-1.6,5.41,5.41,0,0,1-.63-2.75v-8h1.52v8a3.5,3.5,0,0,0,.88,2.67,3.23,3.23,0,0,0,2.3.83,3.19,3.19,0,0,0,2.29-.83,3.58,3.58,0,0,0,.86-2.67v-8h1.51v8a5.41,5.41,0,0,1-.63,2.75,3.94,3.94,0,0,1-1.69,1.6A5.42,5.42,0,0,1,520.43,46.22Zm-190.74,23a6.11,6.11,0,0,1-3.2-.81,5.66,5.66,0,0,1-2.07-2.29,7.55,7.55,0,0,1-.74-3.42,7.41,7.41,0,0,1,.74-3.38A5.53,5.53,0,0,1,326.49,57a6,6,0,0,1,3.2-.83,5.55,5.55,0,0,1,3.51,1A4.59,4.59,0,0,1,335,60.11h-1.68a3.25,3.25,0,0,0-1.18-1.87,3.69,3.69,0,0,0-2.4-.72,4.38,4.38,0,0,0-2.36.63,4,4,0,0,0-1.56,1.78,6.49,6.49,0,0,0-.54,2.77,6.61,6.61,0,0,0,.54,2.79,4.18,4.18,0,0,0,1.56,1.78,4.46,4.46,0,0,0,2.36.61,3.8,3.8,0,0,0,2.4-.68,3.29,3.29,0,0,0,1.18-1.85H335a4.57,4.57,0,0,1-1.75,2.84A5.67,5.67,0,0,1,329.69,69.22Zm13.15,0a6.37,6.37,0,0,1-3.25-.81,5.85,5.85,0,0,1-2.18-2.31,7.17,7.17,0,0,1-.78-3.4,7.06,7.06,0,0,1,.78-3.38A5.78,5.78,0,0,1,339.59,57a6.8,6.8,0,0,1,6.51,0,5.65,5.65,0,0,1,2.18,2.31,7.05,7.05,0,0,1,.77,3.38,7.16,7.16,0,0,1-.77,3.4,5.71,5.71,0,0,1-2.18,2.31A6.33,6.33,0,0,1,342.84,69.22Zm0-1.34a4.67,4.67,0,0,0,2.43-.61,4.16,4.16,0,0,0,1.64-1.78,6,6,0,0,0,.6-2.79,5.93,5.93,0,0,0-.6-2.77,4.08,4.08,0,0,0-1.64-1.77,4.58,4.58,0,0,0-2.43-.63,4.67,4.67,0,0,0-2.44.63,4.2,4.2,0,0,0-1.64,1.77,6.06,6.06,0,0,0-.58,2.77,6.18,6.18,0,0,0,.58,2.79,4.28,4.28,0,0,0,1.64,1.78A4.75,4.75,0,0,0,342.84,67.88Zm8.4,1.12V56.4H353l4.54,8.78L362,56.4h1.78V69h-1.51V59.1l-4.22,8.1H357l-4.21-8.08V69Zm15.24,0V56.4h1.76l4.54,8.78,4.5-8.78h1.78V69h-1.51V59.1l-4.22,8.1H372.2L368,59.12V69Zm15.24,0V56.4h7.79v1.24h-6.28V62H389v1.23h-5.74v4.5h6.28V69Zm10.16,0V56.4h4.06a5.18,5.18,0,0,1,2.42.49,3.12,3.12,0,0,1,1.38,1.33,3.92,3.92,0,0,1,.45,1.87,3.65,3.65,0,0,1-.65,2.14,3.38,3.38,0,0,1-2,1.35L400.32,69h-1.78L396,63.8h-2.59V69Zm1.51-6.39h2.45a2.79,2.79,0,0,0,2.12-.7,2.54,2.54,0,0,0,.67-1.8,2.38,2.38,0,0,0-.67-1.77,2.92,2.92,0,0,0-2.14-.66h-2.43Zm14.68,6.61a6.11,6.11,0,0,1-3.2-.81,5.66,5.66,0,0,1-2.07-2.29,7.55,7.55,0,0,1-.74-3.42,7.41,7.41,0,0,1,.74-3.38A5.53,5.53,0,0,1,404.87,57a6,6,0,0,1,3.2-.83,5.55,5.55,0,0,1,3.51,1,4.59,4.59,0,0,1,1.75,2.88h-1.68a3.25,3.25,0,0,0-1.18-1.87,3.69,3.69,0,0,0-2.4-.72,4.38,4.38,0,0,0-2.36.63,4,4,0,0,0-1.56,1.78,6.49,6.49,0,0,0-.54,2.77,6.61,6.61,0,0,0,.54,2.79,4.18,4.18,0,0,0,1.56,1.78,4.46,4.46,0,0,0,2.36.61,3.8,3.8,0,0,0,2.4-.68,3.29,3.29,0,0,0,1.18-1.85h1.68a4.57,4.57,0,0,1-1.75,2.84A5.67,5.67,0,0,1,408.07,69.22ZM415.5,69V56.4h7.8v1.24H417V62h5.75v1.23H417v4.5h6.29V69Zm14.93,0V56.4h7.79v1.24h-6.28V62h5.74v1.23h-5.74v4.5h6.28V69Zm9.51,0,3.85-6.35-3.85-6.25h1.71l3.09,5,3-5h1.69l-3.85,6.32L449.41,69H447.7l-3.12-5.06L441.65,69Zm14.43,0V57.64H450.6V56.4h9v1.24h-3.76V69Zm7.12,0V56.4h7.79v1.24H463V62h5.74v1.23H463v4.5h6.28V69Zm3.18-13.34V54.53l3.78-2.29v1.32Zm7,13.34V56.4h4.06a5.18,5.18,0,0,1,2.42.49,3.12,3.12,0,0,1,1.38,1.33,3.92,3.92,0,0,1,.45,1.87,3.65,3.65,0,0,1-.65,2.14,3.38,3.38,0,0,1-2,1.35L480.09,69h-1.78l-2.56-5.2h-2.59V69Zm1.51-6.39h2.45a2.79,2.79,0,0,0,2.12-.7,2.54,2.54,0,0,0,.67-1.8,2.38,2.38,0,0,0-.67-1.77,2.92,2.92,0,0,0-2.14-.66h-2.43ZM482.32,69V56.4h1.51V69Zm4.18,0V56.4h7.79v1.24H488V62h5.74v1.23H488v4.5h6.28V69Zm14.71.22a5.33,5.33,0,0,1-2.35-.51,4,4,0,0,1-1.68-1.6,5.41,5.41,0,0,1-.63-2.75v-8h1.51v8A3.51,3.51,0,0,0,499,67a3.59,3.59,0,0,0,4.59,0,3.58,3.58,0,0,0,.86-2.67v-8h1.51v8a5.41,5.41,0,0,1-.63,2.75,3.94,3.94,0,0,1-1.69,1.6A5.43,5.43,0,0,1,501.21,69.22Zm7.26-.22V56.4h4.07a5.14,5.14,0,0,1,2.41.49,3.09,3.09,0,0,1,1.39,1.33,3.92,3.92,0,0,1,.45,1.87,3.73,3.73,0,0,1-.65,2.14,3.38,3.38,0,0,1-2,1.35L516.91,69h-1.78l-2.55-5.2H510V69ZM510,62.61h2.45a2.83,2.83,0,0,0,2.13-.7,2.53,2.53,0,0,0,.66-1.8,2.38,2.38,0,0,0-.66-1.77,2.94,2.94,0,0,0-2.15-.66H510Z" />
        </g>
    </g>
</svg>