<svg fill="none" height="128" viewBox="0 0 128 128" width="128" xmlns="http://www.w3.org/2000/svg"><path d="m49.8535 123.492c-1.9784-.469-3.6342-1.566-5.9514-3.943-3.8706-3.971-7.0117-5.624-12.4712-6.564-5.6635-.975-8.1803-3.08-9.6934-8.108-1.8677-6.2062-3.8198-9.1785-8.109-12.3465-4.8656-3.5939-6.11398-6.7631-4.92639-12.5063 1.09997-5.3194.67876-9.1013-1.55522-13.9638-2.66544-5.8017-2.3364-8.9018 1.44931-13.6551 3.4706-4.3575 4.5599-7.2379 5.0797-13.4316.5245-6.2504 2.2635-8.8147 7.3849-10.89 4.2743-1.7319 7.9309-4.7385 9.9581-8.188 2.3443-3.9889 2.6865-4.4462 4.139-5.5299 2.3439-1.7487 4.239-2.2333 7.8482-2.007 6.2694.3931 9.6297-.3597 13.8399-3.10048 5.4894-3.57359 8.8179-3.57359 14.3074 0 4.2102 2.74078 7.5705 3.49358 13.8399 3.10048 5.9287-.3718 8.3957 1.1846 12.0095 7.5767 1.7909 3.1677 5.4512 6.2507 9.4582 7.9652 5.706 2.4421 7.364 4.671 7.785 10.4631.456 6.2729 1.742 9.7802 5.149 14.0415 3.794 4.7448 4.125 7.8478 1.457 13.6551-2.233 4.8625-2.655 8.6444-1.555 13.9638 1.188 5.7432-.061 8.9124-4.926 12.5063-4.289 3.168-6.241 6.1403-8.109 12.3465-1.513 5.028-4.03 7.133-9.6935 8.108-5.4711.942-8.6158 2.6-12.4712 6.577-4.274 4.407-7.3379 5.135-13.3131 3.159-4.8871-1.615-8.6498-1.622-13.5174-.024-3.4097 1.119-5.2272 1.314-7.4133.795z" fill="#000" opacity=".2"/><path d="m49.8535 122.321c-1.9784-.47-3.6342-1.567-5.9514-3.944-3.8706-3.97-7.0117-5.624-12.4712-6.563-5.6635-.975-8.1803-3.081-9.6934-8.108-1.8677-6.207-3.8198-9.1793-8.109-12.3474-4.8656-3.5939-6.11398-6.7631-4.92639-12.5062 1.09997-5.3195.67876-9.1014-1.55522-13.9639-2.66544-5.8017-2.3364-8.9018 1.44931-13.655 3.4706-4.3576 4.5599-7.238 5.0797-13.4317.5245-6.2504 2.2635-8.8147 7.3849-10.8899 4.2743-1.732 7.9309-4.7386 9.9581-8.1881 2.3443-3.9889 2.6865-4.4462 4.139-5.5298 2.3439-1.7488 4.239-2.2334 7.8482-2.0071 6.2694.3931 9.6297-.3596 13.8399-3.10045 5.4894-3.5736 8.8179-3.5736 14.3074 0 4.2102 2.74085 7.5705 3.49355 13.8399 3.10045 5.9287-.3718 8.3957 1.1846 12.0095 7.5767 1.7909 3.1678 5.4512 6.2507 9.4582 7.9653 5.706 2.442 7.364 4.6709 7.785 10.4631.456 6.2728 1.742 9.7801 5.149 14.0415 3.794 4.7447 4.125 7.8477 1.457 13.655-2.233 4.8625-2.655 8.6444-1.555 13.9639 1.188 5.7431-.061 8.9123-4.926 12.5062-4.289 3.1681-6.241 6.1404-8.109 12.3474-1.513 5.027-4.03 7.133-9.6935 8.108-5.4711.941-8.6158 2.6-12.4712 6.576-4.274 4.408-7.3379 5.135-13.3131 3.16-4.8871-1.616-8.6498-1.623-13.5174-.025-3.4097 1.119-5.2272 1.314-7.4133.796z" fill="#fff"/><path d="m85.0051 59.0295c-.369-.7531-.0527-1.6567.7003-2.0257.753-.3689 1.6566-.0527 2.0256.7003.369.7531.0527 1.6567-.7003 2.0257-.753.3689-1.6566.0527-2.0256-.7003zm7.3269 15.0603c-.369-.753-.0528-1.6566.7003-2.0256.753-.369 1.6566-.0527 2.0256.7003s.0527 1.6566-.7003 2.0256-1.6567.0527-2.0256-.7003zm.64-19.5408c-4.8193-3.4413-11.107-4.3298-16.9278-2.0783l15.9112 32.7186c5.3615-3.1853 8.5396-8.6898 8.8106-14.601l6.039.4292c.346.0226.648-.2334.67-.5874.023-.3464-.233-.6476-.587-.6701l-6.115-.4368c-.06-2.5753-.677-5.2033-1.9049-7.7335-1.2274-2.5226-2.9141-4.631-4.9021-6.2726l3.4338-5.0829c.1957-.2861.1204-.6777-.1657-.8735s-.6777-.1205-.8735.1657l-3.3886 5.0151" fill="#3ddc84"/><g fill="#4285f4"><path d="m78.3033 66.8683c-4.488 2.1687-9.3149 3.2681-14.345 3.2681-11.3329 0-21.6267-5.753-27.6282-14.9097-.4744-.7229-1.4533-.8961-2.1536-.3841l-5.7757 4.2546c-.6551.4819-.8057 1.4006-.3464 2.0783 7.8841 11.7697 21.2351 19.1417 35.9039 19.1417 6.5738 0 12.8916-1.4383 18.7727-4.2771z"/><path d="m63.9057 30.6708h3.125v-6.9052c0-1.7244-1.4006-3.125-3.125-3.125s-3.1251 1.4006-3.1251 3.125v6.9052z"/><path d="m55.7729 44.1499-21.4836 44.2171c-.4668.9564-.7153 1.9955-.7379 3.0573l-.128 5.7907c-.0302 1.4985 1.7018 2.3419 2.8614 1.3931l4.4729-3.6747c.8208-.6702 1.4835-1.5136 1.9504-2.4699l21.1748-43.5922-8.1025-4.7139z"/><path d="m94.2671 91.4167c-.0226-1.0617-.2786-2.1009-.7379-3.0572l-21.4836-44.2172-8.1025 4.729 21.1749 43.5771c.4668.9563 1.1295 1.7922 1.9503 2.4699l4.4729 3.6747c1.1596.9488 2.8991.1054 2.8615-1.3931l-.128-5.7907z"/></g><path d="m63.9053 30.1211c-5.1732 0-9.375 4.2094-9.375 9.3751s4.2093 9.3751 9.375 9.3751 9.3751-4.2094 9.3751-9.3751-4.2094-9.3751-9.3751-9.3751zm0 14.5333c-2.8388 0-5.1581-2.3118-5.1581-5.1582s2.3117-5.1582 5.1581-5.1582 5.1582 2.3118 5.1582 5.1582-2.3118 5.1582-5.1582 5.1582z" fill="#073042"/></svg>