<?xml version="1.0" encoding="UTF-8"?>
<svg id="svg3476" xmlns="http://www.w3.org/2000/svg" xmlns:svg="http://www.w3.org/2000/svg" xmlns:sodipodi="http://sodipodi.sourceforge.net/DTD/sodipodi-0.dtd" xmlns:rdf="http://www.w3.org/1999/02/22-rdf-syntax-ns#" xmlns:inkscape="http://www.inkscape.org/namespaces/inkscape" xmlns:dc="http://purl.org/dc/elements/1.1/" xmlns:cc="http://creativecommons.org/ns#" version="1.1" viewBox="0 0 290.2 409.6">
  <!-- Generator: Adobe Illustrator 29.2.0, SVG Export Plug-In . SVG Version: 2.1.0 Build 108)  -->
  <defs>
    <style>
      .st0 {
        fill: #ebebeb;
      }

      .st1 {
        fill: #2965f1;
      }

      .st2 {
        fill: #fff;
      }

      .st3 {
        fill: #264de4;
      }
    </style>
  </defs>
  <sodipodi:namedview id="base" bordercolor="#666666" borderopacity="1.0" fit-margin-bottom="0" fit-margin-left="0" fit-margin-right="0" fit-margin-top="0" inkscape:current-layer="layer1" inkscape:cx="181.367" inkscape:cy="256" inkscape:document-units="px" inkscape:pageopacity="0.0" inkscape:pageshadow="2" inkscape:window-height="704" inkscape:window-maximized="1" inkscape:window-width="1366" inkscape:window-x="0" inkscape:window-y="27" inkscape:zoom="0.35" pagecolor="#ffffff" showgrid="false"/>
  <polygon id="polygon2989" class="st3" points="290.2 80.5 263.8 376.7 144.9 409.6 26.4 376.7 0 80.5 290.2 80.5"/>
  <polygon id="polygon2991" class="st1" points="241.1 357.8 263.7 104.7 145.1 104.7 145.1 384.4 241.1 357.8"/>
  <polygon id="polygon2993" class="st0" points="60.5 214.6 63.8 250.9 145.1 250.9 145.1 214.6 60.5 214.6"/>
  <polygon id="polygon2995" class="st0" points="145.1 141 145 141 54 141 57.3 177.4 145.1 177.4 145.1 141"/>
  <polygon id="polygon2997" class="st0" points="145.1 346.7 145.1 308.9 144.9 309 104.5 298 101.9 269.1 82.2 269.1 65.4 269.1 70.5 326.1 144.9 346.8 145.1 346.7"/>
  <path id="path2999" class="st2" d="M68.3,0h44v18.4h-25.6v18.4h25.6v18.4h-44V0Z" inkscape:connector-curvature="0"/>
  <path id="path3001" class="st2" d="M121.1,0h44v16h-25.6v3.2h25.6v36.8h-44v-16.8h25.6v-3.2h-25.6V0Z" inkscape:connector-curvature="0"/>
  <path id="path3003" class="st2" d="M173.9,0h44v16h-25.6v3.2h25.6v36.8h-44v-16.8h25.6v-3.2h-25.6V0Z" inkscape:connector-curvature="0"/>
  <polygon id="polygon3005" class="st2" points="189.7 250.9 185.5 298 145 309 145 346.7 219.4 326.1 220 320 228.5 224.3 229.4 214.6 236 141 145 141 145 177.4 196.2 177.4 192.9 214.6 145 214.6 145 250.9 189.7 250.9"/>
</svg>