<svg fill="none" height="800" viewBox="0 0 16 16" width="800" xmlns="http://www.w3.org/2000/svg"><path d="m12.342 4.536.15-.227.262.159.116.083c.28.216.869.768.996 1.684.223-.04.448-.06.673-.06.534 0 .893.124 1.097.227l.105.057.068.045.191.156-.066.2a2.044 2.044 0 0 1 -.47.73c-.29.299-.8.652-1.609.698l-.178.005h-.148c-.37.977-.867 2.078-1.702 3.066a7.081 7.081 0 0 1 -1.74 1.488 7.941 7.941 0 0 1 -2.549.968c-.644.125-1.298.187-1.953.185-1.45 0-2.73-.288-3.517-.792-.703-.449-1.243-1.182-1.606-2.177a8.25 8.25 0 0 1 -.461-2.83.516.516 0 0 1 .432-.516l.068-.005h10.54l.092-.007.149-.016c.256-.034.646-.11.92-.27-.328-.543-.421-1.178-.268-1.854a3.3 3.3 0 0 1 .3-.81zm-9.452 1.248.04.007a.127.127 0 0 1 .077.082l.006.04v1.315l-.006.041a.127.127 0 0 1 -.078.082l-.039.006h-1.412a.124.124 0 0 1 -.117-.088l-.007-.04v-1.317l.007-.04a.127.127 0 0 1 .078-.083l.039-.006h1.412zm1.947 0 .039.007a.127.127 0 0 1 .078.082l.006.04v1.315l-.007.041a.127.127 0 0 1 -.078.082l-.039.006h-1.412a.125.125 0 0 1 -.117-.088l-.007-.039v-1.317a.13.13 0 0 1 .085-.123l.039-.007h1.413zm1.976 0 .039.007a.127.127 0 0 1 .077.082l.007.04v1.315l-.007.041a.127.127 0 0 1 -.078.082l-.039.006h-1.412a.124.124 0 0 1 -.117-.088l-.006-.04v-1.317l.006-.04a.127.127 0 0 1 .078-.083l.039-.006h1.413zm1.952 0 .039.007a.127.127 0 0 1 .078.082l.007.04v1.315a.13.13 0 0 1 -.085.123l-.04.006h-1.411a.124.124 0 0 1 -.117-.088l-.006-.04v-1.317l.006-.04a.127.127 0 0 1 .078-.083l.04-.006h1.412zm1.97 0 .039.007a.127.127 0 0 1 .078.082l.006.04v1.315a.13.13 0 0 1 -.085.123l-.039.006h-1.412a.124.124 0 0 1 -.117-.088l-.006-.04v-1.317l.006-.04a.127.127 0 0 1 .078-.083l.04-.006h1.411zm-5.9-1.892.04.007a.127.127 0 0 1 .077.081l.007.041v1.315a.13.13 0 0 1 -.085.123l-.039.007h-1.411a.125.125 0 0 1 -.117-.09l-.007-.04v-1.315a.13.13 0 0 1 .085-.122l.039-.007h1.412zm1.976 0 .04.007a.127.127 0 0 1 .077.081l.007.041v1.315a.13.13 0 0 1 -.085.123l-.039.007h-1.411a.125.125 0 0 1 -.117-.09l-.006-.04v-1.315l.006-.04a.127.127 0 0 1 .078-.082l.039-.007h1.412zm1.953 0c.054 0 .1.037.117.088l.007.041v1.315a.13.13 0 0 1 -.085.123l-.04.007h-1.41a.125.125 0 0 1 -.117-.09l-.006-.04v-1.315l.006-.04a.127.127 0 0 1 .078-.082l.04-.007h1.412zm0-1.892c.054 0 .1.037.117.088l.007.04v1.316a.13.13 0 0 1 -.085.123l-.04.006h-1.41a.124.124 0 0 1 -.117-.088l-.006-.04v-1.317l.006-.04a.127.127 0 0 1 .078-.082l.039-.006h1.412z" fill="#2396ed"/></svg>