<svg height="800" preserveAspectRatio="xMidYMid" viewBox="0 -183.5 512 512" width="800" xmlns="http://www.w3.org/2000/svg"><g fill="#f6f6f6"><path d="m66.6783973 46.5413294c1.1507088-1.6961583 2.4104084-1.911843 3.4323099-1.911843s2.72432.2156847 3.8754791 1.911843c9.0705578 12.4587309 24.0428331 37.2771101 35.0873857 55.5844146 7.202401 11.938997 12.734361 21.108638 13.869306 22.27556 4.26055 4.3808 10.103719 1.650626 13.499098-3.318365 3.342685-4.891976 4.270458-8.326988 4.270458-11.991692 0-2.495979-48.4275007-92.5622496-53.3046144-100.05915124-4.690208-7.21075117-6.2178809-9.03209576-14.2453696-9.03209576h-6.0071053c-8.0036188 0-9.1601825 1.82134459-13.8508408 9.03209576-4.8766634 7.49690164-53.3045039 97.56317224-53.3045039 100.05915124 0 3.664704.92797748 7.099716 4.27073475 11.991692 3.39535209 4.968991 9.23847575 7.699165 13.49889055 3.318365 1.1350808-1.166922 6.6670402-10.336563 13.8695315-22.27556 11.0443724-18.3073045 25.9686827-43.1256837 35.0392405-55.5844146z"/><path d="m387.841898 39.3946846c19.94577 0 35.807536 18.0069939 35.807536 40.2789514 0 22.271958-15.861766 40.436943-35.807536 40.436943-10.679298 0-19.003133-4.422685-24.342783-12.478547v36.488052h-22.14405v-103.1457982h22.14405v10.8990363c5.33965-8.0558173 13.663485-12.4786375 24.342783-12.4786375zm84.110734 0c22.613342 0 40.047368 17.3751174 40.047368 40.4370331 0 23.0614653-17.434026 40.2788613-40.047368 40.2788613-22.773226 0-40.04917-17.217396-40.04917-40.2788613 0-23.0619157 17.275944-40.4370331 40.04917-40.4370331zm-230.200309-31.43340107v22.42985907h-44.131371v19.9027135h39.262815v22.4295888h-39.262815v23.3776288h44.131371v22.4300393h-67.374788v-110.56982947zm36.032273 33.01300227 12.7213 18.3230221 12.87803-18.3230221h26.384785l-26.070423 37.4355972 27.954793 40.12123h-26.698696l-14.60567-21.0082046-14.60567 21.0082046h-26.384334l27.797612-39.9631483-26.070423-37.5936789zm105.032015 19.5867751c-10.836929 0-19.317496 8.3715754-19.317496 19.1125751 0 10.8990814 8.480567 19.1130254 19.317496 19.1130254 10.679299 0 19.317046-8.3720257 19.317046-19.1130254 0-10.5829179-8.637747-19.1125751-19.317046-19.1125751zm89.136021.1576314c-10.52527 0-18.375311 8.0558623-18.375311 19.1130254 0 10.7409997 7.850041 18.9549437 18.375311 18.9549437 10.363134 0 18.37531-8.213944 18.37531-18.9549437 0-11.0571631-8.012176-19.1130254-18.37531-19.1130254z"/></g></svg>