<svg height="118.2" width="419.58" xmlns="http://www.w3.org/2000/svg"><g fill="#f6f6f6"><path d="m119.88 46.171.001-.005s-3.352 11.88-3.352 11.88 3.3508-11.875 3.3508-11.875z"/><path d="m137.12 71.962s-3.6938-.022-3.6938-.022 3.6938.022 3.6938.022z"/><path d="m136.17 89.703h.004s-22.131.0806-22.131.0806 22.128-.0806 22.128-.0806z"/><path d="m140.81 71.984s-3.6951-.022-3.6951-.022 3.6951.022 3.6951.022z"/><path d="m138.11 88.195s3.855-14.702 3.855-14.702-3.855 14.705-3.855 14.705v-.002z"/><path d="m219.59 20.49s-7.1814 33.76-7.1814 33.76 7.1814-33.76 7.1814-33.76z"/><path d="m201.13 20.49s-5.4517 25.22-5.4517 25.22 5.4517-25.222 5.4517-25.222z"/><path d="m218.36 18.971h-15.356c-.85205 0-1.698.68359-1.8799 1.5161 0 0-5.4516 25.222-5.4516 25.222s-5.4517 25.222-5.4517 25.222c-.18066.83251-1.0254 1.5137-1.8774 1.5137h-10.869c-10.753 0-9.5093-7.4365-7.3071-17.627.022-.1025.044-.20263.0659-.30761 0 0 .24169-1.2842.24169-1.2842.0146-.083.0317-.16603.0451-.2417 0 0 .49072-2.6148.49072-2.6148s.52612-2.8027.52612-2.8027c.15992-.84473.40283-2.0801.56153-2.8564 0 0 2.478-12.109 2.478-12.109s2.4805-12.109 2.4805-12.109c.1709-.83496-.38819-1.521-1.2402-1.521h-15.762c-.85206 0-1.6956.68604-1.8701 1.5186 0 0-3.3887 16.079-3.3887 16.079s-3.3887 16.077-3.3887 16.077c-.003.007-.004.0171-.005.0244 0 0-.31494 1.4942-.31494 1.4942-3.9038 17.822-2.8686 34.817 18.347 35.349.3467.01.61525.0125.61525.0125h33.302c.85206 0 1.6956-.6836 1.8738-1.5186 0 0 7.1814-33.757 7.1814-33.757s7.1814-33.76 7.1814-33.76c.17701-.83497-.37598-1.5186-1.228-1.5186z"/><path d="m279.62 72.621c.85327 0 1.4111.6836 1.2402 1.5186 0 0-1.4917 7.2876-1.4917 7.2876"/><path d="m277.88 88.719s1.4905-7.2925 1.4905-7.2925-1.4917 7.2949-1.4917 7.2949c0-.002.00099-.002.00099-.002z"/><path d="m276.01 90.253c.002 0 .005-.002.007-.002-4.519.0366-18.099.13916-28.306.13916 12.422 0 28.298-.13672 28.298-.13672z"/><path d="m238.55 63.234c-.0125-.79835.896-2.1729 1.7493-2.1729 0 0-1.9177-.0317-1.9177-.0317-.86426 8.6914.16845 2.2046.16845 2.2046z"/><path d="m249.11 90.387c-.0976 0-.19775 0-.29542.002.0976-.002.19777-.002.29542-.002z"/><path d="m279.62 72.621c.85327 0 1.4111.6836 1.2402 1.5186 0 0-1.4917 7.2876-1.4917 7.2876s-.24293 1.189-.24293 1.189"/><path d="m256.38 90.37h-.0623z"/><path d="m252.61 90.382h-.21852z"/><path d="m251.46 90.385c-.12201 0-.2417 0-.36134.002.11963-.002.23927-.002.36134-.002z"/><path d="m250.29 90.387h-.31737z"/><path d="m252.39 90.382c-.31127 0-.62255.002-.93016.002.30761 0 .61889-.002.93016-.002z"/><path d="m256.32 90.37c-1.2427.005-2.4829.01-3.7048.0125 1.2219-.002 2.4634-.007 3.7048-.0125z"/><path d="m276.02 90.25h.001c-3.3118.0269-11.49.0879-19.646.11963 8.1518-.0292 16.332-.0927 19.645-.11963z"/><path d="m277.88 88.722s1.2488-6.106 1.2488-6.106-1.25 6.1108-1.25 6.1108c0-.002.001-.002.001-.005z"/><path d="m251.1 90.387h-.81054z"/><path d="m248.81 90.389h-1.0962z"/><path d="m249.97 90.387h-.86426z"/><path d="m25.344 63.417s2.3852-10.574 2.3852-10.574-2.727 12.087-2.727 12.087-2.6172 12.312-2.6172 12.312 2.2937-10.793 2.2937-10.793c.177-.83497.4773-2.1997.66529-3.0322z"/><path d="m53.894 18.793h-16.864c-.85326 0-1.7041.68115-1.8945 1.5112 0 0-1.5991 7.0581-1.5991 7.0581s-1.5991 7.0606-1.5991 7.0606c-.18799.83008.35523 1.5112 1.2085 1.5112h16.995c.85205 0 1.6992-.68115 1.8823-1.5137 0 0 1.5454-7.0581 1.5454-7.0581s1.5454-7.0532 1.5454-7.0532v-.002c.18189-.83253-.36621-1.5137-1.2195-1.5137z"/><path d="m50.224 42.272v-.002s-4.9463 22.883-4.9463 22.883 4.9463-22.881 4.9463-22.881z"/><path d="m1.2338 118.09s8.501.10988 13.905.10988c-4.1052 0-10.885-.0756-13.912-.11225.003 0 .005.002.008.002z"/><path d="m30.114 42.269s-2.3877 10.574-2.3877 10.574 2.3877-10.574 2.3877-10.574z"/><path d="m49.004 40.756h-16.997c-.85205 0-1.7041.68117-1.8921 1.5137 0 0-2.3877 10.574-2.3877 10.574s-2.3852 10.574-2.3852 10.574c-.18799.83253-.48829 2.1973-.66529 3.0322 0 0-2.2937 10.793-2.2937 10.793s-2.2925 10.793-2.2925 10.793c-.17822.83252-.54443 2.1777-.81787 2.9858 0 0-3.175 9.4482-8.5132 9.3408-.22705-.005-.448-.007-.6665-.0125-2.5867-.0489-4.6191-.0855-4.6191-.0855h-.004c-.85083-.0125-1.7066.65185-1.9055 1.4795 0 0-1.7627 7.4097-1.7627 7.4097s-1.7603 7.4072-1.7603 7.4072c-.19775.82762.33692 1.5112 1.1841 1.5259 3.0274.0366 9.8071.11225 13.912.11225 13.334 0 20.363-7.3877 24.869-28.647 0 0 5.2734-24.399 5.2734-24.399s4.9463-22.883 4.9463-22.883c.17945-.83251-.3711-1.5137-1.2232-1.5137z"/><path d="m290.45 89.525c-.85205 0-1.405-.6836-1.2256-1.5186 0 0 12.786-59.89 12.786-59.89"/><path d="m308.22 88.004s5.1709-25.562 5.1709-25.562-5.1709 25.562-5.1709 25.562z"/><path d="m289.41 88.766c-.10375-.41749-.0428-1.4404.13793-2.2754 0 0 6.0681-28.428 6.0681-28.428s-6.3928 29.944-6.3928 29.944c-.17944.83495.37354 1.5186 1.2256 1.5186h1.5528c-.85328 0-2.489-.3418-2.5916-.75927z"/><path d="m307.21 89.183c-.46388.18799-1.543.3418-2.3962.3418h1.5527c.85205 0 1.6894-.6836 1.8579-1.521 0 0 .30761-1.5186.30761-1.5186-.16967.83496-.85692 2.5098-1.322 2.6978z"/><path d="m310.81 75.223s2.2827-11.282 2.2827-11.282c-.001.007-.002.0171-.004.022 0 0-2.279 11.26-2.279 11.26z"/><path d="m361.26 32.128s.70434 2.9102.70434 2.9102c.1941.83251-.34424 1.5088-1.1951 1.5112"/><path d="m308.53 86.486s2.2766-11.262 2.2766-11.262-2.2766 11.262-2.2766 11.262z"/><path d="m360.56 29.147s.69703 2.981.69703 2.981-.69703-2.981-.69703-2.981z"/><path d="m313.09 63.942c.16969-.83496.45045-2.1875.62746-3.0151 0 0 2.4377-11.421 2.4377-11.421s-2.7612 12.937-2.7612 12.937-.30397 1.499-.30397 1.499z"/><path d="m302.22 27.135c-.16967.80567-.38696 1.8237-.53101 2.4976 0 0-6.0681 28.43-6.0681 28.43s6.3928-29.946 6.3928-29.946.2063-.98145.2063-.98145z"/><path d="m361.96 35.038s-.70434-2.9102-.70434-2.9102-.69703-2.981-.69703-2.981-.35278-1.5088-.35278-1.5088c-1.3806-5.3638-5.4334-8.4595-14.233-8.4595 0 0-13.7-.0146-13.7-.0146s-12.617-.0146-12.617-.0146h-14.197c-.85205 0-1.6956.68115-1.8713 1.5161h-.001s-.62743 2.9663-.62743 2.9663-.74096 3.5034-.74096 3.5034-.2063.98145-.2063.98145-6.3928 29.946-6.3928 29.946-6.0681 28.428-6.0681 28.428c-.18065.83496-.24169 1.8579-.13792 2.2754.1025.41747 1.7383.75927 2.5915.75927h12.808c.85327 0 1.9324-.15381 2.3962-.3418.46508-.18799 1.1523-1.8628 1.322-2.6978 0 0 2.2766-11.262 2.2766-11.262s2.279-11.26 2.279-11.26c.001-.005.002-.0146.004-.022 0 0 .30396-1.499.30396-1.499s2.7612-12.937 2.7612-12.937 2.439-11.426 2.439-11.426c.18068-.83007 1.0205-1.5088 1.8713-1.5112 0 0 40.3-.0195 40.3-.0195.85083-.002 1.3892-.67872 1.1951-1.5112z"/><path d="m413.84 8.7244c-.85326.006-2.2485.0113-3.1018.0113h-12.899c-.85328 0-1.9458.57618-2.4268 1.2805 0 0-28.523 41.787-28.523 41.787-.48218.70557-1.0315.60059-1.2207-.22949 0 0-2.0984-9.2065-2.0984-9.2065-.18921-.83252-1.0437-1.5112-1.8958-1.5112h-18.337c-.85327 0-1.3586.66895-1.1255 1.4893 0 0 8.2166 28.784 8.2166 28.784.23437.82032.25147 2.168.0403 2.9932 0 0-3.5815 13.931-3.5815 13.931-.2124.82764.3125 1.5039 1.1658 1.5039h18.123c.85205 0 1.7236-.67627 1.9348-1.5039 0 0 3.5828-13.931 3.5828-13.931.21119-.82519.80445-2.0605 1.3184-2.7417 0 0 46.306-61.459 46.306-61.459.51393-.68115.2356-1.2354-.61645-1.2292 0 0-4.8608.0317-4.8608.0317z"/><path d="m268.16 44.774s-.001-.0171-.001-.0171c-.10737.92528-.96069 1.604-1.8128 1.604h-23.248c-.80323 0-1.2122-.54688-1.0938-1.2207.007-.0195.01-.0366.022-.0537 0 0-.008.002-.0146.007.005-.0269.005-.0512.0125-.0781 0 0 .044-.16358.10625-.39552 2.2204-5.9033 6.7432-9.7778 15.243-9.7778 9.5691 0 11.437 4.6753 10.787 9.9316zm-6.82-26.834c-29.841 0-36.912 18.113-40.879 36.394-3.9673 18.633-3.6255 36.055 27.253 36.055h1.0962c.0976-.002.19777-.002.29542-.002h1.9922c.11963-.002.23927-.002.36133-.002.30762 0 .6189-.002.93017-.002h.21852c1.2219-.002 2.4622-.008 3.7048-.0125h.0623c8.1555-.0317 16.334-.0927 19.647-.11962.84717-.0125 1.676-.6958 1.8506-1.5234 0 0 1.25-6.1108 1.25-6.1108s.24293-1.189.24293-1.189 1.4917-7.2876 1.4917-7.2876c.1709-.83496-.38696-1.5186-1.2402-1.5186h-27.761c-11.041 0-14.32-2.9346-13.112-11.56h44.377s-.004.005-.004.005c.0113 0 .0208-.005.0305-.005.70556-.0125 1.3574-.49804 1.6162-1.145.0489-.1245.0904-.25391.10737-.38818 0 0-.005.005-.005.005 6.5894-24.854 4.6997-41.592-23.528-41.592z"/><path d="m120.3 44.679s-.41993 1.4868-.41993 1.4868c0 .005-.001.005-.001.005s-3.3508 11.875-3.3508 11.875-3.3496 11.873-3.3496 11.873c-.23193.82031-1.1182 1.4917-1.9727 1.4917h-17.736c-13.453 0-16.729-10.522-13.453-26.042 3.2752-15.874 9.6973-25.742 22.938-26.741 18.094-1.3648 21.714 11.362 17.345 26.052zm12.163 25.818s8.3618-20.303 10.261-32.031c2.6-15.699-5.26-38.466-35.62-38.466-30.189 0-43.297 21.737-48.299 45.367-5.0012 23.801 1.5515 44.675 31.567 44.504 0 0 23.679-.0879 23.679-.0879s22.131-.0806 22.131-.0806c.85205-.007 1.7236-.6836 1.9409-1.5064 0 0 3.855-14.705 3.855-14.705.21485-.8252-.30639-1.5039-1.1584-1.5088 0 0-3.6951-.022-3.6951-.022s-3.6938-.022-3.6938-.022c-.7251-.005-1.1401-.47364-1.0522-1.0962.0159-.11225.0415-.22705.0904-.34668z"/><path d="m281.9 56.908c0 .56153-.45532 1.0181-1.0181 1.0181-.56152 0-1.0181-.45654-1.0181-1.0181 0-.56152.45655-1.0156 1.0181-1.0156.56274 0 1.0181.4541 1.0181 1.0156z"/></g></svg>