<?xml version="1.0" encoding="UTF-8"?><svg id="Layer_2" xmlns="http://www.w3.org/2000/svg" xmlns:xlink="http://www.w3.org/1999/xlink" viewBox="0 0 55.14 73.53"><defs><clipPath id="clippath"><path d="M52.99,24.09c12.18,40.73-31,44.59-36.43,49.44-2.29-35.65,32.83-15.9,36.43-49.44" clip-rule="evenodd" fill="none"/></clipPath><linearGradient id="linear-gradient" x1="1658.31" y1="534.45" x2="1701.08" y2="465.34" gradientTransform="translate(1810.04 579.54) rotate(177.35) scale(1.05 1.19)" gradientUnits="userSpaceOnUse"><stop offset="0" stop-color="#0049e7"/><stop offset="1" stop-color="#5efaf7"/></linearGradient><linearGradient id="linear-gradient-2" x1="1592.27" y1="536.31" x2="1610.17" y2="503.8" gradientTransform="translate(1694.51 734.56) rotate(177.35) scale(1.02 1.45)" gradientUnits="userSpaceOnUse"><stop offset="0" stop-color="#fff"/><stop offset="1" stop-color="#000"/></linearGradient><mask id="mask" x="13.06" y="24.15" width="43.77" height="59.87" maskUnits="userSpaceOnUse"><polygon points="53 24.15 13.06 25.32 16.88 84.02 56.83 82.85 53 24.15" fill="url(#linear-gradient-2)"/></mask><linearGradient id="linear-gradient-3" x1="1388.34" y1="623.39" x2="1410.76" y2="652.91" gradientTransform="translate(1929.77 537.68) rotate(171.75) scale(1.29 1.17)" xlink:href="#linear-gradient-2"/><mask id="mask-1" x="4.86" y="24.28" width="57.61" height="52.78" maskUnits="userSpaceOnUse"><polygon points="54.19 24.28 4.86 30.06 13.13 77.06 62.47 71.28 54.19 24.28" fill="url(#linear-gradient-3)"/></mask><clipPath id="clippath-1"><path d="M53.94,4.63c.01,.11,.02,.21,.03,.31,.07,1.56-.44,8.68-14.88,13.45C22.78,23.77-.9,32.84,6.33,56.1c-15.52-19.58,.36-40.89,16.77-44.77,0,0,1.91-8.4,7.64-11.33,0,0-1.15,3.72,.4,6.59,0,0,.49-4.46,4.11-6.22-2.65,9.84,13.64,7.78,18.68,4.25" clip-rule="evenodd" fill="none"/></clipPath><linearGradient id="linear-gradient-4" x1="-467.91" y1="-388.93" x2="-382.14" y2="-532.53" gradientTransform="translate(320.41 264.68) rotate(-4.25) scale(.63 .6)" xlink:href="#linear-gradient"/><linearGradient id="linear-gradient-5" x1="-497.8" y1="-322.16" x2="-556.55" y2="-423.03" gradientTransform="translate(369.32 221.17) rotate(-4.25) scale(.63 .6)" xlink:href="#linear-gradient-2"/><mask id="mask-2" x="-.54" y="4.63" width="58.8" height="51.62" maskUnits="userSpaceOnUse"><polygon points="3.8 56.25 58.26 53.02 53.92 4.63 -.54 7.86 3.8 56.25" fill="url(#linear-gradient-5)"/></mask><linearGradient id="linear-gradient-6" x1="-524.61" y1="-330.73" x2="-547.16" y2="-365.48" gradientTransform="translate(372.81 196.73) rotate(-4.25) scale(.63 .6)" xlink:href="#linear-gradient-2"/><mask id="mask-3" x="7.07" width="25.31" height="19.6" maskUnits="userSpaceOnUse"><polygon points="8.7 19.6 32.38 18.2 30.74 0 7.07 1.41 8.7 19.6" fill="url(#linear-gradient-6)"/></mask><linearGradient id="linear-gradient-7" x1="-642.26" y1="-897.89" x2="-664.9" y2="-932.8" gradientTransform="translate(461.92 320.48) rotate(-15.62) scale(.51 .45)" xlink:href="#linear-gradient-2"/><linearGradient id="linear-gradient-8" x1="-642.26" y1="-897.89" x2="-664.9" y2="-932.8" gradientTransform="translate(461.92 320.48) rotate(-15.62) scale(.51 .45)" xlink:href="#linear-gradient-2"/><mask id="mask-4" x="16.77" y=".37" width="22.45" height="18.04" maskUnits="userSpaceOnUse"><g><polygon points="20.73 18.41 39.21 13.6 35.26 .37 16.77 5.18 20.73 18.41" fill="url(#linear-gradient-7)"/><polygon points="20.73 18.41 39.21 13.6 35.26 .37 16.77 5.18 20.73 18.41" fill="url(#linear-gradient-8)"/></g></mask></defs><g><g clip-path="url(#clippath)"><polygon points="61.06 23.85 3 25.56 6.14 73.83 64.21 72.13 61.06 23.85" fill="url(#linear-gradient)"/></g><g mask="url(#mask)"><path d="M21.51,70c8.1-19.65,31.78-8.05,31.5-45.85-2.61,38.82-38.36,10.91-36.29,49.24,6.64-17.66,17.49-19.83,17.49-19.83-11.51,6.07-12.69,16.44-12.69,16.44" fill="#021b8d" fill-rule="evenodd"/></g><g mask="url(#mask-1)"><path d="M16.72,73.39c7.1-5.45,47.76-8.82,36.26-48.97,.89,2.04,6.33,26.82-22.01,36.32,0,0,7.87,1.21,16.03-5.89-10.45,12.47-21.94,4.16-30.28,18.55" fill="#bfe6ed" fill-rule="evenodd"/></g></g><g><g clip-path="url(#clippath-1)"><polygon points="-7.36 56.91 58.28 53.02 53.4 -1.35 -12.23 2.55 -7.36 56.91" fill="url(#linear-gradient-4)"/></g><g mask="url(#mask-2)"><path d="M53.92,4.7c.02,.12,.02,.2,.03,.31,.07,1.56-.44,8.68-14.88,13.45C22.77,23.85-.92,32.92,6.31,56.17c-.08-.11-.16-.21-.24-.32C-3.53,37.46,8.6,21.32,27.45,16.74c-7.27-.52-9.24,1.64-9.24,1.64,11.22-11.91,31.9-2.69,35.71-13.68" fill="#0131b9" fill-rule="evenodd"/></g><g mask="url(#mask-3)"><path d="M8.7,19.6s8.72-7.34,18.22-7.81c0,0-.52-4.68,.88-6.59,0,0-1.61,1.99-2.1,4.67,0,0-.28-5.11,5.04-9.88-5.73,2.93-7.64,11.33-7.64,11.33-5.18,1.22-10.3,4.18-14.4,8.27" fill="#bfe6ed" fill-rule="evenodd"/></g><g mask="url(#mask-4)"><path d="M32.36,9.32s-.61-4.57,2.89-8.95c-4.27,2.15-4.11,6.22-4.11,6.22" fill="#bfe6ed"/></g></g></svg>