<svg viewBox="0 0 800 800" xmlns="http://www.w3.org/2000/svg"><g fill-rule="evenodd"><path d="m744.9 380.4c-.7.1-1.4 1.7-1.4 2.6-.1 5.8-.3 21.1-.3 31.4s.4.9.9.9c2.2.1 7.4.3 11.8.3s9.8-.9 11.8-1.7c5.2-2.6 7.6-8.2 7.6-14.4 0-14-9.8-19.3-24.4-19.3-1-.1-3.9-.1-6.1.3zm37.2 64.5c0-14.3-10.5-22.2-29.6-22.2s-6.9-.1-8.4.1c-.4.1-1 .4-1 .9 0 10.2-.1 26.5.3 32.9.3 2.7 2.3 6.6 4.8 7.8 2.6 1.4 8.5 1.7 12.5 1.7 11.4 0 21.3-6.3 21.3-21.2zm-66.6-72.4c1.4 0 5.8.4 16.9.4s18.9-.3 29.1-.3 29.8 4.5 29.8 23.2-6.5 16.6-15 20.2c-.4.1-.4.4 0 .6 12.1 3 22.8 10.5 22.8 24.7s-8.7 22.6-21.2 28.1c-7.6 3.3-17.2 4.5-26.8 4.5s-27.1-.9-38.1-.6c-1.2-.4 1-5.6 2-6.5 2.6-.1 4.6-.3 7.4-1.2 3.9-1 4.3-2.2 4.9-8.1.3-5 .3-22.9.3-35.6s.1-29.3 0-35c-.1-4.5-1.7-5.9-4.9-6.8-2.5-.4-6.5-1-9.8-1.4-.7-.7 1.7-5.6 2.6-6.2zm-83.2 89.7c3.5 2.7 10.2 3.9 16.3 3.9s15.6-1.4 23.1-8.2c7.6-6.9 13-17.6 13-34.6s-6.2-29.6-18.9-37.3c-7.2-4.5-16.4-6.3-27.1-6.3s-6.2.1-8.1 1c-.4.3-1.4 1.6-1.4 2.3-.3 2.9-.3 25.1-.3 38.1s0 32.2.3 34.3c0 2.2 1 5.5 3.2 6.9zm-32.8-89.7c2.7 0 13.3.4 18.3.4 9.1 0 15.6-.4 32.7-.4s26.5 3.9 35.2 11.2c10.5 9.1 16 21.6 16 36.9 0 21.8-9.9 34.3-19.9 41.5-9.9 7.4-22.9 11.7-41.4 11.7s-26.7-.3-40.7-.4h-.1c-.7-1.3 1.2-6.3 2.3-6.5 3.7-.4 4.8-.6 6.6-1.3 3-1.2 3.6-2.7 4-8.1.4-9.9.3-21.9.3-35.5s.1-28.6-.1-34.6c-.4-5-2.6-6.3-6.9-7.2-2.2-.4-5-1-9.1-1.4-.6-1 2-5.5 2.7-6.3z" fill="#bf9c75"/><path d="m425.1 467.8c-3.6-.4-6.2-1-9.4-2.5-.4-.3-1.2-1.7-1.2-2.3-.3-5-.3-19.5-.3-29.1s-1.3-14.6-4.6-19.3c-3.9-5.5-9.5-8.7-16.7-8.7s-14.9 4.3-21.9 10.4c-.1.1-1.3 1.2-1.2-.4 0-1.6.3-4.8.4-6.9.1-2-1-3-1-3-4.6 2.3-17.6 5.3-22.4 5.8-3.5.7-4.3 4-.7 5.2h.1c3.9 1.2 6.5 2.5 8.5 3.7 1.4 1.2 1.3 2.7 1.3 4 .1 10.8.1 27.4-.3 36.5-.1 3.6-1.2 4.9-3.7 5.5h.3c-2 .3-3.6.7-6.1 1-.9.9-.9 5.5 0 6.5 1.6 0 9.9-.4 16.9-.4s14.4.4 16.9.4c1-1.2 1.3-5.5.7-6.5-2.7-.1-4.8-.4-6.6-1-2.6-.6-3.3-1.9-3.5-4.9-.3-7.6-.3-23.8-.3-34.7s.9-4.5 1.7-5.3c3.3-2.9 8.7-4.9 13.4-4.9s7.6 1.4 9.9 3.3c3.2 2.6 4.2 6.3 4.6 9.1.7 6.2.4 18.5.4 29.1s-.4 7.2-2.6 7.9c-1 .4-3.6 1-6.6 1.3-1 1-.7 5.5 0 6.5 4.2 0 9.1-.4 16.3-.4s14.7.4 17 .4c.7-.9 1-5 .4-6.2zm39.9-55.1c-7.6 0-12.4 5.9-12.4 15.1s4.2 20.2 16 20.2 5.8-.9 7.5-2.9c2.7-2.6 4.6-7.8 4.6-13.3 0-12-5.9-19.2-15.7-19.2zm-1 63.7c-2.9 0-4.9.9-6.2 1.6-6.1 3.9-8.8 7.6-8.8 12.1s1.6 7.5 5 10.4c4.2 3.6 9.9 5.3 17.3 5.3 14.7 0 21.2-7.9 21.2-15.7s-2.7-9.1-8.4-11.1c-4-1.7-11.4-2.6-20.2-2.6zm1 37.5c-8.8 0-15.1-1.9-20.6-6.1-5.3-4-7.6-10.1-7.6-14.3s.3-4.3 2.9-7.2c1.6-1.7 5-5 13.3-10.7.3-.1.4-.3.4-.6s-.3-.6-.6-.7c-6.8-2.6-8.8-6.8-9.4-9.1v-.3c-.1-.9-.4-1.7.9-2.6 1-.7 2.5-1.6 4-2.6 2.5-1.4 5-3 6.6-4.3.3-.3.3-.6.3-.9s-.3-.6-.6-.7c-10.1-3.3-15.1-10.8-15.1-22.1s3.3-14 9.2-18.2c4-3.2 14.1-7.1 20.8-7.1h.4c6.8.1 10.5 1.6 15.9 3.5 2.9 1 5.6 1.4 9.4 1.4 5.6 0 8.1-1.7 10.1-3.7.1.3.4 1 .6 2.9.1 1.9-.4 4.6-1.9 6.6-1.2 1.6-3.7 2.7-6.3 2.7h-.7c-2.6-.3-3.7-.6-3.7-.6l-.6.3c-.1.3 0 .6.1 1v.3c.4 1.3 1 5.2 1 6.2 0 11.8-4.8 17-9.8 20.9-4.9 3.6-10.5 5.9-16.9 6.5-.1 0-.7 0-2 .1-.7 0-1.7.1-1.9.1h-.1c-1.2.3-4 1.7-4 4.2s1.3 4.8 7.5 5.2c1.3.1 2.6.1 4 .3 8.2.6 18.5 1.3 23.2 2.9 6.6 2.5 10.8 8.4 10.8 15.4 0 10.7-7.6 20.6-20.3 26.8-6.2 2.7-12.4 4.2-19.2 4.2zm82.2-100.5c-3 0-5.8.7-7.8 2.2-5.6 3.5-8.5 10.4-8.5 20.5 0 18.9 9.5 32.2 23.1 32.2s7.2-1.2 9.9-3.5c4.2-3.5 6.3-10.4 6.3-20 0-18.7-9.4-31.3-23.1-31.3zm2.6 61.7c-24.5 0-33.3-18-33.3-34.9s4.8-20.9 14.3-27.4c6.8-4.2 14.9-6.5 22.1-6.5 18.7 0 31.9 13.4 31.9 32.7s-5.2 23.5-15.1 29.8c-4.8 3.2-13 6.2-19.8 6.2zm-257-61.7c-3 0-5.8.7-7.8 2.2-5.6 3.5-8.5 10.4-8.5 20.5 0 18.9 9.5 32.2 23.1 32.2s7.2-1.2 9.9-3.5c4.2-3.5 6.3-10.4 6.3-20 0-18.7-9.2-31.3-23.1-31.3zm2.6 61.7c-24.5 0-33.3-18-33.3-34.9s4.8-20.9 14.3-27.4c6.8-4.2 14.9-6.5 22.1-6.5 18.7 0 31.9 13.4 31.9 32.7s-5.2 23.5-15.1 29.8c-4.6 3.2-12.8 6.2-19.8 6.2zm-164.8-1.4c-.3-.4-.6-1.7-.4-3.3 0-1.2.3-1.9.4-2.2 3-.4 4.6-.9 6.3-1.3 2.9-.7 4-2.3 4.2-5.9.4-8.7.4-25.1.3-36.5v-.3c0-1.3 0-2.9-1.6-4-2.3-1.4-5-2.7-8.7-3.7-1.3-.4-2.2-1.2-2-2 0-.9.9-1.9 2.7-2.2 4.8-.4 17.2-3.5 22.1-5.6.3.3.7 1.2.7 2.3v1.6c-.3 1.6-.4 3.5-.4 5.3s.6 1 1.2 1 .6-.1.9-.3c9.2-7.2 17.6-9.8 21.9-9.8 7.1 0 12.5 3.3 16.7 10.2.3.4.6.6 1 .6s.7-.1.9-.4c8.5-6.5 17-10.4 22.6-10.4 13.4 0 21.3 9.9 21.3 26.8s0 11-.1 16.6c0 5-.1 9.7-.1 13s1 3 2.6 3.5c2 1 4.8 1.4 8.4 2h.1c.3 1-.3 4.8-.9 5.5-.9 0-2.2 0-3.6-.1-2.7-.1-6.6-.3-11-.3-8.9 0-13.6.1-18 .4-.3-1.2-.4-4.6 0-5.5 2.6-.4 3.9-.9 5.5-1.3 2.9-.9 3.6-2.2 3.7-5.9 0-2.7.6-26.1-.3-31.7-.9-5.8-5.2-12.5-14.7-12.5s-9.2 1.4-14.7 5.6c-.3.3-.6 1-.6 1.4.6 3.2.6 6.6.6 12v9.4c0 6.5-.1 12.5 0 17.2 0 3.2 1.9 3.9 3.5 4.5.9.1 1.4.3 2.2.4 1.3.3 2.6.6 4.6 1 .3.6.3 2.5-.1 4-.1.9-.4 1.3-.6 1.4-4.9-.1-9.9-.3-17.3-.3s-5.9.1-9.1.1-5 .1-6.5.1c-.1-.3-.4-1.3-.4-2.9s.3-2.3.6-2.6c.7-.1 1.3-.3 2-.3 1.7-.3 3.2-.6 4.6-.9 2.5-.7 3.3-2 3.5-5.2.4-7.2.9-27.8-.1-33-1.7-8.4-6.5-12.5-14.1-12.5s-10.1 2.2-14.7 5.6c-.7.6-1.3 2-1.3 3.3v8.5c0 10.4 0 23.4.1 29 .1 1.7.7 3.7 4 4.5.7.1 1.9.4 3.3.6l2.6.4c.3.9.1 4.3-.4 5.5-1.4 0-3.2-.1-5.2-.1-3-.1-6.9-.3-11.2-.3s-8.7.1-11.5.3c-2-.3-3.6-.3-5.3-.3z" fill="#dbdbdb"/><path d="m54.8 508.3-5.9-2s.7-30.1-10.1-32.3c-7.2-8.4 1.2-354.7 27.1-1.2 0 0-8.9 4.5-10.5 12.1-1.7 7.5-.6 23.4-.6 23.4z" fill="#fff"/><path d="m54.8 508.3-5.9-2s.7-30.1-10.1-32.3c-7.2-8.4 1.2-354.7 27.1-1.2 0 0-8.9 4.5-10.5 12.1-1.7 7.5-.6 23.4-.6 23.4z" fill="#a6a385"/><path d="m57.9 479.2s51.8-34 39.7-104.8c-11.7-51.5-39.2-68.3-42.2-74.8-3.3-4.6-6.5-12.7-6.5-12.7l2.2 143.2c0 .1-4.5 43.8 6.9 49.2" fill="#fff"/><path d="m57.9 479.2s51.8-34 39.7-104.8c-11.7-51.5-39.2-68.3-42.2-74.8-3.3-4.6-6.5-12.7-6.5-12.7l2.2 143.2c0 .1-4.5 43.8 6.9 49.2" fill="#499d4a"/><path d="m45.8 481.1s-48.6-33.2-45.7-91.6c2.7-58.4 37.1-87.1 43.7-92.3 4.3-4.6 4.5-6.3 4.8-11 3 6.5 2.5 97 2.9 107.7 1.3 41.1-2.3 79.3-5.6 87.1z" fill="#fff"/><path d="m45.8 481.1s-48.6-33.2-45.7-91.6c2.7-58.4 37.1-87.1 43.7-92.3 4.3-4.6 4.5-6.3 4.8-11 3 6.5 2.5 97 2.9 107.7 1.3 41.1-2.3 79.3-5.6 87.1z" fill="#58aa50"/></g></svg>