<svg height="226" preserveAspectRatio="xMidYMid" viewBox="0 0 256 226" width="256" xmlns="http://www.w3.org/2000/svg"><path d="m69.1805953 188.087106h-2.4170112l-12.0650574-12.065058v-2.416811l18.444359-18.444159h12.7782017l1.7036669 1.703667v12.778202z" fill="#b6fcfb"/><path d="m54.6985267 51.6279666v-2.4170112l12.0650574-12.0650574h2.4170112l18.444159 18.444159v12.7782017l-1.7036669 1.7038669h-12.7782017z" fill="#b6fcfb"/><path d="m160.906229 149.197744h-17.552629l-1.466085-1.465886v-41.08839c0-7.3102284-2.872576-12.9763857-11.688487-13.1743703-4.536845-.1189907-9.72744 0-15.274406.217783l-.832135.8519335v53.1732458l-1.466086 1.465885h-17.5526286l-1.4660855-1.465885v-70.1909163l1.4660855-1.4660855h39.5035136c15.353601 0 27.795029 12.441428 27.795029 27.7950288v43.881771z" fill="#01cbc8"/><g fill="#b6fcfb"><path d="m71.6768002 122.888599h-70.21077473l-1.46602547-1.466085v-17.592226l1.46602547-1.466085h70.21077473l1.4660855 1.466085v17.592226z"/><path d="m254.534115 122.888599h-70.211115l-1.466086-1.466085v-17.592226l1.466086-1.466085h70.211115l1.465885 1.466085v17.592226z"/><path d="m117.876391 54.1241715v-52.65814603l1.466085-1.46602547h17.592226l1.466085 1.46602547v52.65814603l-1.466085 1.4658855h-17.592226z"/><path d="m117.876391 223.786517v-52.657686l1.466085-1.466086h17.592226l1.466085 1.466086v52.657686l-1.466085 1.465885h-17.592226z"/></g></svg>