<svg fill="none" height="512" viewBox="0 0 512 512" width="512" xmlns="http://www.w3.org/2000/svg"><path d="m0 0h512v512h-512z" fill="#fff"/><path d="m358.635 63.3162c-51.137-2.3596-94.139 33.8928-101.475 81.6568-.291 2.217-.727 4.362-1.09 6.507-11.404 59.491-64.502 104.539-128.278 104.539-22.736 0-44.0913-5.721-62.6866-15.731-2.2518-1.216-4.9394.357-4.9394 2.86v12.799 192.846h195.831v-144.581c0-26.599 21.937-48.193 48.958-48.193h48.958c55.423 0 100.022-45.262 97.843-100.32-1.961-49.552-42.783-90.0232-93.121-92.3828z" fill="#000"/></svg>