<svg enable-background="new 0 0 132 104" viewBox="0 0 132 104" xmlns="http://www.w3.org/2000/svg" xmlns:xlink="http://www.w3.org/1999/xlink"><symbol id="a" viewBox="-35 -35 70 70"><path d="m35-7.7-49.1-27.3 32.9 48.9 6.7-4.4z" fill="url(#b)"/><path d="m15.5-18.9-6.2-15-13.6 13.4 5.5 48.6 13.2 6.9 20.6-12z" fill="url(#c)"/><path d="m-14.1-35-20.9 14.1 7.8 48.1 20.1 7.7 26-21z" fill="url(#d)"/><path d="m21-21h-42v42h42z"/><path d="m-.6 13.6h-15.8v2.7h15.8v-2.7z" fill="#fff"/><path d="m.5-15.8h6.2c5 0 8.4 3.4 8.4 7.7 0 4.4-3.4 7.9-8.4 7.9l-6.2.2zm3.5 3.2v9.5h2.7c2.8 0 4.8-1.9 4.8-4.6 0-2.8-1.9-4.7-4.8-4.7z" fill="#fff"/><path d="m-15.7-15.8h7.2c2 0 3.5.6 4.6 1.6.9.9 1.3 2.1 1.3 3.6v.1c0 1.3-.3 2.3-.9 3.1s-1.4 1.4-2.4 1.8l3.9 5.6h-4.1l-3.3-4.8h-2.9v4.8h-3.5zm7 7.7c.8 0 1.5-.2 2-.6s.7-1 .7-1.6v-.1c0-.8-.2-1.3-.7-1.7-.5-.3-1.1-.6-2-.6h-3.4v4.5h3.4z" fill="#fff"/></symbol><linearGradient id="b" gradientUnits="userSpaceOnUse" x1="30.4897" x2="-23.4683" y1="5.1189" y2="-25.8451"><stop offset="0" stop-color="#dd1265"/><stop offset=".483" stop-color="#dd1265"/><stop offset=".942" stop-color="#fdb60d"/></linearGradient><linearGradient id="c" gradientUnits="userSpaceOnUse" x1="-1.5839" x2="19.8051" y1="-28.888" y2="30.175"><stop offset=".139" stop-color="#087cfa"/><stop offset=".476" stop-color="#dd1265"/><stop offset=".958" stop-color="#087cfa"/></linearGradient><linearGradient id="d" gradientUnits="userSpaceOnUse" x1="-17.5865" x2="-1.7875" y1="-27.0712" y2="29.0738"><stop offset=".278" stop-color="#dd1265"/><stop offset=".968" stop-color="#fdb60d"/></linearGradient><use height="70" transform="translate(66 52)" width="70" x="-35" xlink:href="#a" y="-35"/></svg>