<svg height="263" preserveAspectRatio="xMidYMid" viewBox="0 0 256 263" width="256" xmlns="http://www.w3.org/2000/svg" xmlns:xlink="http://www.w3.org/1999/xlink"><linearGradient id="a" x1="20.861745%" x2="63.425609%" y1="20.686881%" y2="44.071008%"><stop offset="0" stop-color="#249361"/><stop offset="1" stop-color="#3ecf8e"/></linearGradient><linearGradient id="b" x1="1.991165%" x2="21.402508%" y1="-13.158401%" y2="34.708062%"><stop offset="0"/><stop offset="1" stop-opacity="0"/></linearGradient><path d="m149.601512 258.578826c-6.717427 8.459331-20.33763 3.824435-20.499488-6.977009l-2.36678-157.9841637h106.228378c19.240807 0 29.971776 22.2233027 18.007497 37.2922337z" fill="url(#a)"/><path d="m149.601512 258.578826c-6.717427 8.459331-20.33763 3.824435-20.499488-6.977009l-2.36678-157.9841637h106.228378c19.240807 0 29.971776 22.2233027 18.007497 37.2922337z" fill="url(#b)" fill-opacity=".2"/><path d="m106.399023 4.36908575c6.717427-8.46027014 20.337866-3.82465336 20.499723 6.97693915l1.037155 157.9839281h-104.8989166c-19.24139433 0-29.97266934-22.223302-18.00780265-37.292234z" fill="#3ecf8e"/></svg>