<svg enable-background="new 0 0 191 73"
     viewBox="0 0 191 73"
     xmlns="http://www.w3.org/2000/svg"
     xmlns:xlink="http://www.w3.org/1999/xlink">
    <linearGradient id="a"
                    gradientUnits="userSpaceOnUse"
                    x1="41.1312"
                    x2="46.788"
                    y1="19.3212"
                    y2="8.6652">
        <stop offset="0"
              stop-color="#ed1b2f" />
        <stop offset="1"
              stop-color="#9c1c20" />
    </linearGradient>
    <linearGradient id="b"
                    gradientUnits="userSpaceOnUse"
                    x1="43.2822"
                    x2="47.0213"
                    y1="4.3525"
                    y2="17.8326">
        <stop offset="0"
              stop-color="#ed1b2f" />
        <stop offset=".1592"
              stop-color="#de1b2c" />
        <stop offset=".7205"
              stop-color="#ae1c23" />
        <stop offset="1"
              stop-color="#9c1c20" />
    </linearGradient>
    <linearGradient id="c">
        <stop offset="0"
              stop-color="#70090a" />
        <stop offset=".4123"
              stop-color="#a5111a" />
        <stop offset="1"
              stop-color="#ed1b2f" />
    </linearGradient>
    <radialGradient id="d"
                    cx="-302.3245"
                    cy="-2972.6584"
                    gradientTransform="matrix(.9758 -.2189 .1572 .7007 831.8085 2049.4036)"
                    gradientUnits="userSpaceOnUse"
                    r="7.248"
                    xlink:href="#c" />
    <radialGradient id="e"
                    cx="53.8523"
                    cy="32.7664"
                    gradientTransform="matrix(.277 -.9609 .5129 .1478 22.1322 79.6683)"
                    gradientUnits="userSpaceOnUse"
                    r="17.5685">
        <stop offset="0"
              stop-color="#a61f23" />
        <stop offset=".5493"
              stop-color="#ed1b2f" />
        <stop offset=".6866"
              stop-color="#ea1b36" />
        <stop offset=".8812"
              stop-color="#e11c48" />
        <stop offset="1"
              stop-color="#da1c57" />
    </radialGradient>
    <linearGradient id="f">
        <stop offset="0"
              stop-color="#ed1b2f" />
        <stop offset=".3475"
              stop-color="#c51523" />
        <stop offset="1"
              stop-color="#70090a" />
    </linearGradient>
    <radialGradient id="g"
                    cx="49.5334"
                    cy="34.7899"
                    gradientTransform="matrix(.1894 -.9819 .4401 .08487904 24.842 80.4741)"
                    gradientUnits="userSpaceOnUse"
                    r="18.1943"
                    xlink:href="#f" />
    <radialGradient id="h"
                    cx="-5686.0479"
                    cy="31.6124"
                    gradientTransform="matrix(-.08727418 -.9962 -.5317 .04658418 -439.388 -5634.2119)"
                    gradientUnits="userSpaceOnUse"
                    r="17.5558">
        <stop offset="0"
              stop-color="#ed1b2f" />
        <stop offset=".2105"
              stop-color="#c51523" />
        <stop offset=".6059"
              stop-color="#70090a" />
        <stop offset="1"
              stop-color="#ed1b2f" />
    </radialGradient>
    <linearGradient id="i">
        <stop offset="0"
              stop-color="#ed1b2f" />
        <stop offset=".01179638"
              stop-color="#ea1b2f" />
        <stop offset=".1763"
              stop-color="#c91d29" />
        <stop offset=".3331"
              stop-color="#b11e25" />
        <stop offset=".4777"
              stop-color="#a21f23" />
        <stop offset=".5984"
              stop-color="#9d1f22" />
        <stop offset=".6587"
              stop-color="#ab1e24" />
        <stop offset=".8865"
              stop-color="#db1c2c" />
        <stop offset="1"
              stop-color="#ed1b2f" />
    </linearGradient>
    <radialGradient id="j"
                    cx="43.9133"
                    cy="39.9656"
                    gradientTransform="matrix(-.03852935 -.9993 .5337 -.02057878 24.2752 84.6687)"
                    gradientUnits="userSpaceOnUse"
                    r="26.8063"
                    xlink:href="#i" />
    <radialGradient id="k"
                    cx="56.1875"
                    cy="36.0496"
                    gradientTransform="matrix(.8092 -.5876 .2115 .2912 3.0992 58.5661)"
                    gradientUnits="userSpaceOnUse"
                    r="17.64"
                    xlink:href="#f" />
    <linearGradient id="l">
        <stop offset="0"
              stop-color="#70090a" />
        <stop offset=".1688"
              stop-color="#8b1618" />
        <stop offset=".3148"
              stop-color="#9d1f22" />
        <stop offset=".4176"
              stop-color="#ab1e24" />
        <stop offset=".8064"
              stop-color="#db1c2c" />
        <stop offset="1"
              stop-color="#ed1b2f" />
    </linearGradient>
    <radialGradient id="m"
                    cx="59.2573"
                    cy="43.6027"
                    gradientTransform="matrix(.8639 -.5036 .2397 .4112 -2.3882 55.5181)"
                    gradientUnits="userSpaceOnUse"
                    r="18.2885"
                    xlink:href="#l" />
    <radialGradient id="n"
                    cx="63.3977"
                    cy="52.7823"
                    gradientTransform="matrix(.9392 -.3434 .1577 .4314 -4.4697 51.7836)"
                    gradientUnits="userSpaceOnUse"
                    r="19.4449">
        <stop offset="0"
              stop-color="#70090a" />
        <stop offset=".1688"
              stop-color="#8b1618" />
        <stop offset=".3148"
              stop-color="#9d1f22" />
        <stop offset=".3684"
              stop-color="#ab1e24" />
        <stop offset=".5712"
              stop-color="#db1c2c" />
        <stop offset=".6722"
              stop-color="#ed1b2f" />
        <stop offset=".8162"
              stop-color="#e41b42" />
        <stop offset="1"
              stop-color="#da1c57" />
    </radialGradient>
    <radialGradient id="o"
                    cx="75.4878"
                    cy="37.9079"
                    gradientTransform="matrix(.7976 -.6032 .4246 .5614 -.8153 62.1615)"
                    gradientUnits="userSpaceOnUse"
                    r="7.8083"
                    xlink:href="#c" />
    <radialGradient id="p"
                    cx="-3186.0544"
                    cy="2026.1851"
                    gradientTransform="matrix(.03721308 -.9993 -.9777 -.03640828 2119.3167 -3075.4302)"
                    gradientUnits="userSpaceOnUse"
                    r="10.577">
        <stop offset="0"
              stop-color="#9c1c20" />
        <stop offset=".2674"
              stop-color="#c81c47" />
        <stop offset=".4125"
              stop-color="#da1c57" />
        <stop offset=".5213"
              stop-color="#df2e4c" />
        <stop offset=".8408"
              stop-color="#ed5e2d" />
        <stop offset="1"
              stop-color="#f37021" />
    </radialGradient>
    <radialGradient id="q"
                    cx="-5715.0225"
                    cy="36.6976"
                    gradientTransform="matrix(-.7559 -.6546 -.3479 .4017 -4274.1084 -3719.3127)"
                    gradientUnits="userSpaceOnUse"
                    r="20.0577">
        <stop offset="0"
              stop-color="#f37021" />
        <stop offset=".04611144"
              stop-color="#f26523" />
        <stop offset=".2895"
              stop-color="#ee302c" />
        <stop offset=".4081"
              stop-color="#ed1b2f" />
        <stop offset=".5339"
              stop-color="#e41b42" />
        <stop offset=".6944"
              stop-color="#da1c57" />
        <stop offset=".8924"
              stop-color="#ae1c30" />
        <stop offset="1"
              stop-color="#9c1c20" />
    </radialGradient>
    <radialGradient id="r"
                    cx="-5711.2217"
                    cy="43.5899"
                    gradientTransform="matrix(-.8639 -.5036 -.2397 .4112 -4893.9697 -2850.7817)"
                    gradientUnits="userSpaceOnUse"
                    r="18.2688"
                    xlink:href="#l" />
    <linearGradient id="s">
        <stop offset="0"
              stop-color="#da1c57" />
        <stop offset=".1991"
              stop-color="#e41b41" />
        <stop offset=".4081"
              stop-color="#ed1b2f" />
        <stop offset=".475"
              stop-color="#ee262d" />
        <stop offset=".828"
              stop-color="#f25b24" />
        <stop offset="1"
              stop-color="#f37021" />
    </linearGradient>
    <radialGradient id="t"
                    cx="-5716.9639"
                    cy="48.4081"
                    gradientTransform="matrix(-.8868 -.4622 -.275 .5277 -5021.1582 -2619.3181)"
                    gradientUnits="userSpaceOnUse"
                    r="21.0094"
                    xlink:href="#s" />
    <radialGradient id="u"
                    cx="-5708.3691"
                    cy="49.2197"
                    gradientTransform="matrix(-.9392 -.3434 -.1577 .4314 -5326.7964 -1932.2034)"
                    gradientUnits="userSpaceOnUse"
                    r="22.7646"
                    xlink:href="#i" />
    <linearGradient id="v"
                    gradientTransform="matrix(-1 0 0 1 -5681.6665 0)"
                    gradientUnits="userSpaceOnUse"
                    x1="-5701.2173"
                    x2="-5690.0508"
                    y1="37.5192"
                    y2="37.5192">
        <stop offset="0"
              stop-color="#ed1b2f" />
        <stop offset=".4878"
              stop-color="#e31c45" />
        <stop offset="1"
              stop-color="#da1c57" />
    </linearGradient>
    <radialGradient id="w"
                    cx="37.7932"
                    cy="52.6948"
                    gradientTransform="matrix(1 0 0 .4482 0 29.0792)"
                    gradientUnits="userSpaceOnUse"
                    r="13.1891"
                    xlink:href="#i" />
    <radialGradient id="x"
                    cx="37.2929"
                    cy="51.9217"
                    gradientTransform="matrix(1 0 0 .39 0 31.6734)"
                    gradientUnits="userSpaceOnUse"
                    r="5.9458"
                    xlink:href="#s" />
    <radialGradient id="y"
                    cx="41.1833"
                    cy="52.1981"
                    gradientTransform="matrix(-.1029 -.9947 .5078 -.05250904 18.9153 95.9038)"
                    gradientUnits="userSpaceOnUse"
                    r="11.8782">
        <stop offset="0"
              stop-color="#9c1c20" />
        <stop offset=".4081"
              stop-color="#ed1b2f" />
        <stop offset=".475"
              stop-color="#ee262d" />
        <stop offset=".828"
              stop-color="#f25b24" />
        <stop offset="1"
              stop-color="#f37021" />
    </radialGradient>
    <radialGradient id="z"
                    cx="42.7665"
                    cy="54.7676"
                    gradientTransform="matrix(.05920314 .9982 -.3796 .0225142 61.0255 10.8431)"
                    gradientUnits="userSpaceOnUse"
                    r="11.0173"
                    xlink:href="#f" />
    <radialGradient id="A"
                    cx="39.3757"
                    cy="56.3984"
                    gradientTransform="matrix(1 0 0 .3628 0 35.9343)"
                    gradientUnits="userSpaceOnUse"
                    r="7.3287"
                    xlink:href="#i" />
    <radialGradient id="B"
                    cx="-5574.5957"
                    cy="56.7618"
                    gradientTransform="matrix(-.9312 .3644 .1269 .3242 -5147.4805 2069.9795)"
                    gradientUnits="userSpaceOnUse"
                    r="7.8695"
                    xlink:href="#l" />
    <radialGradient id="C"
                    cx="-5576.605"
                    cy="51.8561"
                    gradientTransform="matrix(-.9333 .3591 .161 .4184 -5159.9463 2032.9912)"
                    gradientUnits="userSpaceOnUse"
                    r="5.268"
                    xlink:href="#l" />
    <radialGradient id="D"
                    cx="-5573.5015"
                    cy="50.8205"
                    gradientTransform="matrix(-.1656 .9862 .2794 .04689811 -887.062 5545.0312)"
                    gradientUnits="userSpaceOnUse"
                    r="15.7903">
        <stop offset="0"
              stop-color="#a61f23" />
        <stop offset=".4164"
              stop-color="#ed1b2f" />
        <stop offset=".5457"
              stop-color="#ef362b" />
        <stop offset=".7779"
              stop-color="#f37021" />
        <stop offset="1"
              stop-color="#da1c57" />
    </radialGradient>
    <radialGradient id="E"
                    cx="-5568.3647"
                    cy="55.8172"
                    gradientTransform="matrix(.01156724 -.9999 -.2446 -.00282947 122.7615 -5512.0171)"
                    gradientUnits="userSpaceOnUse"
                    r="18.6784"
                    xlink:href="#f" />
    <radialGradient id="F"
                    cx="-5579.2451"
                    cy="55.808"
                    gradientTransform="matrix(-.9617 .2742 .1119 .3925 -5316.0273 1563.9012)"
                    gradientUnits="userSpaceOnUse"
                    r="6.1748">
        <stop offset="0"
              stop-color="#9c1c20" />
        <stop offset=".3096"
              stop-color="#c41c44" />
        <stop offset=".4655"
              stop-color="#da1c57" />
        <stop offset="1"
              stop-color="#ed1b2f" />
    </radialGradient>
    <radialGradient id="G"
                    cx="69.238"
                    cy="39.4706"
                    gradientTransform="matrix(-.8641 .5033 -.2995 -.5142 140.8889 24.9192)"
                    gradientUnits="userSpaceOnUse"
                    r="21.0403"
                    xlink:href="#l" />
    <g fill="#fff">
        <path d="m96.5 16.9c-.1-.1-.1-.2-.1-.3v-2.3c0-.3.2-.5.5-.5h1.7c.3 0 .4.2.4.5v2.3c0 .3-.1.5-.4.5h-1.7c-.2 0-.3-.1-.4-.2zm0 3h2.4v15.9h-2.4z" />
        <path d="m102.9 19.9h1.8l.5 1.8c.8-.6 1.8-1.1 2.8-1.4 1-.4 2-.6 3-.6 1.6 0 2.9.5 3.7 1.5s1.2 2.3 1.2 3.8v10.8h-2.4v-10.6c0-1-.3-1.9-.9-2.5s-1.4-1-2.4-1-1.8.1-2.5.4c-.7.2-1.6.6-2.5 1.2v12.5h-2.4v-15.9z" />
        <path d="m117.3 19.9h2.4l4.9 13.7 5.1-13.7h2.4l-6.1 15.9h-2.7z" />
        <path d="m136.2 35.2c-.9-.5-1.6-1.3-2-2.5s-.6-2.8-.6-4.9.2-3.8.6-4.9c.4-1.2 1.1-2 2.1-2.5s2.3-.7 4-.7c1.5 0 2.6.2 3.5.5s1.5.9 1.9 1.6c.4.8.6 1.8.6 3.2s-.4 2.3-1.2 2.9-1.9.9-3.4.9h-5.8c0 1.4.2 2.4.4 3.2.3.7.7 1.3 1.4 1.6s1.7.5 3 .5h5.1v1.4c-1.1.1-2 .2-2.9.3-.8.1-1.8.1-2.8.1-1.7.1-3-.2-3.9-.7zm5.3-8c.9 0 1.6-.2 2-.5s.6-.9.6-1.8c0-1.3-.3-2.3-.9-2.8s-1.6-.8-3.1-.8c-1.2 0-2 .2-2.7.5-.6.3-1.1.9-1.3 1.7-.3.8-.4 2-.4 3.5h5.8z" />
        <path d="m151.8 35.9c-1.4-.1-2.3-.2-2.8-.3v-1.4h6.5c1.1 0 1.9-.1 2.4-.4s.8-.9.8-1.9v-.7c0-1.5-1-2.2-2.9-2.2h-2.2c-1.5 0-2.7-.3-3.5-.9s-1.2-1.6-1.2-3v-.8c0-1.5.4-2.6 1.3-3.3s2.3-1 4.3-1c.9 0 1.9 0 3 .1 1.2.1 2.1.2 2.7.3v1.4h-6.1c-1.1 0-1.9.2-2.4.5-.5.4-.8 1-.8 1.9v.7c0 .9.3 1.4.8 1.7s1.3.4 2.3.4h2.3c1.5 0 2.6.3 3.4 1s1.2 1.7 1.2 2.9v1.1c0 1.5-.5 2.6-1.5 3.2s-2.4.9-4.2.9c-.9-.1-2-.2-3.4-.2z" />
        <path d="m166 34.6c-.7-.8-1.1-2.1-1-4l.1-8.8h-2.5v-1.5l2.6-.4.4-4.4h1.8v4.4h4.6v1.9h-4.6v8.8c0 1.2.2 2 .7 2.5.5.4 1 .7 1.7.8l1.9.2v1.7h-2.2c-1.6 0-2.8-.4-3.5-1.2z" />
    </g>
    <path d="m130.3 39.5h1.3v5.1h-1.3z"
          fill="#f4f4f4" />
    <path d="m133.8 39.5h1.1l1.8 2.9v-2.9h1.3v5.1h-1l-1.8-2.9v2.9h-1.3v-5.1z"
          fill="#f4f4f4" />
    <g fill="#fff">
        <path d="m97.9 58.3c-.6-.3-1-.9-1.3-1.7s-.5-2-.5-3.5.2-2.6.5-3.4.8-1.4 1.4-1.7 1.3-.5 2.2-.5c.8 0 1.5.1 2.1.2s1.1.3 1.5.4v2.2c-.3-.1-.8-.1-1.3-.2-.5 0-1.1-.1-1.7-.1-.5 0-.8.1-1.1.2-.2.1-.4.4-.5.9-.1.4-.2 1.1-.2 2 0 .8 0 1.5.1 1.9s.3.7.5.9c.3.2.6.3 1.2.3 1.3 0 2.3 0 2.9-.1v2.2c-.8.3-2 .5-3.6.5-.9 0-1.6-.2-2.2-.5z" />
        <path d="m111.1 47.7h3.6l3.3 11h-3l-.4-1.7h-3.3l-.4 1.7h-2.9zm2.7 6.7-1-4.2-1 4.2z" />
        <path d="m122.2 47.7h2.3l3.9 6.1v-6.1h2.9v11h-2.3l-3.9-6.1v6.1h-2.9z" />
        <path d="m138.6 47.7h3.6l3.3 11h-3l-.5-1.7h-3.3l-.4 1.7h-2.9zm2.7 6.7-1-4.2-1 4.2z" />
        <path d="m149.4 47.7h4.9c1.5 0 2.5.5 3.1 1.5s.9 2.3.9 4.1c0 1.9-.3 3.3-1 4.2s-1.7 1.3-3 1.3h-4.9zm4.6 8.4c.5 0 .9-.2 1.1-.7.2-.4.3-1.2.3-2.3 0-.8-.1-1.5-.2-1.9s-.3-.7-.5-.8-.5-.2-.8-.2h-1.7v5.9z" />
        <path d="m165.4 47.7h3.6l3.3 11h-3l-.4-1.7h-3.3l-.4 1.7h-2.9zm2.8 6.7-1-4.2-1 4.2z" />
    </g>
    <path d="m96.4 41.7 29.4-.4c.4 0 .8.3.8.8 0 .4-.3.8-.8.8l-29.4-.4c-.2 0-.3-.2-.3-.4 0-.3.1-.4.3-.4z"
          fill="#f4f4f4" />
    <path d="m171.8 42.4-29.2.4c-.4 0-.8-.3-.8-.8s.3-.8.8-.8l29.2.4c.2 0 .3.2.3.4.1.2-.1.4-.3.4z"
          fill="#f4f4f4" />
    <path d="m47 66 1.5-7.8h10.2l-14.3-12.1-14.3 12.1h10.2l1.5 7.8z"
          fill="#70090a" />
    <path d="m59.9 54.2-15.5-13.7-15.6 13.6-21.8-7.7 7-4-5.6-9.7 11.1-.1v-7.8l17.4 14.8-5-26.8 7 4 5.5-9.7 5.5 9.7 7-4-5 26.8 17.4-14.8v7.8l11.1.1-5.6 9.7 7 4z"
          fill="#70090a" />
    <path d="m44.4 7.1-5.5 9.7 5.5 3.1z"
          fill="url(#a)" />
    <path d="m44.4 7.1v12.8l5.5-3.1z"
          fill="url(#b)" />
    <path d="m80.4 32.7-11.1-.1-.1 6.6z"
          fill="url(#d)" />
    <path d="m56.9 12.7-7 4.1-2.3 26.5 4.3-3.7z"
          fill="url(#e)" />
    <path d="m49.9 16.8-5.5 3.1v20.5l3.2 2.9z"
          fill="url(#g)" />
    <path d="m31.9 12.7 7 4.1 2.3 26.5-4.3-3.7z"
          fill="url(#h)" />
    <path d="m38.9 16.8 5.5 3.1v20.5l-3.2 2.9z"
          fill="url(#j)" />
    <path d="m47.6 43.3 21.7-18.6v7.8l-18.8 13.3z"
          fill="url(#k)" />
    <path d="m69.3 32.5-18.8 13.3 2.9 2.6 15.9-9.3z"
          fill="url(#m)" />
    <path d="m56.4 51 18.4-8.6 7 4-21.9 7.7z"
          fill="url(#n)" />
    <path d="m74.8 42.4 5.6-9.7-11.2 6.5z"
          fill="url(#o)" />
    <path d="m8.4 32.7 11.1-.2.1 6.6z"
          fill="url(#p)" />
    <path d="m41.2 43.3-21.7-18.6v7.8l18.8 13.3z"
          fill="url(#q)" />
    <path d="m19.5 32.5 18.8 13.3-2.9 2.5-15.8-9.2z"
          fill="url(#r)" />
    <path d="m35.4 48.3-15.8-9.2-5.6 3.3 18.4 8.6z"
          fill="url(#t)" />
    <path d="m32.4 51-18.4-8.6-7 4 21.8 7.7z"
          fill="url(#u)" />
    <path d="m14 42.4-5.6-9.7 11.2 6.4z"
          fill="url(#v)" />
    <path d="m33.1 55.6 3.3-2.8 3.2 1.5.8 3.9z"
          fill="url(#w)" />
    <path d="m38.9 50.7-2.5 2.1 3.2 1.5z"
          fill="url(#x)" />
    <path d="m41.6 48.4-2.7 2.3 2.9 15.3h1.4z"
          fill="url(#y)" />
    <path d="m41.6 48.4 2.8-2.4v20h-1.2z"
          fill="url(#z)" />
    <path d="m40.4 58.2h-10.3l3-2.6z"
          fill="url(#A)" />
    <path d="m55.7 55.6-3.3-2.8-3.2 1.5-.7 3.9z"
          fill="url(#B)" />
    <path d="m49.9 50.7 2.5 2.1-3.2 1.5z"
          fill="url(#C)" />
    <path d="m47.2 48.4 2.7 2.3-2.8 15.3h-1.4z"
          fill="url(#D)" />
    <path d="m47.2 48.4-2.8-2.4v20h1.3z"
          fill="url(#E)" />
    <path d="m48.5 58.2h10.2l-3-2.6z"
          fill="url(#F)" />
    <path d="m53.4 48.4 15.9-9.3 5.5 3.3-18.4 8.6z"
          fill="url(#G)" />
</svg>