<svg viewBox="0 0 290.2 409.6" xmlns="http://www.w3.org/2000/svg"><path d="m290.2 80.5-26.4 296.2-118.9 32.9-118.5-32.9-26.4-296.2z" fill="#264de4"/><path d="m241.1 357.8 22.6-253.1h-118.6v279.7z" fill="#2965f1"/><g fill="#ebebeb"><path d="m60.5 214.6 3.3 36.3h81.3v-36.3z"/><path d="m145.1 141h-.1-91l3.3 36.4h87.8z"/><path d="m145.1 346.7v-37.8l-.2.1-40.4-11-2.6-28.9h-19.7-16.8l5.1 57 74.4 20.7z"/></g><g fill="#fff"><path d="m68.3 0h44v18.4h-25.6v18.4h25.6v18.4h-44z"/><path d="m121.1 0h44v16h-25.6v3.2h25.6v36.8h-44v-16.8h25.6v-3.2h-25.6z"/><path d="m173.9 0h44v16h-25.6v3.2h25.6v36.8h-44v-16.8h25.6v-3.2h-25.6z"/><path d="m189.7 250.9-4.2 47.1-40.5 11v37.7l74.4-20.6.6-6.1 8.5-95.7.9-9.7 6.6-73.6h-91v36.4h51.2l-3.3 37.2h-47.9v36.3z"/></g></svg>