<svg viewBox="0 0 649.79 175.33" xmlns="http://www.w3.org/2000/svg"><path d="m489.43 10.38c55.4-15.38 118.47-9.1 118.47-9.1s-59.73 73.33-73.2 174.05c0 0 5.54-87.37 61.69-170.28 0 0-54.53-5.34-106.96 5.33z" fill="#fed208"/><path d="m609.1 44.42s11.4 2.91 40.69 23c0 0-77.62 12.56-114.85 107.33 0 0 25.59-86 102.51-110.57 0 .05-10.27-9.27-28.35-19.76z" fill="#fed208"/><path d="m591 17.83s2.26-2.55 47.34 13.75c0 0-75.11 33.11-103.59 143.75 0 0 20.81-103 89.84-143.75a171.07 171.07 0 0 0 -33.59-13.75z" fill="#fed208"/><g fill="#f6f4f4"><path d="m109 76.34c0-8.35-2.53-8.48-4.65-8.48a10.6 10.6 0 0 0 -3.84.53v-2.26c6-1.72 12.2-3.71 18.3-6l.92.26v10.52c6.5-6.1 11.54-10.74 19.36-10.74 6.1 0 15.52 3.58 15.52 19.89v30.37c0 6.23 1.59 8.21 8.09 8.75v2h-27.57v-2c4.91-.4 8.35-1.06 8.35-11.14v-27.72c0-8.09-2.38-12.86-10.21-12.86-4 0-8.09 2.65-13.13 7.56v37.26c0 4.38 1.86 6.5 8.76 6.9v2h-28.12v-2c6.23-.4 8.23-2.12 8.23-10z"/><path d="m194.8 104.85c0 4-.4 5.58-4.51 7.57-1.19.66-5.3 2.38-8.22 2.38-4.91 0-8.75-4.11-8.75-10.34v-.27c0-4.5 1.46-11.94 21.48-18.56zm20.55 7.57a8.88 8.88 0 0 1 -6 2.51c-3.85 0-3.85-3.85-3.85-7.69v-25.86c0-7.95 0-21.21-19.76-21.21-15.38 0-21.61 9.41-21.61 14.72 0 2.11 1.59 5.83 5.7 5.83a6 6 0 0 0 6-5.7c0-1.19-.66-3.19-.66-5.17 0-4.11 5-6.5 9.41-6.5 4 0 10.21 1.46 10.21 11v8.08c-21.61 8.49-33.15 13-33.15 26.26 0 8.88 6.89 13.79 14.06 13.79s14.32-5.3 19.22-9.68c.66 9.55 6.23 9.68 8.62 9.68 2.12 0 6.23-.13 11.8-6.63z"/><path d="m366.29 76.88c0-7.83-2.52-8-4.64-8a19.69 19.69 0 0 0 -4.51.53v-2.08c6.49-2.13 13.13-4.51 19.62-7.16l.67.26v11.8h.26c6.23-9.41 10.74-12.06 15.78-12.06 4.51 0 7.16 2.78 7.16 7.16 0 3.31-1.85 5.83-5 5.83-4.63 0-6-4.64-9.15-4.64s-9 6.63-9 10.87v29.84c0 9.15 4.51 9.68 11.27 10v2h-31.87v-2c7.29-1.33 9.41-1.73 9.41-9.16z"/><path d="m433.12 104.85c0 4-.4 5.58-4.51 7.57-1.19.66-5.3 2.38-8.22 2.38-4.9 0-8.75-4.11-8.75-10.34v-.27c0-4.5 1.46-11.94 21.48-18.56zm20.56 7.57a9 9 0 0 1 -6 2.51c-3.85 0-3.85-3.85-3.85-7.69v-25.86c0-7.95 0-21.21-19.76-21.21-15.38 0-21.61 9.41-21.61 14.72 0 2.11 1.59 5.83 5.7 5.83a6 6 0 0 0 6-5.7c0-1.19-.66-3.19-.66-5.17 0-4.11 5-6.5 9.41-6.5 4 0 10.21 1.46 10.21 11v8.08c-21.61 8.5-33.12 13.01-33.12 26.27 0 8.88 6.89 13.79 14 13.79s14.32-5.3 19.23-9.68c.67 9.55 6.24 9.68 8.62 9.68 2.12 0 6.23-.13 11.81-6.63z"/><path d="m58.88 90.54c-1.46-11.15-4.64-12.47-14.59-12.6l-19.23-.27v29c0 10 2.66 11.54 12.07 11.93v2.52h-37.13v-2.52c10-.52 11.54-2.51 11.54-13.39v-57.38c0-10.5-3.18-11.3-11.54-12v-2.5h70.42l.39 19h-3.31c-2-11.81-5.44-13.94-20.16-13.94h-18c-3.31 0-4.25.53-4.25 4.53v29.45h19.2c10.87 0 13.26-2.66 14.59-12.6h3v30.77z"/><path d="m69 119.18c8.22-.4 10.47-1.2 10.47-11.54v-30.76c0-7.83-2.52-8-4.64-8a33.51 33.51 0 0 0 -5.3.53v-2c6.85-2.21 13.61-4.73 20.47-7.24l.53.39v47.08c0 8.75.66 11 9.82 11.54v2h-31.35zm14.81-88.63a6.74 6.74 0 0 1 6.89 6.78 6.67 6.67 0 0 1 -6.89 6.79c-4.77 0-6.63-4.26-6.63-6.79s1.99-6.78 6.63-6.78z"/><path d="m213.1 119.18c7.82-.54 10.21-2.25 10.21-9.55v-63.26c0-6-.8-8.11-6-8.11-1.72 0-2.92.14-4.51.27v-2.13c7-1.74 14.06-3.6 21.09-5.85l.53.26v79.19c0 7.69 2.25 8.76 9.94 9.16v2h-31.26z"/><path d="m290.44 43.45c0-2.66 0-5.19 6.23-5.19 16.71 0 24.14 3.6 30.5 9.31 9.15 8.22 12.34 19 12.34 30.1 0 38.59-32.63 38.59-41.11 38.59-6.37 0-8-.93-8-5.43zm-25.2 77.71h37.66c40.58 0 51.06-26 51.06-43.62 0-29.71-21.09-44.21-52.91-44.21h-35.81v2.54c10.22.79 11.67 2.13 11.67 12v58.88c0 9.28-1.59 11.41-11.67 11.93z"/><path d="m489.61 65.74h-16.18v41.64c0 8.08.13 11.53 12.33 11.8v2h-34.47v-2c8.75-.4 11-1.6 11-11.8v-41.64h-10.87v-4.25h10.87c0-7.43 0-30.94 23.87-30.94 7.43 0 13.26 3.58 13.26 8.11a5.45 5.45 0 0 1 -5.7 5.59c-5.57 0-6.23-10-12.47-10-7.29 0-7.95 6.93-7.95 11.85v15.39h16.31z"/><path d="m524 65.74h-13.44v37.92c0 4.11 0 11.93 6.76 11.93 4.24 0 6.63-2.91 8.1-4.64l1.72 1.47c-3.19 5.7-9.41 10.07-15.52 10.07-6.77 0-12.2-3.58-12.2-16.84v-39.91h-7a1.12 1.12 0 0 1 -.52-.93c0-1.59 2.91-2.39 5.83-5.31 5-5.17 7-8.09 11.93-15.11.93 0 .93.66.93 1.72v15.38h13.41z"/></g><g fill="#b0b0b0"><path d="m636.66 83.9a5.85 5.85 0 1 1 5.86 6 5.82 5.82 0 0 1 -5.86-6zm5.86 7.23a7.22 7.22 0 1 0 -7.31-7.23 7.18 7.18 0 0 0 7.31 7.23zm-1.52-6.66h1.45l2.19 3.62h1.36l-2.36-3.67a2.17 2.17 0 0 0 2.15-2.3c0-1.65-1-2.37-2.93-2.37h-3.16v8.34h1.3zm0-1.07v-2.58h1.71c.89 0 1.82.18 1.82 1.22 0 1.28-.95 1.36-2 1.36z"/><path d="m523.83 37.75a5.85 5.85 0 1 1 11.69 0 5.85 5.85 0 1 1 -11.69 0zm5.87 7.25a7.22 7.22 0 1 0 -7.31-7.23 7.18 7.18 0 0 0 7.31 7.23zm-1.53-6.66h1.45l2.19 3.62h1.41l-2.36-3.67a2.17 2.17 0 0 0 2.14-2.29c0-1.65-1-2.37-2.93-2.37h-3.16v8.34h1.25zm0-1.07v-2.6h1.72c.88 0 1.81.18 1.81 1.22 0 1.28-1 1.36-2 1.36z"/><path d="m198.69 156h-11.36l-2.15 5.25h-2l8.73-21.35h2.27l8.74 21.35h-2zm-10.79-1.66h10.21l-5.11-12.64z"/><path d="m213.5 150.59c0-6.56 4.77-11 10.75-11a9.66 9.66 0 0 1 7.84 3.78l-1.53 1a7.79 7.79 0 0 0 -6.31-3.1c-5 0-8.83 3.8-8.83 9.37s3.87 9.38 8.83 9.38a7.79 7.79 0 0 0 6.31-3.11l1.53 1a9.58 9.58 0 0 1 -7.84 3.81c-5.98-.09-10.75-4.57-10.75-11.13z"/><path d="m245.7 159.42a6.73 6.73 0 0 1 -5.25 2.21 5.17 5.17 0 0 1 -5.41-5.15 5.11 5.11 0 0 1 5.41-5.12 6.69 6.69 0 0 1 5.25 2.21v-3.14c0-2.3-1.86-3.55-4.16-3.55a6 6 0 0 0 -4.83 2.27l-.93-1.15a7.49 7.49 0 0 1 5.95-2.59c3.14 0 5.63 1.5 5.63 5v10.88h-1.66zm0-4.6a5.81 5.81 0 0 0 -4.67-2.15c-2.56 0-4.23 1.63-4.23 3.84s1.67 3.81 4.23 3.81a5.81 5.81 0 0 0 4.67-2.11z"/><path d="m251.88 158a6.42 6.42 0 0 0 5 2.27c2.59 0 4.13-1.28 4.13-3.07 0-2-2.12-2.56-4.32-3.13-2.6-.64-5.44-1.32-5.44-4.32 0-2.37 2-4.29 5.5-4.29a7.1 7.1 0 0 1 5.54 2.27l-.93 1.18a5.65 5.65 0 0 0 -4.61-2c-2.4 0-3.87 1.18-3.87 2.78 0 1.76 2 2.24 4.13 2.78 2.65.68 5.63 1.41 5.63 4.71 0 2.49-1.92 4.54-5.79 4.54a7.49 7.49 0 0 1 -5.95-2.43z"/><path d="m267.48 158.27v-11h-2.56v-1.47h2.56v-4.22h1.7v4.22h3.13v1.47h-3.13v10.73c0 1.25.51 2.12 1.6 2.12a2.42 2.42 0 0 0 1.72-.74l.64 1.28a3.44 3.44 0 0 1 -2.62 1c-2.05-.03-3.04-1.28-3.04-3.39z"/><path d="m300.92 161.25h-2.53c-.74-.64-1.7-1.57-2.66-2.56a8.29 8.29 0 0 1 -6.3 2.94c-3.55 0-6.46-2-6.46-5.82 0-3.39 2.3-5.12 4.77-6.5a9.8 9.8 0 0 1 -1.73-4.86 4.89 4.89 0 0 1 5.05-4.87c2.66 0 4.51 1.44 4.51 4 0 3.2-2.78 4.6-5.5 6.08a40.64 40.64 0 0 0 2.72 3.36c1 1.12 1.92 2.14 2.88 3.13a20.56 20.56 0 0 0 2.4-5.18l1.54.64a28.83 28.83 0 0 1 -2.82 5.69c1.21 1.29 2.56 2.54 4.13 3.95zm-6.31-3.68c-1.31-1.35-2.55-2.66-3.2-3.43a39.57 39.57 0 0 1 -2.87-3.61c-2 1.21-3.72 2.65-3.72 5.18 0 2.91 2.28 4.45 4.74 4.45a6.78 6.78 0 0 0 5.05-2.59zm-5.34-9.06c2.43-1.25 4.64-2.43 4.64-4.83a2.56 2.56 0 0 0 -2.78-2.69 3.34 3.34 0 0 0 -3.33 3.49 8.4 8.4 0 0 0 1.47 4.03z"/><path d="m312.25 150.59c0-6.56 4.76-11 10.75-11a9.69 9.69 0 0 1 7.84 3.78l-1.54 1a7.77 7.77 0 0 0 -6.3-3.1c-5 0-8.83 3.8-8.83 9.37s3.83 9.36 8.83 9.36a7.77 7.77 0 0 0 6.3-3.11l1.54 1a9.6 9.6 0 0 1 -7.84 3.81c-6-.07-10.75-4.55-10.75-11.11z"/><path d="m334.22 145.79h1.67v2.66a6.63 6.63 0 0 1 5.21-3v1.83a3.21 3.21 0 0 0 -.83-.07 5.88 5.88 0 0 0 -4.38 2.75v11.27h-1.67z"/><path d="m350.18 145.41c4.7 0 7.29 3.74 7.29 8.19v.45h-12.93c.16 3.36 2.4 6.14 6 6.14a6.84 6.84 0 0 0 5.06-2.14l.86 1.08a8 8 0 0 1 -6.05 2.5c-4.51 0-7.74-3.36-7.74-8.13.05-4.5 3.22-8.09 7.51-8.09zm-5.64 7.33h11.23c0-2.63-1.75-5.89-5.63-5.89-3.64 0-5.47 3.2-5.6 5.89z"/><path d="m370.15 148-4.35 13.22h-1.6l-5-15.46h1.8l4.09 13.12 4.36-13.12h1.44l4.35 13.12 4.09-13.12h1.8l-5 15.46h-1.6z"/><path d="m391.78 150.59c0-6.56 4.77-11 10.76-11a9.66 9.66 0 0 1 7.83 3.78l-1.53 1a7.77 7.77 0 0 0 -6.3-3.1c-5 0-8.84 3.8-8.84 9.37s3.88 9.38 8.84 9.38a7.77 7.77 0 0 0 6.3-3.11l1.53 1a9.57 9.57 0 0 1 -7.83 3.81c-5.99-.09-10.76-4.57-10.76-11.13z"/><path d="m412.89 153.5c0-4.51 2.92-8.09 7.43-8.09s7.45 3.58 7.45 8.09-2.88 8.13-7.45 8.13-7.43-3.63-7.43-8.13zm13.09 0c0-3.42-2-6.59-5.66-6.59s-5.63 3.17-5.63 6.59 2 6.63 5.63 6.63 5.68-3.13 5.68-6.63z"/><path d="m450.15 150.43c0-2.17-.92-3.52-3.1-3.52a5.76 5.76 0 0 0 -4.42 2.63v11.71h-1.69v-10.82c0-2.17-.9-3.52-3.11-3.52a5.93 5.93 0 0 0 -4.41 2.66v11.68h-1.66v-15.46h1.66v2.34a6.8 6.8 0 0 1 5-2.72 3.89 3.89 0 0 1 4.06 2.91 6.44 6.44 0 0 1 5.12-2.91c2.85 0 4.23 1.6 4.23 4.7v11.14h-1.67z"/><path d="m456.68 167.13v-21.34h1.67v2.43a6.64 6.64 0 0 1 5.37-2.81c4.13 0 6.91 3.13 6.91 8.09s-2.78 8.13-6.91 8.13a6.59 6.59 0 0 1 -5.37-2.88v8.38zm6.75-20.22a6.23 6.23 0 0 0 -5.08 2.75v7.65a6.29 6.29 0 0 0 5.08 2.82c3.46 0 5.41-2.88 5.41-6.63s-1.95-6.59-5.41-6.59z"/><path d="m484.43 159.42a6.73 6.73 0 0 1 -5.25 2.21 5.17 5.17 0 0 1 -5.41-5.15 5.11 5.11 0 0 1 5.41-5.12 6.69 6.69 0 0 1 5.25 2.21v-3.14c0-2.3-1.86-3.55-4.16-3.55a6 6 0 0 0 -4.84 2.27l-.92-1.15a7.49 7.49 0 0 1 5.95-2.59c3.13 0 5.63 1.5 5.63 5v10.88h-1.66zm0-4.6a5.82 5.82 0 0 0 -4.68-2.15c-2.56 0-4.22 1.63-4.22 3.84s1.66 3.81 4.22 3.81a5.81 5.81 0 0 0 4.68-2.11z"/><path d="m501.34 150.78c0-3-1.5-3.87-3.74-3.87a6.63 6.63 0 0 0 -5 2.66v11.68h-1.66v-15.46h1.66v2.34a7.82 7.82 0 0 1 5.57-2.72c3.14 0 4.87 1.53 4.87 5v10.82h-1.67z"/><path d="m508.35 166c1 0 1.72-.41 2.33-1.88l1.22-2.76-6.53-15.58h1.86l5.63 13.51 5.57-13.51h1.88l-8 18.85a4.1 4.1 0 0 1 -4 2.88 6.43 6.43 0 0 1 -1.64-.23l.29-1.53a3.85 3.85 0 0 0 1.39.25z"/></g></svg>