<svg fill="none" height="800" viewBox="0 0 32 32" width="800" xmlns="http://www.w3.org/2000/svg" xmlns:xlink="http://www.w3.org/1999/xlink"><linearGradient id="a" gradientUnits="userSpaceOnUse" x1=".360663" x2="15.2301" y1="18.3262" y2="18.3262"><stop offset=".258" stop-color="#f97a12"/><stop offset=".459" stop-color="#b07b58"/><stop offset=".724" stop-color="#577bae"/><stop offset=".91" stop-color="#1e7ce5"/><stop offset="1" stop-color="#087cfa"/></linearGradient><linearGradient id="b" gradientUnits="userSpaceOnUse" x1="11.7795" x2="36.3084" y1="11.3738" y2="24.9464"><stop offset="0" stop-color="#f97a12"/><stop offset=".072" stop-color="#cb7a3e"/><stop offset=".154" stop-color="#9e7b6a"/><stop offset=".242" stop-color="#757b91"/><stop offset=".334" stop-color="#537bb1"/><stop offset=".432" stop-color="#387ccc"/><stop offset=".538" stop-color="#237ce0"/><stop offset=".655" stop-color="#147cef"/><stop offset=".792" stop-color="#0b7cf7"/><stop offset="1" stop-color="#087cfa"/></linearGradient><linearGradient id="c" gradientUnits="userSpaceOnUse" x1="28.9046" x2="22.0758" y1="19.6184" y2="-.785756"><stop offset="0" stop-color="#fe315d"/><stop offset=".078" stop-color="#cb417e"/><stop offset=".16" stop-color="#9e4e9b"/><stop offset=".247" stop-color="#755bb4"/><stop offset=".339" stop-color="#5365ca"/><stop offset=".436" stop-color="#386ddb"/><stop offset=".541" stop-color="#2374e9"/><stop offset=".658" stop-color="#1478f3"/><stop offset=".794" stop-color="#0b7bf8"/><stop offset="1" stop-color="#087cfa"/></linearGradient><linearGradient id="d" gradientUnits="userSpaceOnUse" x1="4.90057" x2="25.3824" y1="7.53051" y2="41.408"><stop offset="0" stop-color="#fe315d"/><stop offset=".04" stop-color="#f63462"/><stop offset=".104" stop-color="#df3a71"/><stop offset=".167" stop-color="#c24383"/><stop offset=".291" stop-color="#ad4a91"/><stop offset=".55" stop-color="#755bb4"/><stop offset=".917" stop-color="#1d76ed"/><stop offset="1" stop-color="#087cfa"/></linearGradient><clipPath id="e"><path d="m0 0h32v32h-32z"/></clipPath><g clip-path="url(#e)"><path d="m8.09095 24.9598-7.725716-6.1257 3.839996-7.1315 11.01717 4.2972z" fill="url(#a)"/><path d="m32.0003 8.54864-.5943 18.51426-12.2972 4.9372-7.4057-4.7543 10.8343-11.2457-4.7543-10.37717 4.2515-5.12z" fill="url(#b)"/><path d="m32.0003 8.54864-9.7371 11.51996-4.48-14.44567 4.2514-5.12z" fill="url(#c)"/><path d="m15.4057 26.56-12.8457 4.6629 2.05714-7.2229 2.69715-8.8686-7.31429-2.4685 4.61714-12.6629 10.05716 1.23429 9.8743 11.29141z" fill="url(#d)"/><path d="m6.2627 6.17139h19.7486v19.74861h-19.7486z" fill="#000"/><g fill="#fff"><path d="m8.0918 22.2173h7.4057v1.2343h-7.4057z"/><path d="m13.4395 10.24v-1.50855h-4.1143v1.50855h1.1886v5.1657h-1.1886v1.5086h4.1143v-1.5086h-1.1429v-5.1657z"/><path d="m17.3712 17.0514c-.64 0-1.1886-.1371-1.6-.3657-.4115-.2285-.7772-.5485-1.0515-.8685l1.1429-1.28c.2286.2742.4571.4571.6857.5942.2286.1372.5029.2286.7771.2286.32 0 .5943-.0914.8229-.32.1829-.2286.2743-.5486.2743-1.0514v-5.25715h1.8286v5.34855c0 .5029-.0458.9143-.1829 1.28s-.32.64-.5943.9143c-.2286.2286-.5486.4571-.9143.5486-.3657.1371-.7314.2285-1.1885.2285z"/></g></g></svg>