<svg viewBox="0 0 55.14 73.53" xmlns="http://www.w3.org/2000/svg" xmlns:xlink="http://www.w3.org/1999/xlink"><clipPath id="a"><path clip-rule="evenodd" d="m52.99 24.09c12.18 40.73-31 44.59-36.43 49.44-2.29-35.65 32.83-15.9 36.43-49.44"/></clipPath><linearGradient id="b" gradientTransform="matrix(-1.04887713 .04854647 -.05501934 -1.18872742 1810.04 579.54)" gradientUnits="userSpaceOnUse" x1="1658.31" x2="1701.08" y1="534.45" y2="465.34"><stop offset="0" stop-color="#0049e7"/><stop offset="1" stop-color="#5efaf7"/></linearGradient><linearGradient id="c" gradientTransform="matrix(-1.01890921 .04715943 -.06704037 -1.44844937 1694.51 734.56)" gradientUnits="userSpaceOnUse" x1="1592.27" x2="1610.17" y1="536.31" y2="503.8"><stop offset="0" stop-color="#fff"/><stop offset="1"/></linearGradient><mask id="d" height="59.87" maskUnits="userSpaceOnUse" width="43.77" x="13.06" y="24.15"><path d="m53 24.15-39.94 1.17 3.82 58.7 39.95-1.17z" fill="url(#c)"/></mask><linearGradient id="e" gradientTransform="matrix(-1.27665029 .18510548 -.16788637 -1.15789212 1929.77 537.68)" x1="1388.34" x2="1410.76" xlink:href="#c" y1="623.39" y2="652.91"/><mask id="f" height="52.78" maskUnits="userSpaceOnUse" width="57.61" x="4.86" y="24.28"><path d="m54.19 24.28-49.33 5.78 8.27 47 49.34-5.78z" fill="url(#e)"/></mask><clipPath id="g"><path clip-rule="evenodd" d="m53.94 4.63c.01.11.02.21.03.31.07 1.56-.44 8.68-14.88 13.45-16.31 5.38-39.99 14.45-32.76 37.71-15.52-19.58.36-40.89 16.77-44.77 0 0 1.91-8.4 7.64-11.33 0 0-1.15 3.72.4 6.59 0 0 .49-4.46 4.11-6.22-2.65 9.84 13.64 7.78 18.68 4.25"/></clipPath><linearGradient id="h" gradientTransform="matrix(.62826762 -.04668835 .04446509 .59835011 320.41 264.68)" x1="-467.91" x2="-382.14" xlink:href="#b" y1="-388.93" y2="-532.53"/><linearGradient id="i" gradientTransform="matrix(.62826762 -.04668835 .04446509 .59835011 369.32 221.17)" x1="-497.8" x2="-556.55" xlink:href="#c" y1="-322.16" y2="-423.03"/><mask id="j" height="51.62" maskUnits="userSpaceOnUse" width="58.8" x="-.54" y="4.63"><path d="m3.8 56.25 54.46-3.23-4.34-48.39-54.46 3.23z" fill="url(#i)"/></mask><linearGradient id="k" gradientTransform="matrix(.62826762 -.04668835 .04446509 .59835011 372.81 196.73)" x1="-524.61" x2="-547.16" xlink:href="#c" y1="-330.73" y2="-365.48"/><mask id="l" height="19.6" maskUnits="userSpaceOnUse" width="25.31" x="7.07"><path d="m8.7 19.6 23.68-1.4-1.64-18.2-23.67 1.41z" fill="url(#k)"/></mask><linearGradient id="m" gradientTransform="matrix(.49116501 -.13732057 .12116521 .43338089 461.92 320.48)" x1="-642.26" x2="-664.9" xlink:href="#c" y1="-897.89" y2="-932.8"/><mask id="n" height="18.04" maskUnits="userSpaceOnUse" width="22.45" x="16.77" y=".37"><path d="m20.73 18.41 18.48-4.81-3.95-13.23-18.49 4.81z" fill="url(#m)"/><path d="m20.73 18.41 18.48-4.81-3.95-13.23-18.49 4.81z" fill="url(#m)"/></mask><g clip-path="url(#a)"><path d="m61.06 23.85-58.06 1.71 3.14 48.27 58.07-1.7z" fill="url(#b)"/></g><g mask="url(#d)"><path d="m21.51 70c8.1-19.65 31.78-8.05 31.5-45.85-2.61 38.82-38.36 10.91-36.29 49.24 6.64-17.66 17.49-19.83 17.49-19.83-11.51 6.07-12.69 16.44-12.69 16.44" fill="#021b8d" fill-rule="evenodd"/></g><g mask="url(#f)"><path d="m16.72 73.39c7.1-5.45 47.76-8.82 36.26-48.97.89 2.04 6.33 26.82-22.01 36.32 0 0 7.87 1.21 16.03-5.89-10.45 12.47-21.94 4.16-30.28 18.55" fill="#bfe6ed" fill-rule="evenodd"/></g><g clip-path="url(#g)"><path d="m-7.36 56.91 65.64-3.89-4.88-54.37-65.63 3.9z" fill="url(#h)"/></g><g mask="url(#j)"><path d="m53.92 4.7c.02.12.02.2.03.31.07 1.56-.44 8.68-14.88 13.45-16.3 5.39-39.99 14.46-32.76 37.71-.08-.11-.16-.21-.24-.32-9.6-18.39 2.53-34.53 21.38-39.11-7.27-.52-9.24 1.64-9.24 1.64 11.22-11.91 31.9-2.69 35.71-13.68" fill="#0131b9" fill-rule="evenodd"/></g><g mask="url(#l)"><path d="m8.7 19.6s8.72-7.34 18.22-7.81c0 0-.52-4.68.88-6.59 0 0-1.61 1.99-2.1 4.67 0 0-.28-5.11 5.04-9.88-5.73 2.93-7.64 11.33-7.64 11.33-5.18 1.22-10.3 4.18-14.4 8.27" fill="#bfe6ed" fill-rule="evenodd"/></g><g mask="url(#n)"><path d="m32.36 9.32s-.61-4.57 2.89-8.95c-4.27 2.15-4.11 6.22-4.11 6.22" fill="#bfe6ed"/></g></svg>