<svg fill="none" height="519" viewBox="0 0 419 519" width="419" xmlns="http://www.w3.org/2000/svg" xmlns:xlink="http://www.w3.org/1999/xlink"><linearGradient id="a"><stop offset="0" stop-color="#8065e0"/><stop offset="1" stop-color="#512bd4"/></linearGradient><radialGradient id="b" cx="382.004" cy="103.457" gradientUnits="userSpaceOnUse" r="26.4058" xlink:href="#a"/><linearGradient id="c"><stop offset="0" stop-color="#522cd5"/><stop offset=".4397" stop-color="#8a6fe8"/></linearGradient><linearGradient id="d" gradientUnits="userSpaceOnUse" x1="214.439" x2="236.702" xlink:href="#c" y1="303.482" y2="409.505"/><linearGradient id="e" gradientUnits="userSpaceOnUse" x1="231.673" x2="297.805" xlink:href="#c" y1="404.144" y2="522.048"/><linearGradient id="f"><stop offset=".034" stop-color="#522cd5"/><stop offset=".9955" stop-color="#8a6fe8"/></linearGradient><radialGradient id="g" cx="0" cy="0" gradientTransform="matrix(45.83212541 -.20857457 .20857457 45.83212541 280.957 469.555)" gradientUnits="userSpaceOnUse" r="1" xlink:href="#f"/><linearGradient id="h" gradientUnits="userSpaceOnUse" x1="166.061" x2="144.763" xlink:href="#c" y1="303.491" y2="409.709"/><linearGradient id="i" gradientUnits="userSpaceOnUse" x1="146.739" x2="147.246" xlink:href="#c" y1="407.302" y2="518.627"/><radialGradient id="j" cx="0" cy="0" gradientTransform="matrix(-50.24707866 .22889257 -.22889257 -50.24707866 148.63 470.023)" gradientUnits="userSpaceOnUse" r="1" xlink:href="#f"/><radialGradient id="k" cx="0" cy="0" gradientTransform="matrix(-140.93353774 .6420003 -.6420003 -140.93353774 219.219 153.929)" gradientUnits="userSpaceOnUse" r="1"><stop offset=".4744" stop-color="#a08be8"/><stop offset=".8618" stop-color="#8065e0"/></radialGradient><radialGradient id="l" cx="0" cy="0" gradientTransform="matrix(-146.05148464 .6653143 -.6653143 -146.05148464 314.861 158.738)" gradientUnits="userSpaceOnUse" r="1"><stop offset=".0933" stop-color="#e1dfdd"/><stop offset=".6573" stop-color="#fff"/></radialGradient><linearGradient id="m" gradientUnits="userSpaceOnUse" x1="54.1846" x2="54.1846" y1="217.159" y2="357.022"><stop offset=".3344" stop-color="#9780e6"/><stop offset=".8488" stop-color="#8a6fe8"/></linearGradient><radialGradient id="n" cx="0" cy="0" gradientTransform="matrix(25.99213085 -.11828597 .11828597 25.99213085 90.3494 218.071)" gradientUnits="userSpaceOnUse" r="1" xlink:href="#a"/><radialGradient id="o" cx="25.805" cy="345.043" gradientUnits="userSpaceOnUse" r="26.4106" xlink:href="#a"/><radialGradient id="p" cx="0" cy="0" gradientTransform="matrix(17.83497713 -11.23237134 11.23237134 17.83497713 169.113 67.3662)" gradientUnits="userSpaceOnUse" r="1" xlink:href="#a"/><g fill="#8a6fe8"><path d="m284.432 247.568-.428-25.687c32.355-.546 56.352-10.146 71.304-28.545 27.1-33.34 17.585-85.153 17.478-85.677l25.227-4.828c.492 2.601 11.784 64.186-22.776 106.699-19.961 24.563-50.518 37.364-90.805 38.038z"/><path d="m331.954 109.36 29.872 24.885c5.319 4.431 13.229 3.714 17.671-1.606 4.431-5.319 3.714-13.229-1.606-17.67l-29.872-24.8848c-5.319-4.4311-13.229-3.714-17.671 1.6054-4.431 5.3301-3.714 13.2394 1.606 17.6704z"/><path d="m407.175 118.062 10.745-23.8357c2.815-6.3683-.064-13.8176-6.432-16.6432-6.368-2.8149-13.818.0642-16.643 6.4325l-11.014 24.4454z"/><path d="m401.363 105.175-.129-36.058c-.053-6.9677-5.736-12.576-12.704-12.5225s-12.576 5.7368-12.523 12.7044l.011 26.8111z"/><path d="m386.453 109.071-8.316-35.1162c-1.594-6.7858-8.38-10.992-15.166-9.3973-6.786 1.5948-10.992 8.3805-9.397 15.1662l8.466 35.7583z"/></g><path d="m381.776 142.261c14.583 0 26.405-11.821 26.405-26.404s-11.822-26.4043-26.405-26.4043c-14.582 0-26.404 11.8213-26.404 26.4043s11.822 26.404 26.404 26.404z" fill="url(#b)"/><path d="m248.267 406.979c.246-22.252-2.922-67.418-25.891-105.243l-22.454 13.636c20.838 34.303 22.401 74.343 21.919 91.81-.043 1.445 13.422 2.751 26.426-.203z" fill="url(#d)"/><path d="m221.841 406.936 20.796-.096 19.415 111.225-41.741.193c-3.179.011-5.587-2.547-5.373-5.726z" fill="#522cd5"/><path d="m306.566 488.814c3.607 2.847 3.543 6.968 3.265 11.313l-.867 13.325c-.161 2.387-2.237 4.346-4.624 4.357l-43.508.203c-2.707.011-4.752-2.173-4.57-4.87l.289-13.807c.332-5.02-1.359-6.861-5.244-11.591-6.658-8.081-26.34-52.124-24.467-80.819l21.416-.096c1.435 17.029 23.911 54.853 58.31 81.985z" fill="url(#e)"/><path d="m309.82 500.127c.203-3.039.257-5.951-.931-8.412l-54.254.246c1.499 2.205 2.13 4.131 1.927 7.353l-.289 13.807c-.182 2.707 1.873 4.891 4.57 4.869l43.497-.192c2.387-.011 4.463-1.97 4.624-4.356z" fill="url(#g)"/><path d="m133.552 407.471c-.449-22.251 2.312-67.45 24.938-105.478l22.583 13.432c-20.528 34.496-21.727 74.547-21.084 92.003.053 1.456-13.411 2.89-26.437.043z" fill="url(#h)"/><path d="m110.798 497.152c-.033-2.965.406-5.577 1.659-9.922 19.425-53.098 21.063-79.866 21.063-79.866l26.479-.118s1.82 26.266 21.717 79.181c1.573 3.768 1.755 7.214 1.958 10.404l.118 16.985c.011 2.558-2.076 4.667-4.634 4.678l-1.285.01-61.092.278-1.285.011c-2.569.011-4.666-2.065-4.677-4.634z" fill="url(#i)"/><path d="m110.798 497.152c0-.482.01-.953.032-1.413.139-1.477.813-3.136 4.045-3.157l65.332-.3c2.354.085 3.136 1.894 3.382 3.029.032.503.075 1.017.107 1.509l.117 16.986c.011 1.605-.802 3.018-2.044 3.863-.738.503-1.637.803-2.59.814l-1.284.011-61.093.278-1.274.01c-1.284.011-2.451-.513-3.296-1.348-.846-.835-1.37-2.002-1.381-3.286z" fill="url(#j)"/><path d="m314.979 246.348c9.183-35.941 3.029-64.571 3.029-64.571l8.444-.043.204-.16c-12.394-65.824-70.33-115.4753-139.707-115.1542-78.153.3532-141.2257 64.0042-140.8725 142.1572.3532 78.154 64.0035 141.226 142.1575 140.873 61.671-.278 113.944-39.976 133.07-95.107.568-2.344.493-6.539-6.325-7.995z" fill="url(#k)"/><path d="m310.237 279.035-244.36 1.113c5.5228 9.28 12.073 17.864 19.4902 25.613l205.6048-.932c7.364-7.824 13.828-16.461 19.265-25.794z" fill="#d8cff7"/><path d="m235.062 312.794 45.862-.209-.184-40.564-45.863.209z" fill="#512bd4"/><path d="m243.001 297.626c-.31 0-.567-.096-.781-.299-.214-.204-.321-.461-.321-.739 0-.289.107-.546.321-.749.214-.214.471-.311.781-.311.311 0 .567.107.781.311.214.203.332.46.332.749s-.107.535-.321.739c-.225.192-.481.299-.792.299z" fill="#fff"/><path d="m255.192 297.434h-1.98l-5.245-8.231c-.128-.203-.246-.428-.331-.653h-.043c.043.236.064.749.064 1.541l.011 7.353h-1.756l-.021-11.216h2.108l5.063 8.037c.214.332.353.568.417.685h.032c-.053-.299-.074-.802-.074-1.509l-.011-7.224h1.744z" fill="#fff"/><path d="m263.733 297.412-6.144.011-.021-11.217 5.897-.011v1.584l-4.078.011.011 3.179 3.757-.011v1.574l-3.757.01.011 3.318 4.324-.01z" fill="#fff"/><path d="m272.445 287.758-3.147.011.022 9.632h-1.82l-.021-9.632-3.136.01v-1.584l8.091-.021z" fill="#fff"/><path d="m315.279 246.337c9.076-35.501 3.178-63.854 3.029-64.539l-146.824.664s-9.258-.899-9.216 7.556c.043 8.445.493 32.323.61 58.728.022 5.426 4.485 8.027 7.985 8.005.011 0 140.755-4.538 144.416-10.414z" fill="url(#l)"/><path d="m227.685 246.798s22.498-17.971 26.886-21.299c4.388-3.329 8.241-3.522 12.298-.054 4.056 3.468 26.747 21.053 26.747 21.053z" fill="#a08be8"/><path d="m320.748 256.141s4.195-7.727-5.469-9.793c.01-.043-144.352.546-144.352.546-3.361.011-7.695-1.969-8.081-5.223.011 2.333.032 4.698.043 7.085.021 4.924 3.693 7.514 6.989 7.942.332.032.664.075.996.075l9.868-.043z" fill="#512bd4"/><path d="m206.4 233.214c6.111-.119 10.902-8.547 10.702-18.824-.201-10.278-5.317-18.512-11.428-18.393s-10.902 8.547-10.701 18.824c.2 10.278 5.316 18.512 11.427 18.393z" fill="#512bd4"/><path d="m306.249 214.267c.107-10.278-4.761-18.662-10.872-18.726-6.111-.063-11.152 8.217-11.259 18.496-.107 10.278 4.76 18.662 10.872 18.726 6.111.063 11.152-8.218 11.259-18.496z" fill="#512bd4"/><path d="m205.905 205.291c2.247-2.269 5.287-3.275 8.252-3.029 1.755 3.233 2.857 7.471 2.954 12.127.053 2.911-.3 5.651-.953 8.124-3.489 1.006-7.406.149-10.179-2.591-4.067-4.013-4.099-10.574-.074-14.631z" fill="#8065e0"/><path d="m294.996 204.285c2.259-2.269 5.298-3.286 8.263-3.029 1.905 3.372 3.05 7.953 2.997 12.983-.032 2.569-.364 5.02-.953 7.246-3.51 1.038-7.46.193-10.242-2.569-4.057-4.024-4.089-10.574-.065-14.631z" fill="#8065e0"/><path d="m11.6342 357.017c-.7171-2.301-17.36031-56.876 9.6862-98.114 15.6264-23.825 41.9879-37.868 78.346-41.753l2.7826 26.126c-28.1059 2.997-47.9814 13.069-59.0911 29.926-20.2608 30.739-6.7857 75.531-6.6466 75.981z" fill="url(#m)"/><path d="m95.1498 252.802c14.3522 0 25.9872-11.635 25.9872-25.987s-11.635-25.987-25.9872-25.987-25.987 11.635-25.987 25.987 11.6348 25.987 25.987 25.987z" fill="url(#n)"/><g fill="#8a6fe8"><path d="m72.0098 334.434-38.5415-5.127c-6.8713-.91-13.1754 3.907-14.0958 10.778-.9098 6.871 3.9065 13.175 10.7779 14.096l38.5415 5.127c6.8713.909 13.1754-3.907 14.0959-10.778.9097-6.872-3.9173-13.186-10.778-14.096z"/><path d="m3.73535 367.185 3.61762 25.891c1.01678 6.892 7.41723 11.655 14.30993 10.649 6.8927-1.017 11.6556-7.417 10.6495-14.31l-3.714-26.554z"/><path d="m15.5194 374.988 19.3296 30.439c3.7568 5.865 11.5592 7.578 17.4245 3.821 5.8652-3.757 7.5777-11.559 3.821-17.425l-14.2992-22.679z"/><path d="m26.0511 363.739 25.7515 25.28c4.9662 4.892 12.9506 4.827 17.8419-.139s4.827-12.951-.1285-17.842l-26.2223-25.741z"/></g><path d="m26.4043 381.912c14.5827 0 26.4043-11.821 26.4043-26.404s-11.8216-26.404-26.4043-26.404-26.4043 11.821-26.4043 26.404 11.8216 26.404 26.4043 26.404z" fill="url(#o)"/><path d="m184.73 63.6308-26.911 2.9584.742-28.048 19.327-2.1234z" fill="#8a6fe8"/><path d="m170.018 41.647c10.437-2.126 17.175-12.3107 15.049-22.7482-2.126-10.43754-12.31-17.17535-22.748-15.04936-10.437 2.12599-17.175 12.31066-15.049 22.74816s12.31 17.1754 22.748 15.0494z" fill="#d8cff7"/><path d="m196.885 79.385c1.217-.1386 2.063-1.294 1.799-2.4853-2.833-12.6179-14.761-21.3622-27.911-19.9071-13.151 1.4445-22.887 12.5809-22.908 25.5069-.002 1.2237 1.084 2.1602 2.303 2.0321z" fill="url(#p)"/></svg>