<svg enable-background="new 0 0 652 652" viewBox="0 0 652 652" xmlns="http://www.w3.org/2000/svg"><g fill="#f6f6f6"><path d="m39.4 445.1h-18.1v-190.6c15.2-4.7 30.2-7.1 44.9-7.1 10.7 0 20.4 1.7 29.2 5 8.7 3.3 16.2 8 22.4 13.9 6.2 6 11 13 14.3 21.3 3.3 8.2 5 17.2 5 26.8 0 11.7-2 21.8-6 30.2s-9.3 15.3-15.9 20.7-14 9.4-22.4 11.9-17 3.8-25.7 3.8c-4.7 0-9.4-.4-13.9-1-4.6-.7-9.1-1.7-13.7-2.9v68zm77-131c0-15.2-4.3-27.5-12.7-36.9-8.5-9.4-20.4-14-35.8-14-4.9 0-9.7.3-14.5.9-4.7.6-9.4 1.7-13.9 3.3v92.9c4.2 1.4 8.5 2.6 13 3.6s8.8 1.4 13 1.4c15.6 0 28-4.4 37.2-13.3 9.1-8.8 13.7-21.4 13.7-37.9"/><path d="m173.9 196.2h18.4v183.8h-18.4z"/><path d="m342.4 360.8c-6.1 6.7-13.2 11.7-21.3 15.1s-17.8 5.1-29.2 5.1c-10.5 0-19.7-1.8-27.6-5.4s-14.4-8.4-19.7-14.6c-5.2-6.1-9.2-13.1-11.8-21s-3.9-16.2-3.9-24.9c0-11.6 1.6-21.6 4.7-30.1 3.2-8.5 7.4-15.5 12.9-21.1 5.4-5.6 11.7-9.8 18.9-12.5s14.8-4.1 22.8-4.1c19.3 0 33.8 5.9 43.6 17.7s14.5 29 14.2 51.6h-98.5c.5 14.9 4.8 26.7 12.9 35.5s19 13.1 32.8 13.1c7.7 0 14.7-1.3 21-3.8s12-6.6 17.1-12.2zm-14.7-59.6c0-5.4-.8-10.5-2.5-15.2s-4-8.7-7.1-12.1c-3.1-3.3-7.1-6-11.9-8-4.9-2-10.6-3-17.1-3-6.7 0-12.4 1-17.2 3s-8.6 4.6-11.4 7.8c-2.8 3.1-5.4 7.1-7.8 11.9s-3.9 10-4.6 15.6z"/><path d="m466.4 279.7c-4.6-5.8-9.5-10-14.9-12.7-5.3-2.7-11.6-4.1-19-4.1-9.4 0-15.9 1.7-19.7 5s-5.6 7.5-5.6 12.6c0 3.5.9 6.5 2.6 8.9s4 4.6 6.9 6.3c2.8 1.8 6.1 3.3 9.9 4.6s7.7 2.6 11.7 3.8c4.9 1.6 9.9 3.3 14.8 5.1 5 1.8 9.5 4.2 13.6 7.2s7.5 6.6 10 10.9c2.6 4.3 3.9 9.7 3.9 16.1 0 6-1.3 11.3-3.9 16s-6.1 8.7-10.5 11.9c-4.4 3.3-9.6 5.7-15.5 7.4-6 1.7-12.3 2.5-19.1 2.5-10.4 0-19.7-1.7-27.8-5.1s-15.7-9.1-22.8-16.9l14.3-12.6c9.5 12.2 21.9 18.4 37.1 18.4 9.9 0 17.2-1.8 22-5.5s7.1-8.2 7.1-13.4c0-4-.9-7.4-2.6-10.1s-4.1-5-7.1-7c-3-1.9-6.5-3.5-10.5-4.9-4-1.3-8.1-2.6-12.5-3.8-5-1.4-9.9-3-14.7-4.7-4.9-1.7-9.2-4-13.1-6.7s-7-6.2-9.5-10.4-3.7-9.5-3.7-16c0-11.6 4.2-20.5 12.7-26.8 8.4-6.3 19.3-9.5 32.7-9.5 9.5 0 18 1.6 25.4 4.7 7.4 3.2 14.5 8.7 21.3 16.5l-13.2 12.6z"/><path d="m515.2 196.5h18.4v183.5h-18.4zm18.4 115.8 63-63.6h24.7l-64.6 63 64.3 68.3h-25.5z"/></g><path d="m127.2 427.8h110.6v17.3h-110.6z" fill="#5dbbe8"/></svg>