<svg height="800" viewBox="-3 0 48 48" width="800" xmlns="http://www.w3.org/2000/svg"><path d="m233.8471 666.99462c.786557.78489 1.677936 1.67388 1.677936 1.67388s3.67028.273 3.843421.288c.174633.015.385088.1485.417925.39s5.213618 35.445 5.213618 35.445l-12.712913 2.763466zm-1.950194-1.333406c-.097402.012615-.181888.031815-.240664.049286-.031344.009-.556736.1725-1.426916.4425-.852269-2.463-2.355308-4.7265-4.998685-4.7265-.073137 0-.149259.003-.223889.0075-.752265-.999-1.683642-1.434-2.488148-1.434-6.15992 0-9.103309 7.74-10.025729 11.6715-2.394115.7455-4.094176 1.275-4.310601 1.344-1.337361.4215-1.379154.4635-1.553787 1.728-.13284.9585-3.628487 28.128-3.628487 28.128l27.239774 5.1285.02896-.006295zm-7.091654 1.910786c0 .0945-.001492.1815-.001492.2685-1.500053.4665-3.128469.9735-4.761363 1.482.91645-3.555 2.634422-5.2725 4.13746-5.9205.377625.954.625395 2.3235.625395 4.17zm-2.456803-5.9115c.267173 0 .534347.0915.791073.2685-1.974697.933-4.089698 3.285-4.98376 7.98-1.306016.4065-2.582181.804-3.76282 1.1715 1.046306-3.582 3.531469-9.42 7.955507-9.42zm1.061232 20.9325s-1.594087-.855-3.547888-.855c-2.865773 0-3.010555 1.8075-3.010555 2.262 0 2.4855 6.445006 3.438 6.445006 9.258 0 4.578-2.889655 7.527-6.786809 7.527-4.676285 0-7.067415-2.925-7.067415-2.925l1.252283-4.1565s2.458297 2.121 4.532997 2.121c1.35378 0 1.906038-1.0725 1.906038-1.8555 0-3.2415-5.288248-3.387-5.288248-8.7135 0-4.482 3.201607-8.82 9.664523-8.82 2.489641 0 3.721028.717 3.721028.717zm3.009062-15.255c0-.1635.001492-.324.001492-.4995 0-1.53-.211948-2.763-.550766-3.7395 1.362735.171 2.27023 1.7295 2.853833 3.522-.683606.213-1.461246.4545-2.304559.717z" fill="#81bf37" fill-rule="evenodd" transform="translate(-203 -660)"/></svg>