<svg height="800" preserveAspectRatio="xMidYMid" viewBox="0 -198 512 512" width="800" xmlns="http://www.w3.org/2000/svg"><path d="m255.420487 28.975665c-19.993209 0-34.408602 13.0390492-34.408602 32.5976231 0 19.5585738 16.226372 32.597623 36.219581 32.597623 12.07923 0 22.727787-4.7809847 29.319751-12.8398415l-13.85399-8.0045274c-3.658178 4.0022637-9.217883 6.3384267-15.465761 6.3384267-8.67459 0-16.045275-4.5274477-18.779853-11.7713639h50.743633c.398416-2.0282966.633843-4.1290323.633843-6.3384267 0-19.5404641-14.415393-32.5795133-34.408602-32.5795133zm-17.131862 26.2591963c2.263724-7.2258064 8.457272-11.7713638 17.113752-11.7713638 8.67459 0 14.868138 4.5455574 17.113752 11.7713638zm212.138087-26.2591963c-19.993209 0-34.408602 13.0390492-34.408602 32.5976231 0 19.5585738 16.226372 32.597623 36.219581 32.597623 12.07923 0 22.727787-4.7809847 29.319751-12.8398415l-13.85399-8.0045274c-3.658178 4.0022637-9.217883 6.3384267-15.465761 6.3384267-8.67459 0-16.045274-4.5274477-18.779853-11.7713639h50.743633c.398416-2.0282966.633843-4.1290323.633843-6.3384267 0-19.5404641-14.415393-32.5795133-34.408602-32.5795133zm-17.113752 26.2591963c2.263724-7.2258064 8.457272-11.7713638 17.113752-11.7713638 8.67459 0 14.868138 4.5455574 17.113752 11.7713638zm-70.682513 6.3384268c0 10.8658743 7.099038 18.1097906 18.109791 18.1097906 7.461233 0 13.057159-3.3865309 15.936615-8.910017l13.90832 8.0226372c-5.758914 9.598189-16.552349 15.3752122-29.844935 15.3752122-20.011319 0-34.408602-13.0390492-34.408602-32.597623 0-19.5585739 14.415393-32.5976231 34.408602-32.5976231 13.292586 0 24.067911 5.7770232 29.844935 15.3752122l-13.90832 8.0226372c-2.879456-5.5234861-8.475382-8.9100169-15.936615-8.9100169-10.992643 0-18.109791 7.2439162-18.109791 18.1097906zm149.369553-52.5183928v83.3050368h-16.298812v-83.3050368zm-445.0843237-9.0548953 66.9156767 115.90266h-133.831353zm167.2982457 9.0548953-50.18223 86.9269949-50.18223-86.9269949h18.816073l31.366157 54.3293718 31.366157-54.3293718zm106.684776 21.7317487v17.5483871c-1.810979-.5251839-3.730617-.8873797-5.795133-.8873797-10.521788 0-18.10979 7.2439162-18.10979 18.1097906v26.8024901h-16.298812v-61.5732881h16.298812v16.6610074c0-9.1997736 10.702886-16.6610074 23.904923-16.6610074z" fill="#fff"/></svg>