<svg height="439.02399" preserveAspectRatio="xMinYMin meet" viewBox="0 0 956.12476 439.02399" width="956.12476" xmlns="http://www.w3.org/2000/svg"><path d="m784.76421 462.90748c-53.74043-.58107-92.33393.0131-114.75674 2.90361-42.99048 5.55125-88.50143 55.51812-108.70844 90.80189-28.17653 42.0222-58.54856 132.10597-104.85188 131.84464s-73.05735-101.99599-114.08727-101.58219-61.94413 94.26272-124.60579 93.98334c-62.66166-.27937-111.6239-159.67484-124.873565-217.9078h-83.1903864c14.5412604 91.6798 51.6421034 162.13455 85.3476944 211.02514 16.852787 24.44523 35.765367 46.96942 57.460167 64.86237 21.6948 17.89309 36.79435 31.32425 78.72656 32.7585s79.36998-67.60749 105.6293-68.44027c24.25143-.7691 30.66925 24.05405 21.57521 40.12012s-33.34115 43.30766-42.05715 68.35816c-12.46372 35.82204-15.98038 67.51171-15.21365 90.09597l85.02469-.28634c.79346-44.04324 28.4574-123.43459 72.18907-125.79598 26.09687-.07096 72.40657 44.95035 86.24557 63.3016s25.1042 35.87962 50.09872 50.30321 59.8935 15.90137 93.08137 4.04873c44.24049-15.79969 66.62963-58.11828 79.95347-97.78044 13.32383-39.66229 19.33415-83.79235 23.84289-125.63531 4.50876-41.84311 6.02376-66.6541 10.18764-92.92641.84481-5.33034 2.86329-24.88878 21.00169-29.23059 18.13839-4.34181 144.1078-.87599 144.1078-.87599l.22814-84.04104s-128.61461.67575-182.35505.09468zm-65.63955 85.51537c-7.52359 74.72257-9.13977 149.92681-32.02219 219.98456-5.54075 16.37088-26.22502 61.17828-49.89423 47.15019-3.4193-1.97313-12.24425-11.40637-24.70174-27.89169-14.08009-18.63264-34.8486-46.0802-66.2121-66.73975 23.04304-22.95619 41.22858-51.28996 56.39684-76.19101 17.54663-28.80556 29.66983-53.04153 29.73206-53.16599.00017-.00026.0408-.0811.0408-.0811 17.25469-34.48936 55.86983-50.7053 86.66056-43.06521z" transform="matrix(1 0 0 .99999897 -9.690139 -462.70603)"/></svg>