<svg width="315" height="83" viewBox="0 0 315 83" fill="none" xmlns="http://www.w3.org/2000/svg">
<path d="M31.2761 36.3379C18.5379 32.8205 19.4643 23.9069 21.2218 22.0209C21.2361 22.0066 21.248 21.9923 21.2623 21.978C21.5147 21.7089 21.679 21.5589 21.679 21.5589C28.9375 13.9527 24.0294 7.93961 24.0294 7.93961C29.7281 11.0783 32.7502 14.3956 34.2338 17.439C42.9997 7.64669 36.7604 0 36.7604 0C36.7604 0 57.4858 8.02772 50.6559 27.2814C50.6559 27.2814 59.8577 26.3169 60.8746 14.6075C60.8746 14.6075 67.3544 31.6489 55.0139 36.3379H31.2761Z" fill="#F7CB5F"/>
<path d="M61.2247 23.5997C57.7217 30.008 50.0107 30.5081 45.7599 30.2462C50.6584 18.2558 42.9141 8.11816 42.9141 8.11816C43.9024 19.3679 33.5599 25.3905 33.5599 25.3905C33.9838 18.8583 28.3899 14.4313 28.3899 14.4313C29.7473 18.2772 26.0728 23.9879 26.0728 23.9879C20.4217 31.1487 30.707 34.8709 30.707 34.8709H50.8418C62.8988 34.8709 61.2247 23.5997 61.2247 23.5997Z" fill="#F4A343"/>
<path d="M41.559 30.3368C40.3136 28.003 41.0566 25.612 42.6307 22.2686C42.6307 22.2686 34.4744 25.5573 34.8411 30.9107C28.6637 29.8271 30.3379 22.2686 30.3379 22.2686C23.196 31.8299 33.3908 34.871 33.3908 34.871H49.2438C51.3919 33.8517 51.4324 32.1252 51.4324 32.1252C44.2238 34.9281 41.5662 30.3487 41.559 30.3368Z" fill="#E44D37"/>
<path d="M21.3742 32.5847C21.5838 33.9207 21.6933 34.5875 21.9196 35.9235C27.9564 36.6379 33.9695 37.0665 39.9873 37.2118C46.2409 37.3618 52.4992 37.207 58.7909 36.7451C59.4291 36.6974 59.9554 37.2404 59.8816 37.8786C59.2005 43.7226 58.4265 49.5499 57.5621 55.37C56.7833 59.2231 53.2755 61.1164 49.5129 61.0687C42.071 60.7806 34.7196 60.1471 27.3373 59.1565C24.47 58.7445 22.1982 56.8394 21.7052 54.4961C19.6977 44.6728 18.0998 34.8114 16.9162 24.8547C16.7043 22.9686 15.3278 21.404 13.4846 20.9111C11.9105 20.4896 11.1246 20.2705 9.56244 19.8109C6.23324 18.8774 2.68732 20.592 1.48471 23.864C0.977474 25.3405 0.591686 26.4526 0.205898 27.56C-0.510905 29.6151 0.710756 31.8394 2.83259 32.3347C6.74048 33.2468 11.6676 34.3255 14.8301 34.9828C15.8089 41.727 17.0329 48.4735 18.2665 55.1057C19.25 59.3208 22.6911 61.9141 26.7824 62.3499C34.2838 63.3596 41.7519 64.0074 49.3153 64.3051C54.7496 64.5003 60.203 61.4879 61.008 55.6296C61.8891 49.4951 62.6607 43.4297 63.3917 37.2832C63.6513 35.0876 61.8295 33.2158 59.6244 33.3968C46.8362 34.4351 34.16 34.1684 21.3742 32.5895V32.5847ZM4.80916 29.5222C4.009 29.3365 3.53987 28.503 3.79468 27.7219C4.08759 26.8241 4.33288 26.0621 4.70437 24.9118C5.27829 23.1306 7.16199 22.4971 9.10998 22.9758C10.3507 23.2806 11.1056 23.4925 12.3558 23.8259C12.9393 23.9807 13.5322 24.3498 13.6418 25.4167C13.8609 27.56 14.0776 29.4413 14.3634 31.5917C11.67 31.0392 7.59778 30.1676 4.81392 29.5246L4.80916 29.5222ZM32.874 70.099C32.874 72.8067 30.6808 75 27.9731 75C25.2654 75 23.0722 72.8067 23.0722 70.099C23.0722 67.3914 25.2654 65.1981 27.9731 65.1981C30.6808 65.1981 32.874 67.3914 32.874 70.099ZM54.6829 70.9516C54.6829 73.1877 52.8707 75 50.6346 75C48.3984 75 46.5862 73.1877 46.5862 70.9516C46.5862 68.7154 48.3984 66.9032 50.6346 66.9032C52.8707 66.9032 54.6829 68.7154 54.6829 70.9516Z" fill="#0E1131"/>
<path d="M38.8442 45.5754L40.6398 45.4325L47.2649 45.0753L49.5201 42.0081L19.8906 43.1368C20.9646 46.8447 22.1363 50.5454 23.4032 54.2199C23.8414 55.4559 25.4464 56.5418 27.6445 57.2109L38.437 45.9874L38.8466 45.5778L38.8442 45.5754Z" fill="#F47521"/>
<path d="M39.2586 46.1541L27.9993 57.6634C28.2541 57.7253 28.5137 57.7777 28.7804 57.8111C34.6577 58.4803 39.9706 59.7162 45.8241 59.9472L48.6985 45.7826L39.2586 46.1565V46.1541Z" fill="#01314B"/>
<path d="M49.9297 42.2914L46.3933 59.9543C47.9222 60.1734 48.7938 60.3782 50.0869 60.5711L50.1917 60.5806C54.1448 60.9116 56.3357 57.3228 57.0739 53.8317C57.9455 48.845 58.7933 43.8179 59.6173 38.7883L49.9297 42.289V42.2914Z" fill="#FEBB1F"/>
<path d="M21.8052 36.3379L32.8907 37.3643L40.2826 37.5691H48.2889L55.4736 37.1595L58.9647 36.9547C60.1959 38.1859 55.164 39.5742 53.4208 40.4458C53.0112 40.6506 51.1084 41.3412 49.5201 41.677L19.9573 42.7034" fill="#E81E25"/>
<path d="M77.2273 26.0909H82.2727L94.1364 55.0682H94.5455L106.409 26.0909H111.455V61H107.5V34.4773H107.159L96.25 61H92.4318L81.5227 34.4773H81.1818V61H77.2273V26.0909ZM126.681 61.6136C125.022 61.6136 123.517 61.3011 122.164 60.6761C120.812 60.0398 119.738 59.125 118.943 57.9318C118.147 56.7273 117.75 55.2727 117.75 53.5682C117.75 52.0682 118.045 50.8523 118.636 49.9205C119.227 48.9773 120.017 48.2386 121.005 47.7045C121.994 47.1705 123.085 46.7727 124.278 46.5114C125.483 46.2386 126.693 46.0227 127.909 45.8636C129.5 45.6591 130.789 45.5057 131.778 45.4034C132.778 45.2898 133.505 45.1023 133.96 44.8409C134.426 44.5795 134.659 44.125 134.659 43.4773V43.3409C134.659 41.6591 134.199 40.3523 133.278 39.4205C132.369 38.4886 130.988 38.0227 129.136 38.0227C127.216 38.0227 125.71 38.4432 124.619 39.2841C123.528 40.125 122.761 41.0227 122.318 41.9773L118.5 40.6136C119.181 39.0227 120.091 37.7841 121.227 36.8977C122.375 36 123.625 35.375 124.977 35.0227C126.341 34.6591 127.681 34.4773 129 34.4773C129.841 34.4773 130.806 34.5795 131.897 34.7841C133 34.9773 134.062 35.3807 135.085 35.9943C136.119 36.608 136.977 37.5341 137.659 38.7727C138.341 40.0114 138.681 41.6705 138.681 43.75V61H134.659V57.4545H134.454C134.181 58.0227 133.727 58.6307 133.091 59.2784C132.454 59.9261 131.608 60.4773 130.551 60.9318C129.494 61.3864 128.204 61.6136 126.681 61.6136ZM127.295 58C128.886 58 130.227 57.6875 131.318 57.0625C132.42 56.4375 133.25 55.6307 133.806 54.642C134.375 53.6534 134.659 52.6136 134.659 51.5227V47.8409C134.488 48.0455 134.113 48.233 133.534 48.4034C132.966 48.5625 132.306 48.7045 131.556 48.8295C130.818 48.9432 130.096 49.0455 129.392 49.1364C128.699 49.2159 128.136 49.2841 127.704 49.3409C126.659 49.4773 125.681 49.6989 124.772 50.0057C123.875 50.3011 123.147 50.75 122.591 51.3523C122.045 51.9432 121.772 52.75 121.772 53.7727C121.772 55.1705 122.289 56.2273 123.324 56.9432C124.369 57.6477 125.693 58 127.295 58ZM157.002 34.8182V38.2273H143.434V34.8182H157.002ZM147.389 28.5455H151.411V53.5C151.411 54.6364 151.576 55.4886 151.906 56.0568C152.246 56.6136 152.678 56.9886 153.201 57.1818C153.735 57.3636 154.298 57.4545 154.889 57.4545C155.332 57.4545 155.695 57.4318 155.979 57.3864C156.264 57.3295 156.491 57.2841 156.661 57.25L157.479 60.8636C157.207 60.9659 156.826 61.0682 156.337 61.1705C155.849 61.2841 155.229 61.3409 154.479 61.3409C153.343 61.3409 152.229 61.0966 151.139 60.608C150.059 60.1193 149.161 59.375 148.445 58.375C147.741 57.375 147.389 56.1136 147.389 54.5909V28.5455ZM173 61.5455C170.546 61.5455 168.432 60.9659 166.66 59.8068C164.887 58.6477 163.523 57.0511 162.569 55.017C161.614 52.983 161.137 50.6591 161.137 48.0455C161.137 45.3864 161.625 43.0398 162.603 41.0057C163.591 38.9602 164.966 37.3636 166.728 36.2159C168.5 35.0568 170.569 34.4773 172.932 34.4773C174.773 34.4773 176.432 34.8182 177.91 35.5C179.387 36.1818 180.597 37.1364 181.54 38.3636C182.483 39.5909 183.069 41.0227 183.296 42.6591H179.273C178.966 41.4659 178.285 40.4091 177.228 39.4886C176.182 38.5568 174.773 38.0909 173 38.0909C171.432 38.0909 170.057 38.5 168.875 39.3182C167.705 40.125 166.79 41.267 166.131 42.7443C165.483 44.2102 165.16 45.9318 165.16 47.9091C165.16 49.9318 165.478 51.6932 166.114 53.1932C166.762 54.6932 167.671 55.858 168.841 56.6875C170.023 57.517 171.41 57.9318 173 57.9318C174.046 57.9318 174.995 57.75 175.847 57.3864C176.699 57.0227 177.421 56.5 178.012 55.8182C178.603 55.1364 179.023 54.3182 179.273 53.3636H183.296C183.069 54.9091 182.506 56.3011 181.608 57.5398C180.722 58.767 179.546 59.7443 178.08 60.4716C176.625 61.1875 174.932 61.5455 173 61.5455ZM192.791 45.25V61H188.769V26.0909H192.791V38.9091H193.132C193.746 37.5568 194.666 36.483 195.894 35.6875C197.132 34.8807 198.78 34.4773 200.837 34.4773C202.621 34.4773 204.183 34.8352 205.524 35.5511C206.865 36.2557 207.905 37.3409 208.644 38.8068C209.394 40.2614 209.769 42.1136 209.769 44.3636V61H205.746V44.6364C205.746 42.5568 205.206 40.9489 204.127 39.8125C203.058 38.6648 201.575 38.0909 199.678 38.0909C198.359 38.0909 197.178 38.3693 196.132 38.9261C195.098 39.483 194.28 40.2955 193.678 41.3636C193.087 42.4318 192.791 43.7273 192.791 45.25Z" fill="black"/>
<path d="M245.356 37H241.129C240.879 35.7841 240.442 34.7159 239.817 33.7955C239.203 32.875 238.453 32.1023 237.567 31.4773C236.692 30.8409 235.72 30.3636 234.652 30.0455C233.584 29.7273 232.47 29.5682 231.311 29.5682C229.197 29.5682 227.282 30.1023 225.567 31.1705C223.862 32.2386 222.504 33.8125 221.493 35.892C220.493 37.9716 219.993 40.5227 219.993 43.5455C219.993 46.5682 220.493 49.1193 221.493 51.1989C222.504 53.2784 223.862 54.8523 225.567 55.9205C227.282 56.9886 229.197 57.5227 231.311 57.5227C232.47 57.5227 233.584 57.3636 234.652 57.0455C235.72 56.7273 236.692 56.2557 237.567 55.6307C238.453 54.9943 239.203 54.2159 239.817 53.2955C240.442 52.3636 240.879 51.2955 241.129 50.0909H245.356C245.038 51.875 244.459 53.4716 243.618 54.8807C242.777 56.2898 241.731 57.4886 240.481 58.4773C239.231 59.4545 237.828 60.1989 236.271 60.7102C234.726 61.2216 233.072 61.4773 231.311 61.4773C228.334 61.4773 225.686 60.75 223.368 59.2955C221.049 57.8409 219.226 55.7727 217.896 53.0909C216.567 50.4091 215.902 47.2273 215.902 43.5455C215.902 39.8636 216.567 36.6818 217.896 34C219.226 31.3182 221.049 29.25 223.368 27.7955C225.686 26.3409 228.334 25.6136 231.311 25.6136C233.072 25.6136 234.726 25.8693 236.271 26.3807C237.828 26.892 239.231 27.642 240.481 28.6307C241.731 29.608 242.777 30.8011 243.618 32.2102C244.459 33.608 245.038 35.2045 245.356 37ZM258.938 61.6136C257.279 61.6136 255.774 61.3011 254.421 60.6761C253.069 60.0398 251.995 59.125 251.2 57.9318C250.404 56.7273 250.007 55.2727 250.007 53.5682C250.007 52.0682 250.302 50.8523 250.893 49.9205C251.484 48.9773 252.274 48.2386 253.262 47.7045C254.251 47.1705 255.342 46.7727 256.535 46.5114C257.74 46.2386 258.95 46.0227 260.166 45.8636C261.757 45.6591 263.046 45.5057 264.035 45.4034C265.035 45.2898 265.762 45.1023 266.217 44.8409C266.683 44.5795 266.916 44.125 266.916 43.4773V43.3409C266.916 41.6591 266.455 40.3523 265.535 39.4205C264.626 38.4886 263.245 38.0227 261.393 38.0227C259.472 38.0227 257.967 38.4432 256.876 39.2841C255.785 40.125 255.018 41.0227 254.575 41.9773L250.757 40.6136C251.438 39.0227 252.347 37.7841 253.484 36.8977C254.632 36 255.882 35.375 257.234 35.0227C258.597 34.6591 259.938 34.4773 261.257 34.4773C262.097 34.4773 263.063 34.5795 264.154 34.7841C265.257 34.9773 266.319 35.3807 267.342 35.9943C268.376 36.608 269.234 37.5341 269.916 38.7727C270.597 40.0114 270.938 41.6705 270.938 43.75V61H266.916V57.4545H266.711C266.438 58.0227 265.984 58.6307 265.347 59.2784C264.711 59.9261 263.865 60.4773 262.808 60.9318C261.751 61.3864 260.461 61.6136 258.938 61.6136ZM259.552 58C261.143 58 262.484 57.6875 263.575 57.0625C264.677 56.4375 265.507 55.6307 266.063 54.642C266.632 53.6534 266.916 52.6136 266.916 51.5227V47.8409C266.745 48.0455 266.37 48.233 265.791 48.4034C265.222 48.5625 264.563 48.7045 263.813 48.8295C263.075 48.9432 262.353 49.0455 261.649 49.1364C260.955 49.2159 260.393 49.2841 259.961 49.3409C258.916 49.4773 257.938 49.6989 257.029 50.0057C256.132 50.3011 255.404 50.75 254.847 51.3523C254.302 51.9432 254.029 52.75 254.029 53.7727C254.029 55.1705 254.546 56.2273 255.58 56.9432C256.626 57.6477 257.95 58 259.552 58ZM277.873 61V34.8182H281.759V38.7727H282.032C282.509 37.4773 283.373 36.4261 284.623 35.6193C285.873 34.8125 287.282 34.4091 288.85 34.4091C289.145 34.4091 289.515 34.4148 289.958 34.4261C290.401 34.4375 290.736 34.4545 290.964 34.4773V38.5682C290.827 38.5341 290.515 38.483 290.026 38.4148C289.549 38.3352 289.043 38.2955 288.509 38.2955C287.236 38.2955 286.1 38.5625 285.1 39.0966C284.111 39.6193 283.327 40.3466 282.748 41.2784C282.18 42.1989 281.895 43.25 281.895 44.4318V61H277.873ZM308.351 34.8182V38.2273H294.783V34.8182H308.351ZM298.737 28.5455H302.76V53.5C302.76 54.6364 302.925 55.4886 303.254 56.0568C303.595 56.6136 304.027 56.9886 304.55 57.1818C305.084 57.3636 305.647 57.4545 306.237 57.4545C306.681 57.4545 307.044 57.4318 307.328 57.3864C307.612 57.3295 307.84 57.2841 308.01 57.25L308.828 60.8636C308.556 60.9659 308.175 61.0682 307.686 61.1705C307.198 61.2841 306.578 61.3409 305.828 61.3409C304.692 61.3409 303.578 61.0966 302.487 60.608C301.408 60.1193 300.51 59.375 299.794 58.375C299.09 57.375 298.737 56.1136 298.737 54.5909V28.5455Z" fill="#D62828"/>
</svg>
