<?xml version="1.0" encoding="UTF-8" ?>
<svg id="Layer_2"
     xmlns="http://www.w3.org/2000/svg"
     viewBox="0 0 399.97 83.23">
    <g id="Text">
        <g>
            <text transform="translate(77.78 60.26)"
                  fill="#f6f6f6"
                  font-family="SuezOne-Regular, 'Suez One'"
                  font-size="72">
                <tspan x="0"
                       y="0">chillFLIX</tspan>
            </text>
            <g>
                <path d="M32.38,4.18C14.5,4.18,0,18.68,0,36.56s14.5,32.38,32.38,32.38,32.38-14.5,32.38-32.38S50.26,4.18,32.38,4.18Zm0,2.37c5.83,0,10.56,4.73,10.56,10.56s-4.73,10.56-10.56,10.56-10.56-4.73-10.56-10.56,4.73-10.56,10.56-10.56Zm6.14,30.01c0,3.39-2.75,6.14-6.14,6.14s-6.14-2.75-6.14-6.14,2.75-6.14,6.14-6.14,6.14,2.75,6.14,6.14Zm-25.6,10.56c-5.83,0-10.56-4.73-10.56-10.56s4.73-10.56,10.56-10.56,10.56,4.73,10.56,10.56-4.73,10.56-10.56,10.56Zm19.46,19.46c-5.83,0-10.56-4.73-10.56-10.56s4.73-10.56,10.56-10.56,10.56,4.73,10.56,10.56-4.73,10.56-10.56,10.56Zm19.46-19.46c-5.83,0-10.56-4.73-10.56-10.56s4.73-10.56,10.56-10.56,10.56,4.73,10.56,10.56-4.73,10.56-10.56,10.56Z"
                      fill="#ebe0cb" />
                <circle cx="32.38"
                        cy="36.56"
                        r="6.14"
                        fill="#1a1a1a" />
                <circle cx="32.38"
                        cy="17.1"
                        r="10.56"
                        transform="translate(-3.06 7.9) rotate(-13.28)"
                        fill="#1a1a1a" />
                <circle cx="32.38"
                        cy="56.02"
                        r="10.56"
                        transform="translate(-8.56 5.91) rotate(-9.22)"
                        fill="#1a1a1a" />
                <circle cx="12.92"
                        cy="36.56"
                        r="10.56"
                        transform="translate(-8.05 3.95) rotate(-13.28)"
                        fill="#1a1a1a" />
                <circle cx="51.84"
                        cy="36.56"
                        r="10.56"
                        fill="#1a1a1a" />
            </g>
        </g>
    </g>
</svg>