<svg xmlns="http://www.w3.org/2000/svg"
     viewBox="0 0 666.11 128.41">
    <defs>
        <style>.cls-1{fill:#fff;}</style>
    </defs>
    <g id="Layer_2"
       data-name="Layer 2">
        <g id="Layer_1-2"
           data-name="Layer 1">
            <path class="cls-1"
                  d="M119.57,19.62a6.18,6.18,0,0,0-.75-3.79,4.43,4.43,0,0,0-3-1.11,4,4,0,0,0-3.93,2c-.12.29-.78,1-.78,5.43v7c0,6.42,2.1,7.17,4.68,7.17,1,0,4.1-.36,4.14-5.47h3.45c.13,8.25-5.68,8.25-7.41,8.25-3.25,0-8.27-.2-8.27-10.35V21.36c0-7.4,3.28-9.46,8.43-9.46s7.17,2.68,6.85,7.76Z" />
            <path class="cls-1"
                  d="M130.78,33.13c0,1.78.87,3.39,2.86,3.39s4.07-1.13,3.78-7c-2.82,0-6.62-.21-6.62,3.65m6.62,2.81h0a4.46,4.46,0,0,1-4.6,3c-3.78,0-5-2.5-5-6,0-5.55,5.43-5.8,9.59-5.68,0-2.43.12-5.08-3.08-5.08a2.73,2.73,0,0,0-2.86,3.28h-3.22c.13-4.11,2.31-5.53,6.19-5.53,4.71,0,5.94,2.44,5.94,5.53v8.8a28.7,28.7,0,0,0,.38,4.35h-3.35Z" />
            <path class="cls-1"
                  d="M155.44,38.59V25.88c0-1.89-.68-3.54-3.23-3.54-3.26,0-3.79,2.9-3.79,5.4V38.59h-3V24.09a28.13,28.13,0,0,0-.17-3.79h3.14v2.35h.15a4.84,4.84,0,0,1,4.9-2.73c3.9,0,4.89,2.37,4.89,6V38.6Z" />
            <path class="cls-1"
                  d="M166,33.13c0,1.78.87,3.39,2.86,3.39s4.07-1.13,3.78-7c-2.82,0-6.62-.21-6.62,3.65m6.7,2.81h0a4.47,4.47,0,0,1-4.6,3c-3.88,0-5-2.5-5-6,0-5.55,5.43-5.8,9.6-5.68,0-2.43.11-5.08-3.07-5.08a2.74,2.74,0,0,0-2.93,2.51,2.83,2.83,0,0,0,.05.77h-3.21c.13-4.11,2.31-5.53,6.19-5.53,4.71,0,5.94,2.44,5.94,5.53v8.8A27.47,27.47,0,0,0,176,38.6h-3.28Z" />
            <path class="cls-1"
                  d="M187.23,22.34c-3.2,0-3.64,2.54-3.64,7.44,0,2.75,0,6.74,3.79,6.74,3.33,0,3.33-4.12,3.33-7.83,0-2.43-.15-6.35-3.45-6.35m3.45-9.93h3V38.59h-3V36.41h0a4.58,4.58,0,0,1-4.2,2.54c-2.94,0-5.91-1.16-5.91-9.22,0-4.56.13-9.81,6-9.81a4.65,4.65,0,0,1,4,2.2h.11Z" />
            <path class="cls-1"
                  d="M202.2,38.59h-3V20.28h3ZM199,12.41h3.35v3.2H199Z" />
            <path class="cls-1"
                  d="M210.24,33.13c0,1.78.87,3.39,2.88,3.39s4-1.13,3.79-7c-2.84,0-6.65-.21-6.65,3.65m6.66,2.81h0a4.48,4.48,0,0,1-4.6,3c-3.88,0-5-2.5-5-6,0-5.55,5.45-5.8,9.61-5.68,0-2.43.12-5.08-3.08-5.08a2.72,2.72,0,0,0-2.91,2.49,2.63,2.63,0,0,0,0,.79h-3.24c.16-4.11,2.33-5.53,6.21-5.53,4.72,0,6,2.44,6,5.53v8.8a28.79,28.79,0,0,0,.36,4.35h-3.34Z" />
            <path class="cls-1"
                  d="M235.85,38.59V25.88c0-1.89-.68-3.54-3.23-3.54-3.26,0-3.79,2.9-3.79,5.4V38.59h-3V24.09a28.13,28.13,0,0,0-.17-3.79h3.14v2.35H229a4.83,4.83,0,0,1,4.89-2.73c3.91,0,4.9,2.37,4.9,6V38.6Z" />
            <path class="cls-1"
                  d="M117.64,77.92V65.58c0-2.25-.72-3.79-3.25-3.79-3,0-3.79,2.39-3.79,5.47V77.92h-3V51.8h3V62h.13a4.84,4.84,0,0,1,5-2.71c3.11,0,4.85,1.56,4.85,5.68V77.92Z" />
            <path class="cls-1"
                  d="M135,59.67h3V74.13c0,1.27.06,2.53.17,3.79H135V75.76h-.11a5.29,5.29,0,0,1-4.64,2.58c-3.2,0-4.94-1.59-4.94-4.72v-14h3V72.36c0,2.21,1,3.78,3.13,3.78A3.79,3.79,0,0,0,135,72.2l0-.3Z" />
            <path class="cls-1"
                  d="M152.57,77.92V65.24c0-1.9-.51-3.56-2.9-3.56a3.46,3.46,0,0,0-2.57,1.23,5.3,5.3,0,0,0-.7,2.69V77.92h-3V63.48c0-1.26,0-2.53-.17-3.79h3.15V62h0A4.41,4.41,0,0,1,151,59.33a4.47,4.47,0,0,1,4.27,2.35,4.37,4.37,0,0,1,4.34-2.35c1.89,0,5,.44,5,4.75V77.92h-3V65.24c0-1.9-.51-3.56-2.91-3.56a2.71,2.71,0,0,0-2.24.68,4.85,4.85,0,0,0-1,3.24V77.92Z" />
            <path class="cls-1"
                  d="M172.56,72.54c0,1.78.87,3.37,2.87,3.37s4-1.13,3.79-7c-2.84,0-6.65-.21-6.65,3.67m6.72,2.79h0a4.49,4.49,0,0,1-4.6,3c-3.78,0-5-2.5-5-6,0-5.55,5.45-5.8,9.61-5.68,0-2.44.12-5.09-3.08-5.09A2.7,2.7,0,0,0,173.3,64a2.61,2.61,0,0,0,0,.79h-3.24c.15-4.11,2.33-5.51,6.21-5.51,4.72,0,6,2.43,6,5.51v8.8a28.92,28.92,0,0,0,.36,4.36h-3.26Z" />
            <path class="cls-1"
                  d="M197.81,77.92V65.24c0-1.9-.7-3.56-3.24-3.56-3.26,0-3.79,2.9-3.79,5.39V77.92h-3V63.48a25.2,25.2,0,0,0-.19-3.79h3.16V62h.16a4.81,4.81,0,0,1,4.88-2.71c3.92,0,4.9,2.35,4.9,6V77.92Z" />
            <path class="cls-1"
                  d="M217.49,62.42h0c1.23-2.79,2.75-3.11,5.68-3.11v3.07a14.4,14.4,0,0,0-1.61-.17c-3.29,0-4.12,2.5-4.12,5V77.92h-3V59.67h3Z" />
            <path class="cls-1"
                  d="M229.57,77.92h-3V59.67h3ZM226.39,51.8h3.35V55h-3.35Z" />
            <path class="cls-1"
                  d="M241.1,61.77c-3.37,0-3.49,4.07-3.49,6.5,0,5.86,1.35,7.25,3.56,7.25,3.6,0,3.49-4.24,3.49-6.78s.17-7-3.56-7m3.48-2.1h3V79.81c0,4.09-2.72,5.08-6.74,5.08-3,0-5.81-1.54-5.54-4.91h3.33a2.56,2.56,0,0,0,2.45,2.66,1.82,1.82,0,0,0,.33,0,2.94,2.94,0,0,0,3.2-2.64,4.51,4.51,0,0,0,0-.52V75.69h-.11a4.57,4.57,0,0,1-4,2.23c-5,0-5.94-4.28-5.94-9.71,0-8.42,4.24-8.95,5.68-8.95a4.39,4.39,0,0,1,4.28,2.61h0Z" />
            <path class="cls-1"
                  d="M263.15,77.92V65.58c0-2.25-.72-3.79-3.28-3.79-3,0-3.78,2.39-3.78,5.47V77.92h-3V51.8h3V62h.15a4.82,4.82,0,0,1,5-2.71c3.12,0,4.86,1.56,4.86,5.68V77.92Z" />
            <path class="cls-1"
                  d="M271.82,59.67V56.15l3-1.34v4.86h4v2.26h-4V73.11c0,1.18,0,2.65,2.71,2.65a6.43,6.43,0,0,0,1.34-.13v2.29c-1,0-1.89.3-2.93.3-2.82,0-4.09-1.17-4.09-3.27v-13h-3V59.67Z" />
            <path class="cls-1"
                  d="M288.06,78.34c-4,0-6.42-1.74-6.32-6h3.33c0,1.06,0,3.52,3.05,3.52a2.77,2.77,0,0,0,3.13-2.37,3.11,3.11,0,0,0,0-.43c0-3.25-9.15-3.33-9.15-8.8,0-1.89,1.16-5,6.31-5,3.27,0,6.06,1.56,5.81,5.19h-3.31a2.57,2.57,0,0,0-2.15-2.94,2.41,2.41,0,0,0-.71,0,2.49,2.49,0,0,0-2.8,2.15,1.83,1.83,0,0,0,0,.33c0,3.21,9.14,3.14,9.14,8.72,0,4-2.76,5.68-6.38,5.68" />
            <path class="cls-1"
                  d="M117.28,104.93c0-3-1.42-3.78-2.53-3.78-2.29,0-3.79,1.09-3.79,6.09,0,5.94.76,8.08,3.79,8.08.68,0,2.76-.72,2.65-4h3.12a5.78,5.78,0,0,1-5.14,6.35c-.22,0-.45,0-.67,0-3.79,0-7-1.15-7-9.24,0-5.35.63-9.78,7-9.78,3.65,0,5.79,2.14,5.68,6.22Z" />
            <path class="cls-1"
                  d="M135.17,107.22c0-5-1.55-6.09-3.79-6.09s-3.78,1.09-3.78,6.09c0,6,.76,8.08,3.78,8.08s3.79-2.13,3.79-8.08m-10.81,1.27c0-5.36.63-9.79,7-9.79s7,4.43,7,9.79c0,8.08-3.08,9.24-7,9.24s-7-1.16-7-9.24" />
            <path class="cls-1"
                  d="M151.9,117.37V104.69c0-1.9-.51-3.56-2.91-3.56a3.48,3.48,0,0,0-2.58,1.23,5.71,5.71,0,0,0-.68,2.69v12.32h-3v-14.5a28.13,28.13,0,0,0-.17-3.79h3.14v2.29h0a5.16,5.16,0,0,1,8.84-.3A4.41,4.41,0,0,1,159,98.74c1.89,0,5,.44,5,4.75v13.92h-3V104.72c0-1.89-.51-3.56-2.9-3.56a2.7,2.7,0,0,0-2.25.71,4.7,4.7,0,0,0-1,3.21v12.33Z" />
            <path class="cls-1"
                  d="M177.68,117.37V104.69c0-1.9-.51-3.56-2.89-3.56a3.48,3.48,0,0,0-2.58,1.23,5.49,5.49,0,0,0-.68,2.69v12.32h-3v-14.5c0-1.26,0-2.53-.17-3.79h3.13v2.29h0a5.17,5.17,0,0,1,8.85-.3,4.36,4.36,0,0,1,4.4-2.33c1.89,0,5,.44,5,4.75v13.92h-2.93V104.72c0-1.89-.51-3.56-2.92-3.56a2.66,2.66,0,0,0-2.23.71,4.72,4.72,0,0,0-1,3.21v12.33Z" />
            <path class="cls-1"
                  d="M198,117.37h-3V99.06h3Zm-3.2-26.2h3.35v3.22H194.8Z" />
            <path class="cls-1"
                  d="M208.69,117.67c-4,0-6.42-1.74-6.3-5.94h3.37c0,1.06,0,3.52,3,3.52a2.76,2.76,0,0,0,3.12-2.36,3.37,3.37,0,0,0,0-.44c0-3.26-9.13-3.34-9.13-8.81,0-1.89,1.16-5,6.31-5,3.25,0,6.05,1.55,5.79,5.18h-3.3a2.57,2.57,0,0,0-2.16-2.92,2.28,2.28,0,0,0-.69,0,2.52,2.52,0,0,0-2.82,2.17,1.42,1.42,0,0,0,0,.29c0,3.22,9.14,3.14,9.14,8.73,0,4-2.76,5.68-6.38,5.68" />
            <path class="cls-1"
                  d="M225,117.67c-4,0-6.42-1.74-6.3-5.94H222c0,1.06,0,3.52,3,3.52a2.77,2.77,0,0,0,3.17-2.3,3.29,3.29,0,0,0,0-.45c0-3.25-9.12-3.33-9.12-8.8,0-1.89,1.15-5,6.3-5,3.26,0,6.06,1.56,5.79,5.19H227.9a2.55,2.55,0,0,0-2.12-2.92,2.29,2.29,0,0,0-.74,0,2.5,2.5,0,0,0-2.81,2.17,1.42,1.42,0,0,0,0,.29c0,3.22,9.14,3.14,9.14,8.72,0,4-2.75,5.68-6.38,5.68" />
            <path class="cls-1"
                  d="M238.75,117.37h-2.9V99.06h3Zm-3.16-26.2h3.33v3.22h-3.33Z" />
            <path class="cls-1"
                  d="M254.38,107.22c0-5-1.57-6.09-3.78-6.09s-3.79,1.09-3.79,6.09c0,6,.76,8.08,3.79,8.08s3.78-2.13,3.78-8.08m-10.8,1.27c0-5.36.6-9.79,7-9.79s7,4.43,7,9.79c0,8.08-3.07,9.24-7,9.24s-7-1.16-7-9.24" />
            <path class="cls-1"
                  d="M272.33,117.37V104.69c0-1.9-.68-3.56-3.22-3.56-3.27,0-3.78,2.89-3.78,5.39v10.85h-3v-14.5a25.2,25.2,0,0,0-.19-3.79h3.17v2.37h.15a4.8,4.8,0,0,1,4.92-2.71c3.92,0,4.9,2.35,4.9,6v12.69Z" />
            <path class="cls-1"
                  d="M393.3,19.62a6,6,0,0,0-.75-3.79,4.36,4.36,0,0,0-2.94-1.11,4.07,4.07,0,0,0-3.95,2c-.12.29-.76,1-.76,5.43v7c0,6.42,2.1,7.17,4.67,7.17,1,0,4.09-.36,4.13-5.47h3.45c.15,8.25-5.68,8.25-7.4,8.25-3.26,0-8.26-.2-8.26-10.35V21.36c0-7.4,3.26-9.46,8.41-9.46s7.19,2.68,6.85,7.76Z" />
            <path class="cls-1"
                  d="M412.1,28.42c0-5-1.57-6.08-3.79-6.08s-3.78,1.08-3.78,6.08c0,6,.76,8.1,3.78,8.1s3.79-2.14,3.79-8.1m-10.81,1.27c0-5.36.61-9.77,7-9.77s7,4.41,7,9.77c0,8.1-3.08,9.26-7,9.26s-7-1.16-7-9.26" />
            <path class="cls-1"
                  d="M429.1,38.59V25.88c0-1.89-.51-3.54-2.9-3.54a3.47,3.47,0,0,0-2.57,1.24,5.27,5.27,0,0,0-.68,2.66V38.59h-3V24.09a26.58,26.58,0,0,0-.18-3.79H423v2.27h0a4.44,4.44,0,0,1,4.58-2.65,4.52,4.52,0,0,1,4.28,2.37,4.39,4.39,0,0,1,4.35-2.37c1.89,0,5,.44,5,4.75V38.6h-3V25.88c0-1.89-.51-3.54-2.89-3.54A2.72,2.72,0,0,0,433,23a4.73,4.73,0,0,0-1,3.21V38.59Z" />
            <path class="cls-1"
                  d="M454.29,38.59V25.88c0-1.89-.49-3.54-2.89-3.54a3.47,3.47,0,0,0-2.58,1.24,5.37,5.37,0,0,0-.68,2.66V38.59h-3V24.09A25.2,25.2,0,0,0,445,20.3h3.16v2.27h0a4.42,4.42,0,0,1,4.56-2.65A4.49,4.49,0,0,1,457,22.29a4.41,4.41,0,0,1,4.35-2.37c1.9,0,5,.44,5,4.75V38.6h-3V25.88c0-1.89-.51-3.54-2.9-3.54a2.74,2.74,0,0,0-2.25.69,4.77,4.77,0,0,0-1,3.21V38.59Z" />
            <path class="cls-1"
                  d="M473.85,38.59h-3V20.28h3Zm-3.16-26.18H474v3.2h-3.35Z" />
            <path class="cls-1"
                  d="M484.58,39c-4,0-6.42-1.75-6.3-6h3.37c0,1.06,0,3.52,3,3.52a2.76,2.76,0,0,0,3.12-2.36,2.13,2.13,0,0,0,0-.44c0-3.25-9.12-3.33-9.12-8.8,0-1.89,1.16-5,6.3-5,3.26,0,6.06,1.57,5.8,5.19h-3.2a2.58,2.58,0,0,0-2.17-2.93,2.66,2.66,0,0,0-.69,0,2.51,2.51,0,0,0-2.82,2.17,2.83,2.83,0,0,0,0,.29c0,3.23,9.14,3.16,9.14,8.74,0,4-2.76,5.59-6.38,5.59" />
            <path class="cls-1"
                  d="M500.86,39c-4,0-6.42-1.75-6.31-6h3.37c0,1.06,0,3.52,3.05,3.52a2.76,2.76,0,0,0,3.12-2.36,2.13,2.13,0,0,0,0-.44c0-3.25-9.12-3.33-9.12-8.8,0-1.89,1.15-5,6.3-5,3.26,0,6.06,1.57,5.8,5.19h-3.3a2.57,2.57,0,0,0-2.93-2.93,2.49,2.49,0,0,0-2.8,2.15,3,3,0,0,0,0,.31c0,3.23,9.12,3.16,9.12,8.74,0,4-2.74,5.59-6.38,5.59" />
            <path class="cls-1"
                  d="M514.64,38.59h-3V20.28h3Zm-3.16-26.18h3.35v3.2h-3.35Z" />
            <path class="cls-1"
                  d="M530.25,28.42c0-5-1.55-6.08-3.78-6.08s-3.79,1.08-3.79,6.08c0,6,.76,8.1,3.79,8.1s3.78-2.14,3.78-8.1m-10.79,1.27c0-5.36.61-9.77,7-9.77s7,4.41,7,9.77c0,8.1-3.09,9.26-7,9.26s-7-1.16-7-9.26" />
            <path class="cls-1"
                  d="M548.18,38.59V25.88c0-1.89-.68-3.54-3.24-3.54-3.25,0-3.78,2.9-3.78,5.4V38.59h-3V24.09A28.13,28.13,0,0,0,538,20.3h3.14v2.35h.15a4.84,4.84,0,0,1,5-2.75c3.9,0,4.88,2.37,4.88,6V38.59Z" />
            <path class="cls-1"
                  d="M391.07,65.54c0-3-1.42-3.79-2.54-3.79-2.29,0-3.78,1.08-3.78,6.1,0,5.94.76,8.08,3.78,8.08.69,0,2.75-.72,2.63-4h3.13a5.67,5.67,0,0,1-4.85,6.4,5.79,5.79,0,0,1-.83.06c-3.79,0-7-1.16-7-9.24,0-5.38.61-9.79,7-9.79,3.65,0,5.79,2.14,5.68,6.23Z" />
            <path class="cls-1"
                  d="M401.92,72.54c0,1.78.87,3.37,2.85,3.37s4.06-1.13,3.79-7c-2.82,0-6.62-.21-6.62,3.67m6.7,2.79h0a4.48,4.48,0,0,1-4.6,3c-3.88,0-5-2.5-5-6,0-5.55,5.43-5.8,9.6-5.68,0-2.44.11-5.09-3.09-5.09A2.7,2.7,0,0,0,402.64,64a3,3,0,0,0,.05.79h-3.22c.14-4.11,2.31-5.51,6.19-5.51,4.72,0,5.95,2.43,5.95,5.51v8.8a30.85,30.85,0,0,0,.28,4.3h-3.25Z" />
            <path class="cls-1"
                  d="M426.71,77.92V65.24c0-1.9-.68-3.56-3.21-3.56-3.28,0-3.79,2.9-3.79,5.39V77.92h-3V63.48a28.13,28.13,0,0,0-.17-3.79h3.14V62h.15a4.82,4.82,0,0,1,4.88-2.71c3.92,0,4.91,2.35,4.91,6V77.92Z" />
            <path class="cls-1"
                  d="M436.37,72.54c0,1.78.87,3.37,2.86,3.37s4-1.13,3.78-7c-2.82,0-6.62-.21-6.62,3.67m6.7,2.79h0a4.49,4.49,0,0,1-4.7,3c-3.88,0-5-2.5-5-6,0-5.55,5.43-5.8,9.59-5.68,0-2.44.12-5.09-3.08-5.09A2.71,2.71,0,0,0,437,64a2.61,2.61,0,0,0,.06.79h-3.22c.13-4.11,2.31-5.51,6.19-5.51,4.71,0,5.94,2.43,5.94,5.51v8.8a28.94,28.94,0,0,0,.38,4.36h-3.27Z" />
            <path class="cls-1"
                  d="M457.32,61.74c-3.2,0-3.63,2.53-3.63,7.44,0,2.74,0,6.73,3.78,6.73,3.33,0,3.33-4.12,3.33-7.83,0-2.43-.13-6.34-3.42-6.34m3.42-9.94h3V77.92h-3V75.8h0a4.5,4.5,0,0,1-4.2,2.54c-2.93,0-5.9-1.16-5.9-9.2,0-4.58.15-9.83,6.05-9.83a4.69,4.69,0,0,1,4,2.2h.09Z" />
            <path class="cls-1"
                  d="M472.31,77.92h-3V59.67h3ZM469.15,51.8h3.31V55h-3.33Z" />
            <path class="cls-1"
                  d="M487.61,67.53c0-5.32-1.5-6-3.67-6-1.9,0-3.45.91-3.47,6Zm-7.14,2.25c0,5.11,1.36,6.13,3.79,6.13a3.29,3.29,0,0,0,3.2-3.38v-.1h3.25c0,4.07-2.53,5.91-6.38,5.91s-7-1.16-7-9.24c0-5.38.6-9.79,7-9.79,5.21,0,6.51,2.86,6.51,8.92v1.55Z" />
            <path class="cls-1"
                  d="M505.15,77.92V65.24c0-1.9-.68-3.56-3.21-3.56-3.28,0-3.79,2.9-3.79,5.39V77.92h-3V63.48c0-1.26-.06-2.53-.17-3.79h3.14V62h.15a4.83,4.83,0,0,1,4.91-2.71c3.91,0,4.88,2.35,4.88,6V77.92Z" />
            <path class="cls-1"
                  d="M522,77.92V65.24c0-1.9-.68-3.56-3.22-3.56-3.27,0-3.78,2.9-3.78,5.39V77.92h-3V63.48a28.13,28.13,0,0,0-.17-3.79H515V62h.15a4.81,4.81,0,0,1,4.88-2.71c3.92,0,4.9,2.35,4.9,6V77.92Z" />
            <path class="cls-1"
                  d="M539,67.53c0-5.32-1.5-6-3.67-6-1.9,0-3.45.91-3.49,6Zm-7.16,2.25c0,5.11,1.39,6.13,3.79,6.13a3.27,3.27,0,0,0,3.09-3.45v0H542c0,4.07-2.56,5.91-6.4,5.91s-6.94-1.16-6.94-9.24c0-5.38.6-9.79,6.94-9.79,5.23,0,6.53,2.86,6.53,8.92v1.55Z" />
            <path class="cls-1"
                  d="M561.73,61.74c-3.2,0-3.63,2.53-3.63,7.44,0,2.74,0,6.73,3.78,6.73,3.35,0,3.35-4.12,3.35-7.83,0-2.43-.15-6.34-3.44-6.34m3.43-9.94h3V77.92h-3V75.8h0A4.57,4.57,0,0,1,561,78.34c-2.93,0-5.9-1.16-5.9-9.2,0-4.58.13-9.83,6-9.83a4.69,4.69,0,0,1,4,2.2h0Z" />
            <path class="cls-1"
                  d="M583.12,67.53c0-5.32-1.47-6-3.65-6-1.89,0-3.45.91-3.48,6ZM576,69.78c0,5.11,1.36,6.13,3.69,6.13a3.29,3.29,0,0,0,3.2-3.38v-.1h3.25c0,4.07-2.53,5.91-6.38,5.91s-7-1.16-7-9.24c0-5.38.62-9.79,7-9.79,5.23,0,6.53,2.86,6.53,8.92v1.55Z" />
            <path class="cls-1"
                  d="M596.07,78.34c-4,0-6.42-1.74-6.3-6h3.37c0,1.06,0,3.52,3,3.52a2.76,2.76,0,0,0,3.09-2.4c0-.13,0-.26,0-.4,0-3.25-9.13-3.33-9.13-8.8,0-1.89,1.16-5,6.31-5,3.25,0,6,1.56,5.79,5.19H599a2.57,2.57,0,0,0-2.15-2.94,2.42,2.42,0,0,0-.71,0,2.51,2.51,0,0,0-2.82,2.17,3,3,0,0,0,0,.31c0,3.21,9.14,3.14,9.14,8.72,0,4-2.76,5.68-6.38,5.68" />
            <path class="cls-1"
                  d="M387.68,101.13c-3.18,0-3.61,2.53-3.61,7.44,0,2.74,0,6.73,3.78,6.73,3.33,0,3.33-4.12,3.33-7.83,0-2.42-.13-6.34-3.44-6.34m3.33-10h3v26.2h-3v-2.18h0a4.56,4.56,0,0,1-4.22,2.48c-2.93,0-5.91-1.15-5.91-9.2,0-4.56.15-9.82,6.06-9.82a4.58,4.58,0,0,1,4.07,2.27h0Z" />
            <path class="cls-1"
                  d="M402,101.83h0c1.23-2.8,2.75-3.13,5.68-3.13v3.09a10.62,10.62,0,0,0-1.59-.19c-3.29,0-4.13,2.5-4.13,5v10.79H399V99.06h3Z" />
            <path class="cls-1"
                  d="M420,107.22c0-5-1.57-6.09-3.78-6.09s-3.79,1.09-3.79,6.09c0,6,.76,8.08,3.79,8.08s3.78-2.13,3.78-8.08m-10.81,1.27c0-5.36.61-9.79,7-9.79s6.95,4.43,6.95,9.79c0,8.08-3.07,9.24-6.95,9.24s-7-1.16-7-9.24" />
            <path class="cls-1"
                  d="M430.92,117.37h-3V99.06h3Zm-3.15-26.2h3.33v3.22h-3.33Z" />
            <path class="cls-1"
                  d="M436.5,99.06V95.54l3-1.34v4.86h4v2.26h-4v11.2c0,1.16,0,2.63,2.73,2.63a6.59,6.59,0,0,0,1.34-.13v2.27c-1,0-1.89.31-2.93.31-2.84,0-4.11-1.18-4.11-3.28v-13h-3V99.06Z" />
            <path class="cls-1"
                  d="M451.64,117.67c-3.95,0-6.41-1.74-6.32-5.94h3.39c0,1.06,0,3.52,3,3.52a2.78,2.78,0,0,0,3.13-2.38,3,3,0,0,0,0-.42c0-3.26-9.14-3.34-9.14-8.81,0-1.89,1.17-5,6.32-5,3.25,0,6,1.55,5.79,5.18h-3.29a2.57,2.57,0,0,0-2.22-2.88,3.45,3.45,0,0,0-3.52,2.16c0,.1,0,.21,0,.31,0,3.22,9.13,3.14,9.13,8.72,0,4-2.75,5.68-6.36,5.68" />
            <path class="cls-1"
                  d="M474.79,101.13c-3.2,0-3.63,2.53-3.63,7.44,0,2.74,0,6.73,3.78,6.73,3.35,0,3.35-4.12,3.35-7.83,0-2.42-.15-6.34-3.44-6.34m3.39-10h2.95v26.2h-2.95v-2.18h0a4.57,4.57,0,0,1-4.3,2.48c-2.91,0-5.89-1.15-5.89-9.2,0-4.56.14-9.82,6-9.82a4.64,4.64,0,0,1,4.05,2.27h.12Z" />
            <path class="cls-1"
                  d="M495.46,106.94c0-5.34-1.49-6-3.67-6-1.89,0-3.44.89-3.48,6Zm-7.15,2.23c0,5.11,1.38,6.13,3.78,6.13a3.27,3.27,0,0,0,3.09-3.45v0h3.27c0,4.07-2.53,5.91-6.39,5.91s-6.95-1.16-6.95-9.24c0-5.36.6-9.79,6.95-9.79,5.22,0,6.53,2.86,6.53,8.92v1.55Z" />
            <rect class="cls-1"
                  x="508.26"
                  y="91.19"
                  width="2.97"
                  height="26.18" />
            <path class="cls-1"
                  d="M518.56,112c0,1.78.87,3.37,2.85,3.37s4.07-1.12,3.79-7c-2.82,0-6.62-.23-6.62,3.65m6.7,2.78h0a4.46,4.46,0,0,1-4.7,2.9c-3.88,0-5-2.5-5-6,0-5.54,5.44-5.79,9.6-5.68,0-2.42.12-5.07-3.06-5.07a2.71,2.71,0,0,0-2.93,2.47,2.63,2.63,0,0,0,0,.79H516c.15-4.09,2.33-5.51,6.19-5.51,4.71,0,6,2.42,6,5.51V113a28.53,28.53,0,0,0,.36,4.33h-3.27Z" />
            <path class="cls-1"
                  d="M549.77,107.9c0-2.74,0-6.77-3.79-6.77s-3.33,5.07-3.33,7.87c0,2.42.14,6.3,3.45,6.3s3.61-2.49,3.61-7.4m-7.06-6.66h0a4.52,4.52,0,0,1,4.34-2.5c2.93,0,5.9,1.16,5.9,9.2,0,4.58-.15,9.83-6,9.83a4.65,4.65,0,0,1-4-2.2h-.11v8.76h-3V99.06h3Z" />
            <path class="cls-1"
                  d="M567,106.94c0-5.34-1.5-6-3.66-6s-3.44.89-3.5,6Zm-7.16,2.23c0,5.11,1.38,6.13,3.79,6.13a3.28,3.28,0,0,0,3.2-3.38v-.1h3.25c0,4.07-2.53,5.91-6.38,5.91s-7-1.16-7-9.24c0-5.36.62-9.79,7-9.79,5.21,0,6.53,2.86,6.53,8.92v1.55Z" />
            <path class="cls-1"
                  d="M577.6,101.83h0c1.23-2.8,2.76-3.13,5.67-3.13v3.09a11.9,11.9,0,0,0-1.59-.19c-3.31,0-4.14,2.5-4.14,5v10.79h-2.86V99.06h3Z" />
            <path class="cls-1"
                  d="M591.58,117.67c-4,0-6.41-1.74-6.3-5.94h3.37c0,1.06,0,3.52,3.05,3.52a2.78,2.78,0,0,0,3.13-2.38,3,3,0,0,0,0-.42c0-3.26-9.14-3.34-9.14-8.81,0-1.89,1.15-5,6.3-5,3.27,0,6.06,1.55,5.81,5.18h-3.31a2.58,2.58,0,0,0-2.24-2.87,2.62,2.62,0,0,0-.56,0,2.49,2.49,0,0,0-2.8,2.15,1.62,1.62,0,0,0,0,.31c0,3.22,9.12,3.14,9.12,8.72,0,4-2.74,5.68-6.38,5.68" />
            <path class="cls-1"
                  d="M612.05,107.22c0-5-1.57-6.09-3.79-6.09s-3.79,1.09-3.79,6.09c0,6,.76,8.08,3.79,8.08s3.79-2.13,3.79-8.08m-10.81,1.27c0-5.36.6-9.79,7-9.79s6.95,4.43,6.95,9.79c0,8.08-3.07,9.24-6.95,9.24s-7-1.16-7-9.24" />
            <path class="cls-1"
                  d="M629.12,117.37V104.69c0-1.9-.68-3.56-3.22-3.56-3.25,0-3.78,2.89-3.78,5.39v10.85h-3v-14.5a25.2,25.2,0,0,0-.19-3.79h3.15v2.37h.15a4.81,4.81,0,0,1,4.94-2.71c3.92,0,4.88,2.35,4.88,6v12.69Z" />
            <path class="cls-1"
                  d="M646,117.37V104.69c0-1.9-.69-3.56-3.22-3.56-3.28,0-3.79,2.89-3.79,5.39v10.85h-3v-14.5a28.13,28.13,0,0,0-.17-3.79H639v2.37h.15a4.82,4.82,0,0,1,4.88-2.71c3.92,0,4.89,2.35,4.89,6v12.69Z" />
            <path class="cls-1"
                  d="M663,106.94c0-5.34-1.49-6-3.67-6-1.89,0-3.44.89-3.48,6Zm-7.15,2.23c0,5.11,1.38,6.13,3.69,6.13a3.28,3.28,0,0,0,3.2-3.38v-.1H666c0,4.07-2.55,5.91-6.39,5.91s-7-1.16-7-9.24c0-5.36.61-9.79,7-9.79,5.22,0,6.53,2.86,6.53,8.92v1.55Z" />
            <rect class="cls-1"
                  x="337.12"
                  y="15.06"
                  width="2.08"
                  height="106.34" />
            <polygon class="cls-1"
                     points="57.86 75.17 28.92 45.59 25.95 62.17 57.86 75.17" />
            <polygon class="cls-1"
                     points="0.65 85.39 42.15 117.49 73.82 85.39 0.65 85.39" />
            <polygon class="cls-1"
                     points="71.25 82.62 0 53.61 7.02 76.1 71.25 82.62" />
            <polygon class="cls-1"
                     points="33.98 128.41 76.21 122.3 76.21 121.55 76.21 85.61 33.98 128.41" />
            <polygon class="cls-1"
                     points="76.2 38.22 76.19 0 65.27 31.05 76.2 38.22" />
            <polygon class="cls-1"
                     points="45.02 19.96 51.64 66.16 62.17 76.92 62.17 76.92 76.21 82.64 76.21 65.06 76.21 40.45 45.02 19.96" />
            <polygon class="cls-1"
                     points="6.45 77.91 0.35 83.53 61.86 83.53 6.45 77.91" />
        </g>
    </g>
</svg>