<?xml version="1.0" encoding="utf-8"?>
<!-- Generator: Adobe Illustrator 27.0.1, SVG Export Plug-In . SVG Version: 6.00 Build 0)  -->
<svg version="1.1" id="Layer_1" xmlns="http://www.w3.org/2000/svg" xmlns:xlink="http://www.w3.org/1999/xlink" x="0px" y="0px"
	 viewBox="0 0 401.3 128.4" style="enable-background:new 0 0 401.3 128.4;" xml:space="preserve">
<g id="Layer_2_00000111165050729243884720000003819602486211816098_">
	<g id="Layer_1-2">
		<path d="M112.6,45.2c0.1-0.7-0.1-1.4-0.4-2c-0.4-0.4-1-0.6-1.6-0.6c-0.8-0.1-1.7,0.3-2.1,1.1c-0.1,0.2-0.4,0.5-0.4,2.9v3.7
			c0,3.4,1.1,3.8,2.5,3.8c0.5,0,2.2-0.2,2.2-2.9h1.8c0.1,4.4-3,4.4-3.9,4.4c-1.7,0-4.4-0.1-4.4-5.5v-3.9c0-3.9,1.7-5,4.4-5
			s3.8,1.4,3.6,4.1L112.6,45.2z"/>
		<path d="M118.5,52.3c0,0.9,0.5,1.8,1.5,1.8s2.2-0.6,2-3.7C120.5,50.4,118.5,50.3,118.5,52.3 M122,53.8L122,53.8
			c-0.3,1-1.4,1.7-2.4,1.6c-2,0-2.6-1.3-2.6-3.2c0-2.9,2.9-3.1,5.1-3c0-1.3,0.1-2.7-1.6-2.7c-0.8-0.1-1.5,0.5-1.5,1.3
			c0,0.1,0,0.3,0,0.4h-1.7c0.1-2.2,1.2-2.9,3.3-2.9c2.5,0,3.1,1.3,3.1,2.9v4.7c0,0.8,0.1,1.5,0.2,2.3H122V53.8z"/>
		<path d="M131.5,55.2v-6.7c0-1-0.4-1.9-1.7-1.9c-1.7,0-2,1.5-2,2.8v5.7h-1.6v-7.7c0-0.7,0-1.3-0.1-2h1.7v1.2h0.1
			c0.5-1,1.5-1.6,2.6-1.4c2.1,0,2.6,1.2,2.6,3.2v6.7L131.5,55.2z"/>
		<path d="M137.1,52.3c0,0.9,0.5,1.8,1.5,1.8s2.1-0.6,2-3.7C139.1,50.4,137.1,50.3,137.1,52.3 M140.6,53.8L140.6,53.8
			c-0.3,1-1.4,1.7-2.4,1.6c-2.1,0-2.6-1.3-2.6-3.2c0-2.9,2.9-3.1,5.1-3c0-1.3,0.1-2.7-1.6-2.7c-0.8-0.1-1.5,0.5-1.5,1.3
			c0,0.1,0,0.3,0,0.4h-1.7c0.1-2.2,1.2-2.9,3.3-2.9c2.5,0,3.1,1.3,3.1,2.9v4.7c0,0.8,0.1,1.5,0.2,2.3h-1.7L140.6,53.8z"/>
		<path d="M148.3,46.6c-1.7,0-1.9,1.3-1.9,3.9c0,1.5,0,3.6,2,3.6c1.8,0,1.8-2.2,1.8-4.1C150.1,48.7,150.1,46.6,148.3,46.6
			 M150.1,41.4h1.6v13.8h-1.6v-1.2l0,0c-0.4,0.8-1.3,1.4-2.2,1.3c-1.6,0-3.1-0.6-3.1-4.9c0-2.4,0.1-5.2,3.2-5.2
			c0.9,0,1.7,0.4,2.1,1.2h0.1L150.1,41.4z"/>
		<path d="M156.2,55.2h-1.6v-9.7h1.6V55.2z M154.6,41.4h1.8v1.7h-1.8V41.4z"/>
		<path d="M160.5,52.3c0,0.9,0.5,1.8,1.5,1.8s2.1-0.6,2-3.7C162.5,50.4,160.5,50.3,160.5,52.3 M164,53.8L164,53.8
			c-0.4,1-1.4,1.7-2.4,1.6c-2.1,0-2.6-1.3-2.6-3.2c0-2.9,2.9-3.1,5.1-3c0-1.3,0.1-2.7-1.6-2.7c-0.8-0.1-1.5,0.5-1.5,1.3
			c0,0.1,0,0.3,0,0.4h-1.7c0.1-2.2,1.2-2.9,3.3-2.9c2.5,0,3.1,1.3,3.1,2.9v4.7c0,0.8,0.1,1.5,0.2,2.3H164V53.8z"/>
		<path d="M174,55.2v-6.7c0-1-0.4-1.9-1.7-1.9c-1.7,0-2,1.5-2,2.8v5.7h-1.6v-7.7c0-0.7,0-1.3-0.1-2h1.7v1.2h0.1
			c0.5-1,1.5-1.6,2.6-1.4c2.1,0,2.6,1.2,2.6,3.2v6.7L174,55.2z"/>
		<path d="M111.6,76v-6.5c0-1.2-0.4-2-1.7-2c-1.6,0-2,1.3-2,2.9V76h-1.6V62.2h1.6v5.4h0.1c0.5-1,1.5-1.6,2.6-1.4
			c1.6,0,2.6,0.8,2.6,3V76H111.6z"/>
		<path d="M120.7,66.4h1.6V74c0,0.7,0,1.3,0.1,2h-1.7v-1.1h-0.1c-0.5,0.9-1.4,1.4-2.4,1.4c-1.7,0-2.6-0.8-2.6-2.5v-7.4h1.6v6.7
			c0,1.2,0.5,2,1.7,2c1.1,0,2-1,1.9-2.1c0-0.1,0-0.1,0-0.2L120.7,66.4z"/>
		<path d="M130,76v-6.7c0-1-0.3-1.9-1.5-1.9c-0.5,0-1,0.2-1.4,0.7c-0.2,0.4-0.4,0.9-0.4,1.4V76h-1.6v-7.6c0-0.7,0-1.3-0.1-2h1.7v1.2
			l0,0c0.4-1,1.4-1.5,2.4-1.4c0.9-0.1,1.8,0.4,2.3,1.2c0.4-0.8,1.3-1.3,2.3-1.2c1,0,2.6,0.2,2.6,2.5V76h-1.6v-6.7
			c0-1-0.3-1.9-1.5-1.9c-0.4-0.1-0.9,0.1-1.2,0.4c-0.4,0.5-0.6,1.1-0.5,1.7V76H130z"/>
		<path d="M140.6,73.2c0,0.9,0.5,1.8,1.5,1.8s2.1-0.6,2-3.7C142.6,71.2,140.6,71.1,140.6,73.2 M144.1,74.6L144.1,74.6
			c-0.4,1-1.4,1.7-2.4,1.6c-2,0-2.6-1.3-2.6-3.2c0-2.9,2.9-3.1,5.1-3c0-1.3,0.1-2.7-1.6-2.7c-0.8-0.1-1.5,0.5-1.5,1.3
			c0,0.1,0,0.3,0,0.4h-1.7c0.1-2.2,1.2-2.9,3.3-2.9c2.5,0,3.1,1.3,3.1,2.9v4.7c0,0.8,0.1,1.5,0.2,2.3h-1.7L144.1,74.6z"/>
		<path d="M153.9,76v-6.7c0-1-0.4-1.9-1.7-1.9c-1.7,0-2,1.5-2,2.8V76h-1.6v-7.6c0-0.7,0-1.3-0.1-2h1.7v1.2h0.1
			c0.5-1,1.5-1.6,2.6-1.4c2.1,0,2.6,1.2,2.6,3.2V76H153.9z"/>
		<path d="M164.3,67.8L164.3,67.8c0.6-1.5,1.4-1.6,3-1.6v1.6c-0.3,0-0.6-0.1-0.9-0.1c-1.7,0-2.2,1.3-2.2,2.6V76h-1.6v-9.6h1.6
			L164.3,67.8z"/>
		<path d="M170.7,76h-1.6v-9.6h1.6V76z M169,62.2h1.8v1.7H169V62.2z"/>
		<path d="M176.8,67.5c-1.8,0-1.8,2.2-1.8,3.4c0,3.1,0.7,3.8,1.9,3.8c1.9,0,1.8-2.2,1.8-3.6S178.7,67.5,176.8,67.5 M178.6,66.4h1.6
			V77c0,2.2-1.4,2.7-3.6,2.7c-1.6,0-3.1-0.8-2.9-2.6h1.8c0,0.7,0.5,1.4,1.3,1.4c0.1,0,0.1,0,0.2,0c0.9,0.1,1.6-0.5,1.7-1.4
			c0-0.1,0-0.2,0-0.3v-2h-0.1c-0.4,0.7-1.3,1.2-2.1,1.2c-2.6,0-3.1-2.3-3.1-5.1c0-4.4,2.2-4.7,3-4.7c1-0.1,1.9,0.5,2.3,1.4l0,0
			L178.6,66.4z"/>
		<path d="M188.4,76v-6.5c0-1.2-0.4-2-1.7-2c-1.6,0-2,1.3-2,2.9V76h-1.6V62.2h1.6v5.4h0.1c0.5-1,1.5-1.6,2.6-1.4
			c1.6,0,2.6,0.8,2.6,3V76H188.4z"/>
		<path d="M193,66.4v-1.9l1.6-0.7v2.6h2.1v1.2h-2.1v5.9c0,0.6,0,1.4,1.4,1.4c0.1,0,0.4,0,0.7-0.1V76c-0.5,0-1,0.2-1.6,0.2
			c-1.5,0-2.2-0.6-2.2-1.7v-6.9h-1.6v-1.2H193z"/>
		<path d="M201.6,76.2c-2.1,0-3.4-0.9-3.3-3.1h1.8c0,0.6,0,1.9,1.6,1.9c0.8,0.1,1.5-0.5,1.7-1.3c0-0.1,0-0.1,0-0.2
			c0-1.7-4.8-1.8-4.8-4.7c0-1,0.6-2.6,3.3-2.6c1.7,0,3.2,0.8,3.1,2.7h-1.8c0.1-0.7-0.4-1.4-1.1-1.6c-0.1,0-0.3,0-0.4,0
			c-0.7-0.1-1.4,0.4-1.5,1.1c0,0.1,0,0.1,0,0.2c0,1.7,4.8,1.7,4.8,4.6C204.9,75.4,203.5,76.3,201.6,76.2"/>
		<path d="M111.4,90.3c0-1.6-0.8-2-1.3-2c-1.2,0-2,0.6-2,3.2c0,3.1,0.4,4.3,2,4.3c0.4,0,1.5-0.4,1.4-2.1h1.7c0.2,1.7-1,3.2-2.7,3.4
			c-0.1,0-0.2,0-0.4,0c-2,0-3.7-0.6-3.7-4.9c0-2.8,0.3-5.2,3.7-5.2c1.9,0,3.1,1.1,3,3.3L111.4,90.3z"/>
		<path d="M120.8,91.5c0-2.6-0.8-3.2-2-3.2s-2,0.6-2,3.2c0,3.1,0.4,4.3,2,4.3S120.8,94.6,120.8,91.5 M115.1,92.2
			c0-2.8,0.3-5.2,3.7-5.2s3.7,2.3,3.7,5.2c0,4.3-1.6,4.9-3.7,4.9S115.1,96.4,115.1,92.2"/>
		<path d="M129.6,96.8v-6.7c0-1-0.3-1.9-1.5-1.9c-0.5,0-1,0.3-1.4,0.7c-0.2,0.4-0.4,0.9-0.4,1.4v6.5h-1.6v-7.7c0-0.7,0-1.3-0.1-2
			h1.7v1.2l0,0c0.4-0.9,1.4-1.5,2.4-1.4c0.9-0.1,1.8,0.4,2.3,1.2c0.4-0.9,1.4-1.3,2.3-1.2c1,0,2.6,0.2,2.6,2.5v7.3h-1.6v-6.7
			c0-1-0.3-1.9-1.5-1.9c-0.4-0.1-0.9,0.1-1.2,0.4c-0.4,0.5-0.6,1.1-0.5,1.7v6.5L129.6,96.8z"/>
		<path d="M143.3,96.8v-6.7c0-1-0.3-1.9-1.5-1.9c-0.5,0-1,0.2-1.4,0.7c-0.2,0.4-0.4,0.9-0.4,1.4v6.5h-1.6v-7.7c0-0.7,0-1.3-0.1-2
			h1.6v1.2l0,0c0.4-1,1.4-1.5,2.4-1.4c0.9-0.1,1.8,0.4,2.3,1.2c0.4-0.9,1.4-1.3,2.3-1.2c1,0,2.6,0.2,2.6,2.5v7.3h-1.5v-6.7
			c0-1-0.3-1.9-1.5-1.9c-0.4-0.1-0.9,0.1-1.2,0.4c-0.4,0.5-0.6,1.1-0.5,1.7v6.5L143.3,96.8z"/>
		<path d="M154,96.8h-1.6v-9.7h1.6V96.8z M152.3,83h1.8v1.7h-1.8V83z"/>
		<path d="M159.6,97c-2.1,0-3.4-0.9-3.3-3.1h1.8c0,0.6,0,1.9,1.6,1.9c0.8,0.1,1.5-0.4,1.6-1.2c0-0.1,0-0.2,0-0.2
			c0-1.7-4.8-1.8-4.8-4.7c0-1,0.6-2.6,3.3-2.6c1.7,0,3.2,0.8,3.1,2.7h-1.7c0.1-0.7-0.4-1.4-1.1-1.5c-0.1,0-0.2,0-0.4,0
			c-0.7-0.1-1.4,0.4-1.5,1.1c0,0.1,0,0.1,0,0.2c0,1.7,4.8,1.7,4.8,4.6C163,96.2,161.6,97,159.6,97"/>
		<path d="M168.2,97c-2.1,0-3.4-0.9-3.3-3.1h1.8c0,0.6,0,1.9,1.6,1.9c0.8,0.1,1.5-0.4,1.7-1.2c0-0.1,0-0.2,0-0.2
			c0-1.7-4.8-1.8-4.8-4.7c0-1,0.6-2.6,3.3-2.6c1.7,0,3.2,0.8,3.1,2.7h-1.8c0.1-0.7-0.4-1.4-1.1-1.5c-0.1,0-0.3,0-0.4,0
			c-0.7-0.1-1.4,0.4-1.5,1.1c0,0.1,0,0.1,0,0.2c0,1.7,4.8,1.7,4.8,4.6C171.6,96.2,170.2,97.1,168.2,97"/>
		<path d="M175.5,96.8H174v-9.7h1.6L175.5,96.8z M173.9,83h1.8v1.7h-1.8V83z"/>
		<path d="M183.8,91.5c0-2.6-0.8-3.2-2-3.2s-2,0.6-2,3.2c0,3.1,0.4,4.3,2,4.3S183.8,94.6,183.8,91.5 M178.1,92.2
			c0-2.8,0.3-5.2,3.7-5.2s3.7,2.3,3.7,5.2c0,4.3-1.6,4.9-3.7,4.9S178.1,96.4,178.1,92.2"/>
		<path d="M193.3,96.8v-6.7c0-1-0.4-1.9-1.7-1.9c-1.7,0-2,1.5-2,2.8v5.7H188v-7.7c0-0.7,0-1.3-0.1-2h1.7v1.2h0.1
			c0.5-1,1.5-1.6,2.6-1.4c2.1,0,2.6,1.2,2.6,3.2v6.7L193.3,96.8z"/>
		<path d="M257.2,45.2c0.1-0.7-0.1-1.4-0.4-2c-0.4-0.4-1-0.6-1.6-0.6c-0.8-0.1-1.7,0.3-2.1,1.1c-0.1,0.2-0.4,0.5-0.4,2.9v3.7
			c0,3.4,1.1,3.8,2.5,3.8c0.5,0,2.2-0.2,2.2-2.9h1.8c0.1,4.4-3,4.4-3.9,4.4c-1.7,0-4.4-0.1-4.4-5.5v-3.9c0-3.9,1.7-5,4.4-5
			c2.7,0,3.8,1.4,3.6,4.1L257.2,45.2z"/>
		<path d="M267.1,49.8c0-2.6-0.8-3.2-2-3.2s-2,0.6-2,3.2c0,3.2,0.4,4.3,2,4.3S267.1,53,267.1,49.8 M261.4,50.5
			c0-2.8,0.3-5.2,3.7-5.2s3.7,2.3,3.7,5.2c0,4.3-1.6,4.9-3.7,4.9S261.4,54.8,261.4,50.5"/>
		<path d="M276.1,55.2v-6.7c0-1-0.3-1.9-1.5-1.9c-0.5,0-1,0.2-1.4,0.7c-0.2,0.4-0.4,0.9-0.4,1.4v6.5h-1.6v-7.7c0-0.7,0-1.3-0.1-2
			h1.7v1.2l0,0c0.4-0.9,1.4-1.5,2.4-1.4c0.9-0.1,1.8,0.4,2.3,1.2c0.4-0.9,1.3-1.3,2.3-1.2c1,0,2.6,0.2,2.6,2.5v7.4h-1.6v-6.7
			c0-1-0.3-1.9-1.5-1.9c-0.4-0.1-0.9,0.1-1.2,0.4c-0.4,0.5-0.6,1.1-0.5,1.7v6.5H276.1z"/>
		<path d="M289.4,55.2v-6.7c0-1-0.3-1.9-1.5-1.9c-0.5,0-1,0.2-1.4,0.7c-0.2,0.4-0.4,0.9-0.4,1.4v6.5h-1.6v-7.7c0-0.7,0-1.3-0.1-2
			h1.7v1.2l0,0c0.4-0.9,1.4-1.5,2.4-1.4c0.9-0.1,1.8,0.4,2.3,1.2c0.4-0.8,1.3-1.3,2.3-1.2c1,0,2.6,0.2,2.6,2.5v7.4h-1.6v-6.7
			c0-1-0.3-1.9-1.5-1.9c-0.4-0.1-0.9,0.1-1.2,0.4c-0.4,0.5-0.6,1.1-0.5,1.7v6.5H289.4z"/>
		<path d="M299.7,55.2h-1.6v-9.7h1.6V55.2z M298.1,41.4h1.8v1.7h-1.8V41.4z"/>
		<path d="M305.4,55.4c-2.1,0-3.4-0.9-3.3-3.1h1.8c0,0.6,0,1.9,1.6,1.9c0.8,0.1,1.5-0.4,1.6-1.2c0-0.1,0-0.2,0-0.2
			c0-1.7-4.8-1.8-4.8-4.7c0-1,0.6-2.7,3.3-2.7c1.7,0,3.2,0.8,3.1,2.7H307c0.1-0.7-0.4-1.4-1.1-1.5c-0.1,0-0.2,0-0.4,0
			c-0.7-0.1-1.4,0.4-1.5,1.1c0,0.1,0,0.1,0,0.2c0,1.7,4.8,1.7,4.8,4.6C308.8,54.6,307.4,55.4,305.4,55.4"/>
		<path d="M314,55.4c-2.1,0-3.4-0.9-3.3-3.1h1.8c0,0.6,0,1.9,1.6,1.9c0.8,0.1,1.5-0.4,1.6-1.2c0-0.1,0-0.2,0-0.2
			c0-1.7-4.8-1.8-4.8-4.7c0-1,0.6-2.7,3.3-2.7c1.7,0,3.2,0.8,3.1,2.7h-1.7c0.1-0.7-0.4-1.4-1.1-1.5c-0.1,0-0.3,0-0.4,0
			c-0.7-0.1-1.4,0.4-1.5,1.1c0,0.1,0,0.1,0,0.2c0,1.7,4.8,1.7,4.8,4.6C317.3,54.6,315.9,55.4,314,55.4"/>
		<path d="M321.3,55.2h-1.6v-9.7h1.6V55.2z M319.6,41.4h1.8v1.7h-1.8V41.4z"/>
		<path d="M329.5,49.8c0-2.6-0.8-3.2-2-3.2s-2,0.6-2,3.2c0,3.2,0.4,4.3,2,4.3S329.5,53,329.5,49.8 M323.8,50.5
			c0-2.8,0.3-5.2,3.7-5.2s3.7,2.3,3.7,5.2c0,4.3-1.6,4.9-3.7,4.9S323.8,54.8,323.8,50.5"/>
		<path d="M339,55.2v-6.7c0-1-0.4-1.9-1.7-1.9c-1.7,0-2,1.5-2,2.8v5.7h-1.6v-7.7c0-0.7,0-1.3-0.1-2h1.7v1.2h0.1
			c0.5-1,1.5-1.6,2.6-1.5c2.1,0,2.6,1.2,2.6,3.2v6.7L339,55.2z"/>
		<path d="M256,69.5c0-1.6-0.8-2-1.3-2c-1.2,0-2,0.6-2,3.2c0,3.1,0.4,4.3,2,4.3c0.4,0,1.5-0.4,1.4-2.1h1.6c0.2,1.6-0.9,3.2-2.6,3.4
			c-0.1,0-0.3,0-0.4,0c-2,0-3.7-0.6-3.7-4.9c0-2.8,0.3-5.2,3.7-5.2c1.9,0,3.1,1.1,3,3.3L256,69.5z"/>
		<path d="M261.7,73.2c0,0.9,0.5,1.8,1.5,1.8s2.1-0.6,2-3.7C263.8,71.2,261.7,71.1,261.7,73.2 M265.3,74.6L265.3,74.6
			c-0.3,1-1.4,1.7-2.4,1.6c-2,0-2.6-1.3-2.6-3.2c0-2.9,2.9-3.1,5.1-3c0-1.3,0.1-2.7-1.6-2.7c-0.8-0.1-1.5,0.5-1.5,1.3
			c0,0.1,0,0.3,0,0.4h-1.7c0.1-2.2,1.2-2.9,3.3-2.9c2.5,0,3.1,1.3,3.1,2.9v4.7c0,0.8,0,1.5,0.1,2.3h-1.7L265.3,74.6z"/>
		<path d="M274.8,76v-6.7c0-1-0.4-1.9-1.7-1.9c-1.7,0-2,1.5-2,2.8V76h-1.6v-7.6c0-0.7,0-1.3-0.1-2h1.7v1.2h0.1
			c0.5-1,1.5-1.6,2.6-1.4c2.1,0,2.6,1.2,2.6,3.2V76H274.8z"/>
		<path d="M279.9,73.2c0,0.9,0.5,1.8,1.5,1.8s2.1-0.6,2-3.7C282,71.2,279.9,71.1,279.9,73.2 M283.5,74.6L283.5,74.6
			c-0.4,1-1.4,1.7-2.5,1.6c-2,0-2.6-1.3-2.6-3.2c0-2.9,2.9-3.1,5.1-3c0-1.3,0.1-2.7-1.6-2.7c-0.8-0.1-1.5,0.5-1.5,1.3
			c0,0.1,0,0.3,0,0.4h-1.7c0.1-2.2,1.2-2.9,3.3-2.9c2.5,0,3.1,1.3,3.1,2.9v4.7c0,0.8,0.1,1.5,0.2,2.3h-1.7L283.5,74.6z"/>
		<path d="M291,67.4c-1.7,0-1.9,1.3-1.9,3.9c0,1.4,0,3.6,2,3.6c1.8,0,1.8-2.2,1.8-4.1C292.8,69.5,292.8,67.4,291,67.4 M292.8,62.2
			h1.6V76h-1.6v-1.1l0,0c-0.4,0.8-1.3,1.4-2.2,1.3c-1.5,0-3.1-0.6-3.1-4.9c0-2.4,0.1-5.2,3.2-5.2c0.9,0,1.7,0.4,2.1,1.2h0
			L292.8,62.2z"/>
		<path d="M298.9,76h-1.6v-9.6h1.6V76z M297.2,62.2h1.8v1.7h-1.8L297.2,62.2z"/>
		<path d="M307,70.5c0-2.8-0.8-3.2-1.9-3.2c-1,0-1.8,0.5-1.8,3.2H307z M303.2,71.7c0,2.7,0.7,3.2,2,3.2c1,0,1.7-0.8,1.7-1.8
			c0,0,0,0,0-0.1h1.7c0,2.2-1.3,3.1-3.4,3.1s-3.7-0.6-3.7-4.9c0-2.8,0.3-5.2,3.7-5.2c2.8,0,3.4,1.5,3.4,4.7v0.8L303.2,71.7z"/>
		<path d="M316.3,76v-6.7c0-1-0.4-1.9-1.7-1.9c-1.7,0-2,1.5-2,2.8V76H311v-7.6c0-0.7,0-1.3-0.1-2h1.7v1.2h0.1c0.5-1,1.5-1.6,2.6-1.4
			c2.1,0,2.6,1.2,2.6,3.2V76H316.3z"/>
		<path d="M325.2,76v-6.7c0-1-0.4-1.9-1.7-1.9c-1.7,0-2,1.5-2,2.8V76h-1.6v-7.6c0-0.7,0-1.3-0.1-2h1.7v1.2h0.1
			c0.5-1,1.5-1.6,2.6-1.4c2.1,0,2.6,1.2,2.6,3.2V76H325.2z"/>
		<path d="M334.1,70.5c0-2.8-0.8-3.2-1.9-3.2c-1,0-1.8,0.5-1.8,3.2H334.1z M330.4,71.7c0,2.7,0.7,3.2,2,3.2c1-0.1,1.7-0.9,1.6-1.8
			c0,0,0,0,0,0h1.7c0,2.2-1.4,3.1-3.4,3.1s-3.7-0.6-3.7-4.9c0-2.8,0.3-5.2,3.7-5.2c2.8,0,3.5,1.5,3.5,4.7v0.8H330.4z"/>
		<path d="M346.2,67.4c-1.7,0-1.9,1.3-1.9,3.9c0,1.4,0,3.6,2,3.6c1.8,0,1.8-2.2,1.8-4.1C348,69.5,347.9,67.4,346.2,67.4 M348,62.2
			h1.6V76H348v-1.1l0,0c-0.4,0.8-1.3,1.4-2.2,1.3c-1.5,0-3.1-0.6-3.1-4.9c0-2.4,0.1-5.2,3.2-5.2c0.9,0,1.7,0.4,2.1,1.2h0V62.2z"/>
		<path d="M357.5,70.5c0-2.8-0.8-3.2-1.9-3.2c-1,0-1.8,0.5-1.8,3.2H357.5z M353.7,71.7c0,2.7,0.7,3.2,2,3.2c1,0,1.7-0.8,1.7-1.8
			c0,0,0,0,0-0.1h1.7c0,2.2-1.3,3.1-3.4,3.1s-3.7-0.6-3.7-4.9c0-2.8,0.3-5.2,3.7-5.2c2.8,0,3.5,1.5,3.5,4.7v0.8L353.7,71.7z"/>
		<path d="M364.3,76.2c-2.1,0-3.4-0.9-3.3-3.1h1.8c0,0.6,0,1.9,1.6,1.9c0.8,0.1,1.5-0.5,1.6-1.3c0-0.1,0-0.1,0-0.2
			c0-1.7-4.8-1.8-4.8-4.7c0-1,0.6-2.6,3.3-2.6c1.7,0,3.2,0.8,3.1,2.7h-1.7c0.1-0.7-0.4-1.4-1.1-1.6c-0.1,0-0.3,0-0.4,0
			c-0.7-0.1-1.4,0.4-1.5,1.1c0,0.1,0,0.1,0,0.2c0,1.7,4.8,1.7,4.8,4.6C367.6,75.4,366.2,76.3,364.3,76.2"/>
		<path d="M254.2,88.3c-1.7,0-1.9,1.3-1.9,3.9c0,1.4,0,3.6,2,3.6c1.8,0,1.8-2.2,1.8-4.1C256.1,90.3,256,88.3,254.2,88.3 M256,83h1.6
			v13.8H256v-1.1l0,0c-0.4,0.8-1.3,1.3-2.2,1.3c-1.6,0-3.1-0.6-3.1-4.9c0-2.4,0.1-5.2,3.2-5.2c0.9,0,1.7,0.4,2.1,1.2l0,0V83z"/>
		<path d="M261.8,88.6L261.8,88.6c0.6-1.5,1.5-1.7,3-1.7v1.6c-0.3-0.1-0.6-0.1-0.8-0.1c-1.7,0-2.2,1.3-2.2,2.6v5.7h-1.5v-9.7h1.6
			L261.8,88.6z"/>
		<path d="M271.3,91.5c0-2.6-0.8-3.2-2-3.2s-2,0.6-2,3.2c0,3.1,0.4,4.3,2,4.3S271.3,94.6,271.3,91.5 M265.6,92.2
			c0-2.8,0.3-5.2,3.7-5.2s3.7,2.3,3.7,5.2c0,4.3-1.6,4.9-3.7,4.9S265.6,96.4,265.6,92.2"/>
		<path d="M277,96.8h-1.6v-9.7h1.6V96.8z M275.4,83h1.8v1.7h-1.8V83z"/>
		<path d="M280,87.2v-1.9l1.6-0.7v2.6h2.1v1.2h-2.1v5.9c0,0.6,0,1.4,1.4,1.4c0.1,0,0.4,0,0.7-0.1v1.2c-0.5,0-1,0.2-1.5,0.2
			c-1.5,0-2.2-0.6-2.2-1.7v-6.9h-1.6v-1.2H280z"/>
		<path d="M288,97c-2.1,0-3.4-0.9-3.3-3.1h1.8c0,0.6,0,1.9,1.6,1.9c0.8,0.1,1.5-0.5,1.7-1.3c0-0.1,0-0.1,0-0.2
			c0-1.7-4.8-1.8-4.8-4.7c0-1,0.6-2.6,3.3-2.6c1.7,0,3.2,0.8,3.1,2.7h-1.7c0.1-0.7-0.4-1.4-1.2-1.5c-0.1,0-0.3,0-0.4,0
			c-0.7-0.1-1.4,0.4-1.5,1.1c0,0.1,0,0.1,0,0.2c0,1.7,4.8,1.7,4.8,4.6C291.3,96.2,289.9,97.1,288,97"/>
		<path d="M300.2,88.3c-1.7,0-1.9,1.3-1.9,3.9c0,1.4,0,3.6,2,3.6c1.8,0,1.8-2.2,1.8-4.1C302.1,90.3,302,88.3,300.2,88.3 M302,83h1.6
			v13.8H302v-1.1l0,0c-0.4,0.8-1.3,1.4-2.3,1.3c-1.5,0-3.1-0.6-3.1-4.9c0-2.4,0.1-5.2,3.2-5.2c0.9,0,1.7,0.4,2.1,1.2h0.1L302,83z"/>
		<path d="M311.1,91.3c0-2.8-0.8-3.2-1.9-3.2c-1,0-1.8,0.5-1.8,3.2H311.1z M307.4,92.5c0,2.7,0.7,3.2,2,3.2c1-0.1,1.7-0.9,1.6-1.8
			c0,0,0,0,0,0h1.7c0,2.2-1.3,3.1-3.4,3.1s-3.7-0.6-3.7-4.9c0-2.8,0.3-5.2,3.7-5.2c2.8,0,3.5,1.5,3.5,4.7v0.8L307.4,92.5z"/>
		<rect x="317.9" y="83" width="1.6" height="13.8"/>
		<path d="M323.4,94c0,0.9,0.5,1.8,1.5,1.8s2.1-0.6,2-3.7C325.4,92.1,323.4,91.9,323.4,94 M326.9,95.5L326.9,95.5
			c-0.4,1-1.4,1.7-2.5,1.5c-2,0-2.6-1.3-2.6-3.2c0-2.9,2.9-3.1,5.1-3c0-1.3,0.1-2.7-1.6-2.7c-0.8-0.1-1.5,0.5-1.5,1.3
			c0,0.1,0,0.3,0,0.4H322c0.1-2.2,1.2-2.9,3.3-2.9c2.5,0,3.1,1.3,3.1,2.9v4.7c0,0.8,0.1,1.5,0.2,2.3h-1.7L326.9,95.5z"/>
		<path d="M339.8,91.8c0-1.4,0-3.6-2-3.6s-1.8,2.7-1.8,4.2c0,1.3,0.1,3.3,1.8,3.3S339.8,94.4,339.8,91.8 M336.1,88.3L336.1,88.3
			c0.4-0.9,1.3-1.4,2.3-1.3c1.5,0,3.1,0.6,3.1,4.9c0,2.4-0.1,5.2-3.2,5.2c-0.9,0-1.7-0.4-2.1-1.2h-0.1v4.6h-1.6V87.2h1.6L336.1,88.3
			z"/>
		<path d="M348.9,91.3c0-2.8-0.8-3.2-1.9-3.2s-1.8,0.5-1.9,3.2H348.9z M345.1,92.5c0,2.7,0.7,3.2,2,3.2c1,0,1.7-0.8,1.7-1.8
			c0,0,0,0,0-0.1h1.7c0,2.2-1.3,3.1-3.4,3.1s-3.7-0.6-3.7-4.9c0-2.8,0.3-5.2,3.7-5.2c2.8,0,3.5,1.5,3.5,4.7v0.8L345.1,92.5z"/>
		<path d="M354.5,88.6L354.5,88.6c0.6-1.5,1.5-1.7,3-1.7v1.6c-0.3-0.1-0.6-0.1-0.8-0.1c-1.8,0-2.2,1.3-2.2,2.6v5.7H353v-9.7h1.6
			L354.5,88.6z"/>
		<path d="M361.9,97c-2.1,0-3.4-0.9-3.3-3.1h1.8c0,0.6,0,1.9,1.6,1.9c0.8,0.1,1.5-0.5,1.7-1.3c0-0.1,0-0.1,0-0.2
			c0-1.7-4.8-1.8-4.8-4.7c0-1,0.6-2.6,3.3-2.6c1.7,0,3.2,0.8,3.1,2.7h-1.8c0.1-0.7-0.4-1.4-1.2-1.5c-0.1,0-0.2,0-0.3,0
			c-0.7-0.1-1.4,0.4-1.5,1.1c0,0.1,0,0.1,0,0.2c0,1.7,4.8,1.7,4.8,4.6C365.3,96.2,363.9,97.1,361.9,97"/>
		<path d="M372.7,91.5c0-2.6-0.8-3.2-2-3.2s-2,0.6-2,3.2c0,3.1,0.4,4.3,2,4.3S372.7,94.6,372.7,91.5 M367,92.2
			c0-2.8,0.3-5.2,3.7-5.2s3.7,2.3,3.7,5.2c0,4.3-1.6,4.9-3.7,4.9S367,96.4,367,92.2"/>
		<path d="M381.8,96.8v-6.7c0-1-0.4-1.9-1.7-1.9c-1.7,0-2,1.5-2,2.8v5.7h-1.6v-7.7c0-0.7,0-1.3-0.1-2h1.7v1.2h0.1
			c0.5-1,1.5-1.6,2.6-1.4c2.1,0,2.6,1.2,2.6,3.2v6.7L381.8,96.8z"/>
		<path d="M390.7,96.8v-6.7c0-1-0.4-1.9-1.7-1.9c-1.7,0-2,1.5-2,2.8v5.7h-1.6v-7.7c0-0.7,0-1.3-0.1-2h1.7v1.2h0.1
			c0.5-1,1.5-1.6,2.6-1.4c2.1,0,2.6,1.2,2.6,3.2v6.7L390.7,96.8z"/>
		<path d="M399.6,91.3c0-2.8-0.8-3.2-1.9-3.2c-1,0-1.8,0.5-1.8,3.2H399.6z M395.9,92.5c0,2.7,0.7,3.2,2,3.2c1,0,1.7-0.8,1.7-1.8
			c0,0,0,0,0-0.1h1.7c0,2.2-1.4,3.1-3.4,3.1s-3.7-0.6-3.7-4.9c0-2.8,0.3-5.2,3.7-5.2c2.8,0,3.5,1.5,3.5,4.7v0.8L395.9,92.5z"/>
		<rect x="227.5" y="42.8" width="1.1" height="56.2"/>
		<polygon points="57.9,75.2 28.9,45.6 26,62.2 		"/>
		<polygon points="0.6,85.4 42.2,117.5 73.8,85.4 		"/>
		<polygon points="71.2,82.6 0,53.6 7,76.1 		"/>
		<polygon points="34,128.4 76.2,122.3 76.2,121.6 76.2,85.6 		"/>
		<polygon points="76.2,38.2 76.2,0 65.3,31 		"/>
		<polygon points="45,20 51.6,66.2 62.2,76.9 62.2,76.9 76.2,82.6 76.2,65.1 76.2,40.5 		"/>
		<polygon points="6.4,77.9 0.3,83.5 61.9,83.5 		"/>
	</g>
</g>
</svg>
