<?xml version="1.0" encoding="UTF-8"?><svg id="Layer_2" xmlns="http://www.w3.org/2000/svg" viewBox="0 0 401.3 136.49">
	<g id="Layer_1-2">
		<rect x=".35" width="400.95" height="7.92" fill="#fd9755" />
		<g id="Layer_2-2">
			<g id="Layer_1-2">
				<path
					d="M112.57,66.28c.09-.69-.05-1.39-.4-2-.43-.38-.98-.59-1.56-.59-.84-.09-1.66,.33-2.08,1.07-.06,.15-.41,.5-.41,2.87v3.7c0,3.39,1.11,3.79,2.47,3.79,.54,0,2.17-.19,2.19-2.89h1.82c.07,4.36-3,4.36-3.91,4.36-1.72,0-4.37-.11-4.37-5.47v-3.92c0-3.91,1.73-5,4.45-5s3.79,1.42,3.62,4.1l-1.82-.02Z" />
				<path
					d="M118.49,73.42c0,.94,.46,1.79,1.51,1.79s2.15-.6,2-3.72c-1.49,0-3.5-.11-3.5,1.93m3.5,1.48h0c-.35,1.02-1.35,1.68-2.43,1.59-2,0-2.64-1.32-2.64-3.18,0-2.93,2.87-3.06,5.07-3,0-1.28,.06-2.68-1.63-2.68-.79-.06-1.48,.54-1.54,1.34,0,.13,0,.26,.03,.39h-1.7c.07-2.17,1.22-2.92,3.27-2.92,2.49,0,3.14,1.29,3.14,2.92v4.65c0,.77,.07,1.54,.2,2.3h-1.77v-1.41Z" />
				<path
					d="M131.52,76.3v-6.71c0-1-.36-1.87-1.71-1.87-1.72,0-2,1.53-2,2.85v5.73h-1.57v-7.66c0-.67,0-1.34-.09-2h1.66v1.24h.08c.47-.98,1.51-1.56,2.59-1.44,2.06,0,2.58,1.25,2.58,3.16v6.71h-1.54Z" />
				<path
					d="M137.08,73.42c0,.94,.46,1.79,1.51,1.79s2.15-.6,2-3.72c-1.49,0-3.5-.11-3.5,1.93m3.54,1.48h0c-.35,1.02-1.35,1.68-2.43,1.59-2.05,0-2.64-1.32-2.64-3.18,0-2.93,2.87-3.06,5.07-3,0-1.28,.06-2.68-1.62-2.68-.79-.06-1.49,.53-1.55,1.33-.01,.14,0,.27,.03,.4h-1.7c.07-2.17,1.22-2.92,3.27-2.92,2.49,0,3.14,1.29,3.14,2.92v4.65c0,.77,.07,1.54,.2,2.3h-1.73l-.04-1.41Z" />
				<path
					d="M148.31,67.72c-1.69,0-1.92,1.34-1.92,3.93,0,1.45,0,3.56,2,3.56,1.76,0,1.76-2.18,1.76-4.14,0-1.28-.08-3.35-1.82-3.35m1.82-5.25h1.57v13.83h-1.57v-1.15h0c-.41,.84-1.28,1.37-2.22,1.34-1.55,0-3.12-.61-3.12-4.87,0-2.41,.07-5.18,3.19-5.18,.86-.01,1.67,.43,2.13,1.16h.06l-.04-5.13Z" />
				<path d="M156.22,76.3h-1.57v-9.67h1.57v9.67Zm-1.67-13.83h1.77v1.69h-1.77v-1.69Z" />
				<path
					d="M160.47,73.42c0,.94,.46,1.79,1.52,1.79s2.14-.6,2-3.72c-1.5,0-3.51-.11-3.51,1.93m3.52,1.48h0c-.35,1.02-1.35,1.68-2.43,1.59-2.05,0-2.65-1.32-2.65-3.18,0-2.93,2.88-3.06,5.08-3,0-1.28,.06-2.68-1.63-2.68-.79-.06-1.48,.53-1.54,1.31-.01,.14,0,.28,.03,.42h-1.71c.08-2.17,1.23-2.92,3.28-2.92,2.49,0,3.14,1.29,3.14,2.92v4.65c0,.77,.07,1.54,.19,2.3h-1.76v-1.41Z" />
				<path
					d="M174,76.3v-6.71c0-1-.36-1.87-1.71-1.87-1.72,0-2,1.53-2,2.85v5.73h-1.57v-7.66c0-.67,0-1.34-.09-2h1.66v1.24h.08c.47-.98,1.5-1.56,2.58-1.44,2.07,0,2.59,1.25,2.59,3.16v6.71h-1.54Z" />
				<path
					d="M111.55,97.08v-6.52c0-1.19-.38-2-1.72-2-1.57,0-2,1.26-2,2.89v5.63h-1.57v-13.8h1.57v5.4h.07c.48-1,1.54-1.57,2.63-1.43,1.64,0,2.56,.82,2.56,3v6.83h-1.54Z" />
				<path
					d="M120.7,87.44h1.57v7.64c0,.67,.03,1.33,.09,2h-1.66v-1.14h-.06c-.51,.86-1.45,1.38-2.45,1.36-1.69,0-2.61-.84-2.61-2.49v-7.37h1.57v6.7c0,1.17,.54,2,1.65,2,1.1-.05,1.96-.98,1.91-2.08,0-.05,0-.1-.01-.16v-6.46Z" />
				<path
					d="M130,97.08v-6.7c0-1-.27-1.88-1.53-1.88-.53,.01-1.02,.25-1.36,.65-.24,.43-.37,.92-.37,1.42v6.51h-1.57v-7.63c0-.67-.03-1.33-.09-2h1.66v1.21h0c.41-.95,1.39-1.52,2.42-1.4,.93-.07,1.82,.42,2.26,1.24,.43-.85,1.34-1.34,2.29-1.24,1,0,2.65,.23,2.65,2.51v7.31h-1.57v-6.7c0-1-.27-1.88-1.54-1.88-.43-.07-.86,.07-1.18,.36-.38,.49-.57,1.09-.54,1.71v6.51h-1.53Z" />
				<path
					d="M140.56,94.24c0,.94,.46,1.78,1.52,1.78s2.14-.6,2-3.72c-1.5,0-3.51-.11-3.51,1.94m3.55,1.47h0c-.35,1.02-1.35,1.68-2.43,1.59-2,0-2.65-1.32-2.65-3.18,0-2.93,2.88-3.06,5.08-3,0-1.29,.06-2.69-1.63-2.69-.79-.06-1.48,.53-1.54,1.31-.01,.14,0,.28,.03,.42h-1.71c.08-2.17,1.23-2.91,3.28-2.91,2.49,0,3.14,1.28,3.14,2.91v4.65c0,.77,.07,1.54,.19,2.3h-1.72l-.04-1.4Z" />
				<path
					d="M153.9,97.08v-6.7c0-1-.37-1.88-1.71-1.88-1.72,0-2,1.53-2,2.85v5.73h-1.57v-7.63c0-.67,0-1.34-.1-2h1.67v1.23h.08c.47-.98,1.5-1.55,2.58-1.43,2.07,0,2.59,1.24,2.59,3.16v6.67h-1.54Z" />
				<path
					d="M164.3,88.89h0c.65-1.47,1.45-1.64,3-1.64v1.62c-.28-.04-.57-.07-.85-.09-1.74,0-2.18,1.32-2.18,2.62v5.68h-1.57v-9.64h1.57l.03,1.45Z" />
				<path d="M170.68,97.08h-1.57v-9.64h1.57v9.64Zm-1.68-13.8h1.77v1.69h-1.77v-1.69Z" />
				<path
					d="M176.77,88.55c-1.78,0-1.84,2.15-1.84,3.43,0,3.1,.71,3.83,1.88,3.83,1.9,0,1.84-2.24,1.84-3.58s.09-3.68-1.88-3.68m1.84-1.11h1.57v10.64c0,2.16-1.44,2.68-3.56,2.68-1.61,0-3.07-.81-2.93-2.59h1.76c-.03,.74,.55,1.37,1.29,1.4,.06,0,.12,0,.18,0,.85,.08,1.61-.55,1.69-1.4,0-.09,0-.18,0-.27v-2h-.06c-.44,.75-1.25,1.2-2.12,1.18-2.63,0-3.14-2.26-3.14-5.13,0-4.45,2.24-4.73,3-4.73,.97-.06,1.87,.49,2.26,1.38h0l.06-1.16Z" />
				<path
					d="M188.42,97.08v-6.52c0-1.19-.38-2-1.73-2-1.57,0-2,1.26-2,2.89v5.63h-1.57v-13.8h1.57v5.4h.08c.47-.99,1.53-1.57,2.62-1.43,1.65,0,2.57,.82,2.57,3v6.83h-1.54Z" />
				<path
					d="M193,87.44v-1.86l1.57-.71v2.57h2.11v1.19h-2.11v5.91c0,.62,0,1.4,1.43,1.4,.12,0,.37,0,.71-.07v1.21c-.52,0-1,.16-1.55,.16-1.49,0-2.16-.62-2.16-1.73v-6.88h-1.59v-1.19h1.59Z" />
				<path
					d="M201.58,97.3c-2.09,0-3.39-.92-3.34-3.14h1.76c0,.56,0,1.86,1.61,1.86,.8,.11,1.55-.45,1.66-1.26,.01-.07,.01-.15,.01-.22,0-1.72-4.83-1.76-4.83-4.65,0-1,.61-2.64,3.33-2.64,1.73,0,3.2,.82,3.07,2.74h-1.75c.12-.74-.39-1.44-1.13-1.55-.12-.02-.25-.02-.38,0-.72-.09-1.39,.42-1.48,1.14,0,.06-.01,.11-.01,.17,0,1.7,4.83,1.66,4.83,4.61,0,2.13-1.46,3-3.37,3" />
				<path
					d="M111.36,111.35c0-1.59-.75-2-1.34-2-1.21,0-2,.58-2,3.22,0,3.14,.4,4.27,2,4.27,.36,0,1.46-.38,1.4-2.13h1.65c.18,1.68-1.04,3.18-2.71,3.35-.12,.01-.24,.02-.36,.02-2,0-3.68-.61-3.68-4.88,0-2.83,.33-5.17,3.68-5.17,1.93,0,3.06,1.13,3,3.29l-1.64,.03Z" />
				<path
					d="M120.81,112.56c0-2.64-.82-3.22-2-3.22s-2,.58-2,3.22c0,3.14,.4,4.27,2,4.27s2-1.13,2-4.27m-5.71,.67c0-2.83,.33-5.17,3.68-5.17s3.68,2.34,3.68,5.17c0,4.27-1.63,4.88-3.68,4.88s-3.68-.61-3.68-4.88" />
				<path
					d="M129.65,117.92v-6.7c0-1-.27-1.88-1.54-1.88-.53,.01-1.02,.25-1.36,.65-.24,.44-.36,.92-.36,1.42v6.51h-1.57v-7.66c0-.67,0-1.34-.09-2h1.66v1.21h0c.4-.95,1.39-1.52,2.41-1.4,.93-.07,1.82,.42,2.26,1.24,.45-.86,1.38-1.34,2.34-1.23,1,0,2.64,.23,2.64,2.51v7.35h-1.57v-6.7c0-1-.27-1.88-1.53-1.88-.43-.07-.87,.07-1.19,.37-.38,.48-.57,1.09-.53,1.7v6.51l-1.57-.02Z" />
				<path
					d="M143.27,117.92v-6.7c0-1-.27-1.88-1.53-1.88-.53,.01-1.02,.25-1.36,.65-.24,.43-.37,.92-.36,1.42v6.51h-1.58v-7.66c0-.67-.03-1.33-.09-2h1.65v1.21h0c.41-.95,1.39-1.52,2.42-1.4,.93-.07,1.82,.42,2.26,1.24,.44-.85,1.37-1.35,2.32-1.23,1,0,2.65,.23,2.65,2.51v7.35h-1.55v-6.7c0-1-.27-1.88-1.54-1.88-.43-.07-.87,.07-1.18,.37-.38,.48-.57,1.09-.54,1.7v6.51l-1.57-.02Z" />
				<path d="M154,117.92h-1.57v-9.67h1.57v9.67Zm-1.69-13.84h1.77v1.7h-1.77v-1.7Z" />
				<path
					d="M159.65,118.08c-2.09,0-3.39-.92-3.33-3.14h1.78c0,.56,0,1.86,1.61,1.86,.8,.11,1.54-.45,1.65-1.25,.01-.08,.02-.16,.01-.23,0-1.72-4.82-1.76-4.82-4.65,0-1,.61-2.64,3.33-2.64,1.72,0,3.2,.82,3.06,2.74h-1.74c.11-.74-.4-1.43-1.15-1.55-.12-.02-.24-.02-.36,0-.73-.09-1.4,.42-1.49,1.15,0,.05-.01,.1-.01,.15,0,1.7,4.83,1.66,4.83,4.61,0,2.13-1.46,3-3.37,3" />
				<path
					d="M168.25,118.08c-2.09,0-3.39-.92-3.33-3.14h1.78c0,.56,0,1.86,1.61,1.86,.8,.13,1.54-.42,1.67-1.21,.01-.08,.02-.16,.02-.24,0-1.72-4.82-1.76-4.82-4.65,0-1,.61-2.64,3.33-2.64,1.72,0,3.2,.82,3.06,2.74h-1.77c.12-.74-.39-1.43-1.12-1.54-.13-.02-.26-.02-.39,0-.73-.09-1.4,.42-1.49,1.15,0,.05-.01,.1-.01,.15,0,1.7,4.83,1.66,4.83,4.61,0,2.13-1.45,3-3.37,3" />
				<path d="M175.53,117.92h-1.53v-9.67h1.57l-.04,9.67Zm-1.67-13.84h1.76v1.7h-1.76v-1.7Z" />
				<path
					d="M183.79,112.56c0-2.64-.83-3.22-2-3.22s-2,.58-2,3.22c0,3.14,.4,4.27,2,4.27s2-1.13,2-4.27m-5.71,.67c0-2.83,.32-5.17,3.68-5.17s3.67,2.34,3.67,5.17c0,4.27-1.62,4.88-3.67,4.88s-3.68-.61-3.68-4.88" />
				<path
					d="M193.27,117.92v-6.7c0-1-.36-1.88-1.7-1.88-1.73,0-2,1.53-2,2.85v5.73h-1.57v-7.66c0-.67,0-1.34-.1-2h1.67v1.25h.08c.47-.99,1.52-1.56,2.6-1.43,2.07,0,2.59,1.24,2.59,3.16v6.7l-1.57-.02Z" />
				<path
					d="M257.18,66.28c.09-.69-.05-1.4-.4-2-.43-.38-.98-.59-1.55-.59-.85-.09-1.66,.33-2.09,1.07-.06,.15-.4,.5-.4,2.87v3.7c0,3.39,1.11,3.79,2.47,3.79,.53,0,2.16-.19,2.18-2.89h1.82c.08,4.36-3,4.36-3.91,4.36-1.72,0-4.36-.11-4.36-5.47v-3.92c0-3.91,1.72-5,4.44-5s3.8,1.42,3.62,4.1l-1.82-.02Z" />
				<path
					d="M267.11,70.93c0-2.64-.83-3.21-2-3.21s-2,.57-2,3.21c0,3.15,.4,4.28,2,4.28s2-1.13,2-4.28m-5.71,.67c0-2.83,.32-5.16,3.68-5.16s3.68,2.33,3.68,5.16c0,4.28-1.63,4.89-3.68,4.89s-3.68-.61-3.68-4.89" />
				<path
					d="M276.09,76.3v-6.71c0-1-.27-1.87-1.53-1.87-.53,.01-1.02,.25-1.36,.65-.24,.43-.36,.92-.36,1.41v6.52h-1.57v-7.66c0-.67,0-1.34-.1-2h1.67v1.2h0c.41-.95,1.39-1.52,2.42-1.4,.93-.06,1.82,.43,2.26,1.25,.44-.85,1.35-1.35,2.3-1.25,1,0,2.64,.23,2.64,2.51v7.36h-1.57v-6.72c0-1-.27-1.87-1.53-1.87-.43-.07-.87,.06-1.19,.36-.38,.48-.57,1.09-.54,1.7v6.52h-1.54Z" />
				<path
					d="M289.4,76.3v-6.71c0-1-.26-1.87-1.53-1.87-.53,.01-1.02,.25-1.36,.65-.24,.43-.36,.92-.36,1.41v6.52h-1.57v-7.66c0-.67,0-1.34-.1-2h1.67v1.2h0c.4-.95,1.39-1.52,2.41-1.4,.93-.07,1.82,.42,2.26,1.25,.44-.85,1.35-1.34,2.3-1.25,1,0,2.64,.23,2.64,2.51v7.36h-1.57v-6.72c0-1-.27-1.87-1.53-1.87-.43-.07-.87,.06-1.19,.36-.38,.48-.57,1.09-.54,1.7v6.52h-1.53Z" />
				<path d="M299.73,76.3h-1.57v-9.67h1.57v9.67Zm-1.67-13.83h1.77v1.69h-1.77v-1.69Z" />
				<path
					d="M305.4,76.49c-2.09,0-3.39-.92-3.33-3.14h1.78c0,.56,0,1.86,1.61,1.86,.8,.11,1.54-.45,1.65-1.25,.01-.08,.02-.16,.01-.23,0-1.72-4.82-1.76-4.82-4.65,0-1,.61-2.65,3.33-2.65,1.72,0,3.2,.83,3.06,2.74h-1.69c.11-.74-.4-1.43-1.15-1.55-.12-.02-.24-.02-.36,0-.73-.09-1.4,.42-1.49,1.15,0,.05-.01,.1-.01,.15,0,1.71,4.83,1.67,4.83,4.62,0,2.13-1.46,2.95-3.37,2.95" />
				<path
					d="M314,76.49c-2.09,0-3.39-.92-3.33-3.14h1.78c0,.56,0,1.86,1.61,1.86,.8,.11,1.54-.45,1.65-1.25,.01-.08,.02-.16,.01-.23,0-1.72-4.82-1.76-4.82-4.65,0-1,.61-2.65,3.33-2.65,1.72,0,3.2,.83,3.06,2.74h-1.74c.11-.74-.4-1.44-1.14-1.55-.14-.02-.27-.02-.41,0-.72-.09-1.39,.42-1.48,1.14,0,.05-.01,.11-.01,.16,0,1.71,4.82,1.67,4.82,4.62,0,2.13-1.45,2.95-3.37,2.95" />
				<path d="M321.28,76.3h-1.57v-9.67h1.57v9.67Zm-1.67-13.83h1.77v1.69h-1.77v-1.69Z" />
				<path
					d="M329.53,70.93c0-2.64-.82-3.21-2-3.21s-2,.57-2,3.21c0,3.15,.4,4.28,2,4.28s2-1.13,2-4.28m-5.7,.67c0-2.83,.32-5.16,3.68-5.16s3.67,2.33,3.67,5.16c0,4.28-1.63,4.89-3.67,4.89s-3.68-.61-3.68-4.89" />
				<path
					d="M339,76.3v-6.71c0-1-.36-1.87-1.71-1.87-1.72,0-2,1.53-2,2.85v5.73h-1.57v-7.66c0-.67,0-1.34-.09-2h1.66v1.24h.08c.47-1,1.53-1.59,2.63-1.45,2.06,0,2.58,1.25,2.58,3.16v6.71h-1.58Z" />
				<path
					d="M256,90.54c0-1.59-.75-2-1.34-2-1.21,0-2,.57-2,3.22,0,3.14,.4,4.27,2,4.27,.36,0,1.45-.38,1.39-2.13h1.65c.23,1.64-.92,3.16-2.56,3.38-.15,.02-.29,.03-.44,.03-2,0-3.68-.61-3.68-4.88,0-2.84,.32-5.17,3.68-5.17,1.93,0,3.06,1.13,3,3.29h-1.7Z" />
				<path
					d="M261.73,94.24c0,.94,.46,1.78,1.51,1.78s2.14-.6,2-3.72c-1.49,0-3.5-.11-3.5,1.94m3.54,1.47h0c-.35,1.02-1.35,1.68-2.43,1.59-2.05,0-2.64-1.32-2.64-3.18,0-2.93,2.87-3.06,5.07-3,0-1.29,.06-2.69-1.63-2.69-.79-.06-1.48,.53-1.54,1.31-.01,.14,0,.28,.03,.42h-1.7c.07-2.17,1.22-2.91,3.27-2.91,2.49,0,3.14,1.28,3.14,2.91v4.65c0,.76,.05,1.52,.15,2.27h-1.72v-1.37Z" />
				<path
					d="M274.83,97.08v-6.7c0-1-.36-1.88-1.7-1.88-1.73,0-2,1.53-2,2.85v5.73h-1.57v-7.63c0-.67,0-1.34-.09-2h1.66v1.23h.08c.47-.98,1.5-1.55,2.58-1.43,2.07,0,2.59,1.24,2.59,3.16v6.67h-1.55Z" />
				<path
					d="M279.93,94.24c0,.94,.46,1.78,1.51,1.78s2.14-.6,2-3.72c-1.49,0-3.5-.11-3.5,1.94m3.54,1.47h0c-.35,1.04-1.38,1.7-2.48,1.59-2.05,0-2.64-1.32-2.64-3.18,0-2.93,2.87-3.06,5.07-3,0-1.29,.06-2.69-1.63-2.69-.79-.06-1.48,.53-1.54,1.31-.01,.14,0,.28,.03,.42h-1.7c.07-2.17,1.22-2.91,3.27-2.91,2.49,0,3.14,1.28,3.14,2.91v4.65c0,.77,.07,1.54,.2,2.3h-1.73v-1.4Z" />
				<path
					d="M291,88.53c-1.69,0-1.92,1.34-1.92,3.93,0,1.45,0,3.56,2,3.56,1.76,0,1.76-2.18,1.76-4.14,0-1.28-.07-3.35-1.81-3.35m1.81-5.25h1.57v13.8h-1.57v-1.12h0c-.41,.85-1.28,1.37-2.22,1.34-1.55,0-3.12-.61-3.12-4.86,0-2.42,.08-5.19,3.2-5.19,.86-.01,1.67,.43,2.13,1.16h.05l-.04-5.13Z" />
				<path d="M298.92,97.08h-1.57v-9.64h1.57v9.64Zm-1.67-13.8h1.75v1.69h-1.76v-1.69Z" />
				<path
					d="M307,91.59c0-2.81-.79-3.16-1.94-3.16-1,0-1.82,.48-1.83,3.16h3.77Zm-3.77,1.19c0,2.7,.72,3.24,2,3.24,.96-.03,1.72-.83,1.69-1.79,0-.02,0-.04,0-.05h1.72c0,2.15-1.34,3.12-3.37,3.12s-3.68-.61-3.68-4.88c0-2.84,.32-5.17,3.68-5.17,2.75,0,3.44,1.51,3.44,4.71v.82h-5.48Z" />
				<path
					d="M316.27,97.08v-6.7c0-1-.36-1.88-1.7-1.88-1.73,0-2,1.53-2,2.85v5.73h-1.57v-7.63c0-.67-.03-1.33-.09-2h1.66v1.23h.08c.47-.98,1.51-1.55,2.59-1.43,2.07,0,2.58,1.24,2.58,3.16v6.67h-1.55Z" />
				<path
					d="M325.18,97.08v-6.7c0-1-.36-1.88-1.7-1.88-1.73,0-2,1.53-2,2.85v5.73h-1.57v-7.63c0-.67,0-1.34-.09-2h1.66v1.23h.08c.47-.98,1.5-1.55,2.58-1.43,2.07,0,2.59,1.24,2.59,3.16v6.67h-1.55Z" />
				<path
					d="M334.15,91.59c0-2.81-.79-3.16-1.94-3.16-1,0-1.82,.48-1.84,3.16h3.78Zm-3.78,1.19c0,2.7,.73,3.24,2,3.24,.95-.05,1.68-.87,1.63-1.82,0,0,0-.01,0-.02h1.73c0,2.15-1.35,3.12-3.38,3.12s-3.67-.61-3.67-4.88c0-2.84,.32-5.17,3.67-5.17,2.76,0,3.45,1.51,3.45,4.71v.82h-5.43Z" />
				<path
					d="M346.16,88.53c-1.69,0-1.92,1.34-1.92,3.93,0,1.45,0,3.56,2,3.56,1.77,0,1.77-2.18,1.77-4.14,0-1.28-.08-3.35-1.82-3.35m1.81-5.25h1.57v13.8h-1.57v-1.12h0c-.41,.84-1.28,1.37-2.22,1.34-1.55,0-3.12-.61-3.12-4.86,0-2.42,.07-5.19,3.19-5.19,.86-.01,1.67,.43,2.13,1.16h.02v-5.13Z" />
				<path
					d="M357.46,91.59c0-2.81-.78-3.16-1.93-3.16-1,0-1.82,.48-1.84,3.16h3.77Zm-3.77,1.19c0,2.7,.72,3.24,1.95,3.24,.96-.03,1.72-.83,1.69-1.79,0-.02,0-.04,0-.05h1.72c0,2.15-1.34,3.12-3.37,3.12s-3.68-.61-3.68-4.88c0-2.84,.33-5.17,3.68-5.17,2.76,0,3.45,1.51,3.45,4.71v.82h-5.44Z" />
				<path
					d="M364.3,97.3c-2.09,0-3.39-.92-3.33-3.14h1.78c0,.56,0,1.86,1.61,1.86,.8,.1,1.53-.47,1.63-1.27,0-.07,.01-.14,.01-.21,0-1.72-4.82-1.76-4.82-4.65,0-1,.61-2.64,3.33-2.64,1.72,0,3.2,.82,3.06,2.74h-1.74c.12-.74-.39-1.44-1.13-1.55-.12-.02-.25-.02-.38,0-.73-.09-1.4,.42-1.49,1.15,0,.05-.01,.11-.01,.16,0,1.7,4.83,1.66,4.83,4.61,0,2.13-1.46,3-3.37,3" />
				<path
					d="M254.21,109.34c-1.68,0-1.91,1.34-1.91,3.93,0,1.45,0,3.56,2,3.56,1.76,0,1.76-2.18,1.76-4.14,0-1.28-.07-3.35-1.82-3.35m1.76-5.26h1.57v13.84h-1.57v-1.15h0c-.43,.83-1.3,1.34-2.23,1.31-1.55,0-3.12-.61-3.12-4.86,0-2.41,.08-5.19,3.2-5.19,.88-.02,1.7,.44,2.15,1.2h0v-5.15Z" />
				<path
					d="M261.77,109.71h0c.65-1.48,1.45-1.65,3-1.65v1.63c-.28-.05-.56-.09-.84-.1-1.74,0-2.18,1.32-2.18,2.63v5.7h-1.55v-9.67h1.57v1.46Z" />
				<path
					d="M271.29,112.56c0-2.64-.83-3.22-2-3.22s-2,.58-2,3.22c0,3.14,.4,4.27,2,4.27s2-1.13,2-4.27m-5.71,.67c0-2.83,.32-5.17,3.68-5.17s3.67,2.34,3.67,5.17c0,4.27-1.62,4.88-3.67,4.88s-3.68-.61-3.68-4.88" />
				<path d="M277.05,117.92h-1.57v-9.67h1.57v9.67Zm-1.66-13.84h1.76v1.7h-1.76v-1.7Z" />
				<path
					d="M280,108.25v-1.86l1.57-.71v2.57h2.11v1.19h-2.11v5.92c0,.61,0,1.39,1.44,1.39,.11,0,.36,0,.71-.07v1.2c-.52,0-1,.16-1.55,.16-1.5,0-2.17-.62-2.17-1.73v-6.87h-1.59v-1.19h1.59Z" />
				<path
					d="M288,118.08c-2.09,0-3.39-.92-3.34-3.14h1.79c0,.56,0,1.86,1.6,1.86,.8,.11,1.55-.45,1.66-1.26,.01-.07,.01-.15,.01-.22,0-1.72-4.83-1.76-4.83-4.65,0-1,.62-2.64,3.34-2.64,1.72,0,3.19,.82,3.06,2.74h-1.74c.1-.74-.43-1.43-1.17-1.52-.13-.02-.25-.01-.38,0-.72-.09-1.39,.42-1.48,1.14,0,.05-.01,.11-.01,.16,0,1.7,4.82,1.66,4.82,4.61,0,2.13-1.45,3-3.36,3" />
				<path
					d="M300.23,109.34c-1.69,0-1.92,1.34-1.92,3.93,0,1.45,0,3.56,2,3.56,1.77,0,1.77-2.18,1.77-4.14,0-1.28-.08-3.35-1.82-3.35m1.79-5.26h1.56v13.84h-1.56v-1.15h0c-.43,.85-1.32,1.36-2.27,1.31-1.54,0-3.11-.61-3.11-4.86,0-2.41,.07-5.19,3.19-5.19,.88,0,1.69,.45,2.14,1.2h.06v-5.15Z" />
				<path
					d="M311.15,112.41c0-2.82-.79-3.16-1.94-3.16-1,0-1.82,.47-1.84,3.16h3.78Zm-3.78,1.18c0,2.7,.73,3.24,2,3.24,.95-.05,1.68-.87,1.63-1.82,0,0,0-.01,0-.02h1.73c0,2.15-1.34,3.12-3.38,3.12s-3.67-.61-3.67-4.88c0-2.83,.32-5.17,3.67-5.17,2.76,0,3.45,1.51,3.45,4.71v.82h-5.43Z" />
				<rect x="317.91" y="104.09" width="1.57" height="13.83" />
				<path
					d="M323.35,115.08c0,.94,.46,1.78,1.51,1.78s2.15-.59,2-3.71c-1.49,0-3.5-.12-3.5,1.93m3.54,1.47h0c-.38,1.02-1.4,1.65-2.48,1.53-2.05,0-2.64-1.32-2.64-3.18,0-2.93,2.87-3.06,5.07-3,0-1.28,.06-2.68-1.62-2.68-.79-.07-1.48,.52-1.55,1.3-.01,.14,0,.28,.03,.42h-1.71c.08-2.16,1.23-2.91,3.27-2.91,2.49,0,3.15,1.28,3.15,2.91v4.66c0,.77,.07,1.53,.19,2.29h-1.73l.02-1.34Z" />
				<path
					d="M339.84,112.92c0-1.45,0-3.58-2-3.58s-1.76,2.68-1.76,4.16c0,1.28,.07,3.33,1.82,3.33s1.91-1.32,1.91-3.91m-3.73-3.52h0c.43-.86,1.33-1.38,2.29-1.32,1.55,0,3.12,.61,3.12,4.86,0,2.42-.08,5.19-3.2,5.19-.86,.01-1.67-.43-2.12-1.16h-.06v4.63h-1.57v-13.35h1.57l-.03,1.15Z" />
				<path
					d="M348.93,112.41c0-2.82-.79-3.16-1.93-3.16s-1.82,.47-1.85,3.16h3.78Zm-3.78,1.18c0,2.7,.73,3.24,2,3.24,.96-.03,1.72-.83,1.69-1.79,0-.02,0-.04,0-.05h1.72c0,2.15-1.34,3.12-3.37,3.12s-3.68-.61-3.68-4.88c0-2.83,.33-5.17,3.68-5.17,2.75,0,3.45,1.51,3.45,4.71v.82h-5.49Z" />
				<path
					d="M354.54,109.71h0c.65-1.48,1.46-1.65,3-1.65v1.63c-.28-.05-.56-.09-.84-.1-1.75,0-2.19,1.32-2.19,2.63v5.7h-1.51v-9.67h1.57l-.03,1.46Z" />
				<path
					d="M361.93,118.08c-2.09,0-3.39-.92-3.33-3.14h1.78c0,.56,0,1.86,1.61,1.86,.8,.11,1.55-.45,1.66-1.26,.01-.07,.01-.15,.01-.22,0-1.72-4.83-1.76-4.83-4.65,0-1,.61-2.64,3.33-2.64,1.73,0,3.2,.82,3.07,2.74h-1.75c.09-.75-.44-1.42-1.18-1.52-.1-.01-.2-.01-.3,0-.72-.09-1.39,.42-1.48,1.14,0,.05-.01,.11-.01,.16,0,1.7,4.82,1.66,4.82,4.61,0,2.13-1.45,3-3.37,3" />
				<path
					d="M372.74,112.56c0-2.64-.83-3.22-2-3.22s-2,.58-2,3.22c0,3.14,.4,4.27,2,4.27s2-1.13,2-4.27m-5.71,.67c0-2.83,.32-5.17,3.68-5.17s3.67,2.34,3.67,5.17c0,4.27-1.62,4.88-3.67,4.88s-3.71-.61-3.71-4.88" />
				<path
					d="M381.76,117.92v-6.7c0-1-.36-1.88-1.7-1.88-1.72,0-2,1.53-2,2.85v5.73h-1.56v-7.66c0-.67,0-1.34-.1-2h1.66v1.25h.08c.47-.99,1.52-1.57,2.61-1.43,2.07,0,2.58,1.24,2.58,3.16v6.7l-1.57-.02Z" />
				<path
					d="M390.67,117.92v-6.7c0-1-.36-1.88-1.7-1.88-1.73,0-2,1.53-2,2.85v5.73h-1.57v-7.66c0-.67,0-1.34-.09-2h1.69v1.25h.08c.47-.98,1.5-1.55,2.58-1.43,2.07,0,2.58,1.24,2.58,3.16v6.7l-1.57-.02Z" />
				<path
					d="M399.64,112.41c0-2.82-.79-3.16-1.94-3.16-1,0-1.82,.47-1.84,3.16h3.78Zm-3.78,1.18c0,2.7,.73,3.24,1.95,3.24,.96-.03,1.72-.83,1.69-1.79,0-.02,0-.04,0-.05h1.73c0,2.15-1.35,3.12-3.38,3.12s-3.67-.61-3.67-4.88c0-2.83,.32-5.17,3.67-5.17,2.76,0,3.45,1.51,3.45,4.71v.82h-5.44Z" />
				<rect x="227.5" y="63.87" width="1.1" height="56.18" />
				<polygon points="57.86 83.25 28.92 53.67 25.95 70.25 57.86 83.25" />
				<polygon points=".65 93.47 42.15 125.57 73.82 93.47 .65 93.47" />
				<polygon points="71.25 90.7 0 61.69 7.02 84.18 71.25 90.7" />
				<polygon points="33.98 136.49 76.21 130.38 76.21 129.63 76.21 93.69 33.98 136.49" />
				<polygon points="76.2 46.3 76.19 8.08 65.27 39.13 76.2 46.3" />
				<polygon
					points="45.02 28.04 51.64 74.24 62.17 85 62.17 85 76.21 90.72 76.21 73.14 76.21 48.53 45.02 28.04" />
				<polygon points="6.45 85.99 .35 91.61 61.86 91.61 6.45 85.99" />
			</g>
		</g><text transform="translate(106.26 32.43)" font-family="MyriadPro-Regular, &apos;Myriad Pro&apos;"
			font-size="12">
			<tspan x="0" y="0" letter-spacing=".02em">O</tspan>
			<tspan x="8.46" y="0" letter-spacing="0em">ffi</tspan>
			<tspan x="18.24" y="0" letter-spacing="0em">c</tspan>
			<tspan x="23.54" y="0">e of the </tspan>
			<tspan x="63.92" y="0" letter-spacing="-.03em">F</tspan>
			<tspan x="69.39" y="0" letter-spacing="0em">ede</tspan>
			<tspan x="88.19" y="0" letter-spacing="0em">r</tspan>
			<tspan x="92.05" y="0">al</tspan>
			<tspan x="0" y="14.4">Housing </tspan>
			<tspan x="44.5" y="14.4" letter-spacing="-.01em">A</tspan>
			<tspan x="51.7" y="14.4">d</tspan>
			<tspan x="58.46" y="14.4" letter-spacing="0em">v</tspan>
			<tspan x="64.12" y="14.4">oc</tspan>
			<tspan x="76.08" y="14.4" letter-spacing="0em">a</tspan>
			<tspan x="81.82" y="14.4" letter-spacing="0em">t</tspan>
			<tspan x="85.71" y="14.4">e</tspan>
		</text><text transform="translate(250.65 32.19)" font-family="MyriadPro-Regular, &apos;Myriad Pro&apos;"
			font-size="12">
			<tspan x="0" y="0">Bu</tspan>
			<tspan x="13.12" y="0" letter-spacing="-.01em">r</tspan>
			<tspan x="16.92" y="0">eau du dé</tspan>
			<tspan x="66.58" y="0" letter-spacing="-.01em">f</tspan>
			<tspan x="69.92" y="0" letter-spacing="0em">enseur</tspan>
			<tspan x="0" y="14.4" letter-spacing="-.01em">f</tspan>
			<tspan x="3.35" y="14.4" letter-spacing="0em">édé</tspan>
			<tspan x="22.14" y="14.4" letter-spacing="0em">r</tspan>
			<tspan x="26" y="14.4">al du logeme</tspan>
			<tspan x="91.25" y="14.4" letter-spacing="0em">n</tspan>
			<tspan x="97.86" y="14.4">t</tspan>
		</text>
	</g>
</svg>