<?xml version="1.0" encoding="UTF-8"?>
<svg id="Layer_2" xmlns="http://www.w3.org/2000/svg" version="1.1" viewBox="0 0 401.3 136.5">
  <!-- Generator: Adobe Illustrator 29.2.0, SVG Export Plug-In . SVG Version: 2.1.0 Build 108)  -->
  <defs>
    <style>
      .st0, .st1, .st2 {
        isolation: isolate;
      }

      .st0, .st3, .st2, .st4 {
        fill: #fff;
      }

      .st0, .st2, .st4 {
        font-family: ArialMT, Arial;
        font-size: 12px;
      }

      .st5 {
        fill: #fd9755;
      }

      .st2 {
        letter-spacing: 0em;
      }
    </style>
  </defs>
  <rect class="st5" x=".3" width="401" height="7.9"/>
  <g id="Layer_1-2">
    <path class="st3" d="M112.6,66.3c0-.7,0-1.4-.4-2-.4-.4-1-.6-1.6-.6-.8,0-1.7.3-2.1,1.1,0,.2-.4.5-.4,2.9v3.7c0,3.4,1.1,3.8,2.5,3.8s2.2-.2,2.2-2.9h1.8c0,4.4-3,4.4-3.9,4.4-1.7,0-4.4-.1-4.4-5.5v-3.9c0-3.9,1.7-5,4.4-5s3.8,1.4,3.6,4.1c0,0-1.8,0-1.8,0Z"/>
    <path class="st3" d="M118.5,73.4c0,.9.5,1.8,1.5,1.8s2.2-.6,2-3.7c-1.5,0-3.5-.1-3.5,1.9M122,74.9h0c-.3,1-1.3,1.7-2.4,1.6-2,0-2.6-1.3-2.6-3.2,0-2.9,2.9-3.1,5.1-3,0-1.3,0-2.7-1.6-2.7-.8,0-1.5.5-1.5,1.3,0,.1,0,.3,0,.4h-1.7c0-2.2,1.2-2.9,3.3-2.9s3.1,1.3,3.1,2.9v4.7c0,.8,0,1.5.2,2.3h-1.8s0-1.4,0-1.4Z"/>
    <path class="st3" d="M131.5,76.3v-6.7c0-1-.4-1.9-1.7-1.9s-2,1.5-2,2.8v5.7h-1.6v-7.7c0-.7,0-1.3,0-2h1.7v1.2h0c.5-1,1.5-1.6,2.6-1.4,2.1,0,2.6,1.2,2.6,3.2v6.7h-1.5Z"/>
    <path class="st3" d="M137.1,73.4c0,.9.5,1.8,1.5,1.8s2.1-.6,2-3.7c-1.5,0-3.5-.1-3.5,1.9M140.6,74.9h0c-.4,1-1.4,1.7-2.4,1.6-2.1,0-2.6-1.3-2.6-3.2,0-2.9,2.9-3.1,5.1-3,0-1.3,0-2.7-1.6-2.7-.8,0-1.5.5-1.6,1.3,0,.1,0,.3,0,.4h-1.7c0-2.2,1.2-2.9,3.3-2.9s3.1,1.3,3.1,2.9v4.7c0,.8,0,1.5.2,2.3h-1.7v-1.4h0Z"/>
    <path class="st3" d="M148.3,67.7c-1.7,0-1.9,1.3-1.9,3.9s0,3.6,2,3.6,1.8-2.2,1.8-4.1,0-3.3-1.8-3.3M150.1,62.5h1.6v13.8h-1.6v-1.2h0c-.4.8-1.3,1.4-2.2,1.3-1.6,0-3.1-.6-3.1-4.9s0-5.2,3.2-5.2c.9,0,1.7.4,2.1,1.2h0v-5.1s0,0,0,0Z"/>
    <path class="st3" d="M156.2,76.3h-1.6v-9.7h1.6v9.7ZM154.6,62.5h1.8v1.7h-1.8v-1.7Z"/>
    <path class="st3" d="M160.5,73.4c0,.9.5,1.8,1.5,1.8s2.1-.6,2-3.7c-1.5,0-3.5-.1-3.5,1.9M164,74.9h0c-.4,1-1.4,1.7-2.4,1.6-2.1,0-2.6-1.3-2.6-3.2,0-2.9,2.9-3.1,5.1-3,0-1.3,0-2.7-1.6-2.7-.8,0-1.5.5-1.5,1.3,0,.1,0,.3,0,.4h-1.7c0-2.2,1.2-2.9,3.3-2.9s3.1,1.3,3.1,2.9v4.7c0,.8,0,1.5.2,2.3h-1.8v-1.4h0Z"/>
    <path class="st3" d="M174,76.3v-6.7c0-1-.4-1.9-1.7-1.9s-2,1.5-2,2.8v5.7h-1.6v-7.7c0-.7,0-1.3,0-2h1.7v1.2h0c.5-1,1.5-1.6,2.6-1.4,2.1,0,2.6,1.2,2.6,3.2v6.7h-1.5Z"/>
    <path class="st3" d="M111.6,97.1v-6.5c0-1.2-.4-2-1.7-2s-2,1.3-2,2.9v5.6h-1.6v-13.8h1.6v5.4h0c.5-1,1.5-1.6,2.6-1.4,1.6,0,2.6.8,2.6,3v6.8s-1.5,0-1.5,0Z"/>
    <path class="st3" d="M120.7,87.4h1.6v7.6c0,.7,0,1.3,0,2h-1.7v-1.1h0c-.5.9-1.4,1.4-2.4,1.4-1.7,0-2.6-.8-2.6-2.5v-7.4h1.6v6.7c0,1.2.5,2,1.7,2,1.1,0,2-1,1.9-2.1,0,0,0,0,0-.2,0,0,0-6.5,0-6.5Z"/>
    <path class="st3" d="M130,97.1v-6.7c0-1-.3-1.9-1.5-1.9-.5,0-1,.2-1.4.7-.2.4-.4.9-.4,1.4v6.5h-1.6v-7.6c0-.7,0-1.3,0-2h1.7v1.2h0c.4-.9,1.4-1.5,2.4-1.4.9,0,1.8.4,2.3,1.2.4-.8,1.3-1.3,2.3-1.2,1,0,2.6.2,2.6,2.5v7.3h-1.6v-6.7c0-1-.3-1.9-1.5-1.9-.4,0-.9,0-1.2.4-.4.5-.6,1.1-.5,1.7v6.5h-1.5Z"/>
    <path class="st3" d="M140.6,94.2c0,.9.5,1.8,1.5,1.8s2.1-.6,2-3.7c-1.5,0-3.5-.1-3.5,1.9M144.1,95.7h0c-.4,1-1.4,1.7-2.4,1.6-2,0-2.6-1.3-2.6-3.2,0-2.9,2.9-3.1,5.1-3,0-1.3,0-2.7-1.6-2.7-.8,0-1.5.5-1.5,1.3,0,.1,0,.3,0,.4h-1.7c0-2.2,1.2-2.9,3.3-2.9s3.1,1.3,3.1,2.9v4.7c0,.8,0,1.5.2,2.3h-1.7v-1.4s0,0,0,0Z"/>
    <path class="st3" d="M153.9,97.1v-6.7c0-1-.4-1.9-1.7-1.9s-2,1.5-2,2.8v5.7h-1.6v-7.6c0-.7,0-1.3-.1-2h1.7v1.2h0c.5-1,1.5-1.6,2.6-1.4,2.1,0,2.6,1.2,2.6,3.2v6.7h-1.5,0Z"/>
    <path class="st3" d="M164.3,88.9h0c.6-1.5,1.4-1.6,3-1.6v1.6c-.3,0-.6,0-.9,0-1.7,0-2.2,1.3-2.2,2.6v5.7h-1.6v-9.6h1.6s0,1.4,0,1.4Z"/>
    <path class="st3" d="M170.7,97.1h-1.6v-9.6h1.6v9.6ZM169,83.3h1.8v1.7h-1.8v-1.7Z"/>
    <path class="st3" d="M176.8,88.6c-1.8,0-1.8,2.2-1.8,3.4,0,3.1.7,3.8,1.9,3.8,1.9,0,1.8-2.2,1.8-3.6s0-3.7-1.9-3.7M178.6,87.4h1.6v10.6c0,2.2-1.4,2.7-3.6,2.7s-3.1-.8-2.9-2.6h1.8c0,.7.6,1.4,1.3,1.4h.2c.9,0,1.6-.6,1.7-1.4v-2.3h0c-.4.8-1.2,1.2-2.1,1.2-2.6,0-3.1-2.3-3.1-5.1,0-4.4,2.2-4.7,3-4.7,1,0,1.9.5,2.3,1.4h0v-1.2Z"/>
    <path class="st3" d="M188.4,97.1v-6.5c0-1.2-.4-2-1.7-2s-2,1.3-2,2.9v5.6h-1.6v-13.8h1.6v5.4h0c.5-1,1.5-1.6,2.6-1.4,1.6,0,2.6.8,2.6,3v6.8h-1.5Z"/>
    <path class="st3" d="M193,87.4v-1.9l1.6-.7v2.6h2.1v1.2h-2.1v5.9c0,.6,0,1.4,1.4,1.4s.4,0,.7,0v1.2c-.5,0-1,.2-1.6.2-1.5,0-2.2-.6-2.2-1.7v-6.9h-1.6v-1.2s1.6,0,1.6,0Z"/>
    <path class="st3" d="M201.6,97.3c-2.1,0-3.4-.9-3.3-3.1h1.8c0,.6,0,1.9,1.6,1.9.8.1,1.6-.4,1.7-1.3,0,0,0-.2,0-.2,0-1.7-4.8-1.8-4.8-4.7s.6-2.6,3.3-2.6,3.2.8,3.1,2.7h-1.8c.1-.7-.4-1.4-1.1-1.6-.1,0-.2,0-.4,0-.7,0-1.4.4-1.5,1.1,0,0,0,.1,0,.2,0,1.7,4.8,1.7,4.8,4.6s-1.5,3-3.4,3"/>
    <path class="st3" d="M111.4,111.3c0-1.6-.8-2-1.3-2-1.2,0-2,.6-2,3.2s.4,4.3,2,4.3,1.5-.4,1.4-2.1h1.7c.2,1.7-1,3.2-2.7,3.3-.1,0-.2,0-.4,0-2,0-3.7-.6-3.7-4.9s.3-5.2,3.7-5.2,3.1,1.1,3,3.3c0,0-1.6,0-1.6,0Z"/>
    <path class="st3" d="M120.8,112.6c0-2.6-.8-3.2-2-3.2s-2,.6-2,3.2.4,4.3,2,4.3,2-1.1,2-4.3M115.1,113.2c0-2.8.3-5.2,3.7-5.2s3.7,2.3,3.7,5.2c0,4.3-1.6,4.9-3.7,4.9s-3.7-.6-3.7-4.9"/>
    <path class="st3" d="M129.6,117.9v-6.7c0-1-.3-1.9-1.5-1.9-.5,0-1,.2-1.4.7-.2.4-.4.9-.4,1.4v6.5h-1.6v-7.7c0-.7,0-1.3,0-2h1.7v1.2h0c.4-.9,1.4-1.5,2.4-1.4.9,0,1.8.4,2.3,1.2.4-.9,1.4-1.3,2.3-1.2,1,0,2.6.2,2.6,2.5v7.3h-1.6v-6.7c0-1-.3-1.9-1.5-1.9-.4,0-.9,0-1.2.4-.4.5-.6,1.1-.5,1.7v6.5h-1.6s0,0,0,0Z"/>
    <path class="st3" d="M143.3,117.9v-6.7c0-1-.3-1.9-1.5-1.9-.5,0-1,.2-1.4.7-.2.4-.4.9-.4,1.4v6.5h-1.6v-7.7c0-.7,0-1.3,0-2h1.6v1.2h0c.4-.9,1.4-1.5,2.4-1.4.9,0,1.8.4,2.3,1.2.4-.8,1.4-1.3,2.3-1.2,1,0,2.6.2,2.6,2.5v7.3h-1.6v-6.7c0-1-.3-1.9-1.5-1.9-.4,0-.9,0-1.2.4-.4.5-.6,1.1-.5,1.7v6.5h-1.6Z"/>
    <path class="st3" d="M154,117.9h-1.6v-9.7h1.6v9.7ZM152.3,104.1h1.8v1.7h-1.8v-1.7Z"/>
    <path class="st3" d="M159.6,118.1c-2.1,0-3.4-.9-3.3-3.1h1.8c0,.6,0,1.9,1.6,1.9.8.1,1.5-.4,1.6-1.2,0,0,0-.2,0-.2,0-1.7-4.8-1.8-4.8-4.7s.6-2.6,3.3-2.6,3.2.8,3.1,2.7h-1.7c.1-.7-.4-1.4-1.1-1.6-.1,0-.2,0-.4,0-.7,0-1.4.4-1.5,1.2,0,0,0,0,0,.2,0,1.7,4.8,1.7,4.8,4.6s-1.5,3-3.4,3"/>
    <path class="st3" d="M168.2,118.1c-2.1,0-3.4-.9-3.3-3.1h1.8c0,.6,0,1.9,1.6,1.9.8.1,1.5-.4,1.7-1.2,0,0,0-.2,0-.2,0-1.7-4.8-1.8-4.8-4.7s.6-2.6,3.3-2.6,3.2.8,3.1,2.7h-1.8c.1-.7-.4-1.4-1.1-1.5-.1,0-.3,0-.4,0-.7,0-1.4.4-1.5,1.2,0,0,0,0,0,.2,0,1.7,4.8,1.7,4.8,4.6s-1.4,3-3.4,3"/>
    <path class="st3" d="M175.5,117.9h-1.5v-9.7h1.6v9.7h0ZM173.9,104.1h1.8v1.7h-1.8v-1.7Z"/>
    <path class="st3" d="M183.8,112.6c0-2.6-.8-3.2-2-3.2s-2,.6-2,3.2.4,4.3,2,4.3,2-1.1,2-4.3M178.1,113.2c0-2.8.3-5.2,3.7-5.2s3.7,2.3,3.7,5.2c0,4.3-1.6,4.9-3.7,4.9s-3.7-.6-3.7-4.9"/>
    <path class="st3" d="M193.3,117.9v-6.7c0-1-.4-1.9-1.7-1.9s-2,1.5-2,2.8v5.7h-1.6v-7.7c0-.7,0-1.3-.1-2h1.7v1.2h0c.5-1,1.5-1.6,2.6-1.4,2.1,0,2.6,1.2,2.6,3.2v6.7h-1.6s0,0,0,0Z"/>
    <path class="st3" d="M257.2,66.3c0-.7,0-1.4-.4-2-.4-.4-1-.6-1.6-.6-.9,0-1.7.3-2.1,1.1,0,.2-.4.5-.4,2.9v3.7c0,3.4,1.1,3.8,2.5,3.8s2.2-.2,2.2-2.9h1.8c0,4.4-3,4.4-3.9,4.4-1.7,0-4.4-.1-4.4-5.5v-3.9c0-3.9,1.7-5,4.4-5s3.8,1.4,3.6,4.1h-1.8s0,0,0,0Z"/>
    <path class="st3" d="M267.1,70.9c0-2.6-.8-3.2-2-3.2s-2,.6-2,3.2.4,4.3,2,4.3,2-1.1,2-4.3M261.4,71.6c0-2.8.3-5.2,3.7-5.2s3.7,2.3,3.7,5.2c0,4.3-1.6,4.9-3.7,4.9s-3.7-.6-3.7-4.9"/>
    <path class="st3" d="M276.1,76.3v-6.7c0-1-.3-1.9-1.5-1.9-.5,0-1,.2-1.4.7-.2.4-.4.9-.4,1.4v6.5h-1.6v-7.7c0-.7,0-1.3-.1-2h1.7v1.2h0c.4-.9,1.4-1.5,2.4-1.4.9,0,1.8.4,2.3,1.2.4-.8,1.4-1.3,2.3-1.2,1,0,2.6.2,2.6,2.5v7.4h-1.6v-6.7c0-1-.3-1.9-1.5-1.9-.4,0-.9,0-1.2.4-.4.5-.6,1.1-.5,1.7v6.5h-1.5Z"/>
    <path class="st3" d="M289.4,76.3v-6.7c0-1-.3-1.9-1.5-1.9-.5,0-1,.2-1.4.7-.2.4-.4.9-.4,1.4v6.5h-1.6v-7.7c0-.7,0-1.3-.1-2h1.7v1.2h0c.4-.9,1.4-1.5,2.4-1.4.9,0,1.8.4,2.3,1.2.4-.8,1.4-1.3,2.3-1.2,1,0,2.6.2,2.6,2.5v7.4h-1.6v-6.7c0-1-.3-1.9-1.5-1.9-.4,0-.9,0-1.2.4-.4.5-.6,1.1-.5,1.7v6.5h-1.5Z"/>
    <path class="st3" d="M299.7,76.3h-1.6v-9.7h1.6v9.7ZM298.1,62.5h1.8v1.7h-1.8v-1.7Z"/>
    <path class="st3" d="M305.4,76.5c-2.1,0-3.4-.9-3.3-3.1h1.8c0,.6,0,1.9,1.6,1.9.8.1,1.5-.4,1.6-1.2,0,0,0-.2,0-.2,0-1.7-4.8-1.8-4.8-4.7s.6-2.7,3.3-2.7,3.2.8,3.1,2.7h-1.7c.1-.7-.4-1.4-1.1-1.6-.1,0-.2,0-.4,0-.7,0-1.4.4-1.5,1.2,0,0,0,0,0,.2,0,1.7,4.8,1.7,4.8,4.6s-1.5,2.9-3.4,2.9"/>
    <path class="st3" d="M314,76.5c-2.1,0-3.4-.9-3.3-3.1h1.8c0,.6,0,1.9,1.6,1.9.8.1,1.5-.4,1.6-1.2,0,0,0-.2,0-.2,0-1.7-4.8-1.8-4.8-4.7s.6-2.7,3.3-2.7,3.2.8,3.1,2.7h-1.7c.1-.7-.4-1.4-1.1-1.6-.1,0-.3,0-.4,0-.7,0-1.4.4-1.5,1.1,0,0,0,.1,0,.2,0,1.7,4.8,1.7,4.8,4.6s-1.5,2.9-3.4,2.9"/>
    <path class="st3" d="M321.3,76.3h-1.6v-9.7h1.6v9.7ZM319.6,62.5h1.8v1.7h-1.8v-1.7Z"/>
    <path class="st3" d="M329.5,70.9c0-2.6-.8-3.2-2-3.2s-2,.6-2,3.2.4,4.3,2,4.3,2-1.1,2-4.3M323.8,71.6c0-2.8.3-5.2,3.7-5.2s3.7,2.3,3.7,5.2c0,4.3-1.6,4.9-3.7,4.9s-3.7-.6-3.7-4.9"/>
    <path class="st3" d="M339,76.3v-6.7c0-1-.4-1.9-1.7-1.9s-2,1.5-2,2.8v5.7h-1.6v-7.7c0-.7,0-1.3,0-2h1.7v1.2h0c.5-1,1.5-1.6,2.6-1.4,2.1,0,2.6,1.2,2.6,3.2v6.7h-1.6Z"/>
    <path class="st3" d="M256,90.5c0-1.6-.8-2-1.3-2-1.2,0-2,.6-2,3.2s.4,4.3,2,4.3,1.5-.4,1.4-2.1h1.6c.2,1.6-.9,3.2-2.6,3.4-.1,0-.3,0-.4,0-2,0-3.7-.6-3.7-4.9s.3-5.2,3.7-5.2,3.1,1.1,3,3.3h-1.7Z"/>
    <path class="st3" d="M261.7,94.2c0,.9.5,1.8,1.5,1.8s2.1-.6,2-3.7c-1.5,0-3.5-.1-3.5,1.9M265.3,95.7h0c-.4,1-1.4,1.7-2.4,1.6-2,0-2.6-1.3-2.6-3.2,0-2.9,2.9-3.1,5.1-3,0-1.3,0-2.7-1.6-2.7-.8,0-1.5.5-1.5,1.3,0,.1,0,.3,0,.4h-1.7c0-2.2,1.2-2.9,3.3-2.9s3.1,1.3,3.1,2.9v4.7c0,.8,0,1.5.1,2.3h-1.7v-1.4h0Z"/>
    <path class="st3" d="M274.8,97.1v-6.7c0-1-.4-1.9-1.7-1.9s-2,1.5-2,2.8v5.7h-1.6v-7.6c0-.7,0-1.3,0-2h1.7v1.2h0c.5-1,1.5-1.6,2.6-1.4,2.1,0,2.6,1.2,2.6,3.2v6.7h-1.5,0Z"/>
    <path class="st3" d="M279.9,94.2c0,.9.5,1.8,1.5,1.8s2.1-.6,2-3.7c-1.5,0-3.5-.1-3.5,1.9M283.5,95.7h0c-.4,1-1.4,1.7-2.5,1.6-2,0-2.6-1.3-2.6-3.2,0-2.9,2.9-3.1,5.1-3,0-1.3,0-2.7-1.6-2.7-.8,0-1.5.5-1.5,1.3,0,.1,0,.3,0,.4h-1.7c0-2.2,1.2-2.9,3.3-2.9s3.1,1.3,3.1,2.9v4.7c0,.8,0,1.5.2,2.3h-1.7v-1.4h0Z"/>
    <path class="st3" d="M291,88.5c-1.7,0-1.9,1.3-1.9,3.9s0,3.6,2,3.6,1.8-2.2,1.8-4.1,0-3.3-1.8-3.3M292.8,83.3h1.6v13.8h-1.6v-1.1h0c-.4.8-1.3,1.4-2.2,1.3-1.5,0-3.1-.6-3.1-4.9s0-5.2,3.2-5.2c.9,0,1.7.4,2.1,1.2h0v-5.1Z"/>
    <path class="st3" d="M298.9,97.1h-1.6v-9.6h1.6v9.6ZM297.2,83.3h1.8v1.7h-1.8v-1.7h0Z"/>
    <path class="st3" d="M307,91.6c0-2.8-.8-3.2-1.9-3.2s-1.8.5-1.8,3.2h3.8ZM303.2,92.8c0,2.7.7,3.2,2,3.2,1,0,1.7-.8,1.7-1.8h0c0,0,1.7,0,1.7,0,0,2.2-1.3,3.1-3.4,3.1s-3.7-.6-3.7-4.9.3-5.2,3.7-5.2,3.4,1.5,3.4,4.7v.8h-5.5Z"/>
    <path class="st3" d="M316.3,97.1v-6.7c0-1-.4-1.9-1.7-1.9s-2,1.5-2,2.8v5.7h-1.6v-7.6c0-.7,0-1.3,0-2h1.7v1.2h0c.5-1,1.5-1.6,2.6-1.4,2.1,0,2.6,1.2,2.6,3.2v6.7h-1.5,0Z"/>
    <path class="st3" d="M325.2,97.1v-6.7c0-1-.4-1.9-1.7-1.9s-2,1.5-2,2.8v5.7h-1.6v-7.6c0-.7,0-1.3,0-2h1.7v1.2h0c.5-1,1.5-1.6,2.6-1.4,2.1,0,2.6,1.2,2.6,3.2v6.7h-1.5,0Z"/>
    <path class="st3" d="M334.1,91.6c0-2.8-.8-3.2-1.9-3.2s-1.8.5-1.8,3.2h3.8ZM330.4,92.8c0,2.7.7,3.2,2,3.2,1,0,1.7-.9,1.6-1.8h0s1.7,0,1.7,0c0,2.2-1.4,3.1-3.4,3.1s-3.7-.6-3.7-4.9.3-5.2,3.7-5.2,3.5,1.5,3.5,4.7v.8h-5.4Z"/>
    <path class="st3" d="M346.2,88.5c-1.7,0-1.9,1.3-1.9,3.9s0,3.6,2,3.6,1.8-2.2,1.8-4.1,0-3.3-1.8-3.3M348,83.3h1.6v13.8h-1.6v-1.1h0c-.4.8-1.3,1.4-2.2,1.3-1.5,0-3.1-.6-3.1-4.9s0-5.2,3.2-5.2c.9,0,1.7.4,2.1,1.2h0v-5.1Z"/>
    <path class="st3" d="M357.5,91.6c0-2.8-.8-3.2-1.9-3.2s-1.8.5-1.8,3.2h3.8ZM353.7,92.8c0,2.7.7,3.2,2,3.2,1,0,1.7-.8,1.7-1.8h0c0,0,1.7,0,1.7,0,0,2.2-1.3,3.1-3.4,3.1s-3.7-.6-3.7-4.9.3-5.2,3.7-5.2,3.5,1.5,3.5,4.7v.8h-5.4Z"/>
    <path class="st3" d="M364.3,97.3c-2.1,0-3.4-.9-3.3-3.1h1.8c0,.6,0,1.9,1.6,1.9.8,0,1.5-.5,1.6-1.3,0,0,0-.1,0-.2,0-1.7-4.8-1.8-4.8-4.7s.6-2.6,3.3-2.6,3.2.8,3.1,2.7h-1.7c.1-.7-.4-1.4-1.1-1.6-.1,0-.2,0-.4,0-.7,0-1.4.4-1.5,1.2,0,0,0,.1,0,.2,0,1.7,4.8,1.7,4.8,4.6s-1.5,3-3.4,3"/>
    <path class="st3" d="M254.2,109.3c-1.7,0-1.9,1.3-1.9,3.9s0,3.6,2,3.6,1.8-2.2,1.8-4.1,0-3.3-1.8-3.3M256,104.1h1.6v13.8h-1.6v-1.2h0c-.4.8-1.3,1.3-2.2,1.3-1.6,0-3.1-.6-3.1-4.9s0-5.2,3.2-5.2c.9,0,1.7.4,2.1,1.2h0v-5.2h0Z"/>
    <path class="st3" d="M261.8,109.7h0c.6-1.5,1.5-1.7,3-1.7v1.6c-.3,0-.6,0-.8,0-1.7,0-2.2,1.3-2.2,2.6v5.7h-1.5v-9.7h1.6v1.5h0Z"/>
    <path class="st3" d="M271.3,112.6c0-2.6-.8-3.2-2-3.2s-2,.6-2,3.2.4,4.3,2,4.3,2-1.1,2-4.3M265.6,113.2c0-2.8.3-5.2,3.7-5.2s3.7,2.3,3.7,5.2c0,4.3-1.6,4.9-3.7,4.9s-3.7-.6-3.7-4.9"/>
    <path class="st3" d="M277,117.9h-1.6v-9.7h1.6v9.7ZM275.4,104.1h1.8v1.7h-1.8v-1.7Z"/>
    <path class="st3" d="M280,108.2v-1.9l1.6-.7v2.6h2.1v1.2h-2.1v5.9c0,.6,0,1.4,1.4,1.4s.4,0,.7,0v1.2c-.5,0-1,.2-1.5.2-1.5,0-2.2-.6-2.2-1.7v-6.9h-1.6v-1.2s1.6,0,1.6,0Z"/>
    <path class="st3" d="M288,118.1c-2.1,0-3.4-.9-3.3-3.1h1.8c0,.6,0,1.9,1.6,1.9.8.1,1.5-.4,1.7-1.3,0,0,0-.2,0-.2,0-1.7-4.8-1.8-4.8-4.7s.6-2.6,3.3-2.6,3.2.8,3.1,2.7h-1.7c.1-.7-.4-1.4-1.2-1.5-.1,0-.2,0-.4,0-.7,0-1.4.4-1.5,1.1,0,0,0,.1,0,.2,0,1.7,4.8,1.7,4.8,4.6s-1.5,3-3.4,3"/>
    <path class="st3" d="M300.2,109.3c-1.7,0-1.9,1.3-1.9,3.9s0,3.6,2,3.6,1.8-2.2,1.8-4.1,0-3.3-1.8-3.3M302,104.1h1.6v13.8h-1.6v-1.2h0c-.4.8-1.3,1.4-2.3,1.3-1.5,0-3.1-.6-3.1-4.9s0-5.2,3.2-5.2,1.7.4,2.1,1.2h0v-5.2h0Z"/>
    <path class="st3" d="M311.1,112.4c0-2.8-.8-3.2-1.9-3.2s-1.8.5-1.8,3.2h3.8ZM307.4,113.6c0,2.7.7,3.2,2,3.2,1,0,1.7-.9,1.6-1.8h0s1.7,0,1.7,0c0,2.2-1.3,3.1-3.4,3.1s-3.7-.6-3.7-4.9.3-5.2,3.7-5.2,3.5,1.5,3.5,4.7v.8h-5.4Z"/>
    <rect class="st3" x="317.9" y="104.1" width="1.6" height="13.8"/>
    <path class="st3" d="M323.4,115.1c0,.9.5,1.8,1.5,1.8s2.1-.6,2-3.7c-1.5,0-3.5-.1-3.5,1.9M326.9,116.6h0c-.4,1-1.4,1.7-2.5,1.5-2,0-2.6-1.3-2.6-3.2,0-2.9,2.9-3.1,5.1-3,0-1.3,0-2.7-1.6-2.7-.8,0-1.5.5-1.5,1.3,0,.1,0,.3,0,.4h-1.7c0-2.2,1.2-2.9,3.3-2.9s3.1,1.3,3.1,2.9v4.7c0,.8,0,1.5.2,2.3h-1.7v-1.3s0,0,0,0Z"/>
    <path class="st3" d="M339.8,112.9c0-1.4,0-3.6-2-3.6s-1.8,2.7-1.8,4.2,0,3.3,1.8,3.3,1.9-1.3,1.9-3.9M336.1,109.4h0c.4-.9,1.3-1.4,2.3-1.3,1.5,0,3.1.6,3.1,4.9s0,5.2-3.2,5.2c-.9,0-1.7-.4-2.1-1.2h0v4.6h-1.6v-13.3h1.6v1.2Z"/>
    <path class="st3" d="M348.9,112.4c0-2.8-.8-3.2-1.9-3.2s-1.8.5-1.9,3.2h3.8ZM345.1,113.6c0,2.7.7,3.2,2,3.2,1,0,1.7-.8,1.7-1.8h0c0,0,1.7,0,1.7,0,0,2.2-1.3,3.1-3.4,3.1s-3.7-.6-3.7-4.9.3-5.2,3.7-5.2,3.5,1.5,3.5,4.7v.8h-5.5Z"/>
    <path class="st3" d="M354.5,109.7h0c.6-1.5,1.5-1.7,3-1.7v1.6c-.3,0-.6,0-.8,0-1.8,0-2.2,1.3-2.2,2.6v5.7h-1.5v-9.7h1.6s0,1.5,0,1.5Z"/>
    <path class="st3" d="M361.9,118.1c-2.1,0-3.4-.9-3.3-3.1h1.8c0,.6,0,1.9,1.6,1.9.8.1,1.5-.4,1.7-1.3,0,0,0-.2,0-.2,0-1.7-4.8-1.8-4.8-4.7s.6-2.6,3.3-2.6,3.2.8,3.1,2.7h-1.8c0-.8-.4-1.4-1.2-1.5-.1,0-.2,0-.3,0-.7,0-1.4.4-1.5,1.1,0,0,0,.1,0,.2,0,1.7,4.8,1.7,4.8,4.6s-1.5,3-3.4,3"/>
    <path class="st3" d="M372.7,112.6c0-2.6-.8-3.2-2-3.2s-2,.6-2,3.2.4,4.3,2,4.3,2-1.1,2-4.3M367,113.2c0-2.8.3-5.2,3.7-5.2s3.7,2.3,3.7,5.2c0,4.3-1.6,4.9-3.7,4.9s-3.7-.6-3.7-4.9"/>
    <path class="st3" d="M381.8,117.9v-6.7c0-1-.4-1.9-1.7-1.9s-2,1.5-2,2.8v5.7h-1.6v-7.7c0-.7,0-1.3-.1-2h1.7v1.2h0c.5-1,1.5-1.6,2.6-1.4,2.1,0,2.6,1.2,2.6,3.2v6.7h-1.6s0,0,0,0Z"/>
    <path class="st3" d="M390.7,117.9v-6.7c0-1-.4-1.9-1.7-1.9s-2,1.5-2,2.8v5.7h-1.6v-7.7c0-.7,0-1.3,0-2h1.7v1.2h0c.5-1,1.5-1.6,2.6-1.4,2.1,0,2.6,1.2,2.6,3.2v6.7h-1.6s0,0,0,0Z"/>
    <path class="st3" d="M399.6,112.4c0-2.8-.8-3.2-1.9-3.2s-1.8.5-1.8,3.2h3.8ZM395.9,113.6c0,2.7.7,3.2,2,3.2,1,0,1.7-.8,1.7-1.8h0c0,0,1.7,0,1.7,0,0,2.2-1.4,3.1-3.4,3.1s-3.7-.6-3.7-4.9.3-5.2,3.7-5.2,3.5,1.5,3.5,4.7v.8h-5.4Z"/>
    <rect class="st3" x="227.5" y="63.9" width="1.1" height="56.2"/>
    <polygon class="st3" points="57.9 83.2 28.9 53.7 26 70.2 57.9 83.2"/>
    <polygon class="st3" points=".6 93.5 42.2 125.6 73.8 93.5 .6 93.5"/>
    <polygon class="st3" points="71.2 90.7 0 61.7 7 84.2 71.2 90.7"/>
    <polygon class="st3" points="34 136.5 76.2 130.4 76.2 129.6 76.2 93.7 34 136.5"/>
    <polygon class="st3" points="76.2 46.3 76.2 8.1 65.3 39.1 76.2 46.3"/>
    <polygon class="st3" points="45 28 51.6 74.2 62.2 85 62.2 85 76.2 90.7 76.2 73.1 76.2 48.5 45 28"/>
    <polygon class="st3" points="6.4 86 .3 91.6 61.9 91.6 6.4 86"/>
  </g>
  <g class="st1">
    <text class="st2" transform="translate(106.3 32.4)"><tspan x="0" y="0">O</tspan></text>
    <text class="st4" transform="translate(115.8 32.4)"><tspan x="0" y="0"> </tspan></text>
    <text class="st0" transform="translate(114.7 32.4)"><tspan x="0" y="0">ffi</tspan></text>
    <text class="st4" transform="translate(123.8 32.4)"><tspan x="0" y="0"> </tspan></text>
    <text class="st0" transform="translate(124.5 32.4)"><tspan x="0" y="0">c</tspan></text>
    <text class="st4" transform="translate(130.5 32.4)"><tspan x="0" y="0"> </tspan></text>
    <text class="st0" transform="translate(129.8 32.4)"><tspan x="0" y="0">e of the </tspan></text>
    <text class="st0" transform="translate(170.2 32.4)"><tspan x="0" y="0">F</tspan></text>
    <text class="st4" transform="translate(177.5 32.4)"><tspan x="0" y="0"> </tspan></text>
    <text class="st0" transform="translate(175.7 32.4)"><tspan x="0" y="0">ede</tspan></text>
    <text class="st4" transform="translate(195.7 32.4)"><tspan x="0" y="0"> </tspan></text>
    <text class="st0" transform="translate(194.5 32.4)"><tspan x="0" y="0">r</tspan></text>
    <text class="st4" transform="translate(198.4 32.4)"><tspan x="0" y="0"> </tspan></text>
    <text class="st0" transform="translate(198.3 32.4)"><tspan x="0" y="0">al</tspan></text>
    <text class="st4" transform="translate(207.6 32.4)"><tspan x="0" y="0"> </tspan></text>
    <text class="st0" transform="translate(106.3 46.8)"><tspan x="0" y="0">Housing </tspan></text>
    <text class="st0" transform="translate(150.8 46.8)"><tspan x="0" y="0">A</tspan></text>
    <text class="st4" transform="translate(158.8 46.8)"><tspan x="0" y="0"> </tspan></text>
    <text class="st0" transform="translate(158 46.8)"><tspan x="0" y="0">d</tspan></text>
    <text class="st4" transform="translate(164.6 46.8)"><tspan x="0" y="0"> </tspan></text>
    <text class="st0" transform="translate(164.7 46.8)"><tspan x="0" y="0">v</tspan></text>
    <text class="st4" transform="translate(170.7 46.8)"><tspan x="0" y="0"> </tspan></text>
    <text class="st0" transform="translate(170.4 46.8)"><tspan x="0" y="0">oc</tspan></text>
    <text class="st4" transform="translate(183.1 46.8)"><tspan x="0" y="0"> </tspan></text>
    <text class="st0" transform="translate(182.3 46.8)"><tspan x="0" y="0">a</tspan></text>
    <text class="st4" transform="translate(189 46.8)"><tspan x="0" y="0"> </tspan></text>
    <text class="st0" transform="translate(188.1 46.8)"><tspan x="0" y="0">t</tspan></text>
    <text class="st4" transform="translate(191.4 46.8)"><tspan x="0" y="0"> </tspan></text>
    <text class="st0" transform="translate(192 46.8)"><tspan x="0" y="0">e</tspan></text>
  </g>
  <g class="st1">
    <text class="st0" transform="translate(250.7 32.2)"><tspan x="0" y="0">Bu</tspan></text>
    <text class="st4" transform="translate(265.3 32.2)"><tspan x="0" y="0"> </tspan></text>
    <text class="st0" transform="translate(263.8 32.2)"><tspan x="0" y="0">r</tspan></text>
    <text class="st4" transform="translate(267.8 32.2)"><tspan x="0" y="0"> </tspan></text>
    <text class="st0" transform="translate(267.6 32.2)"><tspan x="0" y="0">eau du dé</tspan></text>
    <text class="st4" transform="translate(321 32.2)"><tspan x="0" y="0"> </tspan></text>
    <text class="st0" transform="translate(317.2 32.2)"><tspan x="0" y="0">f</tspan></text>
    <text class="st4" transform="translate(320.6 32.2)"><tspan x="0" y="0"> </tspan></text>
    <text class="st0" transform="translate(320.6 32.2)"><tspan x="0" y="0">enseur</tspan></text>
    <text class="st4" transform="translate(357.3 32.2)"><tspan x="0" y="0"> </tspan></text>
    <text class="st0" transform="translate(250.7 46.6)"><tspan x="0" y="0">f</tspan></text>
    <text class="st4" transform="translate(254 46.6)"><tspan x="0" y="0"> </tspan></text>
    <text class="st0" transform="translate(254 46.6)"><tspan x="0" y="0">édé</tspan></text>
    <text class="st4" transform="translate(274 46.6)"><tspan x="0" y="0"> </tspan></text>
    <text class="st0" transform="translate(272.8 46.6)"><tspan x="0" y="0">r</tspan></text>
    <text class="st4" transform="translate(276.8 46.6)"><tspan x="0" y="0"> </tspan></text>
    <text class="st0" transform="translate(276.7 46.6)"><tspan x="0" y="0">al du logeme</tspan></text>
    <text class="st4" transform="translate(345.4 46.6)"><tspan x="0" y="0"> </tspan></text>
    <text class="st0" transform="translate(341.9 46.6)"><tspan x="0" y="0">n</tspan></text>
    <text class="st4" transform="translate(348.6 46.6)"><tspan x="0" y="0"> </tspan></text>
    <text class="st0" transform="translate(348.5 46.6)"><tspan x="0" y="0">t</tspan></text>
  </g>
</svg>