<svg width="196"
     height="67"
     viewBox="0 0 196 67"
     fill="none"
     xmlns="http://www.w3.org/2000/svg">
    <path d="M19.8518 45.287C13.0278 57.0741 4.23919 64.6219 0 67C21.0926 58.3148 36.6018 41.5648 43.1157 32.5695C40.9444 34.7408 31.3287 42.1852 19.8518 45.287Z"
          fill="#FBA30B" />
    <path d="M27.2964 16.7501C21.0927 22.3334 11.4769 24.8149 6.20375 25.4352C26.9862 27.6065 38.7732 24.8149 50.8704 20.1621C46.5278 21.4028 34.4304 20.7824 27.2964 16.7501Z"
          fill="#FBA30B" />
    <path d="M28.537 27.2964C21.4027 40.6343 5.24185 45.0217 0.620417 46.5278C35.9815 42.8056 45.9073 28.5371 52.111 20.4723C48.3888 22.0232 38.4629 26.9862 28.537 27.2964Z"
          fill="#B90F00" />
    <path fill-rule="evenodd"
          clip-rule="evenodd"
          d="M18.6112 0C20.7824 3.10192 30.0879 14.2686 48.0786 9.30558C53.1893 8.14407 54.7199 9.98113 55.6325 11.0765C55.9384 11.4437 56.1749 11.7275 56.4536 11.7871C64.576 12.6896 64.5292 14.4674 64.519 14.8567C64.5187 14.8688 64.5184 14.8796 64.5184 14.889C63.3762 14.889 62.3654 14.9547 61.2743 15.0256C59.995 15.1088 58.6053 15.1991 56.7638 15.1991C54.9026 22.9538 19.8517 22.3334 18.6112 0ZM49.9397 11.7871C50.2499 12.0973 53.9721 12.0973 54.2823 11.7871C54.5925 11.4769 52.5453 10.5464 51.8008 10.5464C50.8703 10.5464 49.6296 11.4769 49.9397 11.7871Z"
          fill="#B90F00" />
    <path d="M38.463 40.9445C41.5648 38.1528 42.4954 35.3612 47.4583 28.5371C43.7361 45.9075 42.1852 40.0139 43.4259 58.625C42.1852 57.0741 38.7732 50.8704 38.463 40.9445Z"
          fill="#B90F00" />
    <path d="M58.3148 15.1991C56.4537 15.5093 56.7534 16.24 55.5231 17.0602C54.5926 17.6806 54.9028 14.2686 54.9028 14.2686C54.9028 14.2686 59.6291 14.9801 58.3148 15.1991Z"
          fill="#B90F00" />
    <path d="M73.244 24.119C73.19 24.209 73.13 24.278 73.064 24.326C73.004 24.368 72.929 24.389 72.839 24.389C72.737 24.389 72.617 24.338 72.479 24.236C72.341 24.134 72.167 24.023 71.957 23.903C71.753 23.777 71.504 23.663 71.21 23.561C70.922 23.459 70.571 23.408 70.157 23.408C69.767 23.408 69.422 23.462 69.122 23.57C68.828 23.672 68.579 23.813 68.375 23.993C68.177 24.173 68.027 24.386 67.925 24.632C67.823 24.872 67.772 25.133 67.772 25.415C67.772 25.775 67.859 26.075 68.033 26.315C68.213 26.549 68.447 26.75 68.735 26.918C69.029 27.086 69.359 27.233 69.725 27.359C70.097 27.479 70.475 27.605 70.859 27.737C71.249 27.869 71.627 28.019 71.993 28.187C72.365 28.349 72.695 28.556 72.983 28.808C73.277 29.06 73.511 29.369 73.685 29.735C73.865 30.101 73.955 30.551 73.955 31.085C73.955 31.649 73.859 32.18 73.667 32.678C73.475 33.17 73.193 33.599 72.821 33.965C72.455 34.331 72.002 34.619 71.462 34.829C70.928 35.039 70.319 35.144 69.635 35.144C68.795 35.144 68.033 34.994 67.349 34.694C66.665 34.388 66.08 33.977 65.594 33.461L66.098 32.633C66.146 32.567 66.203 32.513 66.269 32.471C66.341 32.423 66.419 32.399 66.503 32.399C66.581 32.399 66.668 32.432 66.764 32.498C66.866 32.558 66.98 32.636 67.106 32.732C67.232 32.828 67.376 32.933 67.538 33.047C67.7 33.161 67.883 33.266 68.087 33.362C68.297 33.458 68.534 33.539 68.798 33.605C69.062 33.665 69.359 33.695 69.689 33.695C70.103 33.695 70.472 33.638 70.796 33.524C71.12 33.41 71.393 33.251 71.615 33.047C71.843 32.837 72.017 32.588 72.137 32.3C72.257 32.012 72.317 31.691 72.317 31.337C72.317 30.947 72.227 30.629 72.047 30.383C71.873 30.131 71.642 29.921 71.354 29.753C71.066 29.585 70.736 29.444 70.364 29.33C69.992 29.21 69.614 29.09 69.23 28.97C68.846 28.844 68.468 28.7 68.096 28.538C67.724 28.376 67.394 28.166 67.106 27.908C66.818 27.65 66.584 27.329 66.404 26.945C66.23 26.555 66.143 26.075 66.143 25.505C66.143 25.049 66.23 24.608 66.404 24.182C66.584 23.756 66.842 23.378 67.178 23.048C67.52 22.718 67.937 22.454 68.429 22.256C68.927 22.058 69.497 21.959 70.139 21.959C70.859 21.959 71.513 22.073 72.101 22.301C72.695 22.529 73.217 22.859 73.667 23.291L73.244 24.119ZM77.4601 32.804C77.7541 33.2 78.0751 33.479 78.4231 33.641C78.7711 33.803 79.1611 33.884 79.5931 33.884C80.4451 33.884 81.0991 33.581 81.5551 32.975C82.0111 32.369 82.2391 31.505 82.2391 30.383C82.2391 29.789 82.1851 29.279 82.0771 28.853C81.9751 28.427 81.8251 28.079 81.6271 27.809C81.4291 27.533 81.1861 27.332 80.8981 27.206C80.6101 27.08 80.2831 27.017 79.9171 27.017C79.3951 27.017 78.9361 27.137 78.5401 27.377C78.1501 27.617 77.7901 27.956 77.4601 28.394V32.804ZM77.3791 27.296C77.7631 26.822 78.2071 26.441 78.7111 26.153C79.2151 25.865 79.7911 25.721 80.4391 25.721C80.9671 25.721 81.4441 25.823 81.8701 26.027C82.2961 26.225 82.6591 26.522 82.9591 26.918C83.2591 27.308 83.4901 27.794 83.6521 28.376C83.8141 28.958 83.8951 29.627 83.8951 30.383C83.8951 31.055 83.8051 31.682 83.6251 32.264C83.4451 32.84 83.1841 33.341 82.8421 33.767C82.5061 34.187 82.0921 34.52 81.6001 34.766C81.1141 35.006 80.5651 35.126 79.9531 35.126C79.3951 35.126 78.9151 35.033 78.5131 34.847C78.1171 34.655 77.7661 34.391 77.4601 34.055V38.087H75.8491V25.883H76.8121C77.0401 25.883 77.1811 25.994 77.2351 26.216L77.3791 27.296ZM92.0409 29.447C92.0409 29.075 91.9869 28.736 91.8789 28.43C91.7769 28.118 91.6239 27.851 91.4199 27.629C91.2219 27.401 90.9789 27.227 90.6909 27.107C90.4029 26.981 90.0759 26.918 89.7099 26.918C88.9419 26.918 88.3329 27.143 87.8829 27.593C87.4389 28.037 87.1629 28.655 87.0549 29.447H92.0409ZM93.3369 33.722C93.1389 33.962 92.9019 34.172 92.6259 34.352C92.3499 34.526 92.0529 34.67 91.7349 34.784C91.4229 34.898 91.0989 34.982 90.7629 35.036C90.4269 35.096 90.0939 35.126 89.7639 35.126C89.1339 35.126 88.5519 35.021 88.0179 34.811C87.4899 34.595 87.0309 34.283 86.6409 33.875C86.2569 33.461 85.9569 32.951 85.7409 32.345C85.5249 31.739 85.4169 31.043 85.4169 30.257C85.4169 29.621 85.5129 29.027 85.7049 28.475C85.9029 27.923 86.1849 27.446 86.5509 27.044C86.9169 26.636 87.3639 26.318 87.8919 26.09C88.4199 25.856 89.0139 25.739 89.6739 25.739C90.2199 25.739 90.7239 25.832 91.1859 26.018C91.6539 26.198 92.0559 26.462 92.3919 26.81C92.7339 27.152 93.0009 27.578 93.1929 28.088C93.3849 28.592 93.4809 29.168 93.4809 29.816C93.4809 30.068 93.4539 30.236 93.3999 30.32C93.3459 30.404 93.2439 30.446 93.0939 30.446H87.0009C87.0189 31.022 87.0969 31.523 87.2349 31.949C87.3789 32.375 87.5769 32.732 87.8289 33.02C88.0809 33.302 88.3809 33.515 88.7289 33.659C89.0769 33.797 89.4669 33.866 89.8989 33.866C90.3009 33.866 90.6459 33.821 90.9339 33.731C91.2279 33.635 91.4799 33.533 91.6899 33.425C91.8999 33.317 92.0739 33.218 92.2119 33.128C92.3559 33.032 92.4789 32.984 92.5809 32.984C92.7129 32.984 92.8149 33.035 92.8869 33.137L93.3369 33.722ZM101.794 27.503C101.746 27.569 101.698 27.62 101.65 27.656C101.602 27.692 101.536 27.71 101.452 27.71C101.362 27.71 101.263 27.674 101.155 27.602C101.047 27.524 100.912 27.44 100.75 27.35C100.594 27.26 100.399 27.179 100.165 27.107C99.9367 27.029 99.6547 26.99 99.3187 26.99C98.8687 26.99 98.4727 27.071 98.1307 27.233C97.7887 27.389 97.5007 27.617 97.2667 27.917C97.0387 28.217 96.8647 28.58 96.7447 29.006C96.6307 29.432 96.5737 29.909 96.5737 30.437C96.5737 30.989 96.6367 31.481 96.7627 31.913C96.8887 32.339 97.0657 32.699 97.2937 32.993C97.5277 33.281 97.8067 33.503 98.1307 33.659C98.4607 33.809 98.8297 33.884 99.2377 33.884C99.6277 33.884 99.9487 33.839 100.201 33.749C100.453 33.653 100.66 33.548 100.822 33.434C100.99 33.32 101.128 33.218 101.236 33.128C101.35 33.032 101.461 32.984 101.569 32.984C101.701 32.984 101.803 33.035 101.875 33.137L102.325 33.722C102.127 33.968 101.902 34.178 101.65 34.352C101.398 34.526 101.125 34.673 100.831 34.793C100.543 34.907 100.24 34.991 99.9217 35.045C99.6037 35.099 99.2797 35.126 98.9497 35.126C98.3797 35.126 97.8487 35.021 97.3567 34.811C96.8707 34.601 96.4477 34.298 96.0877 33.902C95.7277 33.5 95.4457 33.008 95.2417 32.426C95.0377 31.844 94.9357 31.181 94.9357 30.437C94.9357 29.759 95.0287 29.132 95.2147 28.556C95.4067 27.98 95.6827 27.485 96.0427 27.071C96.4087 26.651 96.8557 26.324 97.3837 26.09C97.9177 25.856 98.5297 25.739 99.2197 25.739C99.8617 25.739 100.426 25.844 100.912 26.054C101.404 26.258 101.839 26.549 102.217 26.927L101.794 27.503ZM105.736 25.883V35H104.134V25.883H105.736ZM106.078 23.021C106.078 23.177 106.045 23.324 105.979 23.462C105.919 23.594 105.835 23.714 105.727 23.822C105.625 23.924 105.502 24.005 105.358 24.065C105.22 24.125 105.073 24.155 104.917 24.155C104.761 24.155 104.614 24.125 104.476 24.065C104.344 24.005 104.227 23.924 104.125 23.822C104.023 23.714 103.942 23.594 103.882 23.462C103.822 23.324 103.792 23.177 103.792 23.021C103.792 22.865 103.822 22.718 103.882 22.58C103.942 22.436 104.023 22.313 104.125 22.211C104.227 22.103 104.344 22.019 104.476 21.959C104.614 21.899 104.761 21.869 104.917 21.869C105.073 21.869 105.22 21.899 105.358 21.959C105.502 22.019 105.625 22.103 105.727 22.211C105.835 22.313 105.919 22.436 105.979 22.58C106.045 22.718 106.078 22.865 106.078 23.021ZM108.981 35V27.251L107.973 27.134C107.841 27.104 107.736 27.059 107.658 26.999C107.58 26.933 107.541 26.84 107.541 26.72V26.063H108.981V25.559C108.981 25.001 109.068 24.491 109.242 24.029C109.416 23.561 109.677 23.159 110.025 22.823C110.373 22.487 110.805 22.226 111.321 22.04C111.843 21.854 112.446 21.761 113.13 21.761C113.358 21.761 113.592 21.776 113.832 21.806C114.072 21.836 114.279 21.881 114.453 21.941L114.39 22.778C114.384 22.838 114.36 22.88 114.318 22.904C114.282 22.928 114.231 22.943 114.165 22.949C114.099 22.955 114.015 22.958 113.913 22.958C113.817 22.952 113.706 22.949 113.58 22.949C112.512 22.949 111.738 23.171 111.258 23.615C110.778 24.053 110.538 24.716 110.538 25.604V26.063H116.046V35H114.435V27.224H110.583V35H108.981ZM125.014 27.503C124.966 27.569 124.918 27.62 124.87 27.656C124.822 27.692 124.756 27.71 124.672 27.71C124.582 27.71 124.483 27.674 124.375 27.602C124.267 27.524 124.132 27.44 123.97 27.35C123.814 27.26 123.619 27.179 123.385 27.107C123.157 27.029 122.875 26.99 122.539 26.99C122.089 26.99 121.693 27.071 121.351 27.233C121.009 27.389 120.721 27.617 120.487 27.917C120.259 28.217 120.085 28.58 119.965 29.006C119.851 29.432 119.794 29.909 119.794 30.437C119.794 30.989 119.857 31.481 119.983 31.913C120.109 32.339 120.286 32.699 120.514 32.993C120.748 33.281 121.027 33.503 121.351 33.659C121.681 33.809 122.05 33.884 122.458 33.884C122.848 33.884 123.169 33.839 123.421 33.749C123.673 33.653 123.88 33.548 124.042 33.434C124.21 33.32 124.348 33.218 124.456 33.128C124.57 33.032 124.681 32.984 124.789 32.984C124.921 32.984 125.023 33.035 125.095 33.137L125.545 33.722C125.347 33.968 125.122 34.178 124.87 34.352C124.618 34.526 124.345 34.673 124.051 34.793C123.763 34.907 123.46 34.991 123.142 35.045C122.824 35.099 122.5 35.126 122.17 35.126C121.6 35.126 121.069 35.021 120.577 34.811C120.091 34.601 119.668 34.298 119.308 33.902C118.948 33.5 118.666 33.008 118.462 32.426C118.258 31.844 118.156 31.181 118.156 30.437C118.156 29.759 118.249 29.132 118.435 28.556C118.627 27.98 118.903 27.485 119.263 27.071C119.629 26.651 120.076 26.324 120.604 26.09C121.138 25.856 121.75 25.739 122.44 25.739C123.082 25.739 123.646 25.844 124.132 26.054C124.624 26.258 125.059 26.549 125.437 26.927L125.014 27.503ZM141.303 32.336C141.399 32.336 141.483 32.375 141.555 32.453L142.248 33.2C141.72 33.812 141.078 34.289 140.322 34.631C139.572 34.973 138.663 35.144 137.595 35.144C136.671 35.144 135.831 34.985 135.075 34.667C134.319 34.343 133.674 33.893 133.14 33.317C132.606 32.735 132.192 32.039 131.898 31.229C131.604 30.419 131.457 29.528 131.457 28.556C131.457 27.584 131.61 26.693 131.916 25.883C132.222 25.073 132.651 24.377 133.203 23.795C133.761 23.213 134.427 22.763 135.201 22.445C135.975 22.121 136.83 21.959 137.766 21.959C138.684 21.959 139.494 22.106 140.196 22.4C140.898 22.694 141.516 23.093 142.05 23.597L141.474 24.398C141.438 24.458 141.39 24.509 141.33 24.551C141.276 24.587 141.201 24.605 141.105 24.605C140.997 24.605 140.865 24.548 140.709 24.434C140.553 24.314 140.349 24.182 140.097 24.038C139.845 23.894 139.53 23.765 139.152 23.651C138.774 23.531 138.309 23.471 137.757 23.471C137.091 23.471 136.482 23.588 135.93 23.822C135.378 24.05 134.901 24.383 134.499 24.821C134.103 25.259 133.794 25.793 133.572 26.423C133.35 27.053 133.239 27.764 133.239 28.556C133.239 29.36 133.353 30.077 133.581 30.707C133.815 31.337 134.13 31.871 134.526 32.309C134.928 32.741 135.399 33.071 135.939 33.299C136.485 33.527 137.073 33.641 137.703 33.641C138.087 33.641 138.432 33.62 138.738 33.578C139.05 33.53 139.335 33.458 139.593 33.362C139.857 33.266 140.1 33.146 140.322 33.002C140.55 32.852 140.775 32.675 140.997 32.471C141.099 32.381 141.201 32.336 141.303 32.336ZM145.55 21.743V35H143.948V21.743H145.55ZM153.089 30.896C152.351 30.92 151.721 30.98 151.199 31.076C150.683 31.166 150.26 31.286 149.93 31.436C149.606 31.586 149.369 31.763 149.219 31.967C149.075 32.171 149.003 32.399 149.003 32.651C149.003 32.891 149.042 33.098 149.12 33.272C149.198 33.446 149.303 33.59 149.435 33.704C149.573 33.812 149.732 33.893 149.912 33.947C150.098 33.995 150.296 34.019 150.506 34.019C150.788 34.019 151.046 33.992 151.28 33.938C151.514 33.878 151.733 33.794 151.937 33.686C152.147 33.578 152.345 33.449 152.531 33.299C152.723 33.149 152.909 32.978 153.089 32.786V30.896ZM147.914 27.17C148.418 26.684 148.961 26.321 149.543 26.081C150.125 25.841 150.77 25.721 151.478 25.721C151.988 25.721 152.441 25.805 152.837 25.973C153.233 26.141 153.566 26.375 153.836 26.675C154.106 26.975 154.31 27.338 154.448 27.764C154.586 28.19 154.655 28.658 154.655 29.168V35H153.944C153.788 35 153.668 34.976 153.584 34.928C153.5 34.874 153.434 34.772 153.386 34.622L153.206 33.758C152.966 33.98 152.732 34.178 152.504 34.352C152.276 34.52 152.036 34.664 151.784 34.784C151.532 34.898 151.262 34.985 150.974 35.045C150.692 35.111 150.377 35.144 150.029 35.144C149.675 35.144 149.342 35.096 149.03 35C148.718 34.898 148.445 34.748 148.211 34.55C147.983 34.352 147.8 34.103 147.662 33.803C147.53 33.497 147.464 33.137 147.464 32.723C147.464 32.363 147.563 32.018 147.761 31.688C147.959 31.352 148.28 31.055 148.724 30.797C149.168 30.539 149.747 30.329 150.461 30.167C151.175 29.999 152.051 29.903 153.089 29.879V29.168C153.089 28.46 152.936 27.926 152.63 27.566C152.324 27.2 151.877 27.017 151.289 27.017C150.893 27.017 150.56 27.068 150.29 27.17C150.026 27.266 149.795 27.377 149.597 27.503C149.405 27.623 149.237 27.734 149.093 27.836C148.955 27.932 148.817 27.98 148.679 27.98C148.571 27.98 148.478 27.953 148.4 27.899C148.322 27.839 148.256 27.767 148.202 27.683L147.914 27.17ZM158.787 25.883V35H157.185V25.883H158.787ZM159.129 23.021C159.129 23.177 159.096 23.324 159.03 23.462C158.97 23.594 158.886 23.714 158.778 23.822C158.676 23.924 158.553 24.005 158.409 24.065C158.271 24.125 158.124 24.155 157.968 24.155C157.812 24.155 157.665 24.125 157.527 24.065C157.395 24.005 157.278 23.924 157.176 23.822C157.074 23.714 156.993 23.594 156.933 23.462C156.873 23.324 156.843 23.177 156.843 23.021C156.843 22.865 156.873 22.718 156.933 22.58C156.993 22.436 157.074 22.313 157.176 22.211C157.278 22.103 157.395 22.019 157.527 21.959C157.665 21.899 157.812 21.869 157.968 21.869C158.124 21.869 158.271 21.899 158.409 21.959C158.553 22.019 158.676 22.103 158.778 22.211C158.886 22.313 158.97 22.436 159.03 22.58C159.096 22.718 159.129 22.865 159.129 23.021ZM161.419 35V25.883H162.382C162.61 25.883 162.751 25.994 162.805 26.216L162.922 27.152C163.258 26.738 163.636 26.399 164.056 26.135C164.476 25.871 164.962 25.739 165.514 25.739C166.126 25.739 166.621 25.91 166.999 26.252C167.383 26.594 167.659 27.056 167.827 27.638C167.959 27.308 168.127 27.023 168.331 26.783C168.541 26.543 168.775 26.345 169.033 26.189C169.291 26.033 169.564 25.919 169.852 25.847C170.146 25.775 170.443 25.739 170.743 25.739C171.223 25.739 171.649 25.817 172.021 25.973C172.399 26.123 172.717 26.345 172.975 26.639C173.239 26.933 173.44 27.296 173.578 27.728C173.716 28.154 173.785 28.643 173.785 29.195V35H172.174V29.195C172.174 28.481 172.018 27.941 171.706 27.575C171.394 27.203 170.944 27.017 170.356 27.017C170.092 27.017 169.84 27.065 169.6 27.161C169.366 27.251 169.159 27.386 168.979 27.566C168.799 27.746 168.655 27.974 168.547 28.25C168.445 28.52 168.394 28.835 168.394 29.195V35H166.783V29.195C166.783 28.463 166.636 27.917 166.342 27.557C166.048 27.197 165.619 27.017 165.055 27.017C164.659 27.017 164.293 27.125 163.957 27.341C163.621 27.551 163.312 27.839 163.03 28.205V35H161.419ZM181.53 27.386C181.458 27.518 181.347 27.584 181.197 27.584C181.107 27.584 181.005 27.551 180.891 27.485C180.777 27.419 180.636 27.347 180.468 27.269C180.306 27.185 180.111 27.11 179.883 27.044C179.655 26.972 179.385 26.936 179.073 26.936C178.803 26.936 178.56 26.972 178.344 27.044C178.128 27.11 177.942 27.203 177.786 27.323C177.636 27.443 177.519 27.584 177.435 27.746C177.357 27.902 177.318 28.073 177.318 28.259C177.318 28.493 177.384 28.688 177.516 28.844C177.654 29 177.834 29.135 178.056 29.249C178.278 29.363 178.53 29.465 178.812 29.555C179.094 29.639 179.382 29.732 179.676 29.834C179.976 29.93 180.267 30.038 180.549 30.158C180.831 30.278 181.083 30.428 181.305 30.608C181.527 30.788 181.704 31.01 181.836 31.274C181.974 31.532 182.043 31.844 182.043 32.21C182.043 32.63 181.968 33.02 181.818 33.38C181.668 33.734 181.446 34.043 181.152 34.307C180.858 34.565 180.498 34.769 180.072 34.919C179.646 35.069 179.154 35.144 178.596 35.144C177.96 35.144 177.384 35.042 176.868 34.838C176.352 34.628 175.914 34.361 175.554 34.037L175.932 33.425C175.98 33.347 176.037 33.287 176.103 33.245C176.169 33.203 176.253 33.182 176.355 33.182C176.463 33.182 176.577 33.224 176.697 33.308C176.817 33.392 176.961 33.485 177.129 33.587C177.303 33.689 177.513 33.782 177.759 33.866C178.005 33.95 178.311 33.992 178.677 33.992C178.989 33.992 179.262 33.953 179.496 33.875C179.73 33.791 179.925 33.68 180.081 33.542C180.237 33.404 180.351 33.245 180.423 33.065C180.501 32.885 180.54 32.693 180.54 32.489C180.54 32.237 180.471 32.03 180.333 31.868C180.201 31.7 180.024 31.559 179.802 31.445C179.58 31.325 179.325 31.223 179.037 31.139C178.755 31.049 178.464 30.956 178.164 30.86C177.87 30.764 177.579 30.656 177.291 30.536C177.009 30.41 176.757 30.254 176.535 30.068C176.313 29.882 176.133 29.654 175.995 29.384C175.863 29.108 175.797 28.775 175.797 28.385C175.797 28.037 175.869 27.704 176.013 27.386C176.157 27.062 176.367 26.78 176.643 26.54C176.919 26.294 177.258 26.099 177.66 25.955C178.062 25.811 178.521 25.739 179.037 25.739C179.637 25.739 180.174 25.835 180.648 26.027C181.128 26.213 181.542 26.471 181.89 26.801L181.53 27.386ZM75.368 41.57H71.192V53H69.455V41.57H65.27V40.103H75.368V41.57ZM76.4384 45.71C76.7264 45.086 77.0804 44.6 77.5004 44.252C77.9204 43.898 78.4334 43.721 79.0394 43.721C79.2314 43.721 79.4144 43.742 79.5884 43.784C79.7684 43.826 79.9274 43.892 80.0654 43.982L79.9484 45.179C79.9124 45.329 79.8224 45.404 79.6784 45.404C79.5944 45.404 79.4714 45.386 79.3094 45.35C79.1474 45.314 78.9644 45.296 78.7604 45.296C78.4724 45.296 78.2144 45.338 77.9864 45.422C77.7644 45.506 77.5634 45.632 77.3834 45.8C77.2094 45.962 77.0504 46.166 76.9064 46.412C76.7684 46.652 76.6424 46.928 76.5284 47.24V53H74.9174V43.883H75.8354C76.0094 43.883 76.1294 43.916 76.1954 43.982C76.2614 44.048 76.3064 44.162 76.3304 44.324L76.4384 45.71ZM83.1661 43.883V53H81.5641V43.883H83.1661ZM83.5081 41.021C83.5081 41.177 83.4751 41.324 83.4091 41.462C83.3491 41.594 83.2651 41.714 83.1571 41.822C83.0551 41.924 82.9321 42.005 82.7881 42.065C82.6501 42.125 82.5031 42.155 82.3471 42.155C82.1911 42.155 82.0441 42.125 81.9061 42.065C81.7741 42.005 81.6571 41.924 81.5551 41.822C81.4531 41.714 81.3721 41.594 81.3121 41.462C81.2521 41.324 81.2221 41.177 81.2221 41.021C81.2221 40.865 81.2521 40.718 81.3121 40.58C81.3721 40.436 81.4531 40.313 81.5551 40.211C81.6571 40.103 81.7741 40.019 81.9061 39.959C82.0441 39.899 82.1911 39.869 82.3471 39.869C82.5031 39.869 82.6501 39.899 82.7881 39.959C82.9321 40.019 83.0551 40.103 83.1571 40.211C83.2651 40.313 83.3491 40.436 83.4091 40.58C83.4751 40.718 83.5081 40.865 83.5081 41.021ZM87.4093 50.804C87.7033 51.2 88.0243 51.479 88.3723 51.641C88.7263 51.803 89.1133 51.884 89.5333 51.884C90.3913 51.884 91.0483 51.581 91.5043 50.975C91.9603 50.369 92.1883 49.466 92.1883 48.266C92.1883 47.15 91.9843 46.331 91.5763 45.809C91.1743 45.281 90.5983 45.017 89.8483 45.017C89.3263 45.017 88.8703 45.137 88.4803 45.377C88.0963 45.617 87.7393 45.956 87.4093 46.394V50.804ZM87.4093 45.197C87.7933 44.753 88.2253 44.399 88.7053 44.135C89.1913 43.871 89.7493 43.739 90.3793 43.739C90.9133 43.739 91.3933 43.841 91.8193 44.045C92.2513 44.249 92.6173 44.546 92.9173 44.936C93.2173 45.32 93.4453 45.788 93.6013 46.34C93.7633 46.892 93.8443 47.513 93.8443 48.203C93.8443 48.941 93.7543 49.613 93.5743 50.219C93.3943 50.825 93.1333 51.344 92.7913 51.776C92.4553 52.202 92.0443 52.535 91.5583 52.775C91.0723 53.009 90.5263 53.126 89.9203 53.126C89.3203 53.126 88.8133 53.015 88.3993 52.793C87.9913 52.565 87.6343 52.244 87.3283 51.83L87.2473 52.658C87.1993 52.886 87.0613 53 86.8333 53H85.7983V39.743H87.4093V45.197ZM103.368 43.883V53H102.414C102.186 53 102.042 52.889 101.982 52.667L101.856 51.686C101.46 52.124 101.016 52.478 100.524 52.748C100.032 53.012 99.4676 53.144 98.8316 53.144C98.3336 53.144 97.8926 53.063 97.5086 52.901C97.1306 52.733 96.8126 52.499 96.5546 52.199C96.2966 51.899 96.1016 51.536 95.9696 51.11C95.8436 50.684 95.7806 50.213 95.7806 49.697V43.883H97.3826V49.697C97.3826 50.387 97.5386 50.921 97.8506 51.299C98.1686 51.677 98.6516 51.866 99.2996 51.866C99.7736 51.866 100.215 51.755 100.623 51.533C101.037 51.305 101.418 50.993 101.766 50.597V43.883H103.368ZM107.42 45.206C107.618 44.984 107.828 44.783 108.05 44.603C108.272 44.423 108.506 44.27 108.752 44.144C109.004 44.012 109.268 43.913 109.544 43.847C109.826 43.775 110.129 43.739 110.453 43.739C110.951 43.739 111.389 43.823 111.767 43.991C112.151 44.153 112.469 44.387 112.721 44.693C112.979 44.993 113.174 45.356 113.306 45.782C113.438 46.208 113.504 46.679 113.504 47.195V53H111.893V47.195C111.893 46.505 111.734 45.971 111.416 45.593C111.104 45.209 110.627 45.017 109.985 45.017C109.511 45.017 109.067 45.131 108.653 45.359C108.245 45.587 107.867 45.896 107.519 46.286V53H105.908V43.883H106.871C107.099 43.883 107.24 43.994 107.294 44.216L107.42 45.206ZM120.886 48.896C120.148 48.92 119.518 48.98 118.996 49.076C118.48 49.166 118.057 49.286 117.727 49.436C117.403 49.586 117.166 49.763 117.016 49.967C116.872 50.171 116.8 50.399 116.8 50.651C116.8 50.891 116.839 51.098 116.917 51.272C116.995 51.446 117.1 51.59 117.232 51.704C117.37 51.812 117.529 51.893 117.709 51.947C117.895 51.995 118.093 52.019 118.303 52.019C118.585 52.019 118.843 51.992 119.077 51.938C119.311 51.878 119.53 51.794 119.734 51.686C119.944 51.578 120.142 51.449 120.328 51.299C120.52 51.149 120.706 50.978 120.886 50.786V48.896ZM115.711 45.17C116.215 44.684 116.758 44.321 117.34 44.081C117.922 43.841 118.567 43.721 119.275 43.721C119.785 43.721 120.238 43.805 120.634 43.973C121.03 44.141 121.363 44.375 121.633 44.675C121.903 44.975 122.107 45.338 122.245 45.764C122.383 46.19 122.452 46.658 122.452 47.168V53H121.741C121.585 53 121.465 52.976 121.381 52.928C121.297 52.874 121.231 52.772 121.183 52.622L121.003 51.758C120.763 51.98 120.529 52.178 120.301 52.352C120.073 52.52 119.833 52.664 119.581 52.784C119.329 52.898 119.059 52.985 118.771 53.045C118.489 53.111 118.174 53.144 117.826 53.144C117.472 53.144 117.139 53.096 116.827 53C116.515 52.898 116.242 52.748 116.008 52.55C115.78 52.352 115.597 52.103 115.459 51.803C115.327 51.497 115.261 51.137 115.261 50.723C115.261 50.363 115.36 50.018 115.558 49.688C115.756 49.352 116.077 49.055 116.521 48.797C116.965 48.539 117.544 48.329 118.258 48.167C118.972 47.999 119.848 47.903 120.886 47.879V47.168C120.886 46.46 120.733 45.926 120.427 45.566C120.121 45.2 119.674 45.017 119.086 45.017C118.69 45.017 118.357 45.068 118.087 45.17C117.823 45.266 117.592 45.377 117.394 45.503C117.202 45.623 117.034 45.734 116.89 45.836C116.752 45.932 116.614 45.98 116.476 45.98C116.368 45.98 116.275 45.953 116.197 45.899C116.119 45.839 116.053 45.767 115.999 45.683L115.711 45.17ZM126.548 39.743V53H124.946V39.743H126.548Z"
          fill="#ffffff" />
</svg>